<svg width="44" height="42" viewBox="0 0 44 42" xmlns="http://www.w3.org/2000/svg" xmlns:xlink="http://www.w3.org/1999/xlink"><title>Vector</title><desc>Created using Figma</desc><use xlink:href="#a" transform="translate(.1 .6)"/><defs><path id="a" d="M24.776 19.992h9.29a6.219 6.219 0 0 0 4.551-1.92c1.056-1.085 1.829-2.579 2.233-4.32.452-1.943.68-2.734 1.232-3.779a.79.79 0 0 0 .053-.097c.286-.532.658-1.138 1.184-1.994a2.73 2.73 0 0 0 .314-2.218c-.295-1.05-1.22-2.06-2.472-2.702-.955-.488-2.172-.494-3.617-.017-1.175.388-2.478 1.097-3.805 1.988a.795.795 0 0 0-.2.136c-3.378 2.31-6.877 5.753-8.793 8.038a2.239 2.239 0 0 0-.906-2.384 9.904 9.904 0 0 1 7.311-9.146.802.802 0 0 0-.416-1.55c-4.75 1.276-8.14 5.447-8.48 10.302h-.865c-.339-4.855-3.73-9.026-8.48-10.301a.802.802 0 0 0-.416 1.55 9.905 9.905 0 0 1 7.311 9.145 2.237 2.237 0 0 0-.937 2.234c-1.94-2.284-5.362-5.627-8.667-7.888a.8.8 0 0 0-.2-.136c-1.326-.89-2.63-1.6-3.805-1.988-1.445-.477-2.662-.471-3.617.017C1.327 3.603.403 4.613.108 5.664a2.73 2.73 0 0 0 .314 2.218c.525.857.897 1.462 1.184 1.994a.819.819 0 0 0 .052.097c.552 1.045.78 1.836 1.232 3.779.405 1.741 1.177 3.235 2.233 4.32a6.219 6.219 0 0 0 4.551 1.92h9.195c.08.52.295 1.005.628 1.416v2.945c-.89.867-3.137 2.927-5.521 4.616-3.295 2.332-5.01 2.632-5.517 2.134l-.002-.001c-.543-.54.138-3.587 4.226-8.509a.802.802 0 0 0-1.235-1.025c-1.843 2.22-3.238 4.347-4.034 6.15-.729 1.653-.91 2.94-.541 3.84l-2.997 2.984a8.495 8.495 0 0 1-.86-3.734c0-2.36 1.7-4.783 5.684-8.105a.802.802 0 1 0-1.028-1.233c-3.095 2.582-6.26 5.71-6.26 9.338 0 5.598 4.555 10.152 10.153 10.152 3.519 0 6.781-1.87 8.617-4.803a2.318 2.318 0 0 0 3.34-.06c1.828 2.968 5.11 4.863 8.653 4.863 5.598 0 10.153-4.554 10.153-10.152 0-3.622-3.15-6.74-6.23-9.313a.802.802 0 1 0-1.029 1.232c3.963 3.31 5.654 5.726 5.654 8.081a8.496 8.496 0 0 1-.859 3.734l-2.997-2.983c.367-.9.189-2.182-.535-3.828-.792-1.798-2.18-3.92-4.016-6.134a.802.802 0 0 0-1.236 1.024c4.068 4.907 4.745 7.943 4.203 8.48l-.001.002c-.507.498-2.222.198-5.517-2.134-2.475-1.752-4.803-3.906-5.617-4.709v-2.852c.334-.41.549-.897.628-1.416zm9.29-1.605h-2.85a46.72 46.72 0 0 0 2.376-2.628l4.88-.206c-.75 1.388-2.09 2.834-4.406 2.834zm3.98-13.918c1.023-.338 1.825-.364 2.384-.078.849.434 1.484 1.088 1.658 1.707.093.333.049.642-.137.945a59.214 59.214 0 0 0-1.036 1.73l-2.983.176c.691-1.82.644-3.17-.151-3.954a2.023 2.023 0 0 0-.37-.289c.216-.09.428-.169.636-.237zM37.17 10.6l2.946-.173c-.291.758-.515 1.611-.828 2.96a9.1 9.1 0 0 1-.142.531l-4.238.179c.867-1.16 1.606-2.29 2.183-3.35l.079-.147zm-12.36 5.128l.012-.023c.619-1.25 5.206-6.324 9.585-9.313 1.315-.525 2.032-.466 2.246-.255.252.249.373 1.372-.973 3.844-1.248 2.294-3.318 4.96-5.828 7.506-.298.302-.604.604-.912.9h-4.13v-2.66zM2.825 8.773a59.172 59.172 0 0 0-1.036-1.73 1.134 1.134 0 0 1-.137-.945c.174-.619.81-1.273 1.658-1.707.559-.286 1.36-.26 2.383.078.209.068.42.148.636.237a2.02 2.02 0 0 0-.37.289c-.795.784-.842 2.135-.15 3.954l-2.984-.176zm1.77 5.146a8.725 8.725 0 0 1-.143-.53c-.313-1.35-.537-2.202-.828-2.961l2.946.173c.026.05.052.098.08.147.576 1.06 1.315 2.191 2.182 3.35l-4.238-.179zm5.08 4.468c-2.317 0-3.656-1.447-4.407-2.834l4.88.206a46.97 46.97 0 0 0 2.375 2.628H9.674zm9.159 0H14.8a47.266 47.266 0 0 1-.913-.9c-2.51-2.546-4.58-5.212-5.828-7.506-1.346-2.472-1.225-3.595-.973-3.844.215-.211.931-.27 2.246.255 4.22 2.88 8.632 7.696 9.502 9.161v2.834zm-7.92 20.944a8.547 8.547 0 0 1-6.176-3.384l3.26-3.244c1.37.61 3.506-.093 6.48-2.13l-3.565 8.758zm8.583-5.35a8.632 8.632 0 0 1-6.832 5.302l4.303-10.571a57.269 57.269 0 0 0 2.53-2.162v7.431zm3.355-19.742c.229.255.355.583.355.922v4.373c0 .374-.15.726-.421.99a.803.803 0 0 0-.243.575V34.51a.722.722 0 0 1-1.441 0V21.1a.802.802 0 0 0-.243-.575 1.372 1.372 0 0 1-.42-.99v-4.373c0-.34.126-.667.355-.921a.802.802 0 0 0-.107-1.171.63.63 0 0 1 .384-1.135h1.503a.634.634 0 0 1 .384 1.135.803.803 0 0 0-.106 1.17zm12.89 18.463l3.26 3.245a8.546 8.546 0 0 1-6.175 3.384l-3.565-8.757c2.974 2.036 5.109 2.74 6.48 2.128zm-8.97-3.99l4.303 10.571a8.63 8.63 0 0 1-6.886-5.437.829.829 0 0 0-.041-.091v-7.292a57.19 57.19 0 0 0 2.624 2.249z"/></defs></svg>