<svg width="28" height="30" viewBox="0 0 28 30" xmlns="http://www.w3.org/2000/svg" xmlns:xlink="http://www.w3.org/1999/xlink"><title>Group</title><desc>Created using Figma</desc><use xlink:href="#a" transform="translate(.01 .2)" fill="#464A57"/><use xlink:href="#b" transform="translate(.01 22)" fill="#464A57"/><use xlink:href="#c" transform="translate(.01 10.9)" fill="#464A57"/><defs><path id="a" d="M3.626 7.252a3.63 3.63 0 0 0 3.585-3.108h20.245a.518.518 0 1 0 0-1.036H7.21A3.63 3.63 0 0 0 3.626 0 3.63 3.63 0 0 0 0 3.626c0 2 1.627 3.626 3.626 3.626zm0-6.216a2.593 2.593 0 0 1 2.59 2.59 2.593 2.593 0 0 1-2.59 2.59 2.593 2.593 0 0 1-2.59-2.59 2.593 2.593 0 0 1 2.59-2.59z"/><path id="b" d="M24.347 0a3.63 3.63 0 0 0-3.584 3.108H.518a.518.518 0 1 0 0 1.036h20.245a3.63 3.63 0 0 0 3.584 3.108c2 0 3.627-1.627 3.627-3.626A3.631 3.631 0 0 0 24.347 0zm0 6.216a2.593 2.593 0 0 1-2.59-2.59 2.593 2.593 0 0 1 2.59-2.59 2.593 2.593 0 0 1 2.59 2.59 2.593 2.593 0 0 1-2.59 2.59z"/><path id="c" d="M27.456 3.323h-9.652A3.738 3.738 0 0 0 14.094 0a3.738 3.738 0 0 0-3.71 3.323H.518a.518.518 0 1 0 0 1.036h9.899a3.737 3.737 0 0 0 3.677 3.108 3.736 3.736 0 0 0 3.676-3.108h9.686a.518.518 0 1 0 0-1.036zM14.094 6.43a2.7 2.7 0 0 1-2.697-2.698 2.7 2.7 0 0 1 2.697-2.697 2.7 2.7 0 0 1 2.697 2.697 2.7 2.7 0 0 1-2.697 2.698z"/></defs></svg>