<svg viewBox="0 0 25 25" xmlns="http://www.w3.org/2000/svg" xmlns:xlink="http://www.w3.org/1999/xlink"><title>Stroke 481</title><desc>Created using Figma</desc><use xlink:href="#a" transform="translate(1 1)" fill="#EC5A6F"/><defs><path id="a" d="M8.49 3.272l.353-.354-.353.354zM5.913.707l-.353.355.353-.355zm-3.434 0l.353.355-.353-.355zM1.065 2.115L.713 1.76l.352.354zM.606 6.678l.417-.276-.417.276zm15.786 15.72l-.274.418.274-.418zm4.582-.458l-.353-.355.353.355zm1.415-1.408l-.353-.354.353.354zm0-3.42l.353-.353-.353.354zm-2.577-2.563l-.353.354.353-.354zm-3.434 0l.352.355-.352-.355zm-.859.854l-.316.387a.5.5 0 0 0 .669-.033l-.353-.354zM7.631 7.548l-.353-.354a.5.5 0 0 0-.033.671l.386-.317zm1.212-.501a2.914 2.914 0 0 0 0-4.129l-.707.708c.752.75.752 1.964 0 2.713l.707.708zm0-4.13L6.265.354l-.706.709 2.577 2.564.705-.708zM6.265.354a2.938 2.938 0 0 0-4.14 0l.706.709a1.938 1.938 0 0 1 2.728 0l.706-.709zm-4.14 0L.713 1.761l.705.708 1.414-1.407-.706-.709zM.713 1.761A4.11 4.11 0 0 0 .19 6.955l.833-.553a3.11 3.11 0 0 1 .395-3.933l-.705-.708zM.19 6.955c4.134 6.22 9.68 11.743 15.928 15.86l.55-.835A55.608 55.608 0 0 1 1.023 6.402l-.833.553zm15.928 15.86a4.151 4.151 0 0 0 5.21-.521l-.707-.708a3.151 3.151 0 0 1-3.954.394l-.55.836zm5.209-.52l1.414-1.408-.705-.71-1.415 1.408.706.71zm1.414-1.408a2.91 2.91 0 0 0 0-4.128l-.705.708a1.91 1.91 0 0 1 0 2.71l.705.71zm0-4.129l-2.576-2.563-.706.709 2.577 2.563.705-.709zm-2.576-2.563a2.933 2.933 0 0 0-4.14 0l.706.708a1.933 1.933 0 0 1 2.728 0l.706-.708zm-4.14 0l-.858.853.705.71.858-.854-.705-.71zm-.19.82A56.738 56.738 0 0 1 8.018 7.23l-.772.635a58.186 58.186 0 0 0 7.958 7.925l.633-.775zM7.984 7.902l.859-.855-.706-.708-.859.855.706.708z"/></defs></svg>