<svg viewBox="0 0 25 17" xmlns="http://www.w3.org/2000/svg" xmlns:xlink="http://www.w3.org/1999/xlink"><title>Stroke 564 + Stroke 565</title><desc>Created using Figma</desc><use xlink:href="#a" transform="translate(1 1)" fill="#ED6478"/><use xlink:href="#b" transform="translate(1.5 1.5)" fill="#ED6478"/><defs><path id="a" d="M22.5 13.69c0 .631-.512 1.143-1.143 1.143v1c1.183 0 2.143-.96 2.143-2.143h-1zm-1.143 1.143H1.643v1h19.714v-1zm-19.714 0c-.63 0-1.143-.512-1.143-1.143h-1c0 1.184.96 2.143 2.143 2.143v-1zM.5 13.69V1.643h-1V13.69h1zm0-12.047C.5 1.01 1.012.5 1.643.5v-1A2.143 2.143 0 0 0-.5 1.643h1zM1.643.5h19.714v-1H1.643v1zm19.714 0c.631 0 1.143.511 1.143 1.143h1C23.5.459 22.54-.5 21.357-.5v1zM22.5 1.643V13.69h1V1.643h-1z"/><path id="b" d="M22.217.39a.5.5 0 0 0-.625-.78l.625.78zM10.952 8.762l-.312.39a.5.5 0 0 0 .625 0l-.313-.39zM.312-.39a.5.5 0 0 0-.624.78l.624-.78zm21.28 0L10.64 8.37l.625.781L22.217.39l-.625-.78zM11.265 8.37L.312-.39l-.624.78L10.64 9.152l.625-.78z"/></defs></svg>