<svg viewBox="0 0 25 24" xmlns="http://www.w3.org/2000/svg" xmlns:xlink="http://www.w3.org/1999/xlink"><title>Stroke 8186 + Stroke 8187 + Stroke 8188</title><desc>Created using Figma</desc><use xlink:href="#a" transform="translate(4 13)" fill="#ED6478"/><use xlink:href="#b" transform="translate(1 1)" fill="#ED6478"/><use xlink:href="#c" transform="translate(16.5 2)" fill="#ED6478"/><defs><path id="a" d="M.5 0a.5.5 0 0 0-1 0h1zM0 10h-.5a.5.5 0 0 0 .5.5V10zm6 0v.5a.5.5 0 0 0 .5-.5H6zm0-7v-.5a.5.5 0 0 0-.5.5H6zm5 0h.5a.5.5 0 0 0-.5-.5V3zm0 7h-.5a.5.5 0 0 0 .5.5V10zm6 0v.5a.5.5 0 0 0 .5-.5H17zm.5-9.5a.5.5 0 0 0-1 0h1zM-.5 0v10h1V0h-1zM0 10.5h6v-1H0v1zm6.5-.5V3h-1v7h1zM6 3.5h5v-1H6v1zm4.5-.5v7h1V3h-1zm.5 7.5h6v-1h-6v1zm6.5-.5V.5h-1V10h1z"/><path id="b" d="M-.354 11.146a.5.5 0 0 0 .708.708l-.708-.708zM11.5 0l.354-.354a.5.5 0 0 0-.708 0L11.5 0zm11.146 11.854a.5.5 0 0 0 .708-.708l-.708.708zm-22.292 0l11.5-11.5-.708-.708-11.5 11.5.708.708zM11.146.354l11.5 11.5.708-.708-11.5-11.5-.708.708z"/><path id="c" d="M0-.5a.5.5 0 0 0 0 1v-1zm3.5.5H4a.5.5 0 0 0-.5-.5V0zM3 3.5a.5.5 0 0 0 1 0H3zm-3-3h3.5v-1H0v1zM3 0v3.5h1V0H3z"/></defs></svg>