<svg viewBox="0 0 25 25" xmlns="http://www.w3.org/2000/svg" xmlns:xlink="http://www.w3.org/1999/xlink"><title>Stroke 3500 + Stroke 3501</title><desc>Created using Figma</desc><use xlink:href="#a" transform="translate(1 1)" fill="#EC5A6F"/><use xlink:href="#b" transform="translate(12 7)" fill="#EC5A6F"/><defs><path id="a" d="M22.599 11.5c0 6.074-4.946 11-11.05 11v1c6.652 0 12.05-5.37 12.05-12h-1zm-11.05 11C5.442 22.5.5 17.574.5 11.5h-1c0 6.63 5.394 12 12.05 12v-1zM.5 11.5C.5 5.426 5.442.5 11.55.5v-1C4.894-.5-.5 4.87-.5 11.5h1zM11.55.5c6.103 0 11.049 4.926 11.049 11h1c0-6.63-5.398-12-12.05-12v1z"/><path id="b" d="M.5 0a.5.5 0 0 0-1 0h1zM0 5.5h-.5a.5.5 0 0 0 .163.37L0 5.5zm5.689 5.87a.5.5 0 1 0 .674-.74l-.674.74zM-.5 0v5.5h1V0h-1zm.163 5.87l6.026 5.5.674-.74-6.026-5.5-.674.74z"/></defs></svg>