<svg viewBox="0 0 167 170" xmlns="http://www.w3.org/2000/svg" xmlns:xlink="http://www.w3.org/1999/xlink"><title>Mask Group</title><desc>Created using Figma</desc><g transform="translate(-20425 -12339)"><mask id="b"><use xlink:href="#a" transform="translate(20229 12310)" fill="#A6EEE8"/></mask><g mask="url(#b)"><use xlink:href="#c" transform="translate(20425 12339)" fill="#FFF" fill-opacity=".25"/></g></g><defs><path id="a" d="M0 0h558v227H0V0z"/><path id="c" d="M156.109 84.881c1.035-2.326 2.079-4.641 3.029-6.749 5.44-12.06 5.414-12.163 5.103-13.43-4.194-17.03-21.919-25.021-26.39-26.788-2.356-5.493-6.76-11.704-14.98-16.394-13.57-7.743-18.814-19.321-18.863-19.432a2.776 2.776 0 0 0-2.092-1.622c-.3-.05-7.46-1.21-15.867.33C78.72 2.14 72.714 5.127 68.26 9.58c-4.782-3.817-11.28-5.218-15.902-5.72-4.587-.497-9.093-.284-10.18.081-.908.305-1.626 1.07-1.846 1.993-.668 2.793-2.746 5.936-4.756 8.977-3.177 4.806-6.455 9.766-5.74 15.078C18.55 35.88 6.59 47.005 4.8 48.698a2.74 2.74 0 0 0-.71 1.097c-.094.27-2.305 6.71-3.436 15.286C-.891 76.804.305 86.459 4.209 93.776c.116.218.241.427.362.64-3.57 6.464-2.19 12.357-.97 17.559.95 4.052 1.77 7.551.432 11.063a2.76 2.76 0 0 0 .248 2.441c.997 1.582 13.984 10.761 27.654 12.166.229.915.523 1.841.908 2.77 3.11 7.5 10.652 13.481 22.415 17.775 6.02 2.198 10.272 4.283 14.024 6.123 4.646 2.277 8.658 4.245 13.919 5.263 1.467.283 2.962.424 4.477.424 7.136 0 14.694-3.119 21.709-9.041 1.406-1.186 3.417-2.347 5.545-3.577 7.313-4.223 17.281-9.99 16.713-24.725a46.358 46.358 0 0 0 3.758-2.275c.179.183.385.345.619.477 1.112.628 2.217.908 3.317.908 4.915 0 9.719-5.609 14.393-11.065 3.503-4.091 7.475-8.728 10.705-10.005.828-.328 2.258-1.253 2.521-3.764.54-5.136-4.151-16.797-10.849-22.052zm2.556-19.517c-.594 1.62-2.715 6.324-4.61 10.524-2.823 6.26-5.285 11.767-7.028 16.014-.305-.941-.62-1.888-.937-2.841-1.55-4.658-3.153-9.475-3.774-14.25-.585-4.5-1.829-8.377-3.708-11.611 2.074-5.374 2.569-11.988 1.391-18.213 6.024 3.143 15.722 9.698 18.666 20.377zm-36.143 65.628c-5.642 2.624-12.037 5.599-18.533 11.242-8.38 7.279-18.988 4.781-25.9-.819 1.867-1.34 3.623-2.962 5.242-4.855 6.526-.812 13.216-3.127 19.52-6.869 11.465-6.802 20.208-17.516 23.988-29.394 4.876-15.323-.317-32.112-8.524-42.812 2.918.07 7.251.713 10.991 3.438 4.1 2.988 6.62 7.897 7.49 14.591.688 5.297 2.375 10.366 4.007 15.27 2.529 7.6 4.919 14.778 2.574 20.636-4.855 12.129-11.916 15.413-20.855 19.572zm-88.588-15.699c-2.371-5.096-5.321-8.453-7.924-11.414-3.583-4.078-6.413-7.299-7.333-14.042-2.131-15.62 7.798-30.697 18.222-36.953 2.87-1.722 5.574-2.64 7.806-2.717-6.062 6.694-12.807 17.751-12.585 28.606.133 6.538 2.772 11.925 7.843 16.011a32.706 32.706 0 0 0 4.14 2.848c-1.587 4.861-.856 12.035 2.017 18.609 2.42 5.54 8.496 15.411 21.98 19.279 2.255.647 4.6 1.058 7 1.247-3.98 2.968-8.52 4.216-13.372 3.631-10.526-1.267-21.176-10.887-27.794-25.105zM48.6 27.045c4.481-3.356 13.745-7.97 25.44-1.163 8.465 4.929 16.673 6.8 23.267 8.302 9.079 2.07 13.903 3.404 15.762 8.878 1.238 3.65-1.194 6.052-2.33 6.935-5.743-4.106-11.895-5.328-17.343-3.369-2.806-2.557-6.145-4.602-9.944-6.036-11.365-4.291-24.414-2.33-33.81 4.94-3.46-1.45-7.811-1.105-12.479.99.224-6.738 5.633-15.13 11.438-19.477zm21.05 103.186c-11.293-3.24-16.389-11.525-18.421-16.175-2.421-5.54-2.82-10.866-2.019-14.087 1.23.425 2.478.76 3.742 1.005 2.926 7.194 10.436 12.98 19.13 14.601 1.695.316 3.388.472 5.069.472 8.844 0 17.349-4.312 23.907-12.278 7.589-9.221 14.617-21.89 1.936-38.372-.753-5.336-2.633-10.113-5.48-14.118 5.105-.613 9.804 2.792 12.354 5.118 9.564 8.725 16.541 26.912 11.662 42.246-3.377 10.611-11.229 20.206-21.542 26.325-10.084 5.984-21.142 7.901-30.338 5.263zM51.809 50.903c7.817-6.837 19.736-8.912 29.659-5.166 3.969 1.5 10.083 4.898 13.603 12.22-4.43-2.939-9.548-4.773-14.88-5.239-7.025-.612-13.636 1.317-18.143 5.297-8.18 7.225-11.179 16.105-8.225 24.362 2.091 5.849 7.037 10.523 12.464 12.126-5.612 2.01-14.16 2.98-22.809-3.988-3.745-3.018-5.695-7.006-5.793-11.852-.15-7.338 4.75-19.56 14.124-27.76zM71.55 90.201a7.84 7.84 0 0 1-2.906-5.332 7.808 7.808 0 0 1 1.755-5.805 7.972 7.972 0 0 1 5.389-2.876 7.993 7.993 0 0 1 5.866 1.737c3.42 2.757 3.937 7.752 1.151 11.137a7.973 7.973 0 0 1-5.389 2.876 8.008 8.008 0 0 1-5.866-1.737zm5.027 7.287c.466 0 .936-.024 1.406-.072 3.605-.364 6.85-2.096 9.139-4.877 4.724-5.739 3.848-14.21-1.953-18.885a13.576 13.576 0 0 0-9.947-2.945c-3.605.365-6.851 2.097-9.14 4.877a13.238 13.238 0 0 0-2.79 11.068c-1.845-1.599-3.37-3.733-4.222-6.115-2.193-6.132.18-12.671 6.685-18.416 3.364-2.97 8.447-4.399 13.947-3.919 7.177.627 13.9 4.268 18.445 9.99 10.194 12.836 6.811 22.114-1.405 32.097-8.865 10.769-18.608 10.808-23.629 9.872-5.794-1.08-10.89-4.414-13.68-8.723.867-.041 1.74-.119 2.614-.241 2.777-.389 7.027-1.408 11.564-4.038.966.215 1.96.327 2.966.327zM86.911 6.24c5.439-1.019 10.397-.74 12.709-.51 1.959 3.678 8.055 13.477 20.471 20.561 9.181 5.239 12.714 12.669 14.061 17.98 1.28 5.05 1.061 9.896.229 13.667a21.337 21.337 0 0 0-1.774-1.45c-5.824-4.244-12.558-4.638-16.119-4.485 1.959-2.523 3.377-6.217 1.857-10.694-2.937-8.65-10.746-10.43-19.788-12.491-6.547-1.493-13.968-3.184-21.694-7.682-2.784-1.62-5.457-2.713-8-3.397 3.656-6.072 9.71-9.936 18.048-11.499zM40.234 17.925c1.883-2.849 3.82-5.778 4.935-8.821 3.889-.176 13.807.148 19.588 4.755a29.098 29.098 0 0 0-1.733 2.97c-7.915-.33-14.123 3.085-17.783 5.825a34.074 34.074 0 0 0-4.158 3.696c-1.765.066-3.687.495-5.696 1.192.418-2.91 2.58-6.187 4.847-9.617zM9.152 52.21c1.561-1.437 6.547-5.937 12.466-10.346 6.357-4.735 10.971-7.29 14.264-8.632-3.225 5.487-4.83 11.48-4.078 16.384-11.32 7.96-20.968 23.923-18.644 40.959.423 3.104 1.215 5.653 2.23 7.847-2.598-1.858-4.671-4.246-6.252-7.204-7.36-13.777-1.217-35.092.014-39.008zm-.128 58.522c-.926-3.95-1.748-7.464-.647-11.127 3.429 3.634 7.873 6.22 13.281 7.716l.151.172c2.473 2.815 5.031 5.725 7.07 10.105a68.109 68.109 0 0 0 4.142 7.605 2.78 2.78 0 0 0-.107.199c-.815 1.719-1.44 4.022-1.553 6.628-9.471-1.315-18.254-6.68-21.514-8.996 1.046-4.328.098-8.373-.823-12.302zm103.104 41.895c-2.349 1.357-4.569 2.639-6.352 4.144-7.186 6.065-14.823 8.695-21.506 7.401-4.527-.876-8.052-2.604-12.515-4.792-3.877-1.901-8.271-4.055-14.569-6.355-10.097-3.686-16.733-8.769-19.192-14.699-1.216-2.932-1.24-5.551-.946-7.468 1.885 2.339 3.898 4.458 6.011 6.314 5.632 4.949 11.855 7.955 17.996 8.695.993.12 1.98.179 2.955.179a23.42 23.42 0 0 0 8.951-1.768c.035.036.067.073.104.107 4.362 4.033 10.087 6.808 15.704 7.613 1.192.17 2.37.255 3.531.255 5.64 0 10.896-1.999 15.361-5.879 5.905-5.129 11.662-7.807 17.23-10.397l1.163-.542c-.671 9.536-7.399 13.423-13.926 17.192zm37.358-35.485c-2.5 2.92-5.927 6.922-8.406 8.45 2.828-3.006 5.363-6.875 7.472-12.143 1.588-3.969 1.644-8.039.937-12.224.196-.282.347-.6.427-.955.403-1.788 1.962-5.665 3.87-10.092 4.68 4.517 7.689 13.09 7.671 15.812-4.177 2.053-8.135 6.673-11.971 11.152z"/></defs></svg>