<svg viewBox="0 0 22 27" xmlns="http://www.w3.org/2000/svg" xmlns:xlink="http://www.w3.org/1999/xlink"><title>Capa 1</title><desc>Created using Figma</desc><g transform="translate(-435 -11030)"><use xlink:href="#a" transform="translate(435.461 11030.7)"/><mask id="b"><path fill="#fff" transform="translate(435.461 11030.7)" d="M-1-1h23v28H-1z"/><use xlink:href="#a" transform="translate(435.461 11030.7)"/></mask><g mask="url(#b)"><use xlink:href="#c" transform="translate(435.461 11030.7)" fill="#575C6A"/></g></g><defs><path id="a" d="M20.994 24.988L19.709 5.393a.82.82 0 0 0-.818-.766h-3.587v-.528c0-2.26-1.84-4.099-4.1-4.099h-1.41a4.104 4.104 0 0 0-4.099 4.1v.527H2.108a.82.82 0 0 0-.818.766L.002 25.036a.819.819 0 0 0 .818.873h19.36a.82.82 0 0 0 .814-.921zM7.334 4.099a2.462 2.462 0 0 1 2.46-2.46h1.41a2.462 2.462 0 0 1 2.46 2.46v.528h-6.33v-.528zM1.696 24.27l1.18-18.004h2.82v.732c-.584.3-.985.906-.985 1.606 0 .994.81 1.803 1.804 1.803a1.804 1.804 0 1 0 .82-3.409v-.732h6.329v.732c-.584.3-.984.906-.984 1.606 0 .994.809 1.803 1.804 1.803.994 0 1.803-.809 1.803-1.803 0-.7-.4-1.307-.983-1.606v-.732h2.819l1.18 18.003H1.695z"/><path id="c" d="M20.994 24.988l-.25.016v.008l.002.007.248-.031zM19.709 5.393l.25-.017-.25.017zm-4.405-.766h-.25v.25h.25v-.25zm-9.609 0v.25h.25v-.25h-.25zm-4.405.766l.25.016-.25-.016zM.002 25.036l.25.016-.25-.016zm.22.613l.182-.17-.183.17zM21 25.09h.25H21zM13.664 4.627v.25h.25v-.25h-.25zm-6.33 0h-.25v.25h.25v-.25zM1.696 24.269l-.25-.016-.017.266h.267v-.25zm1.18-18.003v-.25h-.234l-.015.234.249.016zm2.82 0h.25v-.25h-.25v.25zm0 .732l.113.222.136-.07v-.152h-.25zm1.639 0h-.25v.153l.136.07.114-.223zm0-.732v-.25h-.25v.25h.25zm6.329 0h.25v-.25h-.25v.25zm0 .732l.114.222.136-.07v-.152h-.25zm1.64 0h-.25v.153l.135.07.114-.223zm0-.732v-.25h-.25v.25h.25zm2.819 0l.25-.016-.016-.234h-.234v.25zm1.18 18.003v.25h.267l-.017-.266-.25.016zm1.94.703L19.958 5.375l-.499.033 1.285 19.595.5-.033zM19.958 5.375a1.07 1.07 0 0 0-1.067-1v.5c.3 0 .549.234.568.533l.5-.033zm-1.067-1h-3.587v.5h3.587v-.5zm-3.337.25V4.1h-.5v.528h.5zm0-.527a4.354 4.354 0 0 0-4.35-4.349v.5a3.854 3.854 0 0 1 3.85 3.85h.5zM11.204-.25h-1.41v.5h1.41v-.5zm-1.41 0A4.354 4.354 0 0 0 5.445 4.1h.5A3.854 3.854 0 0 1 9.795.25v-.5zM5.445 4.1v.527h.5v-.528h-.5zm.25.277H2.108v.5h3.587v-.5zm-3.587 0a1.07 1.07 0 0 0-1.067 1l.499.032a.57.57 0 0 1 .568-.532v-.5zm-1.067 1L-.248 25.018l.5.033L1.54 5.409l-.5-.033zM-.248 25.018c-.02.295.085.586.287.802l.365-.342a.57.57 0 0 1-.153-.427l-.499-.033zm.287.801c.202.217.485.339.78.339v-.5a.57.57 0 0 1-.415-.18l-.365.341zm.78.339h19.36v-.5H.819v.5zm19.36 0h.001v-.5h-.001v.5zm.001 0a1.07 1.07 0 0 0 1.07-1.07h-.5a.57.57 0 0 1-.57.57v.5zm1.07-1.07c0-.042-.003-.09-.008-.132l-.496.062a.498.498 0 0 1 .004.071l.5-.002zM7.585 4.098c0-1.218.991-2.21 2.21-2.21v-.5a2.712 2.712 0 0 0-2.71 2.71h.5zm2.21-2.21h1.41v-.5h-1.41v.5zm1.41 0c1.217 0 2.209.992 2.209 2.21h.5a2.712 2.712 0 0 0-2.71-2.71v.5zm2.209 2.21v.528h.5v-.528h-.5zm.25.278h-6.33v.5h6.33v-.5zm-6.08.25v-.528h-.5v.528h.5zm-5.64 19.659L3.126 6.283l-.498-.033-1.181 18.003.499.033zm.932-17.77h2.82v-.5h-2.82v.5zm2.57-.25v.732h.5v-.732h-.5zm.135.51a2.055 2.055 0 0 0-1.12 1.828h.5c0-.602.345-1.125.848-1.384l-.228-.444zm-1.12 1.828c0 1.132.921 2.053 2.054 2.053v-.5a1.556 1.556 0 0 1-1.554-1.553h-.5zm2.054 2.053a2.056 2.056 0 0 0 2.054-2.053h-.5c0 .856-.698 1.553-1.554 1.553v.5zm2.054-2.053c0-.798-.457-1.488-1.12-1.828l-.228.444c.503.259.848.782.848 1.384h.5zm-.984-1.606v-.732h-.5v.732h.5zm-.25-.482h6.329v-.5h-6.33v.5zm6.079-.25v.732h.5v-.732h-.5zm.136.51a2.055 2.055 0 0 0-1.12 1.828h.5c0-.602.344-1.125.848-1.384l-.228-.444zm-1.12 1.828c0 1.132.921 2.053 2.054 2.053v-.5a1.556 1.556 0 0 1-1.554-1.553h-.5zm2.054 2.053a2.056 2.056 0 0 0 2.053-2.053h-.5c0 .856-.697 1.553-1.553 1.553v.5zm2.053-2.053c0-.798-.456-1.488-1.12-1.828l-.228.444c.504.259.848.782.848 1.384h.5zm-.983-1.606v-.732h-.5v.732h.5zm-.25-.482h2.819v-.5h-2.82v.5zm2.57-.233l1.18 18.003.499-.033-1.18-18.003-.5.033zm1.43 17.736H1.694v.5h17.608v-.5z"/></defs></svg>