<svg width="151" height="43" viewBox="0 0 151 43" xmlns="http://www.w3.org/2000/svg" xmlns:xlink="http://www.w3.org/1999/xlink"><title>Vector 3</title><desc>Created using Figma</desc><use xlink:href="#a" transform="translate(0 1.5)" fill="#EC5A6F"/><defs><path id="a" d="M2.362 22.284l-.4.3.4-.3zM14.271 1.82l-.386-.318.386.318zM149.5 5v30.143h1V5h-1zM145 39.643H18.27v1H145v-1zM14.67 37.845L2.763 21.984l-.8.6 11.909 15.861.8-.6zM2.889 16.42L14.657 2.138l-.772-.636-11.77 14.282.773.636zM18.13.5H145v-1H18.13v1zM150.5 5A5.5 5.5 0 0 0 145-.5v1a4.5 4.5 0 0 1 4.5 4.5h1zm-1 30.143a4.5 4.5 0 0 1-4.5 4.5v1a5.5 5.5 0 0 0 5.5-5.5h-1zm-131.23 4.5a4.5 4.5 0 0 1-3.6-1.798l-.8.6a5.5 5.5 0 0 0 4.4 2.198v-1zM2.761 21.983a4.5 4.5 0 0 1 .126-5.563l-.772-.636a5.5 5.5 0 0 0-.154 6.8l.8-.6zM14.657 2.139A4.5 4.5 0 0 1 18.13.5v-1a5.5 5.5 0 0 0-4.245 2.002l.772.636z"/></defs></svg>