<svg width="9" height="9" viewBox="0 0 9 9" xmlns="http://www.w3.org/2000/svg" xmlns:xlink="http://www.w3.org/1999/xlink"><title>Canvas</title><desc>Created using Figma</desc><use xlink:href="#a" transform="translate(.7 1)" fill="#575C6A"/><use xlink:href="#b" transform="translate(.7 1)" fill="#575C6A"/><defs><path id="a" d="M7.782.354a.5.5 0 0 0-.707-.708l.707.708zm-8.136 6.72a.5.5 0 1 0 .708.708l-.708-.708zm7.43-7.428l-7.43 7.428.708.708L7.782.354l-.707-.708z"/><path id="b" d="M7.075 7.782a.5.5 0 1 0 .707-.708l-.707.708zM.354-.354a.5.5 0 0 0-.708.708l.708-.708zm7.428 7.428L.354-.354l-.708.708 7.43 7.428.706-.708z"/></defs></svg>