<svg width="25" height="24" viewBox="0 0 25 24" xmlns="http://www.w3.org/2000/svg" xmlns:xlink="http://www.w3.org/1999/xlink"><title>gift</title><desc>Created using Figma</desc><use xlink:href="#a" transform="translate(1.2 7.4)" fill="#F9CDD4"/><use xlink:href="#b" transform="translate(2.2 11.4)" fill="#F9CDD4"/><use xlink:href="#c" transform="translate(9.2 7.4)" fill="#F9CDD4"/><use xlink:href="#d" transform="translate(16.2 7.4)" fill="#F9CDD4"/><use xlink:href="#e" transform="translate(12.7 .9)" fill="#F9CDD4"/><use xlink:href="#f" transform="translate(6.3 .9)" fill="#F9CDD4"/><defs><path id="a" d="M23 4v.5a.5.5 0 0 0 .5-.5H23zM0 4h-.5a.5.5 0 0 0 .5.5V4zm0-4v-.5a.5.5 0 0 0-.5.5H0zm23 0h.5a.5.5 0 0 0-.5-.5V0zm0 3.5H0v1h23v-1zM.5 4V0h-1v4h1zM0 .5h23v-1H0v1zM22.5 0v4h1V0h-1z"/><path id="b" d="M21 12v.5a.5.5 0 0 0 .5-.5H21zM0 12h-.5a.5.5 0 0 0 .5.5V12zM0 0v-.5a.5.5 0 0 0-.5.5H0zm21 0h.5a.5.5 0 0 0-.5-.5V0zm0 11.5H0v1h21v-1zM.5 12V0h-1v12h1zM0 .5h21v-1H0v1zM20.5 0v12h1V0h-1z"/><path id="c" d="M-.5 0v16h1V0h-1z"/><path id="d" d="M.5 16V0h-1v16h1z"/><path id="e" d="M0 6.389l-.486-.119a.5.5 0 0 0 .605.604L0 6.39zM2.121.733l.353.354-.353-.354zm3.536 0l-.354.353.354-.353zm-.354 3.181c-.168.168-.56.392-1.138.637-.56.238-1.214.465-1.853.667A42.313 42.313 0 0 1-.106 5.9l-.01.002h-.002v.001L0 6.39a181.117 181.117 0 0 0 .12.485h.003l.01-.003a15.952 15.952 0 0 0 .194-.049 43.04 43.04 0 0 0 2.286-.65 22.676 22.676 0 0 0 1.943-.7c.575-.244 1.134-.53 1.455-.85l-.708-.708zM0 6.39l.486.118v-.002a4.997 4.997 0 0 1 .012-.048 27.334 27.334 0 0 1 .179-.685 42.28 42.28 0 0 1 .494-1.695c.202-.64.428-1.293.667-1.854.245-.577.468-.969.636-1.136L1.768.379c-.32.32-.607.879-.85 1.453a22.26 22.26 0 0 0-.7 1.944 43.755 43.755 0 0 0-.703 2.493L0 6.39zm2.475-5.303a2 2 0 0 1 2.828 0L6.011.38a3 3 0 0 0-4.244 0l.708.707zm2.829 0a2 2 0 0 1 0 2.828l.707.707a3 3 0 0 0 0-4.242l-.707.707z"/><path id="f" d="M6.39 6.389l-.12.485a.5.5 0 0 0 .605-.604l-.486.119zM4.267.733l-.353.353.353-.353zm-3.536 0l.354.353L.732.733zM.38 4.62c.32.32.879.607 1.454.85.591.252 1.29.494 1.943.7a43.768 43.768 0 0 0 2.44.69l.04.01.01.002.004.001.12-.485.118-.486h-.003l-.01-.003a25.354 25.354 0 0 1-.722-.188 42.318 42.318 0 0 1-1.696-.494 21.216 21.216 0 0 1-1.854-.667c-.577-.245-.969-.468-1.137-.637L.38 4.62zm6.01 1.768l.486-.12v-.003a11.964 11.964 0 0 1-.014-.051 28.664 28.664 0 0 0-.183-.703 43.83 43.83 0 0 0-.506-1.736 22.68 22.68 0 0 0-.7-1.944C5.228 1.258 4.942.7 4.622.38l-.707.707c.168.168.391.56.636 1.137.239.56.465 1.215.667 1.854a42.363 42.363 0 0 1 .683 2.418l.002.01v.002l.486-.118zM4.622.379a3 3 0 0 0-4.243 0l.707.707a2 2 0 0 1 2.829 0L4.622.38zM.379.38a2.999 2.999 0 0 0 0 4.242l.707-.707a1.999 1.999 0 0 1 0-2.828L.379.38z"/></defs></svg>