<svg width="19" height="20" viewBox="0 0 19 20" xmlns="http://www.w3.org/2000/svg" xmlns:xlink="http://www.w3.org/1999/xlink"><title>Group</title><desc>Created using Figma</desc><g transform="translate(.55 1.2)"><use xlink:href="#a" fill="#E8596D"/><use xlink:href="#b" fill="#FFF"/></g><g transform="translate(11.16 4.4)"><use xlink:href="#c" fill="#E8596D"/><use xlink:href="#d" fill="#FFF"/></g><g transform="translate(2.18 13.4)"><use xlink:href="#c" fill="#E8596D"/><use xlink:href="#e" fill="#FFF"/></g><defs><path id="a" fill-rule="evenodd" d="M5.71 16.317L0 17.949l1.632-5.711L13.872 0l4.08 4.08L5.71 16.316z"/><path id="b" d="M0 17.949l-.48-.138a.5.5 0 0 0 .617.618L0 17.95zm1.632-5.711l-.354-.354a.5.5 0 0 0-.127.216l.48.138zM13.872 0l.354-.354a.5.5 0 0 0-.707 0l.354.354zm4.08 4.08l.353.353a.5.5 0 0 0 0-.707l-.353.353zM5.574 15.835l-5.711 1.632.274.961 5.711-1.631-.274-.962zM.48 18.086l1.631-5.71-.961-.276-1.632 5.711.962.275zm1.504-5.495L14.226.354l-.707-.708L1.28 11.884l.706.707zM13.52.354l4.08 4.079.706-.707-4.079-4.08-.707.708zm4.08 3.372L5.356 15.963l.707.708L18.305 4.433l-.707-.707z"/><path id="c" fill-rule="evenodd" d="M0 0l4.08 4.08L0 0z"/><path id="d" d="M-.354.354l4.08 4.079.707-.707-4.08-4.08-.707.708z"/><path id="e" d="M.354-.354a.5.5 0 1 0-.708.708l.708-.708zm3.372 4.787a.5.5 0 0 0 .707-.707l-.707.707zM-.354.353l4.08 4.08.707-.707-4.08-4.08-.707.708z"/></defs></svg>