<svg width="30" height="31" viewBox="0 0 30 31" xmlns="http://www.w3.org/2000/svg" xmlns:xlink="http://www.w3.org/1999/xlink"><title>Group</title><desc>Created using Figma</desc><g transform="translate(-6054 -11463)"><use xlink:href="#a" transform="translate(6055.25 11464.1)" fill="#333"/><mask id="b"><path fill="#fff" transform="translate(6055.25 11464.1)" d="M-1-1h30v9H-1z"/><use xlink:href="#a" transform="translate(6055.25 11464.1)"/></mask><g mask="url(#b)"><use xlink:href="#c" transform="translate(6055.25 11464.1)" fill="#333"/></g></g><g transform="translate(-6054 -11463)"><use xlink:href="#d" transform="translate(6055.25 11485.8)" fill="#333"/><mask id="e"><path fill="#fff" transform="translate(6055.25 11485.8)" d="M-1-1h30v9H-1z"/><use xlink:href="#d" transform="translate(6055.25 11485.8)"/></mask><g mask="url(#e)"><use xlink:href="#f" transform="translate(6055.25 11485.8)" fill="#333"/></g></g><g transform="translate(-6054 -11463)"><use xlink:href="#g" transform="translate(6055.25 11474.7)" fill="#333"/><mask id="h"><path fill="#fff" transform="translate(6055.25 11474.7)" d="M-1-1h30v9H-1z"/><use xlink:href="#g" transform="translate(6055.25 11474.7)"/></mask><g mask="url(#h)"><use xlink:href="#i" transform="translate(6055.25 11474.7)" fill="#333"/></g></g><defs><path id="a" d="M3.626 7.252a3.63 3.63 0 0 0 3.585-3.108h20.245a.518.518 0 1 0 0-1.036H7.21A3.63 3.63 0 0 0 3.626 0 3.63 3.63 0 0 0 0 3.626c0 2 1.627 3.626 3.626 3.626zm0-6.216a2.593 2.593 0 0 1 2.59 2.59 2.593 2.593 0 0 1-2.59 2.59 2.593 2.593 0 0 1-2.59-2.59 2.593 2.593 0 0 1 2.59-2.59z"/><path id="c" d="M7.211 4.144v-.25h-.217l-.03.215.247.035zm0-1.036l-.247.036.03.214h.217v-.25zM3.626 7.502A3.88 3.88 0 0 0 7.458 4.18l-.494-.071a3.38 3.38 0 0 1-3.338 2.893v.5zm3.585-3.108h20.245v-.5H7.21v.5zm20.245 0a.768.768 0 0 0 .768-.768h-.5c0 .149-.12.268-.268.268v.5zm.768-.768a.768.768 0 0 0-.768-.768v.5c.148 0 .268.12.268.268h.5zm-.768-.768H7.21v.5h20.245v-.5zm-19.998.215A3.88 3.88 0 0 0 3.626-.25v.5a3.38 3.38 0 0 1 3.338 2.894l.494-.071zM3.626-.25A3.88 3.88 0 0 0-.25 3.626h.5A3.38 3.38 0 0 1 3.626.25v-.5zM-.25 3.626a3.88 3.88 0 0 0 3.876 3.876v-.5A3.38 3.38 0 0 1 .25 3.626h-.5zm3.876-2.34c1.29 0 2.34 1.05 2.34 2.34h.5a2.843 2.843 0 0 0-2.84-2.84v.5zm2.34 2.34c0 1.29-1.05 2.34-2.34 2.34v.5a2.843 2.843 0 0 0 2.84-2.84h-.5zm-2.34 2.34c-1.29 0-2.34-1.05-2.34-2.34h-.5a2.843 2.843 0 0 0 2.84 2.84v-.5zm-2.34-2.34c0-1.29 1.05-2.34 2.34-2.34v-.5a2.843 2.843 0 0 0-2.84 2.84h.5z"/><path id="d" d="M24.347 0a3.63 3.63 0 0 0-3.584 3.108H.518a.518.518 0 1 0 0 1.036h20.245a3.63 3.63 0 0 0 3.584 3.108c2 0 3.627-1.627 3.627-3.626A3.631 3.631 0 0 0 24.347 0zm0 6.216a2.593 2.593 0 0 1-2.59-2.59 2.593 2.593 0 0 1 2.59-2.59 2.593 2.593 0 0 1 2.59 2.59 2.593 2.593 0 0 1-2.59 2.59z"/><path id="f" d="M20.763 3.108v.25h.216l.031-.214-.247-.036zm0 1.036l.247-.035-.03-.215h-.217v.25zM24.347-.25a3.88 3.88 0 0 0-3.832 3.323l.495.07A3.38 3.38 0 0 1 24.347.25v-.5zm-3.584 3.108H.518v.5h20.245v-.5zm-20.245 0a.768.768 0 0 0-.768.768h.5c0-.148.12-.268.268-.268v-.5zm-.768.768c0 .425.344.768.768.768v-.5a.268.268 0 0 1-.268-.268h-.5zm.768.768h20.245v-.5H.518v.5zm19.997-.214a3.88 3.88 0 0 0 3.832 3.322v-.5A3.38 3.38 0 0 1 21.01 4.11l-.495.07zm3.832 3.322a3.88 3.88 0 0 0 3.877-3.876h-.5a3.38 3.38 0 0 1-3.377 3.376v.5zm3.877-3.876A3.88 3.88 0 0 0 24.347-.25v.5a3.38 3.38 0 0 1 3.377 3.376h.5zm-3.877 2.34c-1.29 0-2.34-1.05-2.34-2.34h-.5a2.843 2.843 0 0 0 2.84 2.84v-.5zm-2.34-2.34c0-1.29 1.05-2.34 2.34-2.34v-.5a2.843 2.843 0 0 0-2.84 2.84h.5zm2.34-2.34c1.29 0 2.34 1.05 2.34 2.34h.5a2.843 2.843 0 0 0-2.84-2.84v.5zm2.34 2.34c0 1.29-1.05 2.34-2.34 2.34v.5a2.843 2.843 0 0 0 2.84-2.84h-.5z"/><path id="g" d="M27.456 3.323h-9.652A3.738 3.738 0 0 0 14.094 0a3.738 3.738 0 0 0-3.71 3.323H.518a.518.518 0 1 0 0 1.036h9.899a3.737 3.737 0 0 0 3.677 3.108 3.736 3.736 0 0 0 3.676-3.108h9.686a.518.518 0 1 0 0-1.036zM14.094 6.43a2.7 2.7 0 0 1-2.697-2.698 2.7 2.7 0 0 1 2.697-2.697 2.7 2.7 0 0 1 2.697 2.697 2.7 2.7 0 0 1-2.697 2.698z"/><path id="i" d="M17.804 3.323l-.249.027.025.223h.224v-.25zm-7.42 0v.25h.224l.025-.223-.249-.027zm.033 1.036l.247-.042-.036-.208h-.211v.25zm7.353 0v-.25h-.21l-.036.208.246.042zm9.686-1.286h-9.652v.5h9.652v-.5zm-9.404.222A3.988 3.988 0 0 0 14.094-.25v.5c1.79 0 3.27 1.36 3.461 3.1l.497-.055zM14.094-.25a3.988 3.988 0 0 0-3.958 3.545l.497.055a3.488 3.488 0 0 1 3.461-3.1v-.5zm-3.71 3.323H.518v.5h9.866v-.5zm-9.866 0a.768.768 0 0 0-.768.768h.5c0-.149.12-.268.268-.268v-.5zm-.768.768c0 .424.344.768.768.768v-.5A.268.268 0 0 1 .25 3.84h-.5zm.768.768h9.899v-.5H.518v.5zm9.653-.208a3.987 3.987 0 0 0 3.923 3.316v-.5a3.487 3.487 0 0 1-3.43-2.9l-.493.084zm3.923 3.316A3.986 3.986 0 0 0 18.017 4.4l-.493-.084a3.486 3.486 0 0 1-3.43 2.9v.5zm3.676-3.108h9.686v-.5H17.77v.5zm9.686 0a.768.768 0 0 0 .768-.768h-.5c0 .148-.12.268-.268.268v.5zm.768-.768a.768.768 0 0 0-.768-.768v.5c.148 0 .268.12.268.268h.5zm-14.13 2.34a2.45 2.45 0 0 1-2.447-2.448h-.5a2.95 2.95 0 0 0 2.947 2.948v-.5zm-2.447-2.448a2.45 2.45 0 0 1 2.447-2.447v-.5a2.95 2.95 0 0 0-2.947 2.947h.5zm2.447-2.447a2.45 2.45 0 0 1 2.447 2.447h.5A2.95 2.95 0 0 0 14.094.786v.5zm2.447 2.447a2.45 2.45 0 0 1-2.447 2.448v.5a2.95 2.95 0 0 0 2.947-2.948h-.5z"/></defs></svg>