<svg width="20" height="25" viewBox="0 0 20 25" xmlns="http://www.w3.org/2000/svg" xmlns:xlink="http://www.w3.org/1999/xlink"><title>Vector</title><desc>Created using Figma</desc><use xlink:href="#a" transform="translate(.55 .9)" fill="#FFF"/><defs><path id="a" d="M18.93 22.53L17.77 4.864a.74.74 0 0 0-.737-.691h-3.234v-.476A3.7 3.7 0 0 0 10.102 0h-1.27a3.7 3.7 0 0 0-3.697 3.696v.476H1.901a.74.74 0 0 0-.738.69L.002 22.575a.739.739 0 0 0 .737.787h17.456a.74.74 0 0 0 .734-.83zM6.613 3.697A2.22 2.22 0 0 1 8.83 1.478h1.271a2.22 2.22 0 0 1 2.218 2.218v.476H6.614v-.476zM1.529 21.883L2.593 5.65h2.542v.66c-.526.27-.887.817-.887 1.448 0 .896.73 1.626 1.626 1.626.897 0 1.627-.73 1.627-1.626 0-.631-.361-1.178-.887-1.448v-.66h5.706v.66c-.526.27-.887.817-.887 1.448 0 .896.73 1.626 1.626 1.626.897 0 1.627-.73 1.627-1.626 0-.631-.361-1.178-.887-1.448v-.66h2.542l1.064 16.233H1.53z"/></defs></svg>