<svg width="20" height="21" viewBox="0 0 20 21" xmlns="http://www.w3.org/2000/svg" xmlns:xlink="http://www.w3.org/1999/xlink"><title>Canvas</title><desc>Created using Figma</desc><use xlink:href="#a" transform="translate(1.27 1.6)" fill="#FFF"/><use xlink:href="#b" transform="translate(13.27 13.6)" fill="#FFF"/><defs><path id="a" d="M13.316 7.033a6.282 6.282 0 0 1-6.283 6.283v1.5a7.782 7.782 0 0 0 7.783-7.783h-1.5zm-6.283 6.283A6.282 6.282 0 0 1 .75 7.033h-1.5a7.782 7.782 0 0 0 7.783 7.783v-1.5zM.75 7.033A6.282 6.282 0 0 1 7.033.75v-1.5A7.782 7.782 0 0 0-.75 7.033h1.5zM7.033.75a6.282 6.282 0 0 1 6.283 6.283h1.5A7.782 7.782 0 0 0 7.033-.75v1.5z"/><path id="b" d="M.53-.53A.75.75 0 1 0-.53.53L.53-.53zm4.907 7.027a.75.75 0 0 0 1.061-1.06l-1.06 1.06zM-.53.53l5.967 5.967 1.061-1.06L.53-.53-.53.53z"/></defs></svg>