<svg viewBox="0 0 1920 316" xmlns="http://www.w3.org/2000/svg" xmlns:xlink="http://www.w3.org/1999/xlink"><title>Vector</title><desc>Created using Figma</desc><use xlink:href="#a" transform="matrix(1 0 0 -1 0 321)" fill="#F3F3F3"/><defs><path id="a" d="M28.838 314.123c-11.795 12.44-24.14 5.183-28.838 0V0h1920v314.123c-5.47-5.183-19.37-12.44-31.16 0-11.8 12.44-24.14 5.183-28.84 0-5.47-5.183-19.37-12.44-31.16 0-11.8 12.44-24.14 5.183-28.84 0-5.47-5.183-19.37-12.44-31.16 0-11.8 12.44-24.14 5.183-28.84 0-5.47-5.183-19.37-12.44-31.16 0-11.8 12.44-24.14 5.183-28.84 0-5.47-5.183-19.37-12.44-31.16 0-11.8 12.44-24.14 5.183-28.84 0-5.47-5.183-19.37-12.44-31.16 0-11.8 12.44-24.14 5.183-28.84 0-5.47-5.183-19.37-12.44-31.16 0-11.8 12.44-24.14 5.183-28.84 0-5.47-5.183-19.37-12.44-31.16 0-11.8 12.44-24.14 5.183-28.84 0-5.47-5.183-19.37-12.44-31.16 0-11.8 12.44-24.14 5.183-28.84 0-5.47-5.183-19.37-12.44-31.16 0-11.8 12.44-24.14 5.183-28.84 0-5.47-5.183-19.37-12.44-31.16 0-11.8 12.44-24.14 5.183-28.84 0-5.47-5.183-19.37-12.44-31.16 0-11.8 12.44-24.14 5.183-28.84 0-5.47-5.183-19.37-12.44-31.16 0-11.8 12.44-24.14 5.183-28.84 0-5.47-5.183-19.37-12.44-31.16 0-11.8 12.44-24.14 5.183-28.84 0-5.47-5.183-19.37-12.44-31.16 0-11.8 12.44-24.14 5.183-28.84 0-5.47-5.183-19.37-12.44-31.162 0-11.795 12.44-24.14 5.183-28.838 0-5.472-5.183-19.366-12.44-31.162 0-11.795 12.44-24.14 5.183-28.838 0-5.472-5.183-19.366-12.44-31.162 0-11.795 12.44-24.14 5.183-28.838 0-5.472-5.183-19.366-12.44-31.162 0-11.795 12.44-24.14 5.183-28.838 0-5.472-5.183-19.366-12.44-31.162 0-11.795 12.44-24.14 5.183-28.838 0-5.472-5.183-19.366-12.44-31.162 0-11.795 12.44-24.14 5.183-28.838 0-5.472-5.183-19.366-12.44-31.162 0-11.795 12.44-24.14 5.183-28.838 0-5.472-5.183-19.366-12.44-31.162 0-11.795 12.44-24.14 5.183-28.838 0-5.472-5.183-19.366-12.44-31.162 0-11.795 12.44-24.14 5.183-28.838 0-5.472-5.183-19.366-12.44-31.162 0-11.795 12.44-24.14 5.183-28.838 0-5.472-5.183-19.366-12.44-31.162 0-11.795 12.44-24.14 5.183-28.838 0-5.472-5.183-19.366-12.44-31.162 0-11.795 12.44-24.14 5.183-28.838 0-5.472-5.183-19.366-12.44-31.162 0-11.795 12.44-24.14 5.183-28.838 0-5.472-5.183-19.366-12.44-31.162 0-11.795 12.44-24.14 5.183-28.838 0-5.472-5.183-19.366-12.44-31.162 0-11.795 12.44-24.14 5.183-28.838 0-5.472-5.183-19.366-12.44-31.162 0-11.795 12.44-24.14 5.183-28.838 0-5.472-5.183-19.366-12.44-31.162 0z"/></defs></svg>