<svg viewBox="0 0 20 20" xmlns="http://www.w3.org/2000/svg" xmlns:xlink="http://www.w3.org/1999/xlink"><title>Canvas</title><desc>Created using Figma</desc><use xlink:href="#a" transform="translate(1 1)" fill="#CBCBCB"/><use xlink:href="#b" transform="translate(12.41 12.4)" fill="#CBCBCB"/><defs><path id="a" d="M12.37 6.654c0 3.118-2.54 5.653-5.685 5.653v2c4.24 0 7.685-3.422 7.685-7.653h-2zm-5.685 5.653C3.54 12.307 1 9.772 1 6.654h-2c0 4.231 3.445 7.653 7.685 7.653v-2zM1 6.654C1 3.535 3.54 1 6.685 1v-2C2.445-1-1 2.422-1 6.654h2zM6.685 1c3.144 0 5.685 2.535 5.685 5.654h2C14.37 2.422 10.925-1 6.685-1v2z"/><path id="b" d="M.705-.709A1 1 0 0 0-.705.71L.705-.71zm4.262 7.063a1 1 0 0 0 1.41-1.418l-1.41 1.418zM-.705.709l5.672 5.645 1.41-1.418L.706-.709-.705.71z"/></defs></svg>