<svg viewBox="0 0 27 22" xmlns="http://www.w3.org/2000/svg" xmlns:xlink="http://www.w3.org/1999/xlink"><title>Shape</title><desc>Created using Figma</desc><use xlink:href="#a" transform="translate(.5 .5)" fill="#CBCBCB"/><defs><path id="a" fill-rule="evenodd" d="M26 20.354a.814.814 0 0 1-.813.814H.813A.813.813 0 0 1 0 20.354V.814L.002.799C.002.787.01.78.01.769A.808.808 0 0 1 .212.277C.226.26.22.239.234.225.252.207.28.215.299.197A.795.795 0 0 1 .736.016C.768.012.79-.001.823 0h24.352c.032 0 .056.012.087.016.167.016.317.08.438.181.02.017.048.01.066.028.014.014.008.036.02.052a.804.804 0 0 1 .203.492c0 .011.007.018.007.03 0 .005.003.01.003.016v19.539H26zm-24.376-1.63c0 .449.363.814.813.814h21.125a.814.814 0 0 0 .812-.814V2.473L13.6 11.115c-.012.012-.006.03-.017.043a.788.788 0 0 1-.582.228.79.79 0 0 1-.583-.228c-.012-.013-.008-.03-.017-.043L1.625 2.473v16.252zM13 9.557l9.886-7.928H3.114L13 9.557z"/></defs></svg>