<svg width="39" height="40" viewBox="0 0 39 40" xmlns="http://www.w3.org/2000/svg" xmlns:xlink="http://www.w3.org/1999/xlink"><title>Vector</title><desc>Created using Figma</desc><use xlink:href="#a" fill="#EC5A6F"/><defs><path id="a" d="M38.996 21.823c-.009-.084-.229-2.082-1.05-4.492a19.845 19.845 0 0 0-.92-2.26l.002-.012c.254-2.829-.234-5.753-.255-5.876a.644.644 0 0 0-.119-.277c-.114-.154-1.22-1.517-4.858-2.11a22.649 22.649 0 0 0-.725-1.433.652.652 0 0 0-.355-.296c-.036-.012-.38-.13-.934-.294C28.755 1.97 26.45.448 26.35.383a.653.653 0 0 0-.127-.064c-.13-.049-3.211-1.162-6.128 1.08a26.604 26.604 0 0 0-3.309-.598C14.044.472 11.9.582 11.81.587a.655.655 0 0 0-.32.105c-.172.11-2.603 1.706-4.715 4.164-2.973.42-5.014 2.507-5.102 2.598a.644.644 0 0 0-.117.169c-.057.12-1.352 2.886.079 6.067a29.194 29.194 0 0 0-1.549 2.35.644.644 0 0 0-.075.444c.02.101.49 2.518 1.532 5.031l.05.118a.653.653 0 0 0-.041.074C.469 24.047.025 26.945.007 27.067a.644.644 0 0 0 .074.408c.022.04.557.999 1.41 1.967 1.212 1.375 2.437 2.073 3.639 2.073l.032-.002c1.493 2.75 3.246 4.74 3.375 4.884a.65.65 0 0 0 .298.19c.081.025 2.022.61 4.59.826.63.053 1.24.079 1.827.079.492 0 .97-.019 1.432-.056a.653.653 0 0 0 .06.053c2.298 1.772 4.929 2.462 5.04 2.49a.66.66 0 0 0 .277.011c.486-.086 1.21-.522 1.94-1.166.602-.534 1.484-1.455 2.296-2.833.31-.016.497-.03.525-.033a.655.655 0 0 0 .426-.204c.039-.042.56-.6 1.256-1.475.215.01.429.016.639.016 2.483 0 4.521-.683 4.617-.716a.655.655 0 0 0 .238-.143c.543-.512 1.595-2.553 1.419-5.62.384-.476.764-.985 1.14-1.527 1.508-2.18 2.352-4.057 2.387-4.136a.644.644 0 0 0 .052-.33zm-3.48-12.236c.07.483.25 1.83.276 3.38-.774-1.086-1.656-1.958-2.642-2.61a22.988 22.988 0 0 0-.733-2.122c1.96.439 2.829 1.104 3.098 1.353zm-3.847.399c.783 2.353.966 4.27.541 5.607-1.443-2.374-2.973-3.679-4.55-3.881-.14-.61-.255-1-.264-1.03a.65.65 0 0 0-.392-.422 21.836 21.836 0 0 0-3.31-.921c.053-1.42-1.1-2.628-3.431-3.6.719-.597 2.216-1.037 5.306-.585 1.987.291 3.84.853 4.48 1.059a26.17 26.17 0 0 1 1.62 3.773zm-.537 13.044c-1.138 1.724-2.312 2.654-3.5 2.78.659-1.373.864-2.553.61-3.525-.256-.973-.941-1.696-2.04-2.157a2.968 2.968 0 0 0 1.234-1.144c.696-1.133.895-2.889.593-5.219-.03-.229-.062-.452-.097-.666 2.225.745 4.167 4.803 4.86 6.655-.199.522-.776 1.94-1.66 3.276zm-17.691 8.464a37.681 37.681 0 0 1-4.11-.462C8.4 28.682 7.344 25.09 7.6 23.22c.664 1.109 1.421 1.85 2.266 2.216.409.177.83.265 1.262.265.725 0 1.48-.25 2.257-.746a.179.179 0 0 1 .005.004c-.466 1.426-.325 2.669.42 3.698.841 1.16 2.363 1.853 3.932 2.264-.485.393-1.793.698-4.3.574zM12.03 7.924c1.154-1.11 2.456-1.991 2.944-2.308 2.539.414 7.207 1.724 7.41 3.52-1.646-.184-3.378-.094-4.548.731-.725.511-1.173 1.236-1.343 2.16-.492-.722-1.159-1.18-1.992-1.366-1.197-.267-2.694.059-4.465.967-.254-1.218.906-2.66 1.994-3.705zm.469 11.832a5.449 5.449 0 0 0 1.895 2.353c1.06.741 2.39 1.116 3.864 1.116.944 0 1.947-.154 2.975-.464-.5 1.386-1.797 2.54-2.944 3.007-3.217-.143-5.79-2.784-5.79-6.012zm6.063-6.02c.055 0 .11.002.164.003-.253.28-.455.613-.58.982a2.71 2.71 0 0 0 .03 1.845c-.214.468-.55.596-1.19.804-.934.303-2.174.708-2.661 2.915-.694-.855-1.062-2.018-1.078-3.423a6.074 6.074 0 0 1 5.315-3.127zm2.767 7.63c-2.25.79-4.351.747-5.844-.103.239-2.118.975-2.359 1.906-2.661.502-.163 1.089-.355 1.548-.852.144.15.304.294.48.431 1.257.978 1.933 2.038 2.018 3.158a.657.657 0 0 0-.108.027zm1.376.865c.184-1.29-.097-3.216-2.481-5.07-.77-.598-1.076-1.337-.842-2.026.196-.576.744-1.001 1.306-1.017 2.298.857 3.938 3.06 3.938 5.637 0 2.34-1.353 4.37-3.322 5.366.71-.816 1.247-1.81 1.401-2.89zm3.163-3.418c-.467-3.59-3.564-6.374-7.306-6.374-.277 0-.55.017-.819.047.08-.702.359-1.217.848-1.562 1.76-1.242 5.853-.192 7.64.435.437 1.627 1.113 5.286.09 6.95a1.777 1.777 0 0 1-.453.504zm-11.653-6.887c.6.133 1.054.506 1.379 1.136-2.589 1.136-4.4 3.707-4.4 6.693 0 1.561.496 3.009 1.339 4.198-.8.474-1.506.57-2.147.294-2.283-.986-3.483-6.312-3.818-8.68 1.584-1.366 5.394-4.144 7.646-3.642zm.654 15.973c-.413-.57-.535-1.244-.37-2.046a7.363 7.363 0 0 0 4.063 1.217c3.512 0 6.457-2.453 7.19-5.723.678.297 1.082.713 1.226 1.264.281 1.073-.38 2.789-1.864 4.831a26.722 26.722 0 0 1-2.353 2.782c-1.945.013-6.477-.372-7.892-2.325zm10.828-26.39a8.54 8.54 0 0 1 2.47 2.833 27.667 27.667 0 0 0-2.73-.515.628.628 0 0 0-.038-.033c-.996-.77-2.22-1.407-3.661-1.908a5.373 5.373 0 0 1 3.959-.377zm-13.639.365c1.056-.032 6.604-.103 10.667 1.815-1.793.09-3.061.612-3.791 1.561a27.632 27.632 0 0 0-4.007-.953.658.658 0 0 0-.438.09 22.037 22.037 0 0 0-3.353 2.591c-.123.118-.246.24-.368.367a.651.651 0 0 0-.161-.032C8.796 7.188 7 8.156 5.42 9.489c1.453-3.902 5.79-7.03 6.638-7.615zM2.693 8.276a8.93 8.93 0 0 1 2.815-1.76c-.92 1.38-1.631 2.939-1.82 4.6a.664.664 0 0 0-.002.05c-.4.434-.776.876-1.123 1.308-.655-2.058-.044-3.778.13-4.198zM1.34 16.479a30.854 30.854 0 0 1 2.933-4.02c1.408-1.615 3.415-3.477 5.403-3.809-.786 1.126-1.262 2.405-.808 3.637-.105.065-.211.13-.318.199a25.934 25.934 0 0 0-3.114 2.345.646.646 0 0 0-.209.556c.01.085.26 2.109.92 4.341.206.695.429 1.33.667 1.906-.575.823-.703 2.168-.382 4.082-.82-.306-1.55-1.002-2.186-1.898a.672.672 0 0 0-.043-.063C2.682 21.572 1.71 18.253 1.34 16.48zm-.007 10.562c.102-.584.422-2.244 1.007-3.83.225.419.457.806.696 1.16-.001 1.96.605 3.946 1.416 5.723-1.331-.471-2.586-2.165-3.119-3.053zm8.06 8.358c-.689-.814-4.119-5.036-4.895-9.35.697.593 1.44.954 2.227 1.082.05.21.105.424.163.644a36.898 36.898 0 0 0 1.368 4.079.65.65 0 0 0 .483.39 38.497 38.497 0 0 0 4.84.553c.759 1.425 2.625 2.39 5.562 2.879-3.952 1.185-8.772-.01-9.747-.277zm12.551 3.279c-.476-.141-1.91-.61-3.382-1.513 1.18-.253 2.235-.654 3.157-1.2a37.847 37.847 0 0 0 3.001.076c-1.137 1.648-2.34 2.458-2.776 2.637zm4.52-3.995c-.737.044-2.984.147-5.342-.064-2.862-.256-4.903-.89-5.903-1.815 2.187-.09 3.472-.614 3.904-1.588a22.585 22.585 0 0 0 3.933.299.654.654 0 0 0 .44-.187 27.287 27.287 0 0 0 2.665-3.113c.279-.384.531-.756.757-1.118.15.017.298.026.443.026 1.42 0 2.636-.774 3.627-1.814.646 2.887-2.81 7.488-4.523 9.374zm6.714-2.28c-.475.142-1.958.543-3.707.59.174-.244.35-.5.526-.766l.014-.005c1.4-.595 2.766-1.572 4.085-2.918-.138 1.638-.656 2.74-.918 3.099zM31.28 30.02c1.189-2.404 1.414-4.377.672-5.884 1.35-1.888 2.093-4.004 2.151-4.172a.643.643 0 0 0-.002-.424 23.476 23.476 0 0 0-1.113-2.543.649.649 0 0 0 .062-.088c.73-1.267.8-2.886.555-4.509 1.559 1.541 2.528 3.66 3.095 5.32.646 1.887.905 3.543.976 4.068-.442.93-2.83 5.7-6.396 8.232z"/></defs></svg>