<svg width="47" height="40" viewBox="0 0 47 40" xmlns="http://www.w3.org/2000/svg" xmlns:xlink="http://www.w3.org/1999/xlink"><title>Vector</title><desc>Created using Figma</desc><g transform="translate(-3758 -12160)"><use xlink:href="#a" transform="translate(3758 12160.4)" fill="#5256A0"/><mask id="b"><use xlink:href="#a" fill="#fff" transform="translate(3758 12160.4)"/></mask><g mask="url(#b)"><use xlink:href="#c" transform="translate(3758 12160.4)" fill="#FFF"/></g></g><defs><path id="a" d="M45.75 0c-2.237 0-3.44.793-4.408 1.43-.859.567-1.537 1.014-3.01 1.014-1.472 0-2.15-.447-3.01-1.013C34.356.793 33.153 0 30.917 0c-2.237 0-3.44.793-4.407 1.43-.86.567-1.538 1.014-3.01 1.014-1.472 0-2.15-.447-3.01-1.013C19.522.793 18.32 0 16.082 0c-2.236 0-3.44.793-4.406 1.43-.86.567-1.538 1.014-3.01 1.014-1.472 0-2.15-.447-3.01-1.013C4.69.793 3.487 0 1.25 0 .56 0 0 .547 0 1.222v5.499c0 .122.019.24.053.35l-.001.001c1.58 5.188 8.483 11.487 15.073 17.237v4.744l-2.452 8.39a1.2 1.2 0 0 0 .204 1.07c.236.307.606.487.998.487 1.735 0 2.643-.923 3.307-1.596.579-.588.862-.848 1.506-.848s.927.26 1.506.848C20.857 38.077 21.765 39 23.5 39s2.644-.923 3.307-1.596c.579-.588.862-.848 1.506-.848s.927.26 1.505.848c.663.673 1.572 1.596 3.307 1.596.392 0 .762-.18.998-.486a1.2 1.2 0 0 0 .204-1.072l-2.452-8.389V24.31c6.59-5.75 13.492-12.049 15.073-17.237h-.001c.034-.111.053-.23.053-.351v-5.5C47 .547 46.44 0 45.75 0zM28.311 34.112c-1.734 0-2.643.923-3.306 1.597-.579.587-.861.847-1.506.847-.644 0-.927-.26-1.505-.847-.664-.674-1.572-1.597-3.307-1.597-1.3 0-2.135.517-2.751 1.06l1.38-4.726h12.365l1.381 4.726c-.616-.543-1.452-1.06-2.75-1.06zm-10.687-6.11v-3.054h11.75v3.055h-11.75zm12.564-5.498h-5.44v-6.049c0-.674-.559-1.222-1.25-1.222-.69 0-1.25.548-1.25 1.222v6.049H16.81c-5.447-4.751-11.1-9.865-13.472-14.107.315.16.606.351.92.559.968.637 2.171 1.43 4.407 1.43 2.237 0 3.44-.793 4.407-1.43.86-.566 1.538-1.014 3.01-1.014 1.472 0 2.15.448 3.01 1.014.966.637 2.17 1.43 4.406 1.43 2.236 0 3.44-.793 4.407-1.43.86-.566 1.538-1.014 3.01-1.014 1.472 0 2.15.448 3.01 1.014.967.637 2.17 1.43 4.407 1.43 2.236 0 3.44-.793 4.407-1.43.315-.208.606-.4.921-.559-2.372 4.242-8.025 9.356-13.472 14.107zM44.499 5.59c-1.468.227-2.387.832-3.157 1.34-.859.566-1.537 1.013-3.01 1.013-1.472 0-2.15-.447-3.01-1.014-.967-.637-2.17-1.43-4.406-1.43-2.237 0-3.44.793-4.407 1.43-.86.567-1.538 1.014-3.01 1.014-1.472 0-2.15-.447-3.01-1.014-.967-.637-2.17-1.43-4.407-1.43-2.236 0-3.44.793-4.406 1.43-.86.567-1.538 1.014-3.01 1.014-1.472 0-2.15-.447-3.01-1.014C4.889 6.422 3.97 5.817 2.5 5.59V2.582c.697.175 1.189.499 1.76.875.967.637 2.17 1.43 4.406 1.43 2.236 0 3.44-.793 4.407-1.43.86-.566 1.537-1.013 3.01-1.013 1.472 0 2.15.447 3.009 1.013.967.637 2.17 1.43 4.407 1.43 2.236 0 3.44-.793 4.407-1.43.859-.566 1.538-1.013 3.01-1.013 1.472 0 2.15.447 3.01 1.013.967.637 2.17 1.43 4.407 1.43 2.236 0 3.44-.793 4.407-1.43.57-.376 1.062-.7 1.76-.875V5.59z"/><path id="c" d="M41.342 1.43l-.275-.417.275.418zm-6.02 0l.276-.417-.275.418zm-8.814 0l-.275-.417.276.418zm-6.019 0l.276-.417-.276.418zm-8.813 0l-.276-.417.276.418zm-6.02 0l.276-.417-.275.418zM.054 7.073l.106.488.531-.115-.159-.52-.478.147zm-.001 0l-.106-.489-.53.116.158.519.478-.146zM15.126 24.31h.5v-.228l-.171-.149-.33.377zm0 4.744l.48.14.02-.068v-.072h-.5zm-2.452 8.39l.48.14-.48-.14zm.204 1.07l.396-.305-.396.306zm4.305-1.11l.356.351-.356-.35zm3.012 0l.356-.35-.357.35zm6.613 0l.357.351-.357-.35zm3.011 0l.356-.35-.356.35zm4.305 1.11l-.396-.305.396.306zm.204-1.07l.48-.141-.48.14zm-2.452-8.39h-.5v.072l.02.069.48-.14zm0-4.744l-.329-.377-.17.15v.227h.5zM46.948 7.072l.478.146.158-.52-.53-.115-.106.49zm-.001 0l-.478-.147-.16.52.532.115.106-.488zM47 1.222h.5-.5zM25.006 35.71l-.356-.351.356.35zm-3.011 0l-.357.35.357-.35zm-6.058-.537l-.48-.14-.484 1.655 1.294-1.14-.33-.375zm1.38-4.726v-.5h-.374l-.105.36.48.14zm12.365 0l.48-.14-.105-.36h-.375v.5zm1.381 4.726l-.33.375 1.294 1.14-.484-1.655-.48.14zm-13.438-7.17h-.5v.5h.5v-.5zm0-3.054v-.5h-.5v.5h.5zm11.75 0h.5v-.5h-.5v.5zm0 3.055v.5h.5v-.5h-.5zm.814-5.5v.5h.187l.142-.122-.33-.377zm-5.44 0h-.5v.5h.5v-.5zm-2.5 0v.5h.5v-.5h-.5zm-5.438 0l-.329.378.141.123h.188v-.5zM3.339 8.398l.226-.446-1.463-.742.8 1.432.437-.244zm.92.559l-.275.417.276-.417zm8.814 0l.275.417-.275-.417zm6.02 0l-.276.417.275-.417zm8.813 0l.275.417-.275-.417zm6.02 0l-.276.417.276-.417zm8.814 0l.275.417-.275-.417zm.921-.559l.436.244.801-1.432-1.463.742.226.446zm.838-2.807v-.5h-.038l-.038.006.076.494zm-3.157 1.34l-.275-.418.275.417zm-6.02 0l.276-.418-.275.417zm-8.814 0l-.275-.418.276.417zm-6.019 0l.276-.418-.276.417zm-8.813 0l-.276-.418.276.417zm-6.02 0l.276-.418-.275.417zM2.5 5.59H2v.429l.424.065.076-.494zm0-3.008l.122-.485L2 1.942v.64h.5zm1.76.875l-.276.418.275-.418zm8.813 0l.275.418-.275-.418zm6.019 0l-.275.418.275-.418zm8.814 0l.275.418-.275-.418zm6.02 0l-.276.418.275-.418zm8.814 0l-.275-.417.275.417zm1.76-.875h.5v-.64l-.622.155.122.485zm0 3.008v.5h.5v-.5h-.5zM45.75-.5c-2.386 0-3.691.86-4.683 1.513l.55.835C42.56 1.227 43.662.5 45.75.5v-1zm-4.683 1.513c-.834.55-1.41.93-2.734.93v1c1.62 0 2.4-.512 3.285-1.095l-.55-.835zm-2.734.93c-1.324 0-1.9-.38-2.735-.93l-.55.835c.883.583 1.663 1.096 3.285 1.096v-1zm-2.735-.93C34.606.36 33.3-.5 30.916-.5v1c2.087 0 3.189.727 4.132 1.348l.55-.835zM30.916-.5c-2.386 0-3.69.86-4.683 1.513l.55.835C27.727 1.227 28.829.5 30.917.5v-1zm-4.683 1.513c-.834.55-1.41.93-2.734.93v1c1.62 0 2.4-.512 3.285-1.095l-.55-.835zm-2.734.93c-1.323 0-1.9-.38-2.734-.93l-.55.835c.883.583 1.663 1.096 3.284 1.096v-1zm-2.734-.93C19.773.36 18.468-.5 16.082-.5v1c2.088 0 3.19.727 4.132 1.348l.55-.835zM16.082-.5c-2.385 0-3.69.86-4.682 1.513l.55.835C12.894 1.227 13.996.5 16.083.5v-1zM11.4 1.013c-.834.55-1.41.93-2.734.93v1c1.621 0 2.401-.512 3.285-1.095l-.55-.835zm-2.734.93c-1.323 0-1.9-.38-2.734-.93l-.55.835c.883.583 1.663 1.096 3.284 1.096v-1zm-2.734-.93C4.94.36 3.635-.5 1.25-.5v1c2.087 0 3.19.727 4.132 1.348l.55-.835zM1.25-.5C.294-.5-.5.26-.5 1.222h1C.5.834.825.5 1.25.5v-1zM-.5 1.222v5.499h1V1.222h-1zm0 5.499c.002.161.032.353.075.497l.956-.293A.532.532 0 0 1 .5 6.721h-1zm.447-.138h-.001l.212.978H.16l-.212-.978zm-.373.635C.4 9.928 2.59 12.87 5.344 15.82c2.763 2.958 6.155 5.988 9.452 8.865l.658-.754c-3.293-2.873-6.647-5.867-9.378-8.793-2.74-2.934-4.79-5.735-5.546-8.213l-.956.292zm15.05 17.09v4.745h1V24.31h-1zm.021 4.605l-2.452 8.389.96.28 2.452-8.388-.96-.28zm-2.452 8.389a1.7 1.7 0 0 0 .288 1.517l.792-.61a.7.7 0 0 1-.12-.627l-.96-.28zm.288 1.517c.333.431.85.681 1.394.681v-1a.76.76 0 0 1-.602-.292l-.792.611zm1.394.681c1.954 0 2.99-1.062 3.663-1.746l-.712-.701c-.654.663-1.435 1.447-2.951 1.447v1zm3.663-1.746c.287-.29.457-.463.635-.57.162-.105.26-.133.515-.128v-1a2.09 2.09 0 0 0-1.04.278c-.27.17-.53.422-.822.719l.712.701zm1.15-.698c.254-.005.353.023.514.129.178.106.349.278.635.57l.713-.702c-.292-.297-.552-.548-.822-.719a2.092 2.092 0 0 0-1.04-.278v1zm1.15.698c.673.684 1.709 1.746 3.662 1.746v-1c-1.516 0-2.297-.784-2.95-1.447l-.713.701zM23.5 39.5c1.954 0 2.99-1.062 3.663-1.746l-.712-.701c-.654.663-1.434 1.447-2.95 1.447v1zm3.663-1.746c.287-.29.458-.463.636-.57.16-.105.26-.133.514-.128v-1a2.09 2.09 0 0 0-1.04.278c-.27.17-.53.422-.822.719l.712.701zm1.15-.698c.254-.005.352.023.514.129.178.106.348.278.635.57l.712-.702c-.292-.297-.552-.548-.82-.719a2.09 2.09 0 0 0-1.041-.278v1zm1.149.698c.673.684 1.71 1.746 3.663 1.746v-1c-1.516 0-2.297-.784-2.95-1.447l-.713.701zm3.663 1.746a1.76 1.76 0 0 0 1.394-.68l-.792-.612a.76.76 0 0 1-.602.292v1zm1.394-.68a1.7 1.7 0 0 0 .288-1.518l-.96.28a.7.7 0 0 1-.12.626l.792.611zm.288-1.518l-2.452-8.389-.96.28 2.452 8.39.96-.281zm-2.432-8.249V24.31h-1v4.744h1zm-.171-4.367c3.297-2.877 6.689-5.907 9.451-8.865 2.755-2.95 4.945-5.893 5.771-8.603l-.956-.292c-.755 2.478-2.807 5.28-5.545 8.213-2.732 2.925-6.086 5.92-9.379 8.793l.658.754zm14.85-18.103l-.213.978.213-.978zm.371.635c.043-.144.073-.335.075-.497h-1a.532.532 0 0 1-.031.204l.956.293zm.075-.497V1.222h-1v5.499h1zm0-5.5c0-.96-.795-1.721-1.75-1.721v1c.424 0 .75.334.75.722h1zM28.312 33.613c-1.953 0-2.99 1.062-3.662 1.746l.712.701c.654-.663 1.435-1.447 2.95-1.447v-1zm-3.663 1.746c-.286.29-.457.463-.634.57-.162.105-.26.133-.515.128v1c.39-.005.755-.107 1.04-.278.27-.17.53-.422.822-.719l-.712-.701zm-1.149.698c-.254.005-.352-.023-.514-.128-.178-.107-.349-.28-.635-.57l-.713.701c.292.297.553.549.822.719.285.17.65.273 1.04.278v-1zm-1.149-.698c-.673-.684-1.71-1.746-3.663-1.746v1c1.516 0 2.297.784 2.95 1.447l.713-.701zm-3.663-1.746c-1.456 0-2.404.588-3.082 1.185l.661.75c.556-.489 1.279-.935 2.42-.935v-1zm-2.271 1.7l1.38-4.725-.96-.28-1.38 4.725.96.28zm.9-4.366h12.365v-1H17.318v1zm11.885-.36l1.381 4.726.96-.28-1.381-4.726-.96.28zm2.191 4.21c-.677-.596-1.625-1.184-3.08-1.184v1c1.141 0 1.864.446 2.42.935l.66-.75zm-13.268-6.793v-3.055h-1v3.055h1zm-.5-2.555h11.75v-1h-11.75v1zm11.25-.5v3.055h1v-3.055h-1zm.5 2.555h-11.75v1h11.75v-1zm.814-5.5h-5.44v1h5.44v-1zm-4.94.5v-6.048h-1v6.049h1zm0-6.048c0-.961-.793-1.722-1.75-1.722v1c.426 0 .75.334.75.722h1zm-1.75-1.722c-.955 0-1.75.76-1.75 1.722h1c0-.388.326-.722.75-.722v-1zm-1.75 1.722v6.049h1v-6.049h-1zm.5 5.549h-5.438v1h5.439v-1zm-5.11.123C11.67 17.356 6.096 12.302 3.775 8.153l-.872.488c2.423 4.334 8.156 9.509 13.58 14.24l.656-.754zM3.113 8.843c.29.146.557.323.871.53l.55-.835a9.984 9.984 0 0 0-.969-.587l-.452.892zm.871.53c.992.654 2.297 1.513 4.682 1.513v-1c-2.087 0-3.189-.727-4.131-1.348l-.55.835zm4.682 1.513c2.386 0 3.69-.86 4.682-1.513l-.55-.835c-.942.621-2.044 1.348-4.132 1.348v1zm4.682-1.513c.834-.55 1.411-.93 2.734-.93v-1c-1.62 0-2.4.513-3.284 1.095l.55.835zm2.734-.93c1.324 0 1.9.38 2.735.93l.55-.835c-.884-.582-1.664-1.096-3.285-1.096v1zm2.735.93c.992.654 2.297 1.513 4.682 1.513v-1c-2.087 0-3.19-.727-4.132-1.348l-.55.835zm4.682 1.513c2.385 0 3.69-.86 4.682-1.513l-.55-.835c-.943.621-2.045 1.348-4.132 1.348v1zm4.682-1.513c.834-.55 1.411-.93 2.735-.93v-1c-1.621 0-2.401.513-3.285 1.095l.55.835zm2.735-.93c1.323 0 1.9.38 2.734.93l.55-.835c-.883-.582-1.663-1.096-3.284-1.096v1zm2.734.93c.992.654 2.297 1.513 4.683 1.513v-1c-2.087 0-3.19-.727-4.132-1.348l-.55.835zm4.683 1.513c2.385 0 3.69-.86 4.682-1.513l-.55-.835c-.943.621-2.045 1.348-4.132 1.348v1zm4.682-1.513c.315-.207.582-.384.872-.53l-.452-.892c-.34.173-.655.38-.97.587l.55.835zm.21-1.22c-2.32 4.15-7.895 9.203-13.365 13.974l.658.754c5.423-4.731 11.156-9.906 13.58-14.24l-.873-.488zm1.198-3.057c-1.572.254-2.587.909-3.356 1.416l.55.835c.77-.507 1.593-1.064 2.959-1.263l-.153-.988zm-3.356 1.416c-.834.55-1.41.93-2.734.93v1c1.62 0 2.4-.513 3.285-1.095l-.55-.835zm-2.734.93c-1.324 0-1.9-.38-2.735-.93l-.55.835c.883.582 1.663 1.096 3.285 1.096v-1zm-2.735-.93c-.992-.654-2.297-1.513-4.682-1.513v1c2.087 0 3.189.727 4.132 1.348l.55-.835zm-4.682-1.513c-2.386 0-3.69.86-4.683 1.513l.55.835c.943-.621 2.045-1.348 4.133-1.348v-1zm-4.683 1.513c-.834.55-1.41.93-2.734.93v1c1.62 0 2.4-.513 3.285-1.095l-.55-.835zm-2.734.93c-1.323 0-1.9-.38-2.734-.93l-.55.835c.883.582 1.663 1.096 3.284 1.096v-1zm-2.734-.93c-.992-.654-2.297-1.513-4.683-1.513v1c2.087 0 3.19.727 4.132 1.348l.55-.835zm-4.683-1.513c-2.385 0-3.69.86-4.682 1.513l.55.835c.943-.621 2.045-1.348 4.132-1.348v-1zM11.4 6.512c-.834.55-1.41.93-2.734.93v1c1.621 0 2.401-.513 3.285-1.095l-.55-.835zm-2.734.93c-1.323 0-1.9-.38-2.734-.93l-.55.835c.883.582 1.663 1.096 3.284 1.096v-1zm-2.734-.93c-.77-.507-1.783-1.162-3.356-1.416l-.152.988c1.365.2 2.188.756 2.958 1.263l.55-.835zM3 5.59V2.582H2V5.59h1zm-.622-2.523c.618.148 1.035.431 1.606.808l.55-.835c-.57-.377-1.135-.74-1.912-.943l-.244.97zm1.606.808c.992.653 2.297 1.513 4.682 1.513v-1c-2.087 0-3.189-.727-4.132-1.348l-.55.835zm4.682 1.513c2.386 0 3.69-.86 4.682-1.513l-.55-.835c-.943.62-2.044 1.348-4.132 1.348v1zm4.682-1.513c.834-.55 1.411-.931 2.734-.931v-1c-1.62 0-2.4.513-3.284 1.096l.55.835zm2.734-.931c1.324 0 1.9.38 2.735.93l.55-.834c-.884-.583-1.664-1.096-3.285-1.096v1zm2.735.93c.991.654 2.297 1.514 4.682 1.514v-1c-2.087 0-3.19-.727-4.132-1.348l-.55.835zm4.682 1.514c2.385 0 3.69-.86 4.682-1.513l-.55-.835c-.943.62-2.045 1.348-4.132 1.348v1zm4.682-1.513c.834-.55 1.411-.931 2.735-.931v-1c-1.621 0-2.401.513-3.285 1.096l.55.835zm2.735-.931c1.323 0 1.9.38 2.734.93l.55-.834c-.883-.583-1.663-1.096-3.284-1.096v1zm2.734.93c.992.654 2.297 1.514 4.683 1.514v-1c-2.088 0-3.19-.727-4.132-1.348l-.55.835zm4.683 1.514c2.385 0 3.69-.86 4.682-1.513l-.55-.835c-.943.62-2.045 1.348-4.132 1.348v1zm4.682-1.513c.57-.377.988-.66 1.606-.808l-.243-.97c-.777.202-1.342.566-1.913.943l.55.835zM44 2.582V5.59h1V2.582h-1zm.5 2.508v1-1z"/></defs></svg>