<svg width="33" height="45" viewBox="0 0 33 45" xmlns="http://www.w3.org/2000/svg" xmlns:xlink="http://www.w3.org/1999/xlink"><title>Vector</title><desc>Created using Figma</desc><g transform="translate(-3950 -12161)"><use xlink:href="#a" transform="translate(3950 12161.4)" fill="#F8E10C"/><mask id="b"><use xlink:href="#a" fill="#fff" transform="translate(3950 12161.4)"/></mask><g mask="url(#b)"><use xlink:href="#c" transform="translate(3950 12161.4)" fill="#FFF"/></g></g><defs><path id="a" d="M28.875 31.172c2.279 0 4.125-2.464 4.125-5.503 0-3.038-1.846-5.502-4.125-5.502-.075 0-.15.002-.224.008a8.071 8.071 0 0 0-2.436-2.156 10.954 10.954 0 0 0 1.297-5.185c0-.835-.094-1.649-.27-2.43a5.5 5.5 0 1 0-7.071-7.95 10.987 10.987 0 0 0-3.666-.626 10.99 10.99 0 0 0-3.673.629 5.5 5.5 0 1 0-7.063 7.952 11.07 11.07 0 0 0-.269 2.425c0 1.872.469 3.636 1.294 5.18a8.064 8.064 0 0 0-2.445 2.16 3.536 3.536 0 0 0-.224-.007C1.848 20.167 0 22.63 0 25.669c0 3.04 1.848 5.503 4.125 5.503a3.1 3.1 0 0 0 .526-.044c.31.517.645 1.023 1.005 1.517-1.215 1.176-1.99 2.952-1.99 4.939 0 3.544 2.462 6.416 5.5 6.416 2.12 0 3.958-1.397 4.877-3.446a37.454 37.454 0 0 0 2.457 1.613s.999-.583 2.457-1.613c.919 2.05 2.757 3.446 4.876 3.446 3.037 0 5.5-2.872 5.5-6.416 0-1.987-.774-3.762-1.987-4.939.358-.494.694-1 1.003-1.517a3.1 3.1 0 0 0 .526.044zM24.75 1.834A3.671 3.671 0 0 1 28.417 5.5a3.668 3.668 0 0 1-1.742 3.119 11.017 11.017 0 0 0-.389-.838 2.75 2.75 0 1 0-3.623-4.07 10.707 10.707 0 0 0-.787-.485 3.662 3.662 0 0 1 2.874-1.392zm.917 3.666a.913.913 0 0 1-.36.726 10.948 10.948 0 0 0-1.214-1.364.918.918 0 0 1 1.574.639zm-9.162-1.839c2.451 0 4.754.954 6.487 2.686a9.113 9.113 0 0 1 2.686 6.487 9.13 9.13 0 0 1-1.152 4.46 8.032 8.032 0 0 0-3.674-.217 4.587 4.587 0 0 0-4.406-3.327 4.587 4.587 0 0 0-4.4 3.31 8.09 8.09 0 0 0-3.561.23 9.115 9.115 0 0 1-1.15-4.456c0-2.45.953-4.754 2.685-6.487a9.114 9.114 0 0 1 6.485-2.686zM16.5 17.417a.917.917 0 0 0 .054-1.83 2.753 2.753 0 0 1 2.54 2.008 8.034 8.034 0 0 0-2.594 1.772 8.033 8.033 0 0 0-2.691-1.812 2.755 2.755 0 0 1 2.637-1.971h.037a.917.917 0 0 0 .017 1.833zM7.334 5.5a.917.917 0 0 1 1.578-.632c-.44.42-.846.876-1.213 1.363a.915.915 0 0 1-.365-.73zm-.61 2.287a10.9 10.9 0 0 0-.389.838A3.666 3.666 0 0 1 8.25 1.834c1.165 0 2.205.546 2.876 1.396-.268.151-.53.313-.785.485a2.75 2.75 0 1 0-3.617 4.072zM5.574 28.46c-.247.328-.761.879-1.45.879s-1.203-.551-1.45-.879c-.535-.714-.84-1.732-.84-2.791 0-1.06.305-2.078.84-2.791.247-.329.761-.879 1.45-.879s1.203.55 1.45.879c.22.293.4.638.537 1.017a.916.916 0 0 0 .247 1.778.916.916 0 0 0-.248 1.776 4.006 4.006 0 0 1-.536 1.011zm6.088 12.467c-.684.8-1.57 1.24-2.497 1.24-.924 0-1.812-.44-2.496-1.24-.754-.88-1.17-2.068-1.17-3.344 0-1.277.416-2.465 1.17-3.343.685-.8 1.573-1.24 2.497-1.24.926 0 1.813.44 2.497 1.24.755.879 1.17 2.067 1.17 3.344 0 1.276-.415 2.464-1.17 3.344zm6.752-2.241a45.71 45.71 0 0 1-1.915 1.318 44.931 44.931 0 0 1-1.915-1.32c.054-.357.082-.725.082-1.1 0-3.546-2.463-6.418-5.501-6.418-.704 0-1.378.154-1.998.436a19.281 19.281 0 0 1-.853-1.27c1.162-.973 1.935-2.699 1.935-4.663 0-2.06-.849-3.856-2.105-4.799a6.146 6.146 0 0 1 4.626-2.079c1.676 0 3.245.66 4.42 1.858l1.309 1.336 1.31-1.336a6.141 6.141 0 0 1 4.42-1.858 6.144 6.144 0 0 1 4.625 2.08c-1.256.942-2.105 2.738-2.105 4.798 0 1.964.772 3.69 1.935 4.663-.264.432-.55.857-.853 1.27a4.812 4.812 0 0 0-2-.436c-3.037 0-5.5 2.872-5.5 6.417 0 .376.03.744.083 1.103zm9.085-1.103c0 1.276-.415 2.464-1.17 3.344-.684.8-1.572 1.24-2.497 1.24-.925 0-1.811-.44-2.496-1.24-.755-.88-1.17-2.068-1.17-3.344 0-1.277.415-2.465 1.17-3.343.685-.8 1.57-1.241 2.496-1.241.925 0 1.813.44 2.498 1.24.754.879 1.169 2.067 1.169 3.344zm-.075-9.123a3.976 3.976 0 0 1-.537-1.014.916.916 0 0 0-.247-1.776.917.917 0 0 0 .247-1.778c.137-.377.318-.722.537-1.015.245-.328.761-.878 1.45-.878s1.204.55 1.45.879c.535.713.842 1.731.842 2.79 0 1.06-.307 2.078-.842 2.792-.245.328-.761.878-1.45.878s-1.204-.55-1.45-.878z"/><path id="c" d="M28.65 20.175l-.2.15.083.11.136-.01-.018-.25zm-2.435-2.156l-.22-.118-.115.214.21.12.125-.216zm1.027-7.616l-.113-.222-.173.088.042.19.244-.056zm-7.07-7.95l-.084.236.183.065.108-.162-.208-.139zm-7.34.004l-.209.138.108.162.184-.065-.083-.235zm-7.063 7.952l.244.054.042-.19-.173-.087-.113.223zm1.025 7.605l.125.216.21-.12-.114-.214-.22.118zm-2.445 2.16l-.016.25.135.009.081-.108-.2-.15zm.302 10.954L4.866 31l-.088-.148-.169.03.042.246zm1.005 1.517l.174.18.156-.151-.128-.176-.202.147zm8.387 7.91l.144-.205-.248-.175-.124.277.228.102zm2.457 1.612l-.126.216.126.073.126-.073-.126-.216zm2.457-1.613l.228-.102-.124-.277-.248.175.144.204zm8.389-7.909l-.203-.147-.127.176.156.15.174-.179zm1.003-1.517l.042-.246-.169-.03-.088.148.215.128zm-1.674-22.51l-.23.096.112.272.25-.155-.131-.212zm-.389-.837l-.14-.207-.184.124.102.197.222-.114zm-3.623-4.07l-.14.206.185.125.145-.17-.19-.162zm-.787-.485l-.195-.155-.183.23.257.143.122-.218zm3.431 3l-.2.15.152.202.2-.154-.152-.198zm-1.214-1.364l-.179-.175-.176.182.183.174.172-.181zm.657-.278v-.25.25zm-1.758 1.763l.177-.176-.177.176zm1.534 10.946l-.072.24.192.057.098-.175-.218-.122zm-3.674-.216l-.24.068.061.217.222-.039-.043-.246zm-8.806-.017l-.04.247.219.035.061-.212-.24-.07zm-3.561.23l-.218.122.097.175.192-.057-.071-.24zM10.02 6.348l-.177-.176.177.176zm6.534 9.24l.01-.25-.025.499.015-.25zm2.54 2.008l.098.23.202-.086-.059-.212-.24.068zM16.5 19.367l-.179.175.179.182.178-.182-.178-.175zm-2.691-1.812l-.24-.071-.064.217.21.085.094-.231zm2.674-1.97l.004.25-.004-.5v.25zm-.9.915h-.25.25zM8.912 4.868l.172.18.182-.173-.174-.18-.18.173zM7.699 6.23l-.15.2.2.15.15-.2-.2-.15zm-.976 1.556l.222.115.103-.199-.186-.124-.139.208zm-.388.838l-.13.213.249.153.112-.27-.23-.096zm4.791-5.395l.123.218.255-.143-.182-.23-.196.155zm-.785.485l-.19.162.144.17.185-.125-.14-.207zM5.5 5.5h.25-.25zm.075 22.961l.2.15-.2-.15zm-2.9 0l-.2.15.2-.15zm0-5.582l-.2-.15.2.15zm2.9 0l.2-.15-.2.15zm.537 1.017l.083.236.238-.084-.086-.237-.235.085zm.247 1.778l.016.25v-.5l-.016.25zm-.248 1.776l.234.087.088-.238-.238-.084-.084.235zm5.552 13.478l-.19-.163.19.163zm-4.993 0l.19-.163-.19.163zm0-6.687l.19.162-.19-.162zm4.993 0l-.19.162.19-.162zm1.17 3.343h-.25.25zm5.582 1.103l.147.202.122-.09-.022-.15-.247.038zM16.5 40.005l-.136.21.136.089.137-.09-.137-.209zm-1.915-1.32l-.247-.037-.023.15.123.09.147-.203zm-7.417-7.082l-.202.147.12.165.185-.084-.103-.228zm-.853-1.27l-.16-.191-.166.138.113.184.213-.13zm-.17-9.462l-.187-.166-.18.203.216.163.15-.2zm.25-.267l.177.178-.176-.178zm8.796.046l.178-.175-.178.175zm1.309 1.336l-.179.175.179.182.179-.182-.179-.175zm1.31-1.336l-.18-.175.18.175zm8.794-.045l-.177.176.001.001.176-.177zm.252.266l.15.2.217-.163-.18-.203-.188.166zm-.171 9.462l.213.13.113-.183-.166-.139-.16.192zm-.853 1.27l-.103.228.185.084.12-.164-.202-.148zm.498 9.325l-.19-.163.19.163zm-4.993 0l.19-.163-.19.163zm0-6.687l.19.163-.19-.163zm4.994 0l-.19.162.19-.162zm1.094-5.78l-.2.15.2-.15zm-.537-1.014l-.084-.235-.238.084.087.237.235-.086zm-.247-1.776l-.016-.25v.5l.016-.25zm.247-1.778l-.235-.085-.086.237.237.084.084-.236zm.537-1.015l-.2-.15.2.15zm2.9 0l-.2.15.2-.15zm0 5.583l.2.15-.2-.15zm-1.45 2.961c1.236 0 2.335-.669 3.117-1.712s1.258-2.472 1.258-4.04h-.5c0 1.47-.447 2.792-1.158 3.74-.71.949-1.674 1.512-2.717 1.512v.5zm4.375-5.753c0-1.568-.476-2.997-1.258-4.04-.782-1.044-1.881-1.712-3.117-1.712v.5c1.043 0 2.006.563 2.717 1.511.71.95 1.158 2.271 1.158 3.741h.5zm-4.375-5.752c-.08 0-.164.003-.242.008l.036.5c.07-.006.135-.008.206-.008v-.5zm-.024.108a8.429 8.429 0 0 0-2.512-2.223l-.248.434a7.714 7.714 0 0 1 2.36 2.089l.4-.3zm-2.416-1.888a11.31 11.31 0 0 0 1.327-5.303h-.5a10.598 10.598 0 0 1-1.267 5.067l.44.236zm1.327-5.303c0-.85-.097-1.69-.276-2.486l-.488.11a10.7 10.7 0 0 1 .264 2.376h.5zm-.406-2.208A5.75 5.75 0 0 0 30.5 5.5H30a5.25 5.25 0 0 1-2.871 4.68l.227.446zM30.5 5.5a5.75 5.75 0 0 0-5.75-5.75v.5C27.65.25 30 2.6 30 5.5h.5zM24.75-.25a5.744 5.744 0 0 0-4.787 2.565l.416.277A5.244 5.244 0 0 1 24.75.25v-.5zm-4.496 2.468a11.344 11.344 0 0 0-3.749-.64v.5a10.63 10.63 0 0 1 3.583.611l.166-.471zm-3.749-.64a11.35 11.35 0 0 0-3.757.643l.167.471c1.13-.4 2.325-.615 3.59-.614v-.5zm-3.465.74A5.745 5.745 0 0 0 8.25-.25v.5c1.825 0 3.432.931 4.373 2.345l.417-.277zM8.25-.25A5.75 5.75 0 0 0 2.5 5.5H3C3 2.6 5.35.25 8.25.25v-.5zM2.5 5.5a5.748 5.748 0 0 0 3.156 5.132l.226-.446A5.248 5.248 0 0 1 3 5.5h-.5zm3.025 4.854a11.458 11.458 0 0 0-.275 2.48h.5c0-.82.09-1.604.263-2.37l-.488-.11zm-.275 2.48a11.306 11.306 0 0 0 1.324 5.297l.44-.235a10.594 10.594 0 0 1-1.264-5.062h-.5zm1.42 4.963a8.423 8.423 0 0 0-2.52 2.228l.4.3a7.709 7.709 0 0 1 2.369-2.095l-.249-.433zm-2.305 2.128a3.807 3.807 0 0 0-.24-.008v.5c.07 0 .137.003.208.007l.032-.499zm-.24-.008c-1.235 0-2.334.668-3.117 1.712C.226 22.672-.25 24.1-.25 25.669h.5c0-1.47.447-2.792 1.159-3.74.71-.95 1.674-1.512 2.716-1.512v-.5zM-.25 25.669c0 1.569.476 2.998 1.258 4.041.783 1.043 1.882 1.712 3.117 1.712v-.5c-1.042 0-2.005-.563-2.716-1.512C.697 28.462.25 27.14.25 25.67h-.5zm4.375 5.753c.189 0 .386-.017.569-.048l-.085-.493a2.747 2.747 0 0 1-.484.041v.5zm.312-.166c.312.522.654 1.038 1.017 1.536l.404-.294c-.357-.49-.686-.986-.992-1.498l-.43.256zm1.045 1.21c-1.267 1.225-2.066 3.067-2.066 5.118h.5c0-1.923.75-3.633 1.914-4.76l-.348-.358zm-2.066 5.118c0 3.644 2.54 6.666 5.75 6.666v-.5c-2.865 0-5.25-2.723-5.25-6.166h-.5zm5.75 6.666c2.238 0 4.155-1.473 5.105-3.593l-.456-.205c-.887 1.978-2.646 3.298-4.65 3.298v.5zm4.732-3.492a44.375 44.375 0 0 0 2.293 1.516l.135.08.035.022.01.005.002.002h.001l.126-.216.126-.216-.003-.001-.008-.005a4.402 4.402 0 0 1-.164-.099c-.116-.07-.284-.174-.499-.31a43.56 43.56 0 0 1-1.765-1.186l-.288.408zm2.602 1.41l.126.215.003-.002.01-.005.035-.021.135-.081c.117-.072.29-.178.507-.316a44.332 44.332 0 0 0 1.786-1.2l-.289-.408a43.767 43.767 0 0 1-2.264 1.496 24.046 24.046 0 0 1-.164.099l-.009.005h-.002v.001l.126.216zm2.23-1.511c.95 2.12 2.866 3.593 5.103 3.593v-.5c-2.001 0-3.76-1.32-4.648-3.298l-.456.205zm5.103 3.593c3.21 0 5.75-3.022 5.75-6.666h-.5c0 3.443-2.385 6.166-5.25 6.166v.5zm5.75-6.666c0-2.051-.798-3.892-2.063-5.118l-.348.359c1.162 1.127 1.91 2.836 1.91 4.76h.5zm-2.035-4.792c.362-.498.703-1.014 1.015-1.536L28.134 31a20.066 20.066 0 0 1-.99 1.498l.404.294zm.758-1.418c.183.032.38.048.569.048v-.5c-.168 0-.323-.012-.484-.04l-.085.492zM24.75 2.084A3.42 3.42 0 0 1 28.167 5.5h.5a3.921 3.921 0 0 0-3.917-3.916v.5zM28.167 5.5c0 1.225-.65 2.303-1.623 2.906l.263.425a3.918 3.918 0 0 0 1.86-3.33h-.5zm-1.26 3.023a11.5 11.5 0 0 0-.399-.857l-.444.23c.139.268.264.538.38.818l.463-.19zm-.481-.535A2.996 2.996 0 0 0 27.75 5.5h-.5c0 .864-.438 1.625-1.104 2.074l.28.414zM27.75 5.5a3 3 0 0 0-3-3V3a2.5 2.5 0 0 1 2.5 2.5h.5zm-3-3c-.911 0-1.727.407-2.276 1.047l.38.326A2.49 2.49 0 0 1 24.75 3v-.5zm-1.947 1.003c-.26-.175-.53-.342-.805-.495l-.243.436c.265.148.518.304.768.473l.28-.414zm-.73-.122a3.412 3.412 0 0 1 2.677-1.297v-.5a3.911 3.911 0 0 0-3.07 1.487l.392.31zm3.344 2.12a.663.663 0 0 1-.262.526l.304.397a1.16 1.16 0 0 0 .458-.924h-.5zm.09.575a11.3 11.3 0 0 0-1.242-1.396l-.344.363c.434.412.826.853 1.186 1.333l.4-.3zm-1.235-1.04a.663.663 0 0 1 .478-.202v-.5c-.328 0-.625.136-.836.353l.358.349zm.478-.202c.367 0 .667.299.667.666h.5c0-.644-.524-1.166-1.167-1.166v.5zm-8.245-.923c2.385 0 4.624.928 6.31 2.613l.354-.353a9.366 9.366 0 0 0-6.664-2.76v.5zm6.31 2.613a8.864 8.864 0 0 1 2.613 6.31h.5c0-2.517-.98-4.884-2.759-6.663l-.354.353zm2.613 6.31a8.772 8.772 0 0 1-1.12 4.337l.436.244a9.481 9.481 0 0 0 1.184-4.581h-.5zm-.83 4.22a8.39 8.39 0 0 0-2.368-.345v.5c.778 0 1.513.111 2.224.324l.143-.48zm-2.368-.345a8.39 8.39 0 0 0-1.42.122l.085.492a7.738 7.738 0 0 1 1.335-.114v-.5zm-1.138.3a4.837 4.837 0 0 0-4.646-3.509v.5a4.337 4.337 0 0 1 4.165 3.145l.481-.136zM16.446 13.5a4.837 4.837 0 0 0-4.64 3.49l.48.14a4.337 4.337 0 0 1 4.16-3.13v-.5zm-4.36 3.313a8.44 8.44 0 0 0-1.316-.104v.5c.424 0 .83.033 1.237.098l.078-.494zm-1.316-.104c-.812 0-1.616.123-2.356.342l.142.48a7.67 7.67 0 0 1 2.214-.322v-.5zm-2.067.46a8.76 8.76 0 0 1-1.119-4.335h-.5a9.472 9.472 0 0 0 1.183 4.578l.436-.243zm-1.119-4.335a8.86 8.86 0 0 1 2.613-6.31l-.354-.353a9.364 9.364 0 0 0-2.759 6.663h.5zm2.613-6.31a8.863 8.863 0 0 1 6.308-2.613v-.5a9.36 9.36 0 0 0-6.662 2.76l.354.353zM16.5 17.667c.644 0 1.167-.522 1.167-1.167h-.5a.667.667 0 0 1-.667.667v.5zm1.167-1.167c0-.622-.488-1.127-1.099-1.163l-.029.499c.35.02.628.31.628.664h.5zm-1.123-.664a2.503 2.503 0 0 1 2.31 1.826l.481-.135a3.003 3.003 0 0 0-2.772-2.19l-.019.5zm2.452 1.529a8.393 8.393 0 0 0-2.675 1.827l.357.35a7.678 7.678 0 0 1 2.514-1.717l-.196-.46zm-2.317 1.827a8.39 8.39 0 0 0-2.775-1.868l-.19.462a7.679 7.679 0 0 1 2.607 1.756l.357-.35zm-2.63-1.566a2.505 2.505 0 0 1 2.397-1.792v-.5c-1.36 0-2.51.91-2.877 2.15l.48.142zm2.397-1.792h.037v-.5h-.037v.5zm.032-.5a1.167 1.167 0 0 0-1.145 1.166h.5c0-.363.292-.659.654-.666l-.01-.5zM15.333 16.5c0 .645.523 1.167 1.167 1.167v-.5a.667.667 0 0 1-.667-.667h-.5zm-7.749-11c0-.368.3-.666.666-.666v-.5c-.643 0-1.166.523-1.166 1.166h.5zm.666-.666c.188 0 .358.078.482.207l.36-.347c-.212-.22-.51-.36-.842-.36v.5zm.49-.147c-.448.427-.868.899-1.24 1.394l.4.3c.36-.479.751-.92 1.184-1.332l-.344-.362zm-.89 1.345a.665.665 0 0 1-.266-.532h-.5c0 .381.184.719.465.93l.301-.398zm-1.349 1.64a11.48 11.48 0 0 0-.397.857l.462.191c.116-.28.24-.55.38-.818l-.445-.23zm-.035.74A3.416 3.416 0 0 1 4.834 5.5h-.5c0 1.41.75 2.648 1.87 3.338l.262-.426zM4.834 5.5A3.42 3.42 0 0 1 8.25 2.084v-.5A3.92 3.92 0 0 0 4.334 5.5h.5zM8.25 2.084c1.086 0 2.054.508 2.68 1.301l.392-.31A3.908 3.908 0 0 0 8.25 1.584v.5zm2.754.928c-.273.154-.544.321-.803.496l.28.414c.25-.169.504-.326.768-.474l-.245-.436zm-.473.54A2.99 2.99 0 0 0 8.25 2.5V3c.762 0 1.442.34 1.9.877l.38-.324zM8.25 2.5a3 3 0 0 0-3 3h.5A2.5 2.5 0 0 1 8.25 3v-.5zm-3 3c0 1.04.53 1.958 1.334 2.495l.278-.416A2.497 2.497 0 0 1 5.75 5.5h-.5zm.126 22.81c-.244.323-.692.78-1.251.78v.5c.819 0 1.399-.645 1.65-.978l-.4-.301zm-1.251.78c-.559 0-1.007-.457-1.25-.78l-.4.302c.251.332.831.978 1.65.978v-.5zm-1.25-.779c-.496-.663-.79-1.625-.79-2.641h-.5c0 1.102.317 2.176.89 2.941l.4-.3zm-.79-2.641c0-1.016.294-1.979.79-2.642l-.4-.3c-.573.765-.89 1.839-.89 2.942h.5zm.79-2.641c.243-.323.69-.779 1.25-.779v-.5c-.819 0-1.399.645-1.65.978l.4.3zm1.25-.779c.56 0 1.007.456 1.25.779l.4-.3c-.251-.335-.831-.979-1.65-.979v.5zm1.25.779c.209.276.371.589.502.952l.47-.17a4.27 4.27 0 0 0-.572-1.082l-.4.3zm.655.63c-.453.16-.78.592-.78 1.1h.5c0-.289.186-.537.445-.627l-.165-.472zm-.78 1.1c0 .621.483 1.125 1.093 1.164l.032-.499a.666.666 0 0 1-.625-.665h-.5zm1.094.665a1.166 1.166 0 0 0-1.094 1.163h.5c0-.353.276-.642.625-.664l-.031-.499zM5.25 26.587c0 .508.325.938.777 1.099l.168-.471a.666.666 0 0 1-.445-.628h-.5zm.626.777c-.132.36-.294.672-.501.948l.4.299c.23-.31.426-.685.57-1.074l-.469-.173zm5.597 13.401c-.644.753-1.464 1.152-2.307 1.152v.5c1.01 0 1.962-.48 2.687-1.327l-.38-.325zm-2.307 1.152c-.84 0-1.662-.399-2.306-1.152l-.38.325c.725.848 1.679 1.327 2.686 1.327v-.5zm-2.307-1.152c-.71-.83-1.109-1.959-1.109-3.18h-.5c0 1.328.434 2.576 1.23 3.505l.38-.325zm-1.109-3.18c0-1.225.399-2.354 1.11-3.182l-.38-.325c-.796.928-1.23 2.176-1.23 3.506h.5zm1.11-3.182c.644-.753 1.465-1.153 2.306-1.153v-.5c-1.008 0-1.961.48-2.686 1.328l.38.325zm2.306-1.153c.843 0 1.663.4 2.307 1.153l.38-.325c-.725-.847-1.677-1.328-2.687-1.328v.5zm2.308 1.154c.711.827 1.109 1.956 1.109 3.18h.5c0-1.33-.432-2.578-1.23-3.506l-.38.325zm1.109 3.18c0 1.223-.398 2.351-1.11 3.18l.38.326c.798-.93 1.23-2.177 1.23-3.506h-.5zm5.685.9c-.756.55-1.413.992-1.905 1.312l.274.419a46.577 46.577 0 0 0 1.925-1.326l-.294-.405zm-1.632 1.312a44.576 44.576 0 0 1-1.904-1.313l-.294.404a45.293 45.293 0 0 0 1.926 1.328l.272-.42zm-1.804-1.074c.055-.366.085-.752.085-1.138h-.5c0 .367-.027.716-.079 1.064l.494.074zm.085-1.138c0-3.645-2.54-6.667-5.751-6.667v.5c2.866 0 5.251 2.723 5.251 6.167h.5zm-5.751-6.667a5.168 5.168 0 0 0-2.102.459l.207.455a4.456 4.456 0 0 1 1.895-.414v-.5zm-1.796.54c-.298-.41-.58-.827-.842-1.254l-.426.26c.267.438.56.87.864 1.287l.404-.294zm-.894-.932c1.227-1.03 2.024-2.83 2.024-4.855H8c0 1.904-.75 3.554-1.846 4.472l.322.383zM8.5 25.67c0-2.123-.874-4-2.205-4.999l-.3.4c1.18.887 2.005 2.6 2.005 4.598h.5zm-2.169-4.633c.079-.088.157-.172.24-.255l-.351-.355c-.091.09-.18.185-.262.278l.373.332zm.241-.256a5.896 5.896 0 0 1 4.198-1.739v-.5c-1.719 0-3.335.67-4.551 1.886l.353.353zm4.198-1.739c1.61 0 3.114.633 4.242 1.783l.357-.35a6.391 6.391 0 0 0-4.599-1.933v.5zm4.242 1.783l1.31 1.336.357-.35-1.31-1.336-.357.35zm1.667 1.336l1.309-1.336-.357-.35-1.31 1.336.358.35zm1.309-1.336a5.892 5.892 0 0 1 4.242-1.783v-.5a6.392 6.392 0 0 0-4.6 1.933l.358.35zm4.242-1.783c1.586 0 3.076.617 4.197 1.74l.354-.354a6.394 6.394 0 0 0-4.551-1.886v.5zm4.198 1.74c.084.083.162.167.24.255l.374-.332a6.217 6.217 0 0 0-.262-.278l-.352.355zm.277-.11c-1.331.998-2.205 2.875-2.205 4.998h.5c0-1.998.824-3.713 2.006-4.599l-.3-.4zM24.5 25.67c0 2.024.795 3.826 2.024 4.855l.321-.383C25.75 29.224 25 27.573 25 25.67h-.5zm1.972 4.533c-.262.427-.542.843-.842 1.253l.404.295c.305-.418.597-.85.864-1.287l-.426-.261zm-.536 1.173a5.17 5.17 0 0 0-2.103-.46v.5a4.458 4.458 0 0 1 1.896.415l.207-.455zm-2.103-.46c-3.21 0-5.75 3.023-5.75 6.668h.5c0-3.444 2.385-6.167 5.25-6.167v-.5zm-5.75 6.668c0 .386.03.772.085 1.14l.494-.074a7.08 7.08 0 0 1-.08-1.066h-.5zm9.167 0c0 1.223-.398 2.351-1.11 3.18l.38.326c.798-.93 1.23-2.177 1.23-3.506h-.5zm-1.11 3.181c-.644.753-1.465 1.152-2.307 1.152v.5c1.008 0 1.962-.48 2.687-1.327l-.38-.325zm-2.307 1.152c-.842 0-1.662-.399-2.306-1.152l-.38.325c.725.848 1.677 1.327 2.686 1.327v-.5zm-2.306-1.152c-.712-.83-1.11-1.958-1.11-3.18h-.5c0 1.328.432 2.576 1.23 3.505l.38-.325zm-1.11-3.18c0-1.225.398-2.354 1.11-3.181l-.38-.326c-.798.928-1.23 2.176-1.23 3.506h.5zm1.11-3.182c.644-.753 1.464-1.153 2.306-1.153v-.5c-1.009 0-1.961.48-2.686 1.328l.38.325zm2.306-1.153c.842 0 1.663.4 2.308 1.153l.38-.325c-.726-.847-1.68-1.328-2.688-1.328v.5zm2.308 1.154c.711.827 1.109 1.956 1.109 3.18h.5c0-1.33-.432-2.578-1.23-3.506l-.38.326zm1.484-6.093a3.62 3.62 0 0 1-.503-.95l-.469.172c.144.393.341.769.572 1.078l.4-.3zm-.654-.628c.453-.16.779-.59.779-1.099h-.5a.666.666 0 0 1-.446.628l.167.471zm.779-1.099c0-.62-.484-1.125-1.094-1.163l-.03.5c.348.02.624.31.624.663h.5zm-1.093-.664a1.167 1.167 0 0 0 1.093-1.164h-.5a.667.667 0 0 1-.625.665l.032.5zm1.093-1.164c0-.508-.326-.939-.779-1.099l-.167.472a.666.666 0 0 1 .446.627h.5zm-.627-.778c.13-.361.294-.673.502-.95l-.4-.3a4.3 4.3 0 0 0-.572 1.08l.47.17zm.502-.95c.24-.322.69-.778 1.25-.778v-.5c-.819 0-1.4.644-1.65.979l.4.3zm1.25-.778c.56 0 1.01.456 1.25.778l.4-.3c-.25-.334-.831-.978-1.65-.978v.5zm1.25.778c.496.663.792 1.626.792 2.642h.5c0-1.104-.32-2.177-.892-2.941l-.4.3zm.792 2.642c0 1.015-.296 1.978-.792 2.641l.4.3c.573-.765.892-1.838.892-2.941h-.5zm-.792 2.641c-.241.322-.69.778-1.25.778v.5c.819 0 1.4-.644 1.65-.978l-.4-.3zm-1.25.778c-.56 0-1.009-.456-1.25-.778l-.4.3c.25.334.831.978 1.65.978v-.5z"/></defs></svg>