<svg width="49" height="39" viewBox="0 0 49 39" xmlns="http://www.w3.org/2000/svg" xmlns:xlink="http://www.w3.org/1999/xlink"><title>Vector</title><desc>Created using Figma</desc><use xlink:href="#a" transform="translate(0 .4)" fill="#0FA79B"/><defs><path id="a" d="M32.138 22.465c.505 0 1.026-.05 1.56-.148 2.612-.484 5.408-2.13 8.312-4.893 6.035-5.742 6.951-16.054 6.987-16.49a.844.844 0 0 0-.261-.68.928.928 0 0 0-.71-.251c-.455.033-11.203.89-17.237 6.632-2.907 2.766-4.65 5.423-5.18 7.897-.431 2.007-.046 3.822 1.113 5.306-4.859 3.75-10.032 6.856-14.11 9.076-.482.262-.956.516-1.42.762.634-1.308 1.352-3.19 1.908-5.752 3.311-.12 6.68-3.188 7.127-10.032.421-6.45-5.381-11.902-5.629-12.13a.936.936 0 0 0-1.172-.071c-.275.198-6.743 4.916-7.164 11.366-.414 6.33 2.071 9.753 5.034 10.639a26.922 26.922 0 0 1-.975 3.411c-.974 2.676-1.979 3.832-2.004 3.86l-.002.003c-.2.22-.443.403-.715.536C3.442 33.55.596 34.69.558 34.704c-.462.184-.68.69-.488 1.131a.906.906 0 0 0 .835.533.938.938 0 0 0 .347-.066c.053-.021 5.423-2.168 12.231-5.872a127.15 127.15 0 0 0 3.198-1.8c.639.48 2.87 1.95 7.43 2.964.09 2.88 2.95 5.848 9.408 6.371.292.024.583.035.871.035 5.742 0 10.548-4.477 10.76-4.677a.837.837 0 0 0 .099-1.12c-.182-.243-4.53-5.952-10.65-6.447-2.918-.237-5.448.142-7.318 1.093-1.44.732-2.432 1.782-2.888 3.022-3.214-.733-5.126-1.686-6.036-2.234 3.086-1.863 6.424-4.068 9.629-6.552 1.19.913 2.596 1.38 4.152 1.38zM9.271 19.883c-.967-1.65-1.383-3.972-1.204-6.718.298-4.552 4.267-8.295 5.825-9.597 1.376 1.478 4.826 5.665 4.529 10.216-.18 2.745-.895 5-2.069 6.522-.828 1.073-1.825 1.705-2.917 1.858.39-2.358.632-5.193.59-8.569-.005-.478-.41-.862-.915-.855-.5.006-.9.398-.893.876.04 3.347-.212 6.118-.589 8.364-.936-.333-1.74-1.043-2.357-2.097zm24.676 11.003c-3.075-.03-5.642-.288-7.76-.655.34-.742.997-1.373 1.944-1.855 1.561-.794 3.745-1.104 6.316-.896 4.193.34 7.588 3.723 8.827 5.127-1.469 1.185-5.41 3.974-9.603 3.634-2.57-.208-4.669-.865-6.068-1.9-.937-.691-1.493-1.506-1.643-2.386 2.199.373 4.835.631 7.969.662h.01c.495 0 .899-.382.904-.856.005-.478-.396-.87-.896-.875zM27.38 14.88c.452-2.105 2.072-4.532 4.685-7.018C36.55 3.593 44.22 2.224 47.063 1.851c-.395 2.724-1.842 10.077-6.329 14.347-2.607 2.48-5.159 4.009-7.38 4.42-1.513.28-2.833.055-3.937-.67 2.008-1.632 3.94-3.373 5.695-5.207a.84.84 0 0 0-.103-1.261c-.377-.289-.928-.224-1.255.117-1.732 1.808-3.644 3.525-5.634 5.136-.808-1.077-1.058-2.368-.74-3.853z"/></defs></svg>