<svg width="22" height="26" viewBox="0 0 22 26" xmlns="http://www.w3.org/2000/svg" xmlns:xlink="http://www.w3.org/1999/xlink"><title>Vector</title><desc>Created using Figma</desc><g transform="translate(-10329 -16719)"><path fill="#E5E5E5" d="M10329 16719h22v26h-22z"/><clipPath id="a" clip-rule="evenodd"><path d="M8846 16508h1920v2779H8846v-2779z" fill="#FFF"/></clipPath><g clip-path="url(#a)"><path d="M8846 16508h1920v2779H8846v-2779z" fill="#FFF"/><use xlink:href="#b" transform="translate(8846 16508)" fill="#F3F3F3"/><use xlink:href="#c" transform="translate(10329.3 16719.1)"/></g></g><defs><path id="b" d="M0 0h1920v255H0V0z"/><path id="c" d="M20.978 24.852L19.694 5.364a.818.818 0 0 0-.817-.763h-3.585v-.524C15.292 1.829 13.454 0 11.196 0H9.787C7.53 0 5.691 1.829 5.691 4.077v.524H2.107a.818.818 0 0 0-.818.763L.002 24.899a.82.82 0 0 0 .818.869h19.344a.817.817 0 0 0 .813-.916zM7.329 4.077a2.455 2.455 0 0 1 2.458-2.446h1.409a2.455 2.455 0 0 1 2.458 2.446v.524H7.329v-.524zm-5.635 20.06l1.18-17.905H5.69v.728a1.794 1.794 0 0 0-.983 1.597A1.8 1.8 0 0 0 6.51 10.35a1.8 1.8 0 0 0 1.802-1.794c0-.696-.4-1.3-.983-1.597v-.728h6.325v.728a1.794 1.794 0 0 0-.983 1.597 1.8 1.8 0 0 0 1.802 1.794 1.8 1.8 0 0 0 1.802-1.794c0-.696-.4-1.3-.983-1.597v-.728h2.817l1.18 17.905H1.694z"/></defs></svg>