<svg width="20" height="20" viewBox="0 0 20 20" xmlns="http://www.w3.org/2000/svg" xmlns:xlink="http://www.w3.org/1999/xlink"><title>Group</title><desc>Created using Figma</desc><use xlink:href="#a" fill="#EC5A6F"/><use xlink:href="#b" transform="translate(7)" fill="#FFF"/><defs><path id="a" fill-rule="evenodd" d="M20 10c0 5.524-4.478 10-10 10-5.524 0-10-4.476-10-10C0 4.477 4.476 0 10 0c5.522 0 10 4.477 10 10z"/><path id="b" d="M2.644 5.827c0-.298.066-.552.198-.762a1.33 1.33 0 0 1 .55-.49 1.79 1.79 0 0 1 .783-.17c.356 0 .63.084.82.25.195.16.293.388.293.68 0 .265-.07.501-.212.711-.137.21-.325.374-.564.491a1.728 1.728 0 0 1-.784.176c-.342 0-.608-.078-.798-.234a.81.81 0 0 1-.286-.652zM2.08 9.518a1.36 1.36 0 0 0 .095-.454c0-.195-.088-.293-.263-.293-.181 0-.347.093-.498.278-.152.181-.306.484-.462.909l-.3.761H.366l.425-1.142c.361-1.026 1.055-1.538 2.08-1.538.464 0 .8.112 1.01.336.21.22.316.51.316.872 0 .278-.056.574-.169.886l-1.574 4.593c-.059.175-.088.32-.088.432 0 .21.1.315.3.315.151 0 .303-.083.454-.25.151-.17.315-.48.49-.93l.265-.725h.285l-.388 1.099c-.352 1.03-1.025 1.545-2.022 1.545-.908 0-1.362-.412-1.362-1.237 0-.337.073-.72.22-1.15L2.08 9.518z"/></defs></svg>