<svg width="36" height="20" viewBox="0 0 36 20" xmlns="http://www.w3.org/2000/svg" xmlns:xlink="http://www.w3.org/1999/xlink"><title>Stroke 465 + Stroke 466</title><desc>Created using Figma</desc><use xlink:href="#a" transform="translate(1 10)" fill="#0B0B0A"/><use xlink:href="#b" transform="translate(25.69 1.3)" fill="#0B0B0A"/><defs><path id="a" d="M33 .75a.75.75 0 0 0 0-1.5v1.5zM0-.75a.75.75 0 1 0 0 1.5v-1.5zm33 0H0v1.5h33v-1.5z"/><path id="b" d="M-.515 16.455a.75.75 0 0 0 1.03 1.09l-1.03-1.09zM9 8.5l.515.545a.75.75 0 0 0 0-1.09L9 8.5zM.515-.545A.75.75 0 0 0-.515.545l1.03-1.09zm0 18.09l9-8.5-1.03-1.09-9 8.5 1.03 1.09zm9-9.59l-9-8.5-1.03 1.09 9 8.5 1.03-1.09z"/></defs></svg>