<svg width="36" height="20" viewBox="0 0 38 22" xmlns="http://www.w3.org/2000/svg" xmlns:xlink="http://www.w3.org/1999/xlink"><title>Stroke 465 + Stroke 466</title><desc>Created using Figma</desc><use xlink:href="#a" transform="translate(2.06 11)" fill="#0B0B0A"/><use xlink:href="#b" transform="matrix(-1 0 0 1 10.53 1)" fill="#0B0B0A"/><defs><path id="a" d="M34.941.75a.75.75 0 0 0 0-1.5v1.5zM0-.75a.75.75 0 1 0 0 1.5v-1.5zm34.941 0H0v1.5h34.941v-1.5z"/><path id="b" d="M-.543 19.483a.75.75 0 0 0 1.086 1.034l-1.086-1.034zM9.529 10l.543.517a.75.75 0 0 0 0-1.034L9.53 10zM.543-.517A.75.75 0 0 0-.543.517L.543-.517zm0 21.034l9.53-10-1.087-1.034-9.529 10 1.086 1.034zm9.53-11.034l-9.53-10L-.543.517l9.53 10 1.085-1.034z"/></defs></svg>