<svg viewBox="0 0 80 32" xmlns="http://www.w3.org/2000/svg" xmlns:xlink="http://www.w3.org/1999/xlink"><title>Capa 1 3</title><desc>Created using Figma</desc><use xlink:href="#a" transform="translate(.52 .9)" fill="#FFF"/><defs><path id="a" d="M1.695 5.49c.74.183 1.078.313 1.212.761.176.598-.39 1.606-.936 2.582-.698 1.251-1.49 2.668-1.346 4.15.479 4.908 6.031 7.537 6.406 7.703a12.928 12.928 0 0 0 3.535 4.946c.042.04.085.076.127.118l.194.16c2.986 2.638 7.338 4.501 13.018 4.759.59.031 1.164.043 1.721.043 7.408 0 11.62-2.286 13.945-4.381 2.325 2.095 6.537 4.381 13.946 4.381.556 0 1.128-.012 1.722-.043 5.68-.257 10.033-2.12 13.019-4.76.066-.05.13-.107.195-.159l.126-.118a12.93 12.93 0 0 0 3.535-4.947c.373-.165 5.927-2.794 6.406-7.701.144-1.483-.649-2.9-1.346-4.151-.548-.978-1.108-1.986-.936-2.582.133-.448.474-.578 1.212-.76.591-.148 1.587-.397 1.687-1.43.186-1.965-2.164-3.687-5.467-4.009-3.324-.329-5.948.965-6.135 2.883-.106 1.035.824 1.47 1.377 1.73.691.323.996.514 1.04.975.058.62-.689 1.502-1.411 2.355-.927 1.093-1.977 2.331-2.12 3.815-.376 3.868 2.62 6.949 4.073 8.2-.62 1.491-1.58 2.909-2.872 4.162-1.992 1.798-4.6 2.925-7.483 2.925-4.85 0-8.799-3.948-8.799-8.803 0-3.567 2.745-6.476 6.233-6.803.149.425.369.828.712 1.166a3.03 3.03 0 0 0 2.139.876c.83 0 1.603-.326 2.178-.916a3.064 3.064 0 0 0-.035-4.327c-1.17-1.148-3.18-1.126-4.326.042-.408.42-.62.933-.745 1.466a8.499 8.499 0 0 0-5.002 2.159c-.612-1.381-1.959-2.786-4.921-2.786-3.156 0-6.585 1.618-6.73 1.687a.85.85 0 0 0-.08 1.49c1.791 1.103 2.497 1.931 3.01 2.84 1.362 2.414 2.497 3.808 4.285 3.808a3.788 3.788 0 0 0 1.617-.37 10.48 10.48 0 0 0 8.66 9.984 25.062 25.062 0 0 1-3.173.357c-7.898.336-12.173-1.865-14.431-3.892 1.68-1.99 2.641-4.34 2.641-6.783a.848.848 0 0 0-1.697 0c0 1.94-.774 3.887-2.102 5.533-1.326-1.645-2.098-3.59-2.098-5.533a.848.848 0 0 0-.85-.846c-.47 0-.85.38-.85.846 0 2.442.96 4.797 2.64 6.782-2.258 2.027-6.545 4.229-14.43 3.893a25.06 25.06 0 0 1-3.173-.357 10.48 10.48 0 0 0 8.662-9.983 4.9 4.9 0 0 0 .572.218c.367.104.71.151 1.042.151 1.787 0 2.923-1.394 4.287-3.811.51-.906 1.216-1.734 3.007-2.837a.847.847 0 0 0-.081-1.49c-.145-.07-3.57-1.687-6.729-1.687-2.963 0-4.31 1.405-4.922 2.783a8.501 8.501 0 0 0-5.003-2.156c-.121-.533-.334-1.05-.744-1.466-1.145-1.168-3.154-1.19-4.325-.04a3.065 3.065 0 0 0-.035 4.323c.577.59 1.354.918 2.181.918.805 0 1.565-.31 2.141-.876.342-.338.561-.742.71-1.166 3.486.327 6.233 3.236 6.233 6.803 0 4.852-3.948 8.803-8.8 8.803-2.887 0-5.496-1.127-7.484-2.926-1.292-1.255-2.252-2.672-2.87-4.161 1.45-1.251 4.446-4.333 4.072-8.2-.142-1.484-1.194-2.722-2.12-3.816-.723-.855-1.47-1.736-1.415-2.352.045-.465.353-.656 1.041-.977.555-.259 1.484-.695 1.38-1.725C11.43 1.017 8.805-.283 5.479.053 2.173.373-.178 2.096.01 4.063c.1 1.03 1.094 1.282 1.684 1.428zm70.585 8.813a1.296 1.296 0 0 1-.882-.47 1.322 1.322 0 0 1-.295-.963c.067-.67.619-1.178 1.418-1.178h.016a1.316 1.316 0 0 1 1.179 1.43 1.304 1.304 0 0 1-1.299 1.187l-.137-.006zm-4.172-2.325c.093-.955.925-1.934 1.723-2.882.949-1.122 1.932-2.281 1.81-3.613-.141-1.478-1.314-2.03-2.013-2.356-.112-.054-.263-.123-.369-.183.285-.716 2.054-1.412 4.24-1.2 2.324.225 3.783 1.27 3.93 1.993a6.627 6.627 0 0 1-.398.108c-.751.187-2.005.499-2.43 1.93-.377 1.281.363 2.607 1.081 3.89.606 1.084 1.233 2.204 1.14 3.158-.258 2.62-2.495 4.504-4.02 5.508.15-.79.237-1.604.237-2.438 1.25-.274 2.23-1.274 2.359-2.603a3.014 3.014 0 0 0-2.705-3.285 2.996 2.996 0 0 0-3.286 2.704 2.99 2.99 0 0 0 .67 2.207c.342.415.796.676 1.284.859-.006.04-.023.075-.023.114 0 .656-.085 1.288-.195 1.913-.027.14-.046.29-.077.435-1.301-1.254-3.218-3.577-2.959-6.26zm-8.66-2.453a1.35 1.35 0 0 1 .97-.407 1.36 1.36 0 0 1-.004 2.717c-.356 0-.695-.139-.946-.389a1.363 1.363 0 0 1-.02-1.92zm-8.54 4.209c-.023.03-.066.021-.093.044-1.431-2.098-3.504-1.983-3.608-1.973a.849.849 0 0 0-.782.913c.04.468.434.801.913.782.012-.004 1.601-.087 2.496 2.014.045.284.052.637-.096.94-.17.346-.543.597-1.105.757-1.237.35-1.922-.266-3.386-2.852-.544-.97-1.239-1.761-2.255-2.541 1.193-.43 2.954-.943 4.574-.943 1.911 0 3.063.711 3.515 2.169.03.097.01.454-.173.69zM19.67 11.45c-.517.506-1.41.5-1.92-.022a1.36 1.36 0 0 1 .016-1.92c.256-.25.594-.389.95-.389a1.362 1.362 0 0 1 .953 2.331zm11.9-.573c1.616 0 3.38.513 4.574.945-1.016.78-1.709 1.57-2.254 2.539-1.462 2.586-2.144 3.2-3.385 2.851-.56-.159-.933-.412-1.103-.756-.148-.305-.14-.658-.096-.94.856-2.02 2.331-2.012 2.506-2.014.486.05.866-.317.902-.782a.849.849 0 0 0-.782-.913c-.108-.012-2.177-.127-3.609 1.973-.026-.02-.072-.014-.093-.044-.18-.238-.2-.595-.176-.686.452-1.462 1.602-2.173 3.516-2.173zM6.862 14.303l-.132.006a1.304 1.304 0 0 1-1.3-1.184c-.068-.721.461-1.362 1.307-1.439.677 0 1.238.51 1.303 1.186.033.348-.07.69-.294.96-.223.274-.535.44-.884.471zM5.64 1.741c2.189-.212 3.954.482 4.24 1.201-.105.06-.257.131-.367.183-.7.326-1.87.877-2.014 2.358-.124 1.33.859 2.49 1.81 3.61.801.949 1.632 1.928 1.725 2.882.26 2.675-1.658 4.995-2.967 6.256-.035-.145-.05-.292-.077-.434-.108-.624-.193-1.256-.193-1.912 0-.042-.016-.077-.023-.116.49-.181.943-.442 1.286-.857a2.98 2.98 0 0 0 .67-2.205 2.997 2.997 0 0 0-3.285-2.706 3.016 3.016 0 0 0-2.706 3.286c.13 1.328 1.11 2.328 2.36 2.602 0 .836.087 1.651.239 2.442-1.523-.998-3.76-2.882-4.018-5.513-.09-.954.533-2.074 1.141-3.158.716-1.283 1.46-2.61 1.08-3.894-.423-1.427-1.678-1.74-2.428-1.926a6.263 6.263 0 0 1-.397-.109c.145-.72 1.604-1.76 3.924-1.99z"/></defs></svg>