<svg viewBox="0 0 140 129" xmlns="http://www.w3.org/2000/svg" xmlns:xlink="http://www.w3.org/1999/xlink"><title>Capa 1 2</title><desc>Created using Figma</desc><use xlink:href="#a" transform="matrix(1 0 0 -1 5.99 119.6)" fill="#FFF"/><use xlink:href="#b" transform="matrix(1 0 0 -1 8.15 121.8)" fill="#FFF"/><use xlink:href="#c" transform="matrix(1 0 0 -1 6.91 124.4)" fill="#FFF"/><use xlink:href="#d" transform="matrix(1 0 0 -1 7.13 122.4)" fill="#FFF"/><use xlink:href="#e" transform="matrix(1 0 0 -1 .97 114)" fill="#FFF"/><use xlink:href="#f" transform="matrix(1 0 0 -1 1.04 120)" fill="#FFF"/><use xlink:href="#g" transform="matrix(1 0 0 -1 4.91 116.1)" fill="#FFF"/><use xlink:href="#h" transform="matrix(1 0 0 -1 9.72 101.4)" fill="#FFF"/><use xlink:href="#i" transform="matrix(1 0 0 -1 12.73 101.8)" fill="#FFF"/><use xlink:href="#j" transform="matrix(1 0 0 -1 11.06 97.6)" fill="#FFF"/><use xlink:href="#k" transform="matrix(1 0 0 -1 12.73 97.6)" fill="#FFF"/><use xlink:href="#l" transform="matrix(1 0 0 -1 7.73 99.7)" fill="#FFF"/><use xlink:href="#m" transform="matrix(1 0 0 -1 25.59 127.5)" fill="#FFF"/><use xlink:href="#n" transform="matrix(1 0 0 -1 29.78 127.9)" fill="#FFF"/><use xlink:href="#o" transform="matrix(1 0 0 -1 23.87 128.9)" fill="#FFF"/><use xlink:href="#p" transform="matrix(1 0 0 -1 23.06 128.9)" fill="#FFF"/><use xlink:href="#q" transform="matrix(1 0 0 -1 29.44 127)" fill="#FFF"/><use xlink:href="#r" transform="matrix(1 0 0 -1 24.19 124.6)" fill="#FFF"/><use xlink:href="#s" transform="matrix(1 0 0 -1 26.75 126.5)" fill="#FFF"/><use xlink:href="#t" transform="matrix(1 0 0 -1 26.92 127.2)" fill="#FFF"/><use xlink:href="#u" transform="matrix(1 0 0 -1 4.34 125.7)" fill="#FFF"/><use xlink:href="#v" transform="matrix(1 0 0 -1 22.93 127.2)" fill="#FFF"/><defs><path id="a" d="M.63 2.132c-.205.214-.433.392-.626.605l-.002.004c-.016.077.063.16.152.237.083.07.175.138.212.191.111.161.183.36.196.568.007.101.001.204.02.303.098.524.659.125.933.01.412-.173.84-.329 1.257-.53 0-.001.002 0 .002-.002l.004-.002c.088-.066.135-.142.056-.219l-.003-.001c-.21-.07-.487-.138-.626-.326a.642.642 0 0 1-.094-.546c.071-.251.281-.441.504-.579.323-.198.69-.32 1.064-.35.142-.01.287-.009.42.035a.476.476 0 0 1 .3.263c-.354-.055-.697-.12-1.013.128-.193.151-.315.4-.287.638a.53.53 0 0 0 .46.467c.212.018.418-.1.596-.23.586-.426 1.222-1.064 1.248-1.782.013-.342-.138-.684-.428-.862-.223-.137-.507-.17-.778-.143C3.2.11 2.114.707 1.378 1.374c-.263.24-.505.505-.747.758z"/><path id="b" d="M3.154.019c-.674-.09-1.311.153-1.842.593-.443.368-.92.74-1.19 1.28-.045.092-.079.19-.122.297.579-.222 1.122-.447 1.69-.6.276-.076.581-.088.867-.07.636.042.943.436 1.128.964.061.177.145.348.259.616.679-.842 1.055-1.686 1.585-2.453L4.864.591c-.294.386-.58.77-.868 1.164a.822.822 0 0 1-.05-.019c.053-.287.129-.569.155-.844.072-.78-.18-.77-.947-.873z"/><path id="c" d="M11.572 4.735c.142-.252.254-.476.387-.684.189-.297.37-.576.569-.835.219-.285.459-.544.679-.806.025-.03.04-.07.05-.108.216-.832-.46-1.722-1.455-1.954-.474-.11-.964-.11-1.447-.128C9.067.173 7.792.034 6.521.006c-1.27-.028-2.587.022-3.805.458C1.806.79.96 1.378.456 2.19c-.3.482-.962 1.673.228 1.41.279-.063.538-.243.741-.452.518-.532.76-.922 1.527-1.152.603-.182 1.26-.204 1.843-.036.452.13.86.367 1.34.464.358.072.834.043 1.115-.175.28-.217.326-.56.594-.772.277-.219.696-.344 1.072-.238.295.083.507.29.691.503.695.802 1.23 1.799 1.83 2.84.022.04.062.072.136.153z"/><path id="d" d="M8.67 1.844c.306 1.148.707 2.348 2 3.16.122-.49.23-.924.326-1.352.012-.05-.015-.118-.043-.17-.32-.58-.647-1.14-.966-1.675-.246-.41-.482-.81-.728-1.19-.186-.283-.477-.466-.815-.585-.333-.116-.817.096-.928.41-.513 1.46-1.211 2.894-2.675 4.279-.7.662-1.497 1.245-2.342 1.704-.422.229-.85.427-1.28.591C1.052 7.081.13 7.5 0 7.383c.159.142.31.313.51.395.894.364 1.876.552 2.916.598.643.028 1.298.076 1.95.044.812-.04 1.626-.177 2.44-.228a19.11 19.11 0 0 1 2.023-.018c.425.018.48-.01.51-.438.046-.625.086-1.25.192-1.85.064-.363-.131-.51-.366-.665-.318-.21-.667-.383-.97-.608-.522-.388-.77-.91-.727-1.504.032-.433.1-.85.192-1.265zm-.817 1.735c-.02 1.068-.546 1.994-1.298 2.784-.443.467-1.076.802-1.677 1.07-.44.195-.963.33-1.539.089.423-.284.817-.506 1.165-.787.832-.672 1.564-1.448 2.112-2.327.609-.976.968-1.98 1.197-2.944.043-.182.16-.348.241-.516-.045.835-.185 1.71-.201 2.63z"/><path id="e" d="M.053.528A3.546 3.546 0 0 1 .2.028a.955.955 0 0 0-.04.086 4.2 4.2 0 0 0-.115.404c-.08.373-.05.749.038 1.113l.007.024A2.49 2.49 0 0 1 .053.528z"/><path id="f" d="M9.258 12.482c.497.15.978.358 1.466.532.075.026.229.086.293.047-.133-.18-.476-.343-.674-.48a43.163 43.163 0 0 0-.716-.483 17.269 17.269 0 0 0-1.835-1.067 13.481 13.481 0 0 0-2.66-.953c-.772-.193-1.728-.19-2.22-.925l-.024-.036c-.234-.287-.386-.625-.533-.97.25-.267.518-.035.743.19.571.57 1.348.846 2.15 1.06.486.13.991.242 1.496.409.506.167.938.43 1.428.675-.04-.124-.071-.244-.116-.358-.245-.625-.526-1.242-1.128-1.586-.336-.191-.683-.35-1.021-.509-.443-.208-.906-.326-1.308-.577-.383-.24-.71-.57-.956-.96a3.5 3.5 0 0 1-.47-1.222 3.794 3.794 0 0 1-.063-.666c-.001-.193.023-.326-.066-.482-.229.27-.502.506-.657.836-.25.536-.412 1.122-.614 1.667-.067.178-.173.33-.297.563-.005-.162-.018-.238-.006-.307.123-.707.244-1.426.39-2.143.166-.808.592-1.479 1.171-2 .498-.449 1.132-.6 1.717-.989.085-.056.659-.566 1.048-.97.24-.25.409-.46.339-.504-1.511-.938-3.157.735-4.077 1.95C1.165 3.406.588 4.807.146 6.105c-.322.948-.086 2.136.468 2.93s1.409 1.242 2.368 1.528c.933.279 1.95.463 2.994.83 1.06.376 2.159.751 3.282 1.09z"/><path id="g" d="M.606.002C-.029-.054-.093 1.308.087 1.719c.191.435.55.747.917 1.029.711.544 1.516 1.04 2.428 1.26 1.27.308 2.666.038 3.977-.389.609-.198 1.218-.513 1.85-.622.714-.123 1.471-.102 2.185-.034.189.017.396.076.585.058l.025-.003c.053-.007.279-.119.316-.09-.697-.552-1.719-.45-2.563-.43-.976.02-1.948.152-2.91.234-1.28.109-2.58.125-3.7-.271-.707-.251-1.35-.683-1.806-1.269C1.16.896 1.014.038.606.002z"/><path id="h" d="M1.236 1.062c-.236.147-.44.278-.64.41-.024.017-.04.055-.05.086-.108.362-.21.721-.31 1.071-.077.27-.158.534-.217.79a.902.902 0 0 0 .077.576c.082.184.364.284.535.195.794-.416 1.633-.747 2.7-.726.511.01 1.025.087 1.507.231.24.072.473.16.693.265.087.041.587.243.59.336-.004-.114.005-.237-.039-.346a4.808 4.808 0 0 0-.857-1.366c-.227-.262-.453-.538-.71-.782-.317-.303-.674-.57-.998-.872-.27-.25-.526-.516-.765-.79C2.6-.037 2.57-.047 2.396.11c-.252.228-.505.458-.774.653-.163.119-.146.255-.116.41.04.209.107.415.135.626.048.365-.064.675-.316.902a4.88 4.88 0 0 1-.578.445c.35-.6.666-1.248.489-2.084zm.514 1.693c.427-.43.975-.588 1.554-.606.342-.01.704.107 1.03.237.236.096.482.248.605.566-.263-.053-.493-.12-.727-.145-.562-.06-1.12-.048-1.668.096a5.498 5.498 0 0 0-1.618.742c-.09.058-.201.081-.3.119.354-.331.756-.638 1.124-1.009z"/><path id="i" d="M3.262 5.701c.207.262.755-.2.848-.421.098-.235.087-.492.06-.742-.053-.484-.165-.994-.423-1.442-.36-.624-.98-1.066-1.63-1.413-.303-.162-.649-.279-.926-.484C.877.965.601.659.36.35.295.27.24.165.163.097A.119.119 0 0 0 .152.09C.13.07.004.026 0 0c.053.49.475.854.798 1.18.374.376.786.707 1.177 1.054.518.46 1.005.963 1.274 1.556.17.374.245.793.188 1.185-.03.198-.308.558-.175.726z"/><path id="j" d="M.693 1.538c.233.27.577.377.943.381.305.003.615.036.91-.069.051-.018.099-.043.154-.066-.292-.124-.575-.234-.848-.37a1.325 1.325 0 0 1-.356-.277C1.268.895 1.299.623 1.43.343c.044-.094.077-.194.136-.343C.987.08.516.284 0 .409l.24.273.792-.16.012.025C.914.645.775.733.658.837c-.33.298-.23.393.035.701z"/><path id="k" d="M2.98 1.041c.036-.039.078-.073.108-.116.166-.227-.193-.3-.338-.363C2.533.467 2.317.36 2.087.277h-.001L2.083.274c-.057-.009-.102.002-.102.061v.002c.053.105.128.236.109.358a.337.337 0 0 1-.171.235c-.12.066-.267.058-.4.028A1.238 1.238 0 0 1 1 .7.542.542 0 0 1 .859.533.254.254 0 0 1 .845.32c.11.153.213.304.421.327A.387.387 0 0 0 1.61.513c.077-.1.085-.25.005-.348C1.543.08 1.423.047 1.309.03.934-.029.457-.022.176.252A.536.536 0 0 0 .012.75c.033.136.129.25.242.336.414.314 1.029.48 1.539.5.183.006.366-.006.549-.005.155 0 .304.023.455.022h.002c.035-.021.039-.079.036-.139-.002-.055-.01-.113-.002-.146a.602.602 0 0 1 .147-.277z"/><path id="l" d="M1.125.226C.924.252.725.26.535.278A.157.157 0 0 0 .47.302c-.43.251-.609.911-.353 1.435.122.25.302.461.48.674.474.568.934 1.17 1.46 1.662.527.492 1.137.863 1.807 1.018.5.116 1.03.128 1.502 0 .28-.076.947-.262.421-.56a.796.796 0 0 0-.434-.082c-.385.024-.616.091-1.006-.055a1.5 1.5 0 0 1-.754-.59c-.131-.211-.204-.457-.354-.681-.112-.167-.31-.34-.509-.358-.198-.017-.358.114-.556.101-.204-.013-.429-.125-.531-.325-.081-.156-.073-.335-.055-.5.071-.627.3-1.261.494-1.925.007-.025.005-.054.01-.116-.15.044-.28.09-.412.119a6.688 6.688 0 0 1-.556.107z"/><path id="m" d="M2.736 5.868l.007.01c.017.023.13.1.124.122.115-.432-.19-.869-.409-1.245-.253-.435-.564-.846-.848-1.263-.377-.554-.713-1.137-.794-1.721-.05-.37.01-.745.198-1.062.094-.16.5-.39.415-.573C1.298-.148.578.076.41.234.23.402.16.622.105.844c-.102.428-.156.896-.038 1.354.165.638.657 1.217 1.209 1.717.256.232.572.44.786.7.242.296.419.642.56.977.037.09.059.195.114.276z"/><path id="n" d="M3.233 5.662c.197.037.383.089.564.13.02.006.044.004.065 0 .46-.083.75-.571.695-1.072-.026-.24-.108-.466-.185-.695-.207-.613-.373-1.268-.668-1.882C3.409 1.529 2.992.935 2.383.525A3.111 3.111 0 0 0 .797.004C.465-.008-.316-.021.138.419a.984.984 0 0 0 .424.223c.408.108.675.126 1.014.403.267.218.461.506.527.809.05.235.03.475.104.714.055.178.182.392.369.471.185.08.388.02.569.095.185.079.346.247.365.448.014.157-.058.303-.135.435-.292.499-.693.955-1.088 1.448-.015.019-.022.043-.046.093.16.01.3.012.434.026.191.022.38.044.558.078z"/><path id="o" d="M.61.008a1.333 1.333 0 0 0-.599.2L0 .214C.175.105.376.031.607.012A2.62 2.62 0 0 1 .921.006 4.326 4.326 0 0 0 .863 0C.778 0 .695 0 .611.008z"/><path id="p" d="M.795 1.84c.088-.17.224-.313.366-.453.205.056.152.225.093.376-.15.381-.097.792-.006 1.2.055.248.124.5.165.766.04.267.01.52.004.795.056-.045.111-.084.161-.129.273-.245.525-.508.552-.854.014-.193.009-.384.005-.57-.004-.245-.061-.48-.032-.712a1.28 1.28 0 0 1 .258-.62c.134-.175.314-.323.522-.438.103-.057.214-.107.33-.147.1-.036.175-.049.233-.114C3.25.89 3.06.812 2.847.802c-.344-.017-.694.012-1.038.016-.112 0-.218-.015-.374-.026.085-.033.121-.054.16-.061C2 .65 2.42.593 2.83.538a2.8 2.8 0 0 1 1.323.156c.353.127.589.35.934.508.05.023.455.15.762.222.19.045.341.068.345.028C6.28.596 5.006.35 4.168.21A16.42 16.42 0 0 0 1.664 0C1.06-.006.469.315.212.755c-.257.44-.244.952-.15 1.447.09.482.221.963.299 1.517.079.563.164 1.146.253 1.736.04.26.041.529.064.793.004.041.008.126.046.147.067-.103.073-.297.099-.419.031-.144.062-.29.089-.436.053-.286.095-.575.11-.862.004-.07.006-.138.007-.207a5.881 5.881 0 0 0-.165-1.407c-.092-.39-.336-.819-.081-1.205a.168.168 0 0 1 .012-.02z"/><path id="q" d="M1.966.91c-.134-.323-.44-.544-.813-.674C.843.127.534-.01.185 0 .125.002.066.01 0 .016c.264.2.522.387.751.603.112.105.199.238.265.37.145.291.02.517-.211.719-.077.068-.146.144-.258.255.615.116 1.154.096 1.697.162a33.276 33.276 0 0 0-.13-.317 57.233 57.233 0 0 0-.845-.125l-.003-.027c.165-.041.334-.07.487-.122.433-.145.365-.258.213-.625z"/><path id="r" d="M.291 3.093c.144.15.34.243.557.296.224.055.472.067.706.053A32.025 32.025 0 0 0 3.7 3.256c.639-.082-.827-1.637-1.029-1.808C2.187 1.04 1.66.662 1.295.188 1.197.063 1.194-.037 1.03.015.657.13.356.758.23 1.049a2.75 2.75 0 0 0-.224 1.28c.019.272.086.555.285.764z"/><path id="s" d="M3.952 4.266c.276-.052.523-.097.764-.146.028-.006.056-.033.076-.056.221-.269.434-.537.64-.797.159-.2.317-.395.466-.592a.756.756 0 0 0 .14-.506c-.01-.18-.236-.357-.434-.336-.92.098-1.85.108-2.93-.25A7.246 7.246 0 0 1 1.206.905a5.824 5.824 0 0 1-.63-.44C.499.405.049.082.076 0 .041.099-.009.2 0 .307c.04.472.192.95.43 1.428.147.295.286.601.466.888.224.358.497.696.726 1.05.189.296.359.6.507.906.095.195.123.213.35.134.334-.115.67-.231.997-.313.199-.05.226-.17.248-.308.03-.188.033-.382.076-.567a.885.885 0 0 1 .605-.657c.233-.081.468-.143.707-.192-.535.393-1.06.837-1.161 1.59zm.06-1.578c-.56.228-1.163.19-1.758.022-.351-.099-.682-.312-.971-.525-.211-.156-.412-.362-.432-.673.253.13.466.259.698.355.556.229 1.13.395 1.731.446a6.5 6.5 0 0 0 1.837-.112c.108-.021.223-.005.333-.006-.46.168-.955.298-1.438.493z"/><path id="t" d="M1.887 1.191a.488.488 0 0 0-.4.012c-.114.063-.173.191-.122.3.044.097.157.162.268.212.368.167.858.314 1.241.164.182-.07.324-.216.341-.385a.546.546 0 0 0-.128-.378C2.771.702 2.183.39 1.654.226c-.19-.06-.387-.076-.577-.128C.915.053.767 0 .607 0 .562 0 .54.007.523.06a.37.37 0 0 1-.045.104.564.564 0 0 1-.242.185C.186.372.132.383.086.41c-.246.148.101.307.23.405.194.146.384.438.594.438h.001l.014.006c.056.026.138.035.138-.016v-.001c0-.107-.065-.244-.004-.344a.35.35 0 0 1 .25-.154.704.704 0 0 1 .422.095c.184.097.34.23.45.387a.48.48 0 0 1 .09.19.21.21 0 0 1-.06.191c-.061-.168-.116-.332-.325-.416z"/><path id="u" d="M18.822 74.343c-1.58-2.831-2.727-6.081-3.292-9.472a32.956 32.956 0 0 1-.112-10.308 32.14 32.14 0 0 1 1.108-4.962c.11-.4.257-.803.402-1.204l.218-.6c.074-.197.152-.38.229-.569.308-.765.615-1.457.9-2.129.585-1.331.975-2.447 1.17-3.466.133-.505.126-.995.188-1.459l.023-1.617c-.053-2.105-.416-3.963-.802-5.493-.105-.382-.186-.746-.29-1.087l-.31-.959c-.174-.599-.398-1.101-.546-1.516l-.204-.55c-.062-.158-.126-.29-.17-.398l-.145-.334a35.647 35.647 0 0 0-1.313-2.694 2.58 2.58 0 0 0 .39-.593c.07-.152.146-.295.207-.449.078-.197.048-.328-.098-.409-.409-.226-.845-.549-1.327-.979-.185-.165-.373-.342-.563-.52a23.979 23.979 0 0 0-.608-1.602 6.2 6.2 0 0 0 3.6-2.495c.521-.767.984-1.616 1.203-2.545.105-.447.221-.873.293-1.334a26.277 26.277 0 0 0 .297-4.357c-.015-.945-.068-1.889-.245-2.782-.18-.907-.372-1.83-.738-2.66.077.08.157.159.248.231.012.01.028.015.066.034-.024-.499.16-.898.779-.95-.194.015-.656-3.12-.701-3.408-.033-.206-.063-.416-.187-.565-.258-.31-1.015-.04-1.342.097-.346.147-.667.29-.916.53-.115.112-.231.213-.332.328-.128.148-.125.271.008.386.369.32.755.728 1.084 1.245.096.153.19.312.283.474-.532.302-.956.73-1.328 1.23-.485.655-.848 1.456-1.13 2.355-.132.423-.251.867-.356 1.324-.527 3.02-1.085 6.105-2.435 8.835-.097-.19-.19-.38-.29-.568.381-.929.75-1.909 1.066-2.905.24-.755-1.646-.501-2.934-.229-.152-.207-.272-.349-.316-.35-.02.04.035.188.133.39-.448.1-.8.196-.918.24-1.095.4-2.163.892-3.284 1.047-.3.042-.481-.039-.508.259-.06.673.853 1.665 1.284 2.097a6.017 6.017 0 0 0 2.122 1.375c.498.189 1.047.315 1.564.191.255-.06.479-.18.678-.334l.034.039c.118.144.245.3.372.46-.062.092-.121.186-.186.277l-.964.956a3.852 3.852 0 0 0-.603.016c.017-.1.045-.206.088-.318-2.208-.063-4.523-.985-6.569-1.704-.382-.134-.793-.264-1.156-.2-.754.13-.802 1.5-.8 2.124.002.661-.001 1.3.215 1.922.1.288.18.572.3.838.152.335.392.41.724.267.264.2.232.313.365.433.252.23.594.356.933.481.118.044.19-.079.244-.18a8.66 8.66 0 0 1 .671-1.103c.092-.124.138-.242.233-.36l.077-.015c.207-.032.414-.064.63-.084l.22-.02c-.094.093-.192.181-.283.277a8.32 8.32 0 0 0-.972 1.194c-.283.432-.557.876-.74 1.353l-.002.006c-.004.011-.005.026-.007.052.06-.064.214-.061.289-.077a10.36 10.36 0 0 0 1.326-.354 10.819 10.819 0 0 0 1.102-.456c.041-.019.334-.195.358-.176.045.035-.017.067-.047.096-.163.156-.3.315-.481.437a4.726 4.726 0 0 1-.565.327 6.66 6.66 0 0 1-1.125.42c-.298.083-.584.148-.856.213-.258.061-.529.094-.746.2.079.14.156.198.283.262.351.176.757.19 1.183.125.449-.068.913-.244 1.367-.49.214-.115.427-.244.64-.384 1.533-1.229 3.285-2.337 5.173-2.81.063.116.126.235.19.359a1.108 1.108 0 0 0-.316-.024c-.21.013-.425.077-.619.162-.588.259-1.193.538-1.781.858-.527.287 1.295 1.455 1.53 1.57.56.273 1.145.5 1.622.881.127.102.164.205.285.098.247-.218.3-.854.315-1.228.109.285.216.577.324.878.097.293.192.594.284.901-.036-.068-.074-.135-.108-.206-.127-.266-.188-.541-.276-.831-.032.065-.066.124-.092.187-.145.343-.27.697-.173 1.072.054.209.126.408.195.605.09.257.21.48.26.733.05.242.044.496-.016.739a1.797 1.797 0 0 1-.537.898c-.075.068-.136.105-.165.193.186-.008.378.016.566-.04.304-.09.598-.236.892-.356a.98.98 0 0 1 .138-.04l.017.113a14.85 14.85 0 0 1-.94.568 1.98 1.98 0 0 1-1.213.215c-.352-.044-.627-.212-.976-.282a6.162 6.162 0 0 0-.728-.023c-.177.005-.314.022-.305.062.198.853 1.351.797 2.144.746a9.569 9.569 0 0 0 2.14-.385c.01.096.023.19.032.287.059.464.071.934.1 1.407.013.237.004.473.007.71-.002.238.008.477-.01.714-.026.474-.044.952-.108 1.422-.03.236-.045.474-.086.707l-.12.698a6.939 6.939 0 0 1-.143.69l-.162.679c-.123.446-.264.883-.399 1.314-.164.42-.311.842-.48 1.244-.186.395-.356.788-.542 1.162-.2.367-.393.725-.582 1.07l-.61.967c-.186.317-.413.587-.605.862-.202.267-.375.537-.575.76-.39.454-.709.872-1.01 1.181l-.936.986 1.031-.89c.333-.28.693-.666 1.131-1.085.224-.206.425-.46.657-.71.222-.258.48-.512.701-.814l.72-.925c.23-.336.465-.683.708-1.04.23-.367.447-.756.68-1.148.217-.4.415-.823.63-1.248.187-.436.38-.882.557-1.34l.242-.7c.084-.235.162-.473.224-.716l.202-.73c.068-.245.11-.495.167-.744.118-.498.189-1.005.266-1.513.045-.254.06-.51.088-.765.022-.255.056-.511.067-.767l.01-.216.003.04.038.684-.005.686c-.01.458.006.917-.023 1.375a1888.109 1888.109 0 0 1-.119 1.534c-.004.101-.024.25-.055.442-.062.386-.134.956-.266 1.683-.184.717-.338 1.613-.703 2.604l-.257.776c-.096.262-.225.514-.34.784-.12.267-.235.546-.405.808-.16.266-.313.545-.49.82-.724 1.096-1.707 2.183-2.807 3.39-.275.298-.554.616-.838.94-.142.162-.288.32-.429.49l-.422.522-.428.532-.406.554c-.276.371-.553.75-.813 1.149-2.143 3.146-4.066 7.003-5.373 11.426A41.274 41.274 0 0 0 .29 70.39a40.552 40.552 0 0 0-.191 7.626c.074 1.31.254 2.626.46 3.956.128.66.238 1.33.395 1.991l.234.998c.077.335.179.65.268.978.702 2.635 1.64 5.124 2.501 7.531.862 2.406 1.702 4.727 2.223 6.922.16.556.248 1.093.349 1.626l.149.796.037.198.019.185.039.367c.095.977.128 1.948.048 2.875-.08.922-.206 1.812-.455 2.595-.243.781-.538 1.485-.905 2.026-.37.538-.775.933-1.164 1.173a2.414 2.414 0 0 1-1.13.3c.424.43.88.783 1.51.982.312.098.626.115 1.016.102.345-.059.775-.14 1.172-.376.826-.431 1.715-1.323 2.406-2.734a4.3 4.3 0 0 0 .247-.55l.232-.592c.067-.207.127-.421.192-.639a6.14 6.14 0 0 0 .173-.677l.148-.715.103-.752a8.25 8.25 0 0 0 .073-.785c.014-.267.043-.54.041-.816a23.69 23.69 0 0 1 .959 3.895c.21 1.338.272 2.669.217 3.858-.064 1.186-.255 2.22-.41 2.993-.028.199-.076.368-.11.525a5.26 5.26 0 0 0-.078.418c-.033.242-.028.407.026.475.082.022.226-.046.427-.197a4.7 4.7 0 0 0 .342-.288 3.31 3.31 0 0 0 .402-.415c.56-.642 1.234-1.636 1.793-2.911.55-1.272.985-2.809 1.217-4.421a23.13 23.13 0 0 0 .172-4.862c.125.315.22.635.331.949.11.314.215.627.301.943l.273.937.228.933c.081.307.142.616.2.924.058.309.117.614.175.915l.128.909a11 11 0 0 1 .104.897 25.533 25.533 0 0 1-.215 6.598c-.135.986-.377 1.879-.542 2.699-.222.798-.382 1.533-.523 2.145-.29 1.219-.302 2.09.152 2.486a22.087 22.087 0 0 0 2.997-5.313 22.69 22.69 0 0 0 1.305-5.51c.358-3.596-.087-6.898-.923-9.936-.41-1.526-.952-2.983-1.568-4.398l-.234-.528-.118-.263-.125-.243-.498-.965c-.332-.642-.656-1.291-1.018-1.878-1.387-2.453-2.883-4.608-4.257-6.706-2.805-4.194-5.049-8.022-6.091-12.448a31.277 31.277 0 0 1-.926-6.615 33.066 33.066 0 0 1 .393-6.463c.66-4.175 2.055-7.981 3.798-11.132.209-.4.438-.78.666-1.153l.338-.56.355-.526.351-.52c.12-.17.248-.335.371-.501.246-.331.49-.657.742-.977.994-1.278 1.957-2.5 2.668-3.74.173-.312.323-.628.478-.929.166-.296.277-.608.39-.908.11-.3.235-.589.322-.872l.227-.826c.326-1.053.447-1.99.606-2.74.107-.759.163-1.35.214-1.75.026-.2.042-.353.043-.458l.008-.164.062-1.417c.015-.472-.014-.942-.02-1.411l-.015-.703-.06-.699c-.043-.464-.072-.93-.127-1.391a39.668 39.668 0 0 0-.921-4.78c.064-.062.12-.122.166-.173.497.996.977 2.05 1.4 3.164.596 1.632 1.091 3.376 1.378 5.176.299 1.8.352 3.652.127 5.465l-.03.343c-.01.115-.038.183-.054.277-.039.175-.073.352-.103.53-.03.177-.113.357-.162.537-.06.181-.095.358-.19.554l-.24.58c-.085.197-.206.418-.305.627l-.157.318c-.054.108-.124.231-.185.346l-.38.702-.43.775-.215.39-.227.426-.453.855-.444.93-.22.466-.191.453-.375.903c-.242.604-.457 1.216-.68 1.822a42.29 42.29 0 0 0-1.783 7.329 42.428 42.428 0 0 0 .09 13.3c.321 1.931.755 3.68 1.21 5.21.24.762.463 1.475.71 2.122.227.654.473 1.242.692 1.774.21.535.44.998.622 1.406.182.409.352.75.496 1.024l.432.844v.001c.256-.23-.025-1.669-.333-3.553-.318-1.886-.61-4.225-.726-6.252 1.715 3.093 3.728 5.137 5.49 6.185.447.261.87.466 1.268.617.405.147.795.234 1.152.274.718.077 1.33-.052 1.84-.371-2.222-1.767-4.284-4.156-5.85-6.995zm-3.35-64.436c.018-.415 0-.798.086-1.193a9.78 9.78 0 0 1 .333-1.159c.255-.728.578-1.383.919-1.983.277-.489.566-.944.846-1.387.03-.047.063-.094.093-.14a4.1 4.1 0 0 0 .469.68c-.017.156-.21.347-.286.462a18.26 18.26 0 0 0-1.27 2.17c-.204.42-.406.863-.6 1.326-.097.232-.19.468-.28.708-.03.079-.194.692-.25.7-.106.017-.063-.106-.06-.184zm-4.744 8.167c.054-.047.107-.095.155-.147a3.38 3.38 0 0 0 .626-.994l.058-.141c.089.177.176.354.263.533-.218.412-.456.815-.716 1.208a49.116 49.116 0 0 0-.386-.46z"/><path id="v" d="M106.065.125c-3.596-.359-6.898.087-9.937.923-1.525.41-2.982.952-4.397 1.567l-.528.235-.263.118-.243.124-.966.499c-.64.332-1.29.656-1.877 1.017-2.453 1.388-4.608 2.884-6.706 4.258-4.193 2.805-8.022 5.049-12.448 6.091-2.18.556-4.412.848-6.614.926a33.084 33.084 0 0 1-6.464-.393c-4.175-.66-7.981-2.055-11.131-3.797-.4-.21-.78-.439-1.154-.667l-.559-.338-.527-.355-.52-.351c-.17-.12-.335-.248-.501-.37a41.38 41.38 0 0 1-.978-.743c-1.277-.993-2.5-1.957-3.74-2.667-.311-.173-.628-.324-.928-.479-.296-.166-.608-.277-.909-.39-.3-.11-.588-.235-.871-.322l-.826-.227c-1.053-.326-1.991-.447-2.74-.606-.76-.107-1.35-.163-1.75-.214a4.411 4.411 0 0 0-.458-.043l-.164-.008-1.418-.062c-.471-.015-.942.014-1.41.02l-.703.016-.699.059c-.465.043-.93.072-1.392.127-1.846.237-3.66.603-5.438 1.09a45.844 45.844 0 0 0-5.216 1.823 27.28 27.28 0 0 0-1.71.103 4.74 4.74 0 0 0 .819-.665l.003-.004c.007-.008.012-.02.023-.04-.076.034-.22-.012-.297-.02a12.972 12.972 0 0 0-1.399-.098 13.454 13.454 0 0 0-1.245.049c-.047.004-.4.063-.417.04-.034-.044.038-.051.079-.067.215-.082.405-.173.625-.221.225-.049.448-.082.666-.103a7.959 7.959 0 0 1 1.23-.014c.31.018.603.048.874.072.26.023.518.074.738.045a.575.575 0 0 0-.196-.3c-.276-.246-.641-.373-1.06-.445-.44-.075-.938-.068-1.46 0-.246.03-.498.074-.753.125-2.287.664-4.726 1.08-7.063.7a.367.367 0 0 0-.139.002c-.35.076-.417.699-.357.934.068.268.216.52.417.745-.01.104.025.224.055.336.2.739.441 1.473.537 2.255.094.773.136 1.556.128 2.338-.02 1.74-.21 3.499-.833 5.117-.242.628-.56 1.23-.855 1.83l.042.055c.752-.434 1.497-.827 2.135-1.327.751-.588 1.134-1.4 1.116-2.449-.017-1.025-.104-2.048-.063-3.068v-.005l-.006-.215c-.012-.396.04-.769.116-1.128l.26.332.069-.06.085-.07c.035-.03.031-.02.05-.035.017-.011.022-.02.05-.04l.158-.098c.107-.072.266-.15.426-.242.343-.175.773-.39 1.296-.6.517-.219 1.12-.44 1.79-.65.67-.22 1.411-.405 2.202-.585a25.406 25.406 0 0 1 2.52-.404c.881-.086 1.8-.147 2.732-.122.469-.004.936.039 1.41.066.236.015.47.052.706.077.235.03.474.047.707.094.468.081.94.155 1.4.274.23.057.465.1.692.168l.678.202c.228.062.45.14.668.223l.656.24c.428.175.845.366 1.258.551.398.213.799.409 1.178.625.37.23.742.445 1.09.674l.995.703.888.719c.293.223.535.48.785.703.24.232.489.436.687.66.405.44.783.807 1.054 1.142l.868 1.045-.762-1.128c-.239-.363-.58-.766-.945-1.251-.178-.247-.406-.476-.627-.736-.23-.25-.451-.536-.726-.792-.267-.264-.545-.54-.834-.824l-.95-.825c-.336-.272-.697-.532-1.06-.81-.371-.263-.768-.51-1.164-.773-.412-.237-.831-.48-1.265-.71a426.96 426.96 0 0 0-.668-.323 7.768 7.768 0 0 0-.684-.307l-.701-.286c-.235-.096-.48-.168-.72-.254-.48-.175-.975-.305-1.47-.442-.248-.074-.5-.12-.75-.177-.251-.052-.5-.116-.753-.158l-.46-.075a39.823 39.823 0 0 1 1.814-.048c1.554.016 3.227.107 4.95.355 1.716.27 3.48.684 5.194 1.305a19.158 19.158 0 0 1 4.842 2.538l.285.194c.095.064.141.121.215.181.135.119.273.234.413.347.141.113.258.272.392.402.13.14.267.256.393.435l.39.49c.133.17.267.383.402.572l.202.29c.069.1.142.221.213.33l.43.674.47.75.235.377.264.406.528.81.6.839.3.418.303.387.609.766c.41.505.842.989 1.264 1.477a42.319 42.319 0 0 0 5.547 5.112 42.433 42.433 0 0 0 11.678 6.366 43.102 43.102 0 0 0 5.143 1.466c.783.16 1.515.31 2.201.408.682.118 1.315.188 1.887.254.57.075 1.085.099 1.531.137.446.038.827.056 1.136.063l.949.031c-.077-.335-1.472-.786-3.269-1.43-1.804-.636-3.992-1.513-5.821-2.394 3.537-.002 6.3-.773 8.071-1.806a8.466 8.466 0 0 0 1.154-.81c.325-.283.59-.582.798-.876.415-.59.598-1.189.567-1.79-2.622 1.09-5.711 1.737-8.953 1.73-3.241.011-6.64-.562-9.88-1.71a32.952 32.952 0 0 1-9.072-4.896 32.16 32.16 0 0 1-3.803-3.374c-.296-.29-.578-.614-.858-.936l-.42-.481c-.137-.16-.258-.317-.387-.476-.52-.64-.977-1.244-1.426-1.82-.881-1.156-1.668-2.038-2.465-2.702-.377-.36-.81-.593-1.185-.872l-1.403-.803c-1.868-.974-3.67-1.557-5.194-1.96-.386-.094-.743-.2-1.091-.274l-.99-.192c-.608-.14-1.156-.187-1.59-.258l-.58-.088c-.169-.022-.315-.03-.431-.044l-.362-.035a39.376 39.376 0 0 0-7.403.001 22.528 22.528 0 0 0-2.228-.139 43.544 43.544 0 0 1 4.217-1.335A37.582 37.582 0 0 1 22.31 4.7c.454-.042.91-.057 1.367-.087l.684-.038.687.005c.458.01.917-.006 1.375.023l1.375.107.158.012c.102.004.25.023.442.055.386.062.956.134 1.683.266.717.184 1.613.338 2.604.703l.776.257c.263.096.515.225.784.341.268.12.546.235.808.405.266.16.545.313.82.489 1.096.725 2.183 1.707 3.39 2.808.298.275.616.554.94.838.162.141.32.287.49.428l.522.423.532.428.554.406c.371.275.75.553 1.15.812 3.146 2.144 7.002 4.067 11.426 5.373a41.28 41.28 0 0 0 7.014 1.433 40.55 40.55 0 0 0 7.625.19c1.31-.073 2.626-.253 3.956-.46.66-.127 1.33-.237 1.992-.395l.998-.233c.334-.078.65-.18.977-.268 2.636-.702 5.125-1.641 7.531-2.502 2.407-.861 4.727-1.701 6.923-2.222.556-.16 1.092-.248 1.625-.35l.796-.149.198-.036.185-.02.368-.039c.976-.094 1.948-.128 2.875-.047.922.079 1.812.205 2.595.454.78.243 1.484.538 2.026.905.538.37.933.775 1.173 1.164.22.408.294.793.299 1.13.431-.424.783-.88.983-1.51.097-.312.114-.626.101-1.016-.058-.345-.14-.776-.376-1.172-.431-.826-1.323-1.715-2.734-2.406a4.298 4.298 0 0 0-.55-.247l-.592-.232c-.207-.067-.421-.128-.639-.193a6.09 6.09 0 0 0-.677-.172l-.715-.148-.752-.103a8.183 8.183 0 0 0-.785-.073c-.267-.014-.54-.043-.816-.041a23.727 23.727 0 0 1 3.896-.96 19.52 19.52 0 0 1 3.858-.217c1.185.064 2.219.255 2.992.41.199.028.369.076.526.11.156.035.296.062.417.078.242.033.408.028.476-.026.021-.081-.047-.226-.198-.426a4.755 4.755 0 0 0-.287-.342 3.455 3.455 0 0 0-.415-.403c-.643-.56-1.637-1.233-2.912-1.793-1.272-.55-2.809-.985-4.42-1.217a23.135 23.135 0 0 0-4.862-.171c.315-.126.635-.22.949-.332.314-.11.627-.215.943-.301l.936-.273.933-.227c.308-.082.617-.143.924-.2l.915-.175.909-.128a10.7 10.7 0 0 1 .897-.104 25.503 25.503 0 0 1 6.598.215c.987.134 1.88.377 2.7.541.797.223 1.532.382 2.144.524 1.22.29 2.091.301 2.487-.153a22.096 22.096 0 0 0-5.313-2.997 22.7 22.7 0 0 0-5.51-1.304zM4.4 10.915c.003-.09.568-.48 1.135-.844l.004.001c-.558.358-1.113.746-1.135.843H4.4zM7.934 8.7c-.896.364-1.865.538-2.842.62-.378.032-.76.03-1.14.043l-.006.01a.206.206 0 0 1 .006-.011c.38-.012.762-.01 1.14-.042.976-.083 1.946-.256 2.842-.62.06-.025.119.011.178-.015.197-.102.394-.236.591-.236h.108v-.065a3.37 3.37 0 0 0-.645.269c-.06.025-.171.022-.232.047zm1.192-.647c-.254.062-1.505.38-1.523.525.019-.145 1.27-.463 1.523-.525l.105-.022-.105.022zM3.934 9.39c.002 0 .004-.004.007-.008l-.007.01V9.39zm3.292.415l.644-.234c-.216.096-.43.17-.644.234zm2.275-.644c-.004 0-.008-.006-.012-.006-.112.015-.226.027-.34.04.114-.017.228-.032.34-.047l.012-.001c.345-.054.685-.063 1.016-.094-.33.032-.671.055-1.016.108zm1.814-.573c0 .053.026.104.018.15.006-.046-.018-.099-.018-.15z"/></defs></svg>