<svg width="42" height="62" viewBox="0 0 42 62" xmlns="http://www.w3.org/2000/svg" xmlns:xlink="http://www.w3.org/1999/xlink"><title>location</title><desc>Created using Figma</desc><use xlink:href="#a" fill="#EC5A6F"/><use xlink:href="#b" transform="translate(10 10.5)" fill="#FFF"/><defs><path id="a" fill-rule="evenodd" d="M41.942 20.005c0 11.053-20.971 41.343-20.971 41.343S0 31.057 0 20.004C0 8.957 9.387 0 20.97 0c11.582 0 20.972 8.957 20.972 20.005z"/><path id="b" d="M22 11.355c0-1.028-.546-2.693-2.305-3.606.674-1.7.201-3.41-.666-4.276-.684-.684-1.7-1.11-2.718-1.14a4.417 4.417 0 0 0-1.462.218C14.123.875 12.581 0 11.355 0c-1.028 0-2.693.546-3.606 2.305-1.698-.674-3.409-.201-4.276.666-.684.684-1.11 1.7-1.139 2.718-.011.405.038.902.217 1.462C.875 7.877 0 9.42 0 10.645c0 1.028.546 2.693 2.305 3.606-.673 1.699-.202 3.41.666 4.276.684.684 1.7 1.11 2.718 1.139l.115.002a4.41 4.41 0 0 0 1.347-.219C7.877 21.125 9.42 22 10.645 22c1.03 0 2.696-.547 3.609-2.31a4.486 4.486 0 0 0 1.649.325c1.082 0 2.043-.405 2.624-.986.684-.684 1.11-1.7 1.139-2.718a4.39 4.39 0 0 0-.217-1.462C21.125 14.123 22 12.58 22 11.355z"/></defs></svg>