<svg width="320" height="421" viewBox="0 0 320 421" xmlns="http://www.w3.org/2000/svg" xmlns:xlink="http://www.w3.org/1999/xlink"><title>Vector</title><desc>Created using Figma</desc><use xlink:href="#a" transform="matrix(-1 0 0 1 320 0)" fill="#FFF" opacity=".98"/><defs><path id="a" d="M14.492 416.706c-6.006 6.332-12.1 2.639-14.492 0V0h320v416.706c-6.006 6.332-12.292 2.639-14.684 0-2.786-2.638-9.861-6.332-15.867 0s-12.292 2.639-14.684 0c-2.786-2.638-9.861-6.332-15.867 0s-12.291 2.639-14.684 0c-2.786-2.638-9.86-6.332-15.866 0s-12.292 2.639-14.684 0c-2.787-2.638-9.861-6.332-15.867 0s-12.292 2.639-14.684 0c-2.787-2.638-9.861-6.332-15.867 0s-12.292 2.639-14.684 0c-2.786-2.638-9.861-6.332-15.867 0s-12.292 2.639-14.684 0c-2.786-2.638-9.86-6.332-15.867 0-6.006 6.332-12.291 2.639-14.684 0-2.786-2.638-9.86-6.332-15.866 0s-12.292 2.639-14.684 0c-2.787-2.638-9.861-6.332-15.867 0s-12.292 2.639-14.684 0c-2.786-2.638-9.86-6.332-15.867 0z"/></defs></svg>