<svg width="23" height="17" viewBox="0 0 23 17" xmlns="http://www.w3.org/2000/svg" xmlns:xlink="http://www.w3.org/1999/xlink"><title>Stroke 564 + Stroke 565</title><desc>Created using Figma</desc><use xlink:href="#a" transform="translate(.97 1.6)" fill="#333"/><use xlink:href="#b" transform="translate(1.47 2.1)" fill="#333"/><defs><path id="a" d="M20.234 12.432a.746.746 0 0 1-.749.742v1.5a2.247 2.247 0 0 0 2.25-2.242h-1.5zm-.749.742H1.5v1.5h17.986v-1.5zm-17.986 0a.746.746 0 0 1-.749-.742h-1.5a2.246 2.246 0 0 0 2.249 2.242v-1.5zm-.749-.742V1.492h-1.5v10.94h1.5zm0-10.94c0-.407.332-.742.749-.742v-1.5C.26-.75-.75.25-.75 1.492h1.5zM1.499.75h17.986v-1.5H1.5v1.5zm17.986 0c.417 0 .75.335.75.742h1.5a2.245 2.245 0 0 0-2.25-2.242v1.5zm.75.742v10.94h1.5V1.492h-1.5z"/><path id="b" d="M20.452.587a.75.75 0 1 0-.934-1.174l.934 1.174zm-10.46 7.37l-.467.586a.75.75 0 0 0 .935 0l-.467-.587zM.468-.588A.75.75 0 1 0-.467.587L.467-.587zm19.05 0L9.526 7.37l.935 1.173L20.452.587l-.934-1.174zM10.46 7.37L.467-.587-.467.587l9.992 7.956.935-1.173z"/></defs></svg>