<svg width="46" height="47" viewBox="0 0 46 47" xmlns="http://www.w3.org/2000/svg" xmlns:xlink="http://www.w3.org/1999/xlink"><title>Group 3</title><desc>Created using Figma</desc><use xlink:href="#a" transform="translate(.7 .2)" fill="#FFC5CE" opacity=".5"/><defs><path id="a" d="M42.344 23.27c.281-.638.564-1.273.822-1.85 1.475-3.307 1.468-3.335 1.384-3.682-1.138-4.669-5.945-6.86-7.158-7.344-.64-1.506-1.834-3.209-4.063-4.494C29.648 3.777 28.225.603 28.212.573a.755.755 0 0 0-.567-.445c-.082-.014-2.024-.332-4.304.09-1.989.369-3.618 1.188-4.826 2.408-1.297-1.046-3.06-1.43-4.313-1.568-1.244-.136-2.467-.078-2.762.022a.774.774 0 0 0-.5.546c-.181.766-.745 1.628-1.29 2.462-.862 1.317-1.751 2.677-1.558 4.133-3.06 1.615-6.305 4.665-6.79 5.13a.754.754 0 0 0-.193.3c-.025.074-.625 1.84-.932 4.19-.419 3.215-.094 5.861.965 7.867.031.06.065.118.098.176-.968 1.772-.594 3.387-.263 4.814.257 1.11.48 2.07.117 3.032a.764.764 0 0 0 .067.67c.27.433 3.793 2.95 7.501 3.335.062.25.142.505.247.76.843 2.055 2.889 3.695 6.08 4.872 1.632.603 2.786 1.175 3.804 1.679 1.26.624 2.348 1.163 3.775 1.443.398.077.804.116 1.214.116 1.936 0 3.986-.855 5.89-2.479.38-.325.926-.643 1.503-.98 1.984-1.158 4.687-2.739 4.533-6.779a12.52 12.52 0 0 0 1.02-.623c.048.05.104.094.168.13.301.173.601.25.9.25 1.332 0 2.636-1.538 3.903-3.034.95-1.122 2.028-2.393 2.904-2.743.225-.09.612-.343.684-1.032.146-1.408-1.126-4.604-2.943-6.045zm.694-5.35c-.162.443-.737 1.733-1.25 2.884-.767 1.716-1.434 3.226-1.907 4.39-.083-.258-.168-.517-.254-.778-.42-1.277-.856-2.598-1.024-3.907-.159-1.234-.496-2.296-1.006-3.183.563-1.473.697-3.286.377-4.993 1.634.862 4.265 2.659 5.064 5.586zm-9.805 17.99c-1.53.72-3.265 1.535-5.027 3.082-2.273 1.995-5.15 1.31-7.025-.224a8.117 8.117 0 0 0 1.421-1.331c1.77-.223 3.585-.858 5.295-1.884 3.11-1.864 5.482-4.802 6.507-8.058 1.322-4.2-.086-8.803-2.312-11.737.791.02 1.966.196 2.98.943 1.113.819 1.797 2.165 2.033 4 .186 1.452.644 2.842 1.087 4.186.686 2.083 1.334 4.051.698 5.657-1.317 3.326-3.233 4.226-5.657 5.366zm-24.03-4.304c-.643-1.397-1.443-2.317-2.149-3.129-.972-1.118-1.74-2-1.989-3.85-.578-4.282 2.115-8.415 4.943-10.13.778-.472 1.512-.724 2.117-.745-1.644 1.835-3.474 4.866-3.414 7.842.037 1.793.752 3.27 2.128 4.39a8.87 8.87 0 0 0 1.123.78c-.43 1.333-.232 3.3.547 5.102.657 1.519 2.304 4.225 5.962 5.285a9.53 9.53 0 0 0 1.899.342c-1.08.814-2.311 1.156-3.627.996-2.856-.348-5.744-2.985-7.54-6.883zm3.979-24.193c1.215-.92 3.728-2.185 6.9-.319 2.296 1.352 4.523 1.864 6.311 2.276 2.463.568 3.772.934 4.276 2.434.336 1.001-.324 1.66-.632 1.901-1.558-1.125-3.227-1.46-4.705-.923a8.348 8.348 0 0 0-2.697-1.655c-3.082-1.176-6.622-.639-9.17 1.355-.94-.398-2.12-.303-3.385.27.06-1.846 1.527-4.147 3.102-5.339zm5.71 28.288c-3.064-.888-4.446-3.16-4.997-4.434-.657-1.519-.765-2.979-.548-3.862a7.26 7.26 0 0 0 1.015.276c.794 1.972 2.83 3.558 5.189 4.003.46.086.919.129 1.375.129 2.399 0 4.706-1.182 6.485-3.366 2.058-2.528 3.965-6 .525-10.52-.204-1.463-.714-2.772-1.487-3.87 1.385-.168 2.66.765 3.351 1.403 2.595 2.392 4.487 7.378 3.164 11.582-.916 2.909-3.046 5.539-5.843 7.217-2.736 1.64-5.735 2.166-8.23 1.442zm-4.84-21.747c2.12-1.874 5.354-2.443 8.045-1.416 1.076.41 2.735 1.342 3.69 3.35a8.62 8.62 0 0 0-4.036-1.436c-1.906-.168-3.7.36-4.922 1.452-2.219 1.98-3.032 4.415-2.23 6.678.567 1.604 1.908 2.885 3.38 3.325-1.522.55-3.84.817-6.187-1.094-1.016-.827-1.544-1.92-1.571-3.249-.04-2.012 1.288-5.362 3.831-7.61zm5.355 10.773a2.155 2.155 0 0 1-.789-1.462 2.156 2.156 0 0 1 .477-1.59 2.156 2.156 0 0 1 1.686-.8 2.172 2.172 0 0 1 .217 4.33 2.156 2.156 0 0 1-1.591-.478zm1.363 1.998a3.656 3.656 0 0 0 2.86-1.357 3.684 3.684 0 0 0-.529-5.177 3.656 3.656 0 0 0-2.698-.807c-.978.1-1.859.575-2.48 1.337a3.656 3.656 0 0 0-.756 3.034 4.066 4.066 0 0 1-1.145-1.676c-.595-1.681.049-3.474 1.813-5.05.913-.814 2.291-1.205 3.783-1.074 1.947.172 3.77 1.17 5.003 2.74 2.765 3.518 1.848 6.062-.381 8.798-2.404 2.953-5.047 2.963-6.41 2.707-1.57-.296-2.953-1.21-3.71-2.392.235-.01.472-.032.709-.066a8.654 8.654 0 0 0 3.137-1.107c.262.06.531.09.804.09zM23.574 1.71c1.476-.28 2.82-.203 3.448-.14.531 1.008 2.185 3.695 5.552 5.637 2.49 1.436 3.45 3.473 3.814 4.929a8.317 8.317 0 0 1 .062 3.746 5.802 5.802 0 0 0-.48-.397c-1.58-1.163-3.407-1.272-4.373-1.23.532-.691.916-1.704.504-2.931-.797-2.372-2.915-2.86-5.368-3.425-1.776-.409-3.788-.872-5.884-2.106a8.854 8.854 0 0 0-2.17-.93c.992-1.665 2.634-2.725 4.895-3.153zm-12.66 3.203c.51-.78 1.036-1.584 1.338-2.418 1.055-.048 3.745.04 5.313 1.303-.17.26-.328.53-.47.815-2.147-.09-3.83.845-4.823 1.597a9.278 9.278 0 0 0-1.129 1.013c-.478.018-1 .135-1.544.327.113-.798.7-1.697 1.314-2.637zm-8.432 9.399a45.148 45.148 0 0 1 3.382-2.836C7.588 10.179 8.84 9.478 9.733 9.11c-.875 1.504-1.31 3.147-1.106 4.492-3.07 2.182-5.688 6.558-5.057 11.229.114.85.33 1.55.604 2.15a5.64 5.64 0 0 1-1.695-1.974c-1.997-3.777-.33-9.62.003-10.694zm-.034 16.044c-.251-1.083-.474-2.047-.176-3.051.93.996 2.136 1.705 3.603 2.116l.04.047c.672.771 1.365 1.569 1.918 2.77.338.733.715 1.43 1.124 2.085a.758.758 0 0 0-.029.054 4.847 4.847 0 0 0-.421 1.817c-2.57-.36-4.952-1.831-5.836-2.466.284-1.186.027-2.295-.223-3.372zm27.966 11.485c-.637.372-1.239.723-1.722 1.136-1.95 1.663-4.021 2.384-5.834 2.029-1.228-.24-2.184-.714-3.395-1.314-1.051-.52-2.243-1.112-3.951-1.742-2.74-1.01-4.54-2.404-5.206-4.03a3.832 3.832 0 0 1-.257-2.047 13.897 13.897 0 0 0 1.63 1.731c1.528 1.357 3.216 2.18 4.882 2.384a6.6 6.6 0 0 0 .802.049c.842 0 1.657-.165 2.428-.485l.028.03c1.183 1.105 2.736 1.866 4.26 2.086.323.047.642.07.957.07 1.53 0 2.956-.548 4.167-1.611 1.602-1.406 3.163-2.14 4.673-2.85l.316-.15c-.182 2.615-2.007 3.68-3.778 4.714zm10.134-9.728c-.678.8-1.608 1.898-2.28 2.316.767-.824 1.454-1.884 2.026-3.329.431-1.088.446-2.203.255-3.35a.75.75 0 0 0 .115-.263c.11-.49.533-1.553 1.05-2.766 1.27 1.238 2.086 3.588 2.08 4.334-1.132.563-2.206 1.83-3.246 3.058z"/></defs></svg>