<svg viewBox="0 0 45 45" xmlns="http://www.w3.org/2000/svg" xmlns:xlink="http://www.w3.org/1999/xlink"><title>Capa 1 4</title><desc>Created using Figma</desc><use xlink:href="#a" transform="translate(21.73 8.1)" fill="#FFC5CE"/><use xlink:href="#b" transform="translate(11.98 12.2)" fill="#FFC5CE"/><use xlink:href="#c" transform="translate(7.94 21.9)" fill="#FFC5CE"/><use xlink:href="#d" transform="translate(11.98 28.1)" fill="#FFC5CE"/><use xlink:href="#e" transform="translate(21.73 30.7)" fill="#FFC5CE"/><use xlink:href="#f" transform="translate(27.94 28.1)" fill="#FFC5CE"/><use xlink:href="#g" transform="translate(.1 .3)" fill="#FFC5CE" fill-opacity=".5"/><use xlink:href="#h" transform="translate(30.51 21.9)" fill="#FFC5CE"/><use xlink:href="#i" transform="translate(27.94 12.2)" fill="#FFC5CE"/><defs><path id="a" d="M.713 6.43c.394 0 .713-.32.713-.713V.713A.713.713 0 1 0 0 .713v5.004c0 .394.32.713.713.713z"/><path id="b" d="M4.251 4.964a.713.713 0 0 0 .504-1.217L1.218.209A.713.713 0 0 0 .21 1.217l3.538 3.539c.14.139.322.208.504.208z"/><path id="c" d="M5.717 0H.713a.713.713 0 1 0 0 1.426h5.004a.713.713 0 1 0 0-1.426z"/><path id="d" d="M3.747.209L.21 3.747a.713.713 0 0 0 1.008 1.009l3.539-3.539A.713.713 0 0 0 3.747.21z"/><path id="e" d="M.713 0A.713.713 0 0 0 0 .713v5.004a.713.713 0 1 0 1.426 0V.713A.713.713 0 0 0 .713 0z"/><path id="f" d="M.209.209a.713.713 0 0 0 0 1.008l3.538 3.539a.711.711 0 0 0 1.009 0 .713.713 0 0 0 0-1.01L1.218.21a.714.714 0 0 0-1.01 0z"/><path id="g" d="M44.377 21.754c-3.148-2.1-6.862-3.21-10.742-3.21a19.9 19.9 0 0 0-2.483.156 19.884 19.884 0 0 0 1.866-1.645c2.744-2.743 4.585-6.155 5.326-9.866a.713.713 0 0 0-.839-.839c-3.71.74-7.122 2.582-9.866 5.326-.59.59-1.138 1.214-1.645 1.866.103-.819.157-1.648.157-2.482 0-3.88-1.11-7.595-3.21-10.743a.713.713 0 0 0-1.187 0c-2.1 3.148-3.21 6.862-3.21 10.743 0 .834.053 1.663.156 2.482a19.893 19.893 0 0 0-1.645-1.866C14.312 8.932 10.9 7.09 7.19 6.35a.713.713 0 0 0-.839.84c.74 3.71 2.582 7.122 5.326 9.865a19.85 19.85 0 0 0 1.866 1.645 19.899 19.899 0 0 0-2.482-.157c-3.88 0-7.595 1.11-10.743 3.21a.713.713 0 0 0 0 1.187c3.148 2.1 6.862 3.21 10.742 3.21.835 0 1.664-.053 2.483-.156a19.892 19.892 0 0 0-1.866 1.645c-2.744 2.744-4.585 6.155-5.326 9.866a.713.713 0 0 0 .84.839c3.71-.74 7.122-2.582 9.865-5.326a19.85 19.85 0 0 0 1.645-1.866 19.9 19.9 0 0 0-.157 2.483c0 3.88 1.11 7.594 3.21 10.742a.713.713 0 0 0 1.187 0c2.1-3.148 3.21-6.862 3.21-10.742 0-.835-.053-1.664-.156-2.483a19.897 19.897 0 0 0 1.645 1.866c2.744 2.744 6.155 4.585 9.866 5.326a.71.71 0 0 0 .644-.195.713.713 0 0 0 .195-.644c-.74-3.71-2.582-7.122-5.326-9.866a19.88 19.88 0 0 0-1.866-1.645c.82.103 1.648.157 2.483.157 3.88 0 7.594-1.11 10.742-3.21a.713.713 0 0 0 0-1.187zM28.647 32.01a18.028 18.028 0 0 1-4.576-7.684 2.66 2.66 0 0 0 .255-.255 18.027 18.027 0 0 1 7.684 4.576c2.27 2.272 3.875 5.033 4.68 8.043-3.01-.806-5.771-2.41-8.042-4.68zm-6.3 10.62c-1.559-2.697-2.377-5.784-2.377-8.995 0-3.064.759-6.049 2.196-8.668a2.726 2.726 0 0 0 .363 0 18.028 18.028 0 0 1 2.195 8.668c0 3.212-.818 6.298-2.377 8.996zM8.004 36.69c.806-3.01 2.41-5.771 4.68-8.042a18.027 18.027 0 0 1 7.684-4.577c.08.09.165.176.256.255a18.028 18.028 0 0 1-4.577 7.684c-2.271 2.27-5.033 3.874-8.043 4.68zm8.043-24.005a18.028 18.028 0 0 1 4.577 7.683 2.65 2.65 0 0 0-.256.256 18.028 18.028 0 0 1-7.683-4.577c-2.271-2.272-3.875-5.033-4.68-8.043 3.009.806 5.77 2.41 8.042 4.68zm6.3-10.622c1.559 2.698 2.377 5.785 2.377 8.997 0 3.063-.759 6.048-2.195 8.668a2.658 2.658 0 0 0-.363 0 18.027 18.027 0 0 1-2.196-8.668c0-3.212.819-6.3 2.377-8.997zM36.69 8.004c-.806 3.01-2.41 5.772-4.68 8.043a18.028 18.028 0 0 1-7.684 4.577 2.649 2.649 0 0 0-.255-.256 18.028 18.028 0 0 1 4.576-7.683c2.272-2.271 5.033-3.875 8.043-4.68zM21.147 22.347a1.201 1.201 0 0 1 2.4 0 1.201 1.201 0 0 1-2.4 0zm-1.42.182a18.027 18.027 0 0 1-8.668 2.195c-3.211 0-6.298-.818-8.996-2.377 2.698-1.559 5.785-2.377 8.996-2.377 3.064 0 6.049.759 8.669 2.196a2.66 2.66 0 0 0 0 .363zm5.24-.363a18.027 18.027 0 0 1 8.668-2.196c3.211 0 6.298.818 8.996 2.377-2.698 1.559-5.785 2.377-8.996 2.377-3.064 0-6.049-.759-8.668-2.195a2.729 2.729 0 0 0 0-.363z"/><path id="h" d="M.713 1.426h5.004a.713.713 0 1 0 0-1.426H.713a.713.713 0 1 0 0 1.426z"/><path id="i" d="M.713 4.964c.183 0 .365-.07.505-.208l3.538-3.539A.713.713 0 0 0 3.747.21L.21 3.747a.713.713 0 0 0 .504 1.217z"/></defs></svg>