<svg width="66" height="66" viewBox="0 0 66 66" xmlns="http://www.w3.org/2000/svg" xmlns:xlink="http://www.w3.org/1999/xlink"><title>Group 6</title><desc>Created using Figma</desc><use xlink:href="#a" transform="translate(.25)" fill="#FFC5CE" fill-opacity=".5"/><defs><path id="a" d="M63.123 41.53c-1.33-1.155-3.11-2.372-5.223-3.578 3.317-.751 7.462-2.255 7.462-5.078 0-2.821-4.14-4.325-7.461-5.077 2.14-1.221 3.936-2.453 5.27-3.619 2.152-1.882 2.963-3.514 2.41-4.85-1.164-2.808-7.266-1.693-11.42-.558 1.816-2.88 3.68-6.872 1.685-8.867-1.994-1.995-5.98-.137-8.867 1.686 1.123-4.118 2.254-10.256-.557-11.42-1.339-.555-2.973.259-4.858 2.418-1.161 1.33-2.388 3.117-3.603 5.246C36.905 3.114 35.08.387 32.875.387c-2.82 0-4.323 4.12-5.078 7.461-1.335-2.338-2.681-4.263-3.925-5.61C22.121.34 20.592-.355 19.327.168c-1.285.533-1.872 2.152-1.744 4.81.087 1.815.495 4.078 1.187 6.61-2.895-1.827-6.873-3.68-8.867-1.685-1.995 1.995-.134 5.983 1.686 8.867-4.14-1.13-10.257-2.252-11.42.557-.529 1.276.185 2.821 2.12 4.593 1.344 1.229 3.245 2.553 5.545 3.867-4.72 1.056-7.446 2.879-7.446 5.087 0 2.821 4.131 4.325 7.46 5.078-2.126 1.214-3.914 2.438-5.245 3.598-2.171 1.89-2.99 3.53-2.434 4.872.485 1.17 1.87 1.761 4.124 1.761.313 0 .642-.011.988-.034 1.77-.116 3.92-.516 6.306-1.169-1.832 2.901-3.678 6.873-1.685 8.866.61.61 1.407.859 2.3.859 2.035 0 4.573-1.288 6.567-2.545-.637 2.331-1.034 4.438-1.161 6.19-.21 2.91.368 4.67 1.72 5.23.27.113.554.169.85.169 1.19 0 2.573-.912 4.124-2.722 1.133-1.323 2.32-3.067 3.494-5.126.754 3.334 2.258 7.46 5.078 7.46 2.822 0 4.325-4.132 5.078-7.462 1.912 3.345 4.976 7.85 7.62 7.85.29 0 .573-.054.85-.169 1.334-.553 1.915-2.277 1.726-5.123-.117-1.77-.517-3.914-1.168-6.296 1.995 1.257 4.532 2.544 6.566 2.544.894 0 1.69-.25 2.3-.859 1.995-1.995.136-5.981-1.686-8.867 2.212.604 4.99 1.206 7.276 1.205 1.988 0 3.603-.456 4.144-1.763.558-1.345-.269-2.991-2.457-4.891zm-16.556 1.075c.15-1.329-.155-2.864-.91-4.432 1.622-.567 2.938-1.436 3.783-2.497 5.228 2.766 7.374 5.764 6.897 6.917-.48 1.16-4.116 1.756-9.77.012zm-3.974 13.732c-1.169.485-4.153-1.667-6.916-6.898 1.06-.845 1.93-2.16 2.496-3.782 1.31.632 2.596.95 3.76.95.23 0 .453-.013.673-.038 1.744 5.653 1.153 9.285-.013 9.768zm-19.437 0c-1.17-.484-1.758-4.116-.012-9.77.219.024.443.038.673.038 1.163 0 2.45-.318 3.759-.948.566 1.622 1.435 2.937 2.496 3.783-2.765 5.229-5.755 7.378-6.916 6.897zM9.412 42.593c-.482-1.163 1.668-4.152 6.898-6.916.845 1.06 2.16 1.93 3.782 2.496-.756 1.568-1.062 3.103-.911 4.432-5.653 1.744-9.288 1.15-9.77-.012zm0-19.437c.484-1.17 4.114-1.758 9.764-.014-.151 1.33.155 2.864.914 4.435-1.62.566-2.936 1.435-3.78 2.495-5.23-2.765-7.377-5.76-6.898-6.916zM23.156 9.412c.635-.263 1.733.252 2.937 1.378 1.357 1.268 2.758 3.215 3.98 5.52-1.061.844-1.93 2.16-2.497 3.78-1.57-.758-3.105-1.064-4.434-.913-1.741-5.651-1.141-9.286.014-9.765zm19.437 0c1.16.48 1.756 4.117.012 9.771-1.33-.15-2.865.155-4.432.91-.567-1.623-1.436-2.939-2.497-3.784 2.766-5.228 5.764-7.375 6.917-6.897zm13.744 13.744c.483 1.166-1.668 4.152-6.898 6.916-.845-1.061-2.16-1.93-3.782-2.496.752-1.566 1.056-3.102.907-4.431 5.655-1.746 9.29-1.155 9.773.011zm-12.522 20.66c-.987.987-2.992.86-5.107-.278.126-.762.193-1.564.193-2.394 0-.838-.07-1.658-.204-2.447.789.134 1.61.204 2.447.204.83 0 1.633-.067 2.395-.193 1.137 2.113 1.26 4.123.276 5.108zm-16.774-.277c-2.113 1.137-4.124 1.26-5.108.276-.986-.986-.86-2.993.277-5.107.762.126 1.564.193 2.395.193.837 0 1.658-.07 2.447-.204-.135.789-.204 1.61-.204 2.447 0 .83.067 1.633.193 2.395zm-9.64-10.664c0-1.264 1.194-2.169 1.905-2.596.701-.42 1.523-.745 2.422-.966.127-.005.254-.032.375-.084.79-.165 1.634-.25 2.502-.25 1.077 0 2.113.133 3.066.386.036.097.074.194.113.29a5.99 5.99 0 0 0-.936 3.22c0 1.183.344 2.288.936 3.22-.039.095-.077.192-.114.29-.952.253-1.988.386-3.065.386-2.018 0-3.9-.462-5.299-1.302-.711-.426-1.905-1.331-1.905-2.594zm4.532-10.942c.976-.974 3.014-.841 5.108.28a14.727 14.727 0 0 0-.193 2.392c0 .838.07 1.658.204 2.447a14.576 14.576 0 0 0-2.447-.204c-.83 0-1.631.067-2.393.193-1.121-2.094-1.255-4.132-.279-5.108zm7.045 10.942a3.9 3.9 0 0 1 3.896-3.897 3.9 3.9 0 0 1 3.897 3.897 3.9 3.9 0 0 1-3.897 3.896 3.9 3.9 0 0 1-3.896-3.896zm9.73-10.665c2.113-1.137 4.125-1.259 5.108-.277.979.98.858 2.997-.277 5.108a14.707 14.707 0 0 0-2.396-.193c-.837 0-1.657.07-2.446.204a14.816 14.816 0 0 0 .011-4.842zm2.435 14.56a11.97 11.97 0 0 1-3.065-.386 11.547 11.547 0 0 0-.114-.29 5.988 5.988 0 0 0 .937-3.22 5.988 5.988 0 0 0-.937-3.22c.04-.095.078-.192.114-.29a11.975 11.975 0 0 1 3.065-.386c2.019 0 3.9.462 5.3 1.301.71.427 1.904 1.332 1.904 2.596 0 1.263-1.193 2.168-1.905 2.595-1.398.839-3.28 1.3-5.299 1.3zM35.47 19.307c.84 1.4 1.302 3.281 1.302 5.3 0 1.076-.133 2.112-.386 3.064-.098.037-.195.075-.29.114a5.988 5.988 0 0 0-3.22-.936 5.988 5.988 0 0 0-3.22.937 10.5 10.5 0 0 0-.29-.114 11.975 11.975 0 0 1-.387-3.065c0-2.019.462-3.9 1.302-5.3.426-.71 1.331-1.904 2.595-1.904 1.263 0 2.167 1.193 2.594 1.904zm-5.19 27.137c-.839-1.4-1.301-3.281-1.301-5.3 0-1.076.133-2.112.386-3.064.098-.037.194-.075.29-.114a5.99 5.99 0 0 0 3.22.936 5.99 5.99 0 0 0 3.22-.936c.096.039.193.077.29.114.253.952.387 1.988.387 3.065 0 2.018-.462 3.9-1.302 5.299-.427.711-1.331 1.905-2.595 1.905-1.263 0-2.168-1.194-2.595-1.905zm32.953-13.568c0 .992-2.713 2.73-8.733 3.523-1.226-.957-2.642-1.853-4.12-2.634a4.13 4.13 0 0 0 0-1.78c1.485-.784 2.902-1.679 4.127-2.632 6.015.794 8.725 2.53 8.725 3.523zm.38-12.733c.148.358-.963 2.261-5.444 5.024.424-.973.508-1.93.137-2.825-.37-.895-1.108-1.512-2.095-1.9 5.123-1.214 7.255-.654 7.402-.299zM54.34 11.41c.703.702.012 3.847-3.68 8.661-1.54.193-3.175.562-4.779 1.057a4.077 4.077 0 0 0-1.26-1.26c.495-1.6.863-3.234 1.055-4.776 2.113-1.62 4.175-2.846 5.827-3.463 1.64-.613 2.541-.515 2.837-.22zm-8.734-9.272c.354.146.916 2.277-.3 7.407-.388-.99-1.004-1.73-1.898-2.1-.895-.37-1.855-.282-2.832.148 2.766-4.49 4.671-5.604 5.03-5.455zm-12.732.38c.989 0 2.73 2.711 3.524 8.732-.957 1.226-1.853 2.643-2.634 4.12a4.132 4.132 0 0 0-1.78 0c-.78-1.476-1.676-2.892-2.633-4.118.786-5.954 2.555-8.734 3.523-8.734zm-12.732-.38c.107-.044.824.093 2.165 1.546.902.976 1.873 2.305 2.862 3.909-.976-.43-1.935-.518-2.828-.148-.893.37-1.51 1.11-1.896 2.1-1.216-5.144-.645-7.265-.303-7.407zm-8.733 9.272c.297-.297 1.201-.394 2.849.223 1.65.619 3.707 1.844 5.816 3.46.192 1.542.559 3.177 1.052 4.775a4.141 4.141 0 0 0-1.26 1.26c-1.664-.515-3.288-.874-4.78-1.06-1.62-2.114-2.846-4.176-3.461-5.828-.61-1.636-.511-2.535-.216-2.83zm-9.272 8.733c.147-.354 2.277-.915 7.402.3-1.234.488-1.82 1.236-2.095 1.899-.37.893-.284 1.85.142 2.824-1.574-.971-2.886-1.926-3.858-2.816-1.493-1.367-1.636-2.099-1.591-2.207zm.38 12.733c0-.992 2.712-2.73 8.73-3.523 1.226.955 2.643 1.85 4.123 2.633a4.127 4.127 0 0 0 0 1.78c-1.483.783-2.9 1.678-4.126 2.632-5.95-.786-8.727-2.556-8.727-3.522zm-.38 12.731c-.15-.359.964-2.263 5.447-5.025-.426.973-.511 1.932-.14 2.827.37.895 1.11 1.511 2.1 1.898-5.126 1.217-7.26.658-7.407.3zm9.272 8.734c-.298-.298-.395-1.206.227-2.86.62-1.65 1.842-3.7 3.454-5.802 1.54-.192 3.176-.562 4.777-1.056a4.11 4.11 0 0 0 1.26 1.26c-.515 1.665-.874 3.29-1.06 4.78-4.814 3.691-7.958 4.379-8.658 3.678zm11.276 7.301c-1.572 1.835-2.418 2.024-2.543 1.971-.362-.15-.92-2.287.298-7.407.488 1.237 1.237 1.825 1.9 2.1.386.16.782.235 1.187.235.534 0 1.081-.133 1.633-.374-.847 1.371-1.687 2.555-2.475 3.475zm10.19 1.59c-.42 0-1.127-.568-1.855-2.166-.714-1.567-1.293-3.82-1.645-6.383 0-.063-.005-.126-.016-.188.952-1.223 1.844-2.637 2.625-4.115a4.131 4.131 0 0 0 1.781 0c.813 1.541 1.708 2.944 2.63 4.13-.786 5.947-2.554 8.723-3.52 8.723zm12.731.381a.193.193 0 0 1-.073.013c-.496 0-2.339-1.225-4.95-5.46.617.267 1.166.372 1.642.371a3.07 3.07 0 0 0 1.183-.231c.895-.37 1.512-1.108 1.9-2.096 1.215 5.123.656 7.255.298 7.403zm8.734-9.272c-.7.701-3.846.013-8.661-3.68-.193-1.54-.562-3.173-1.057-4.777a4.124 4.124 0 0 0 1.26-1.26c1.6.493 3.235.863 4.777 1.054 1.62 2.115 2.847 4.177 3.464 5.83.61 1.638.513 2.538.217 2.833zm9.272-8.734c-.147.355-2.28.916-7.408-.3.99-.388 1.73-1.003 2.101-1.898.37-.895.282-1.856-.149-2.833 4.49 2.764 5.606 4.67 5.456 5.031z"/></defs></svg>