<svg viewBox="0 0 50 49" xmlns="http://www.w3.org/2000/svg" xmlns:xlink="http://www.w3.org/1999/xlink"><title>Group 5</title><desc>Created using Figma</desc><use xlink:href="#a" transform="translate(.47 .9)" fill="#FFC5CE" fill-opacity=".5"/><defs><path id="a" d="M49.306 16.528a2.523 2.523 0 0 0-1.037-1.749 2.585 2.585 0 0 0-2.04-.418c-1.411.303-3.614.557-6.093.048-4.456-.915-7.491-.472-9.56.547.544-1.3 1.07-2.693 1.434-4.43.536-2.562.195-4.756-1.015-6.52C30.19 2.83 28.181.75 23.802.034a2.522 2.522 0 0 0-1.968.51 2.584 2.584 0 0 0-.97 1.842c-.1 1.44-.47 3.627-1.648 5.866-2.275 4.323-2.59 7.509-2.031 9.826l-.14-.102c-1.371-1.01-2.79-2.054-4.772-2.976-2.374-1.104-4.588-1.27-6.58-.492-1.33.518-3.811 2-5.503 6.103a2.524 2.524 0 0 0 .05 2.033c.306.65.88 1.147 1.574 1.362 1.38.426 3.425 1.28 5.338 2.937 2.758 2.387 5.393 3.735 7.857 4.025-1.186.824-2.408 1.733-3.679 3.04-1.825 1.877-2.71 3.913-2.633 6.05.051 1.426.633 4.257 3.948 7.207a2.524 2.524 0 0 0 1.935.624 2.584 2.584 0 0 0 1.805-1.038c.857-1.162 2.34-2.812 4.533-4.072 3.724-2.14 5.698-4.348 6.643-6.384.352 1.442.765 2.947 1.555 4.653 1.1 2.375 2.685 3.93 4.708 4.623.583.2 1.444.4 2.553.4 1.46 0 3.35-.349 5.59-1.51a2.522 2.522 0 0 0 1.274-1.583 2.584 2.584 0 0 0-.323-2.057c-.779-1.216-1.79-3.19-2.181-5.69-.571-3.638-1.755-6.224-3.255-7.977.784.079 1.6.136 2.486.136.491 0 1.003-.017 1.54-.058 2.612-.198 4.624-1.136 5.981-2.788.906-1.102 2.346-3.61 1.817-8.015zM20.633 8.997c1.308-2.485 1.716-4.906 1.829-6.499a.98.98 0 0 1 .365-.7.906.906 0 0 1 .716-.185c1.31.214 4.532.965 6.132 3.299.953 1.39 1.211 3.168.768 5.287-.416 1.983-1.078 3.527-1.72 5.02-.255.596-.497 1.16-.724 1.75-.005.01-.007.02-.01.031-1.02 1.252-1.474 2.621-1.674 3.566a.804.804 0 0 0-.017.187 4.228 4.228 0 0 0-1.252-.036c-.042-1.77.17-2.742 1.721-4.34a.8.8 0 1 0-1.148-1.115c-2.078 2.14-2.244 3.622-2.161 5.872-1.337-1.695-1.792-3.487-1.39-5.465a.8.8 0 1 0-1.568-.32c-.474 2.33-.007 4.438 1.427 6.415-1.163-.647-2.61-1.839-3.157-3.917-.619-2.349.009-5.327 1.863-8.85zm4.92 18.519a2.618 2.618 0 0 1-2.615-2.615 2.618 2.618 0 0 1 2.615-2.615 2.618 2.618 0 0 1 2.615 2.615 2.618 2.618 0 0 1-2.615 2.615zM2.286 22.475a.98.98 0 0 1-.599-.514.907.907 0 0 1-.017-.74c.506-1.228 1.968-4.194 4.605-5.223 1.569-.612 3.36-.46 5.322.453 1.838.854 3.191 1.85 4.5 2.813.82.604 1.595 1.174 2.464 1.698.88 1.139 1.944 1.86 2.724 2.277l.011.005c-1.87.045-4.578-1.105-6.372-2.411a.8.8 0 0 0-.942 1.294c1.786 1.3 4.32 2.448 6.48 2.675-1.656.791-4.107 1.118-5.961 1.008a.8.8 0 1 0-.095 1.598c.27.016.55.024.84.024 2.047 0 4.501-.412 6.257-1.363.052.181.116.358.192.528-.011.01-.023.02-.033.032-1.642 1.742-3.345 2.652-5.205 2.781-2.462.17-5.24-1.067-8.257-3.679-2.123-1.838-4.388-2.785-5.914-3.256zm24.146 12.436c-.735 2.316-2.859 4.495-6.312 6.478-2.434 1.399-4.076 3.225-5.024 4.51a.98.98 0 0 1-.682.396.91.91 0 0 1-.705-.227c-.992-.883-3.31-3.241-3.413-6.07-.06-1.683.674-3.323 2.182-4.875 1.413-1.454 2.8-2.403 4.14-3.32.377-.259.767-.525 1.144-.795a.796.796 0 0 0 .215-.23c1.647-.419 3.205-1.372 4.65-2.846.079.076.16.15.244.22-.973 1.506-2.549 2.94-3.801 3.768a.8.8 0 1 0 .883 1.336c1.709-1.13 3.34-2.776 4.325-4.337.055.018.11.034.166.049.042 1.91-.267 3.749-.86 5.088a.8.8 0 0 0 1.465.648c.664-1.501.906-3.15.976-4.478.565 1.163 1.002 2.813.407 4.685zm15.138 6.872a.98.98 0 0 1 .125.78.907.907 0 0 1-.464.576c-1.18.61-4.21 1.932-6.889 1.016-1.594-.545-2.863-1.817-3.773-3.782-.852-1.838-1.242-3.472-1.62-5.053a41.054 41.054 0 0 0-.574-2.222.802.802 0 0 0-.068-.16c-.035-1.68-.623-3.062-1.113-3.928a.8.8 0 0 0-.133-.173c.328-.126.636-.292.92-.492.771 1.355 1.525 3.132 1.52 4.906a.8.8 0 0 0 .798.802h.003a.8.8 0 0 0 .8-.798c.006-2.31-1.022-4.545-1.976-6.12.059-.093.114-.19.165-.288 1.69.606 3.023 2.418 4.019 3.98a.8.8 0 1 0 1.35-.86c-.964-1.513-2.225-3.232-3.889-4.189 2.39-.035 7.029 1.06 8.384 9.7.435 2.774 1.553 4.96 2.415 6.305zm4.683-18.257c-1.07 1.302-2.707 2.045-4.865 2.208-2.02.153-3.688-.054-5.3-.255l-.613-.075a.807.807 0 0 0-.138-.004c-1.785-1.097-3.768-1.4-5.618-1.147a4.182 4.182 0 0 0-.206-.799c1.61-.673 3.353-.72 5.19-.138a.8.8 0 0 0 .484-1.526c-2.194-.695-4.291-.637-6.243.168 1.064-1.417 3.034-2.917 4.917-3.26a.8.8 0 0 0-.286-1.575c-2.215.402-4.333 1.949-5.637 3.525.317-1.28 1.07-2.93 2.856-3.998 2.085-1.248 5.12-1.474 9.02-.673 2.75.566 5.19.284 6.75-.05a.978.978 0 0 1 .775.155.906.906 0 0 1 .377.637c.158 1.318.333 4.62-1.463 6.807z"/></defs></svg>