<svg width="19" height="31" viewBox="0 0 19 31" xmlns="http://www.w3.org/2000/svg" xmlns:xlink="http://www.w3.org/1999/xlink"><title>Group</title><desc>Created using Figma</desc><use xlink:href="#a" transform="translate(.85 .1)" fill="#FFC5CE" fill-opacity=".5"/><defs><path id="a" d="M17.552 15.27v-.15c0-.301-.2-.502-.501-.502h-.1c-3.11-.1-4.815.953-5.717 1.806-1.1 1.052-1.652 2.514-1.701 4.343a4.461 4.461 0 0 0-.506.434v-2.62c.3 0 .502-.201.502-.502s-.201-.502-.502-.502v-2.553c.275.046.466.046.502.046 3.008 0 5.516-2.508 5.516-5.517V2.031c0-.15-.1-.351-.2-.451-.151-.05-.352-.1-.502 0-.635.317-1.237.647-1.806.985V.527c0-.15-.1-.351-.2-.452-.15-.05-.351-.1-.502 0a26.924 26.924 0 0 0-3.28 1.965A26.592 26.592 0 0 0 5.265.075a.455.455 0 0 0-.5 0 .597.597 0 0 0-.251.452V2.54a26.557 26.557 0 0 0-1.756-.96.455.455 0 0 0-.501 0c-.15.1-.25.3-.25.451v7.522c0 3.01 2.507 5.517 5.516 5.517.03 0 .222 0 .501-.055v5.571c-.3 0-.501.2-.501.502 0 .3.2.501.501.501v.807a.457.457 0 0 0 0 .308v1.576a6.407 6.407 0 0 0-.506-.44c-.05-1.729-.596-3.052-1.6-4.056-.803-.803-2.407-1.755-5.316-1.705h-.1c-.301 0-.502.2-.502.501v.2c0 .703-.05 2.558 1.354 4.013 1.127 1.176 2.973 1.777 5.49 1.804.377.263.75.728 1.08 1.104l.1.126v.777c-.3 0-.501.2-.501.502 0 .3.2.501.501.501v2.006c0 .3.2.501.502.501.3 0 .501-.25.501-.501v-3.85a.457.457 0 0 0 0-.308v-.857c.3 0 .502-.2.502-.501s-.201-.502-.502-.502v-.89l.05-.063c.377-.376.754-.841 1.13-1.104 2.67-.03 4.664-.728 5.891-1.955 1.505-1.554 1.454-3.56 1.454-4.313zM2.056 22.09c-.952-1.002-1.053-2.256-1.053-3.008 2.307.05 3.56.752 4.263 1.454.578.54.948 1.288 1.134 2.197-.697-.663-1.583-1.396-2.237-1.645-.251-.1-.552.05-.652.3-.1.251.05.552.3.652.488.195 1.313.896 1.97 1.516-1.681-.142-2.934-.63-3.725-1.465zM14.042 9.554c0 2.458-2.056 4.514-4.513 4.514 0 0-.316 0-.717-.124a.505.505 0 0 0-.2-.07 2.307 2.307 0 0 1-.789-.508c-.463-.464-.713-1.07-.782-1.846a5.084 5.084 0 0 1-.02-.461c0-1.404.652-2.859 1.906-4.313A.58.58 0 0 0 9 6.612a14.26 14.26 0 0 1 1.827-1.699c.45-.349.937-.691 1.459-1.027a.317.317 0 0 0 .144-.107 25.183 25.183 0 0 1 1.61-.946v6.72h.001zm-2.508-6.369a35.75 35.75 0 0 0-.514.367 16.87 16.87 0 0 0-2.481 2.12A16.077 16.077 0 0 0 7.192 4.42c1.15-1.097 2.647-2.144 4.343-3.091v1.855zM5.517 1.33c.752.451 1.504.853 2.156 1.304-.449.399-.898.748-1.297 1.147a21.251 21.251 0 0 0-.86-.606V1.329zM3.009 9.553v-6.72c.612.337 1.19.683 1.735 1.038l.02.015c.452.352.903.652 1.354 1.003.628.544 1.22 1.053 1.72 1.585-.134.167-.26.335-.38.504-.971 1.337-1.44 2.708-1.44 4.08 0 1.504.451 2.407 1.053 3.009-2.256-.251-4.062-2.207-4.062-4.514zm8.29 10.943c.655-.615 1.455-1.27 1.94-1.464a.482.482 0 0 0 .301-.652.482.482 0 0 0-.651-.301c-.635.254-1.551 1.01-2.266 1.684.19-1.095.618-1.983 1.313-2.637.702-.702 2.106-1.555 4.613-1.555 0 .803-.1 2.207-1.153 3.31-.883.927-2.272 1.466-4.097 1.615z"/></defs></svg>