<svg viewBox="0 0 46 47" xmlns="http://www.w3.org/2000/svg" xmlns:xlink="http://www.w3.org/1999/xlink"><title>Group</title><desc>Created using Figma</desc><use xlink:href="#a" transform="translate(0 .6)" fill="#FFC5CE" fill-opacity=".5"/><defs><path id="a" d="M1.24 25.99c.96.907 2.424 1.456 4.427 1.658-1.444 1.046-2.4 2.122-2.854 3.217-.5 1.207-.408 2.464.269 3.635.676 1.172 1.718 1.88 3.013 2.05.204.028.416.04.635.04 1.037 0 2.233-.301 3.577-.902-.827 1.836-1.081 3.376-.776 4.662.262 1.101.924 1.965 1.97 2.569.68.393 1.375.59 2.078.59.373 0 .748-.056 1.124-.168 1.268-.376 2.477-1.368 3.656-3.005.184 1.773.637 3.139 1.359 4.08C20.513 45.451 21.648 46 23 46c1.353 0 2.488-.548 3.283-1.584.72-.941 1.174-2.306 1.358-4.08 1.177 1.634 2.384 2.625 3.65 3.003.378.113.755.17 1.13.17.703 0 1.398-.198 2.08-.59 1.044-.604 1.707-1.468 1.968-2.57.306-1.285.051-2.825-.775-4.661 1.343.6 2.538.902 3.576.902.219 0 .43-.013.635-.04 1.295-.17 2.337-.879 3.014-2.05.676-1.172.769-2.428.269-3.635-.455-1.095-1.411-2.171-2.856-3.217 2.004-.203 3.467-.751 4.428-1.659.823-.777 1.24-1.783 1.24-2.99 0-1.206-.417-2.211-1.24-2.989-.961-.907-2.422-1.457-4.426-1.659 1.444-1.046 2.4-2.121 2.853-3.216.5-1.207.408-2.464-.269-3.635-.676-1.171-1.718-1.88-3.013-2.05-1.176-.155-2.585.135-4.212.863.826-1.837 1.08-3.377.776-4.663-.262-1.101-.925-1.965-1.97-2.569-1.042-.602-2.12-.744-3.202-.422-1.268.376-2.477 1.368-3.656 3.005-.184-1.773-.638-3.139-1.36-4.08C25.488.549 24.353 0 23 0c-1.353 0-2.488.548-3.283 1.584-.721.941-1.174 2.307-1.358 4.08-1.18-1.637-2.388-2.628-3.657-3.005-1.082-.322-2.16-.18-3.202.423-1.045.603-1.708 1.467-1.97 2.568-.305 1.286-.05 2.826.777 4.663-1.628-.727-3.037-1.018-4.212-.863-1.295.17-2.337.879-3.014 2.05-.676 1.171-.769 2.428-.269 3.635.454 1.095 1.41 2.17 2.854 3.216-2.004.202-3.465.752-4.426 1.66C.417 20.787 0 21.793 0 23c0 1.206.417 2.212 1.24 2.989zm5.104 8.66c-.71-.093-1.22-.445-1.603-1.108-.382-.663-.433-1.28-.158-1.943.405-.977 1.729-2.535 5.733-4.407 2.707-1.266 5.673-2.218 7.683-2.794a5.192 5.192 0 0 0 1.292 2.233c-1.504 1.452-3.813 3.545-6.264 5.258-3.623 2.532-5.634 2.899-6.683 2.761zM23 19.723A3.28 3.28 0 0 1 26.276 23 3.28 3.28 0 0 1 23 26.277 3.28 3.28 0 0 1 19.723 23 3.28 3.28 0 0 1 23 19.723zm-8.843 21.781c-.573.17-1.113.092-1.698-.245-.587-.339-.924-.768-1.063-1.352-.22-.93-.03-2.726 2.098-6.017a33 33 0 0 0 .631-.43c1.995-1.394 3.891-3.022 5.367-4.384-.442 1.959-.903 4.415-1.113 6.84-.023.258-.042.513-.057.762-1.79 3.494-3.251 4.555-4.165 4.826zm10.605 1.745c-.437.57-.996.834-1.762.834-.765 0-1.325-.265-1.761-.834-.644-.84-1.332-2.765-.95-7.169.257-2.976.915-6.02 1.42-8.049a5.184 5.184 0 0 0 2.582 0c.505 2.028 1.163 5.073 1.42 8.05.382 4.403-.305 6.329-.95 7.168zm9.842-3.343c-.138.584-.476 1.014-1.062 1.352-.586.339-1.127.416-1.703.245-.915-.274-2.375-1.338-4.16-4.826a31.215 31.215 0 0 0-.058-.761c-.21-2.425-.671-4.881-1.113-6.84 1.476 1.362 3.372 2.99 5.367 4.384.213.148.423.291.63.43 2.129 3.29 2.32 5.087 2.1 6.016zm6.813-8.307c.275.662.224 1.28-.158 1.942-.383.663-.893 1.015-1.603 1.109-1.05.138-3.06-.23-6.684-2.761-2.45-1.713-4.76-3.806-6.263-5.259A5.196 5.196 0 0 0 28 24.397c2.01.576 4.976 1.529 7.683 2.795 4.004 1.872 5.328 3.43 5.733 4.407zm2.027-10.195c.436.412.64.919.64 1.596 0 .676-.204 1.184-.64 1.596-.695.656-2.347 1.388-6.26 1.19-.224-.11-.453-.22-.688-.33-2.205-1.031-4.563-1.86-6.48-2.456 1.917-.597 4.275-1.425 6.48-2.456.235-.11.465-.22.688-.332 3.914-.197 5.565.535 6.26 1.192zM39.655 11.35c.711.093 1.22.445 1.604 1.108.382.663.432 1.28.158 1.942-.405.978-1.729 2.536-5.733 4.408-2.708 1.265-5.674 2.218-7.684 2.794a5.193 5.193 0 0 0-1.291-2.233c1.503-1.452 3.812-3.545 6.263-5.258 3.623-2.532 5.635-2.9 6.683-2.761zm-7.812-6.854c.574-.17 1.113-.093 1.698.245.586.338.924.768 1.063 1.352.22.93.029 2.726-2.099 6.016-.207.139-.418.282-.63.43-1.996 1.395-3.892 3.023-5.367 4.384.441-1.958.903-4.414 1.113-6.839.022-.26.041-.513.057-.763 1.79-3.494 3.251-4.554 4.165-4.825zM21.238 2.75c.437-.57.996-.834 1.762-.834.765 0 1.325.265 1.761.834.644.84 1.331 2.765.95 7.168-.257 2.977-.915 6.021-1.42 8.05a5.187 5.187 0 0 0-2.582 0c-.506-2.029-1.163-5.073-1.42-8.05-.382-4.404.305-6.329.95-7.168zm-9.842 3.342c.138-.583.476-1.013 1.062-1.351.585-.338 1.125-.416 1.699-.246.913.272 2.375 1.332 4.164 4.826.016.25.035.503.058.762.21 2.425.671 4.88 1.112 6.84-1.475-1.362-3.371-2.99-5.366-4.384a33.533 33.533 0 0 0-.631-.43c-2.128-3.291-2.32-5.087-2.098-6.017zM4.583 14.4c-.275-.662-.225-1.28.158-1.942.383-.663.892-1.015 1.603-1.109 1.05-.137 3.06.23 6.683 2.761 2.451 1.713 4.76 3.806 6.264 5.258a5.194 5.194 0 0 0-1.292 2.233c-2.01-.576-4.976-1.529-7.683-2.794-4.005-1.872-5.328-3.43-5.733-4.407zm-2.027 7.003c.695-.656 2.347-1.389 6.26-1.19.224.11.453.22.688.33 2.205 1.03 4.563 1.859 6.48 2.456-1.917.597-4.275 1.425-6.48 2.456-.235.11-.464.22-.688.331-3.914.198-5.565-.535-6.26-1.19-.436-.413-.64-.92-.64-1.597 0-.677.204-1.184.64-1.596z"/></defs></svg>