<svg width="35" height="36" viewBox="0 0 35 36" xmlns="http://www.w3.org/2000/svg" xmlns:xlink="http://www.w3.org/1999/xlink"><title>Group</title><desc>Created using Figma</desc><use xlink:href="#a" transform="translate(.11 .8)" fill="#FFC5CE" fill-opacity=".5"/><defs><path id="a" d="M34.336 17.722c0-1.605-.852-4.203-3.598-5.629 1.052-2.651.314-5.32-1.04-6.673-1.066-1.068-2.652-1.732-4.242-1.778a6.894 6.894 0 0 0-2.28.34C22.043 1.365 19.636 0 17.722 0c-1.605 0-4.203.852-5.628 3.597-2.65-1.051-5.32-.313-6.673 1.04C4.353 5.704 3.688 7.29 3.643 8.88a6.85 6.85 0 0 0 .338 2.28C1.365 12.294 0 14.7 0 16.615c0 1.604.852 4.202 3.597 5.628-1.05 2.651-.314 5.32 1.04 6.673 1.067 1.068 2.653 1.733 4.243 1.778a6.909 6.909 0 0 0 2.281-.338c1.132 2.616 3.54 3.98 5.453 3.98 1.606 0 4.208-.854 5.632-3.605a7.003 7.003 0 0 0 2.573.507c1.69 0 3.19-.63 4.096-1.538 1.068-1.067 1.733-2.653 1.778-4.243a6.848 6.848 0 0 0-.338-2.28c2.616-1.133 3.98-3.54 3.98-5.454zM25.425 4.749c1.946.056 3.164 1.127 3.49 1.454 1.061 1.06 1.651 3.276.804 5.457-1.018-.36-2.228-.584-3.69-.584-2.393 0-4.068.42-5.23.95.206-.24.43-.486.676-.732 1.452-1.451 3.678-2.208 3.7-2.216l-.35-1.05c-.101.034-2.493.843-4.133 2.483a14.56 14.56 0 0 0-2.295 2.984 3.829 3.829 0 0 0-1.59-.185c-.064-.92.2-3.03 3.102-5.932 1.797-1.797 3.655-2.668 5.516-2.629zm-5.488 12.419a2.772 2.772 0 0 1-2.769 2.769 2.772 2.772 0 0 1-2.77-2.769 2.772 2.772 0 0 1 2.77-2.77 2.772 2.772 0 0 1 2.769 2.77zm-2.215-16.06c1.496 0 3.463 1.158 4.407 3.292-.935.45-1.95 1.142-3.003 2.195-1.692 1.692-2.58 3.172-3.026 4.37a12.88 12.88 0 0 1-.04-.997c0-2.052 1.04-4.162 1.05-4.183l-.991-.495c-.048.096-1.166 2.36-1.166 4.678 0 1.736.323 3.133.488 3.734-.484.243-.913.58-1.255.993-.697-.604-2.002-2.283-2.002-6.388 0-5.683 3.48-7.2 5.538-7.2zM4.749 8.91c.056-1.946 1.127-3.164 1.454-3.49 1.06-1.06 3.275-1.65 5.456-.804-.36 1.017-.583 2.228-.583 3.69 0 2.393.419 4.067.95 5.23a12.73 12.73 0 0 1-.732-.677c-1.451-1.451-2.208-3.677-2.216-3.7l-1.05.351c.033.101.843 2.493 2.483 4.133a14.527 14.527 0 0 0 2.984 2.294 3.848 3.848 0 0 0-.185 1.59c-.92.066-3.03-.199-5.932-3.101C5.58 12.63 4.696 10.774 4.749 8.91zm-3.641 7.703c0-1.496 1.158-3.463 3.292-4.408.45.937 1.142 1.952 2.195 3.004 1.695 1.695 3.176 2.58 4.374 3.026-.316.024-.65.04-1 .04-2.053 0-4.163-1.04-4.184-1.05l-.495.99c.096.049 2.36 1.167 4.678 1.167 1.736 0 3.133-.323 3.734-.488.243.484.58.912.993 1.255-.604.697-2.283 2.002-6.388 2.002-5.683 0-7.2-3.481-7.2-5.538zM8.91 29.587c-1.946-.056-3.164-1.127-3.49-1.454-1.06-1.06-1.651-3.276-.804-5.457 1.017.36 2.228.584 3.69.584 2.393 0 4.067-.42 5.23-.95-.206.24-.43.486-.677.732-1.451 1.451-3.677 2.208-3.7 2.216l.351 1.05c.101-.033 2.493-.843 4.133-2.483a14.554 14.554 0 0 0 2.294-2.984 3.842 3.842 0 0 0 1.59.185c.065.92-.199 3.03-3.1 5.932-1.799 1.797-3.651 2.661-5.517 2.629zm7.703 3.641c-1.496 0-3.462-1.157-4.407-3.29.936-.45 1.952-1.146 3.003-2.197 1.692-1.693 2.58-3.173 3.026-4.37.024.316.04.648.04.996 0 2.053-1.04 4.163-1.05 4.184l.99.495c.049-.096 1.167-2.36 1.167-4.679 0-1.735-.323-3.133-.488-3.733.484-.243.912-.58 1.255-.993.697.604 2.002 2.283 2.002 6.388 0 5.683-3.481 7.2-5.538 7.2zm12.973-7.803c-.056 1.946-1.127 3.164-1.454 3.49-1.06 1.06-3.274 1.652-5.457.804.36-1.018.584-2.228.584-3.69 0-2.393-.42-4.068-.95-5.23.24.206.486.43.732.676 1.451 1.452 2.208 3.678 2.216 3.7l1.05-.35c-.034-.101-.843-2.493-2.483-4.133a14.56 14.56 0 0 0-2.984-2.295 3.829 3.829 0 0 0 .185-1.59c.92-.064 3.03.2 5.932 3.102 1.797 1.797 2.682 3.653 2.629 5.516zm.349-3.296c-.45-.936-1.143-1.951-2.195-3.003-1.692-1.692-3.172-2.58-4.37-3.027.316-.023.648-.039.996-.039 2.053 0 4.163 1.04 4.184 1.05l.495-.991c-.096-.048-2.36-1.166-4.679-1.166-1.735 0-3.133.323-3.733.488a3.906 3.906 0 0 0-.993-1.255c.604-.697 2.283-2.002 6.388-2.002 5.683 0 7.2 3.48 7.2 5.538 0 1.496-1.16 3.463-3.293 4.407z"/></defs></svg>