<svg viewBox="0 0 125 24" xmlns="http://www.w3.org/2000/svg" xmlns:xlink="http://www.w3.org/1999/xlink"><title>СЕМЬ ЦВЕТОВ</title><desc>Created using Figma</desc><g transform="translate(1.036 1)"><use xlink:href="#a"/><use xlink:href="#b"/><use xlink:href="#c"/><use xlink:href="#d"/><use xlink:href="#e"/><use xlink:href="#f"/><use xlink:href="#g"/><use xlink:href="#h"/><use xlink:href="#i"/><use xlink:href="#j"/><use xlink:href="#k"/></g><defs><path id="a" d="M6.288.288h.096C8 .288 9.12 1.336 9.744 3.432a6.42 6.42 0 0 1 .192 1.512v.168c0 1.36-.368 2.232-1.104 2.616-.16.064-.264.096-.312.096h-.072c-.016 0-.024-.016-.024-.048v-.024c.096-.512.168-.984.216-1.416a8.26 8.26 0 0 0 .024-.576v-.456c0-1.568-.392-2.848-1.176-3.84-.352-.336-.72-.504-1.104-.504-1.344 0-2.68 1.368-4.008 4.104a14.197 14.197 0 0 0-1.128 5.592c0 2.592.656 4.52 1.968 5.784.64.528 1.368.792 2.184.792 1.664 0 2.952-1.008 3.864-3.024.368-1.056.552-1.744.552-2.064.032-.16.064-.24.096-.24.176 0 .28.264.312.792v.096c0 2.128-.792 3.672-2.376 4.632a4.827 4.827 0 0 1-2.184.528c-1.76 0-3.232-.84-4.416-2.52C.416 14.2 0 12.616 0 10.68c0-3.44 1.048-6.368 3.144-8.784C4.168.824 5.216.288 6.288.288z"/><path id="b" d="M16.86.336c1.231 0 2.375.064 3.431.192l.048.096c-.192.4-.568.6-1.128.6h-.24c-2.176 0-4.04.144-5.592.432-.208 2.544-.312 5.504-.312 8.88a24.493 24.493 0 0 1 3.216-.216c.704.016 1.32.04 1.848.072l.048.048v.072c-.176.384-.616.576-1.32.576-.56 0-1.816.128-3.768.384v.024c0 2.048.088 4.024.264 5.928 2.144-.496 4.136-.744 5.976-.744h.144c.016 0 .032.024.048.072v.024c0 .208-.192.424-.576.648-.256.048-.984.152-2.184.312a38.083 38.083 0 0 0-3.24.792h-.144c-.304 0-.632-.152-.984-.456-.176 0-.288-1.368-.336-4.104-.016 0-.024-.528-.024-1.584v-.696l-.912.192H11.1c-.032 0-.064-.032-.096-.096 0-.4.216-.736.648-1.008.272-.048.408-.096.408-.144 0-2.72.168-5.672.504-8.856h-.024c-.656.16-1.048.24-1.176.24-.032 0-.064-.032-.096-.096.096-.464.248-.8.456-1.008.128-.144.504-.256 1.128-.336 1.312-.16 2.648-.24 4.008-.24z"/><path id="c" d="M20.83 0h.049c.223.032.527.192.912.48.24.256.36.584.36.984 1.055 5.024 2.008 8.928 2.855 11.712l.24.744c.209.224.417-.352.625-1.728a51.058 51.058 0 0 1 1.68-7.2c.527-1.648.96-2.92 1.296-3.816.143-.192.207-.304.191-.336.064 0 .4.264 1.009.792.127.16.191.368.191.624-.16 2.832-.24 5.176-.24 7.032 0 3.744.112 6.608.336 8.592.096.48.064.72-.096.72-.24-.064-.488-.256-.744-.576-.303-.416-.456-.936-.456-1.56-.096-.864-.143-2.488-.143-4.872 0-2.592.128-4.96.384-7.104l.047-2.16-.503 1.488a85.93 85.93 0 0 0-1.945 7.464 46.829 46.829 0 0 0-.744 4.536c0 .096-.015.144-.047.144h-.096c-.369 0-.736-.184-1.104-.552-.32-.256-.753-1.352-1.297-3.288-.688-2.432-1.271-5.104-1.752-8.016v-.288l-.335-1.296c-.209 2.64-.32 4.808-.337 6.504 0 3.76.12 6.688.36 8.784.049.384.032.6-.047.648-.064.048-.256-.032-.576-.24-.304-.192-.505-.6-.6-1.224-.177-1.264-.265-2.84-.265-4.728v-.528c0-3.12.224-6.832.672-11.136.032-.4.072-.6.12-.6z"/><path id="d" d="M34.523.648c.048.048.072.088.072.12-.608 3.04-.912 6.024-.912 8.952v1.128c0 2.192.128 4.296.384 6.312a8.872 8.872 0 0 0 2.16.264h.36c1.344 0 2.52-.456 3.528-1.368.416-.528.624-1.056.624-1.584v-.36c0-.928-.632-1.76-1.896-2.496-1.392-.576-2.664-.864-3.816-.864h-.6v-.048c.304-.368.88-.552 1.728-.552 1.296 0 2.512.376 3.648 1.128 1.072.88 1.608 1.88 1.608 3 0 1.376-.672 2.512-2.016 3.408-.928.512-1.992.768-3.192.768h-.12c-1.616 0-2.944-.432-3.984-1.296-.544-.416-.816-.776-.816-1.08v-.216c0-.016.016-.032.048-.048h.024c.048 0 .336.184.864.552.4.24.728.4.984.48-.24-.24-.36-.816-.36-1.728-.08-.896-.12-2.128-.12-3.696v-.168c0-2.272.104-4.184.312-5.736.176-1.488.368-2.656.576-3.504.16-.608.264-.912.312-.912.112-.208.312-.36.6-.456z"/><path id="e" d="M59.359 18.696c-.144-.496-.64-.768-1.488-.816-.848-.048-1.36-.712-1.536-1.992-.144-.48-.24-1.352-.288-2.616-.304 3.344-1.384 5.016-3.24 5.016-.544 0-1.144-.16-1.8-.48-2.112-1.008-3.176-3.064-3.192-6.168-.016-1.776.2-3.736.648-5.88.4-2.016.856-3.504 1.368-4.464.192-.368.448-.584.768-.648.096-.016.152 0 .168.048.016.032.008.096-.024.192-.528 1.216-.968 2.864-1.32 4.944-.352 2.016-.512 3.808-.48 5.376.08 3.376.912 5.408 2.496 6.096.272.128.56.192.864.192.768 0 1.44-.376 2.016-1.128.656-.896 1.088-2.2 1.296-3.912.128-1.088.256-2.88.384-5.376.112-2.192.248-3.744.408-4.656.128-.752.424-1.16.888-1.224.048-.016.08 0 .096.048.016.032.016.088 0 .168-.368 2.352-.52 5.304-.456 8.856.032 2.48.152 4.352.36 5.616.112.64.448 1.072 1.008 1.296.8-.032 1.368.104 1.704.408.336.304.4 1.52.192 3.648-.16.272-.376.464-.648.576h-.12c-.032 0-.048-.024-.048-.072.144-1.536.136-2.552-.024-3.048z"/><path id="f" d="M67.695.096h.384c2.608 0 4.712.784 6.312 2.352 1.056 1.072 1.584 2.296 1.584 3.672 0 1.904-1.032 3.376-3.096 4.416l-.192.072.816.6c.928.88 1.392 1.832 1.392 2.856 0 1.136-.464 2.128-1.392 2.976-1.008.864-2.296 1.296-3.864 1.296h-.216c-1.824 0-3.312-.576-4.464-1.728-.224-.272-.336-.512-.336-.72v-.096c0-.064.024-.112.072-.144.048 0 .272.144.672.432.72.448 1.128.672 1.224.672-.256-.256-.384-.896-.384-1.92-.08-.96-.12-2.216-.12-3.768v-.072c0-3.84.24-6.672.72-8.496.24-.4.48-.6.72-.6h.024c.016 0 .032.024.048.072-.352 2.144-.528 4.584-.528 7.32v.264c0 .208-.008.352-.024.432.016.112.024.264.024.456v.264c0 2.24.128 4.352.384 6.336a9.76 9.76 0 0 0 2.376.288c1.52 0 2.784-.496 3.792-1.488a2.702 2.702 0 0 0 .624-1.752c0-1.264-.8-2.248-2.4-2.952l-.384-.12a7.197 7.197 0 0 1-1.752.216h-.12c-1.008 0-1.616-.12-1.824-.36a.23.23 0 0 1-.072-.168v-.024c0-.208.224-.432.672-.672a3.512 3.512 0 0 1 1.056-.144h.36c.384 0 .896.064 1.536.192 1.168-.288 2.12-.76 2.856-1.416.704-.688 1.056-1.472 1.056-2.352 0-1.824-1.144-3.264-3.432-4.32-1.136-.496-2.368-.744-3.696-.744h-.336c-1.904 0-3.496.496-4.776 1.488-.592.576-.888 1.216-.888 1.92 0 .912.544 1.672 1.632 2.28.4.224.92.4 1.56.528.08 0 .144.04.192.12 0 .16-.256.264-.768.312a.532.532 0 0 1-.168.024c-.688 0-1.368-.2-2.04-.6-.8-.576-1.2-1.336-1.2-2.28v-.12c0-.912.344-1.808 1.032-2.688C63.72.8 65.503.096 67.695.096z"/><path id="g" d="M82.32.336c1.232 0 2.376.064 3.432.192l.048.096c-.192.4-.568.6-1.128.6h-.24c-2.176 0-4.04.144-5.592.432-.208 2.544-.312 5.504-.312 8.88a24.493 24.493 0 0 1 3.216-.216c.704.016 1.32.04 1.848.072l.048.048v.072c-.176.384-.616.576-1.32.576-.56 0-1.816.128-3.768.384v.024c0 2.048.088 4.024.264 5.928 2.144-.496 4.136-.744 5.976-.744h.144c.016 0 .032.024.048.072v.024c0 .208-.192.424-.576.648-.256.048-.984.152-2.184.312a38.081 38.081 0 0 0-3.24.792h-.144c-.304 0-.632-.152-.984-.456-.176 0-.288-1.368-.336-4.104-.016 0-.024-.528-.024-1.584v-.696l-.912.192h-.024c-.032 0-.064-.032-.096-.096 0-.4.216-.736.648-1.008.272-.048.408-.096.408-.144 0-2.72.168-5.672.504-8.856H78c-.656.16-1.048.24-1.176.24-.032 0-.064-.032-.096-.096.096-.464.248-.8.456-1.008.128-.144.504-.256 1.128-.336 1.312-.16 2.648-.24 4.008-.24z"/><path id="h" d="M91.691.552h.456c1.92 0 3.472.104 4.656.312l.048.048c0 .144-.192.304-.576.48a.94.94 0 0 1-.312.072c-1.168-.032-1.8-.048-1.896-.048-1.12.016-2.056.048-2.808.096-.208 2.416-.312 5.048-.312 7.896v.72c0 3.248.144 5.944.432 8.088-.048.048-.088.072-.12.072-.224 0-.488-.16-.792-.48a2.397 2.397 0 0 1-.336-1.272c-.128-1.2-.192-2.84-.192-4.92 0-4.032.184-7.384.552-10.056h-.024c-.432 0-1.56.112-3.384.336-.512.08-1.056.192-1.632.336-.064 0-.112-.048-.144-.144 0-.272.144-.568.432-.888.224-.208 1.224-.392 3-.552a43.679 43.679 0 0 1 2.952-.096z"/><path id="i" d="M101.362.6h.192c1.616 0 2.96 1.288 4.032 3.864.64 1.6.96 3.448.96 5.544-.032 4.432-1.328 7.184-3.888 8.256a4.296 4.296 0 0 1-1.44.264h-.192c-1.456 0-2.752-.776-3.888-2.328-.928-1.376-1.392-3.08-1.392-5.112 0-2.656.656-5.016 1.968-7.08.048-.016.128-.232.24-.648.224-.608.592-1.192 1.104-1.752C99.762.936 100.53.6 101.362.6zm-2.52 5.04v.096c0 .992.216 1.896.648 2.712 0 .08-.032.128-.096.144-.576 0-1.064-.464-1.464-1.392-.208-.528-.312-.944-.312-1.248-.56 1.76-.84 3.464-.84 5.112 0 2.832.744 4.88 2.232 6.144.608.448 1.272.672 1.992.672 1.712 0 3.04-1.232 3.984-3.696.368-1.12.552-2.496.552-4.128 0-3.12-.672-5.656-2.016-7.608-.624-.832-1.288-1.248-1.992-1.248-1.088 0-1.92.936-2.496 2.808a7.104 7.104 0 0 0-.192 1.632z"/><path id="j" d="M114.57.096h.384c2.608 0 4.712.784 6.312 2.352 1.056 1.072 1.584 2.296 1.584 3.672 0 1.904-1.032 3.376-3.096 4.416l-.192.072.816.6c.928.88 1.392 1.832 1.392 2.856 0 1.136-.464 2.128-1.392 2.976-1.008.864-2.296 1.296-3.864 1.296h-.216c-1.824 0-3.312-.576-4.464-1.728-.224-.272-.336-.512-.336-.72v-.096c0-.064.024-.112.072-.144.048 0 .272.144.672.432.72.448 1.128.672 1.224.672-.256-.256-.384-.896-.384-1.92-.08-.96-.12-2.216-.12-3.768v-.072c0-3.84.24-6.672.72-8.496.24-.4.48-.6.72-.6h.024c.016 0 .032.024.048.072-.352 2.144-.528 4.584-.528 7.32v.264c0 .208-.008.352-.024.432.016.112.024.264.024.456v.264c0 2.24.128 4.352.384 6.336a9.76 9.76 0 0 0 2.376.288c1.52 0 2.784-.496 3.792-1.488a2.702 2.702 0 0 0 .624-1.752c0-1.264-.8-2.248-2.4-2.952l-.384-.12a7.197 7.197 0 0 1-1.752.216h-.12c-1.008 0-1.616-.12-1.824-.36a.23.23 0 0 1-.072-.168v-.024c0-.208.224-.432.672-.672a3.512 3.512 0 0 1 1.056-.144h.36c.384 0 .896.064 1.536.192 1.168-.288 2.12-.76 2.856-1.416.704-.688 1.056-1.472 1.056-2.352 0-1.824-1.144-3.264-3.432-4.32-1.136-.496-2.368-.744-3.696-.744h-.336c-1.904 0-3.496.496-4.776 1.488-.592.576-.888 1.216-.888 1.92 0 .912.544 1.672 1.632 2.28.4.224.92.4 1.56.528.08 0 .144.04.192.12 0 .16-.256.264-.768.312a.532.532 0 0 1-.168.024c-.688 0-1.368-.2-2.04-.6-.8-.576-1.2-1.336-1.2-2.28v-.12c0-.912.344-1.808 1.032-2.688C110.594.8 112.378.096 114.57.096z"/><path id="k" d="M9.744 3.432l.486-.118-.003-.012-.004-.013-.479.143zm-.912 4.296l.186.464.023-.01.022-.01-.231-.444zm-.408.024l-.491-.092-.009.046v.046h.5zm.216-1.416l.497.055.001-.01v-.01l-.498-.035zM7.488 1.464l.392-.31-.021-.027-.026-.025-.345.362zm-5.112 3.6l-.45-.218-.005.011-.005.012.46.195zm.84 11.376l-.347.36.014.013.015.013.318-.386zm6.048-2.232l.456.206.009-.02.007-.021-.472-.165zm.552-2.064l-.49-.098-.01.049v.049h.5zm.408.552h.5v-.03l-.5.03zm-2.376 4.728l.224.447.018-.009.017-.01-.259-.428zm-6.6-1.992l-.414.28.005.008.409-.288zM3.144 1.896l-.362-.345-.008.008-.008.01.378.327zM20.291.528l.447-.224-.12-.24-.267-.032-.06.496zm.048.096l.451.216.106-.22-.11-.22-.447.224zm-6.96 1.032l-.091-.492-.376.07-.031.381.498.041zm-.312 8.88h-.5v.57l.566-.074-.066-.496zm3.216-.216l.012-.5h-.012v.5zm1.848.072l.354-.354-.134-.134-.19-.011-.03.499zm.048.048h.5v-.207l-.146-.147-.354.354zm0 .072l.455.208.045-.099v-.109h-.5zm-5.088.96l-.065-.496-.435.057v.439h.5zm.264 5.952l-.498.046.053.57.558-.129-.113-.487zm6.168-.672h.5v-.081l-.025-.077-.475.158zm-.576.672l.092.491.085-.015.075-.044-.252-.432zm-2.184.312l-.066-.496-.015.002-.015.003.096.491zm-3.24.792v.5h.071l.068-.02-.139-.48zm-1.128-.456l.327-.378-.14-.122h-.187v.5zm-.336-4.104l.5-.009-.008-.491h-.492v.5zm-.024-2.28h.5v-.616l-.603.127.103.489zm-.912.192v.5h.052l.051-.01-.103-.49zm-.12-.096h-.5v.118l.053.106.447-.224zm.648-1.008l-.087-.492-.096.017-.083.052.266.423zm.912-9l.497.052.059-.552h-.556v.5zm-.024 0v-.5h-.06l-.058.014.118.486zm-1.272.144l-.49-.101-.034.17.077.155.447-.224zm.456-1.008l.354.354.01-.01.01-.012-.374-.332zm1.128-.336l-.06-.496h-.003l.063.496zM20.878 0l.071-.495-.035-.005h-.036V0zm.913.48l.364-.342-.03-.032L22.09.08l-.3.4zm.36.984h-.5v.052l.01.05.49-.102zm2.855 11.712l-.478.146.003.008.476-.154zm.24.744l-.475.153.034.106.075.081.367-.34zm.625-1.728l-.494-.078v.003l.494.075zm1.68-7.2l-.477-.153-.001.005.477.148zm1.296-3.816l-.4-.3-.043.057-.026.067.468.176zm.191-.336v-.5h-.808l.361.724.447-.224zm1.009.792l.39-.312-.028-.036-.035-.03-.327.378zm.191.624l.5.028v-.028h-.5zm.096 15.624l-.496.056.002.021.004.021.49-.098zm-.096.72l-.128.483.063.017h.066v-.5zm-.744-.576l-.403.295.006.009.007.008.39-.312zm-.456-1.56h.5v-.028l-.003-.027-.497.055zm.24-11.976l.497.06.003-.025V4.5l-.5-.011zm.049-2.16l.5.011-.974-.171.473.16zm-.505 1.488l-.473-.16-.004.012.478.148zm-1.944 7.464l-.488-.105v.001l.488.104zm-.744 4.536l-.496-.055-.004.027v.028h.5zm-1.247-.408l.353-.354-.02-.02-.021-.016-.313.39zM23.59 12.12l.482-.135v-.001l-.482.136zm-1.752-8.016h-.5v.04l.007.041.494-.081zm0-.288h.5v-.064l-.015-.061-.485.125zm-.335-1.296l.483-.125-.982.086.498.039zm-.337 6.504l-.5-.005v.005h.5zm.36 8.784l-.496.057v.005l.496-.062zm-.047.648l-.258-.429-.022.014-.02.015.3.4zm-.576-.24l.272-.42-.006-.003-.267.423zm-.6-1.224l-.496.069.001.007.494-.076zM20.71.6l.498.052V.64L20.712.6zm13.813.048l.353-.354-.218-.218-.293.098.158.474zm.072.12l.49.098.01-.048v-.05h-.5zm-.528 16.392l-.496.063.043.34.332.082.12-.485zm6.048-1.104l.335.37.032-.027.026-.034-.393-.309zm-1.272-4.44l.251-.432-.029-.017-.03-.013-.192.462zm-4.416-.864h-.5v.5h.5v-.5zm0-.048l-.386-.318-.114.138v.18h.5zm5.376.576l.317-.386-.02-.017-.021-.014-.276.417zm-.408 6.408l.241.438.019-.01.017-.012-.277-.416zm-7.296-.528l.32-.385-.008-.006-.008-.006-.304.397zm-.768-1.344v-.5h-.118l-.106.053.224.447zm.888.552l-.286.41.014.01.015.009.257-.429zm.984.48l-.15.477.503-.83-.353.353zm-.36-1.728h.5v-.022l-.002-.023-.498.045zm.192-9.6l.496.066V5.58l-.496-.059zm.576-3.504l-.484-.127-.002.008.486.119zm.312-.912v.5h.298l.142-.263-.44-.237zm25.436 17.592l-.48.14.002.007.002.006.476-.153zm-3.024-2.808l.495-.068-.005-.039-.011-.037-.48.144zm-.288-2.616l.5-.019-.998-.026.498.045zm-5.04 4.536l.219-.45-.004-.001-.215.451zm-3.192-6.168l.5-.003v-.002l-.5.005zm.648-5.88l.49.102v-.005l-.49-.097zm1.368-4.464l.44.235.003-.004-.443-.231zm.768-.648l-.082-.493-.008.001-.008.002.098.49zm.168.048l-.475.158.012.034.015.032.448-.224zm-.024.192l.458.2.01-.021.006-.02-.474-.159zm-1.32 4.944l.492.086v-.003l-.492-.083zm-.48 5.376l-.5.01v.002l.5-.012zm2.496 6.096l.213-.452-.007-.004-.007-.003-.2.459zm2.88-.936l.397.304.006-.009-.403-.295zm1.296-3.912l.496.06v-.002l-.496-.058zm.384-5.376l.5.026-.5-.026zm.408-4.656l.492.086v-.002l-.492-.084zm.888-1.224l.068.495.046-.006.044-.015-.158-.474zm.096.048l-.475.158.012.034.016.032.447-.224zm0 .168l-.49-.098-.003.01-.001.01.494.078zm-.456 8.856l.5-.007v-.002l-.5.009zm.36 5.616l-.494.081.001.005.493-.086zm1.008 1.296l-.186.464.1.04.106-.004-.02-.5zm1.896 4.056l.43.254.057-.096.01-.11-.497-.048zm-.648.576v.5h.099l.091-.038-.19-.462zm-.168-.072l-.498-.047-.002.024v.023h.5zM74.39 2.448l.357-.35-.007-.007-.35.357zm-1.512 8.088l.176.468.025-.01.024-.011-.225-.447zm-.192.072l-.175-.468-.865.324.744.547.296-.403zm.816.6l.344-.363-.022-.021-.025-.019-.297.403zm0 5.832l.326.38.006-.006.006-.005-.338-.369zm-8.544-.432l-.386.318.016.019.017.017.353-.354zm-.264-.96v-.5h-.151l-.126.084.277.416zm.672.432l-.292.406.014.01.014.009.264-.425zm1.224.672v.5h1.21l-.854-.854-.354.354zm-.384-1.92h.5v-.02l-.001-.021-.499.041zm.6-12.336l-.428-.257-.037.06-.018.07.483.127zm.792-.528l.494.081.02-.122-.04-.117-.474.158zm-.552 8.016l-.49-.098-.017.084.012.085.495-.071zm.408 7.056l-.495.064.043.338.331.083.121-.485zm6.168-1.2l.351.356.02-.02.017-.02-.388-.316zm-1.776-4.704l.202-.458-.026-.01-.026-.01-.15.478zm-.384-.12l.15-.477-.135-.042-.136.034.121.485zm-3.696-.144l.378-.328-.011-.013-.013-.013-.354.354zm.6-.864l-.15-.477-.045.014-.04.022.235.441zm2.952.048l-.098.49.11.022.108-.027-.12-.485zm2.856-1.416l.333.373.009-.007.008-.008-.35-.358zM71.8 1.968l.21-.454L72 1.51l-.2.458zm-8.808.744l-.306-.395-.022.017-.02.02.348.358zm.744 4.2l.245-.436-.245.436zm1.56.528l-.098.49.049.01h.05v-.5zm.192.12h.5v-.138l-.07-.12-.43.258zm-.768.312l-.046-.498-.057.006-.055.018.158.474zm-2.208-.576l-.292.406.018.013.019.01.255-.429zm-.168-5.088l-.357-.35-.02.02-.017.022.394.308zm23.41-1.68L86.2.304l-.12-.24-.267-.032-.06.496zm.047.096l.45.216.107-.22-.11-.22-.447.224zm-6.96 1.032l-.091-.492-.376.07-.031.381.498.041zm-.312 8.88h-.5v.57l.566-.074-.066-.496zm3.216-.216l.011-.5h-.01v.5zm1.848.072l.354-.354-.134-.134-.19-.011-.03.499zm.048.048h.5v-.207l-.146-.147-.354.354zm0 .072l.455.208.045-.099v-.109h-.5zm-5.088.96l-.065-.496-.435.057v.439h.5zm.264 5.952l-.498.046.053.57.558-.129-.113-.487zm6.168-.672h.5v-.081l-.025-.077-.475.158zm-.576.672l.092.491.085-.015.075-.044-.252-.432zm-2.184.312l-.066-.496-.015.002-.015.003.096.491zm-3.24.792v.5h.071l.068-.02-.139-.48zm-1.128-.456l.327-.378-.14-.122h-.187v.5zm-.336-4.104l.5-.009-.008-.491h-.492v.5zm-.024-2.28h.5v-.616l-.603.127.103.489zm-.912.192v.5h.052l.051-.01-.103-.49zm-.12-.096h-.5v.118l.053.106.447-.224zm.648-1.008l-.087-.492-.096.017-.083.052.266.423zm.912-9l.497.052.059-.552h-.556v.5zm-.024 0v-.5h-.06l-.058.014.118.486zm-1.272.144l-.49-.101-.035.17.078.155.447-.224zm.456-1.008l.354.354.01-.01.01-.012-.374-.332zm1.128-.336l-.06-.496h-.003l.063.496zm18.491.288l.354-.354-.113-.11-.155-.028-.087.492zm.048.048h.5V.705l-.146-.147-.354.354zm-.576.48l.176.468.017-.006.016-.007-.209-.455zm-.312.072l-.013.5h.013v-.5zm-1.896-.048v-.5h-.007l.007.5zm-2.808.096l-.031-.499-.43.027-.037.43.498.042zm.12 16.704l.354.354.175-.175-.033-.246-.496.067zm-.912-.408l-.427.26.028.046.037.038.362-.344zm-.336-1.272h.5v-.027l-.002-.026-.498.053zm.36-14.976l.496.068.078-.568h-.574v.5zm-3.408.336l-.06-.496h-.009l-.008.002.077.494zm-1.632.336v.5h.062l.06-.015-.122-.485zm-.144-.144h-.5v.081l.026.077.474-.158zm.432-.888L85.4.834l-.016.015-.015.017.371.334zm3-.552l-.033-.499-.011.001.044.498zm16.847 3.816l.464-.186-.002-.006-.462.192zm.96 5.544l.5.004v-.004h-.5zm-3.888 8.256l.167.471.013-.004.013-.006-.193-.461zm-5.52-2.064l-.414.28.005.008.006.007.403-.295zm.576-12.192l-.158-.474-.168.056-.096.15.422.268zm.24-.648l-.469-.173-.008.021-.006.022.483.13zm1.104-1.752l-.345-.362-.012.012-.012.013.37.337zm.432 6.84h.5v-.124l-.058-.11-.442.234zm-.096.144v.5h.062l.06-.015-.122-.485zM97.93 7.2l-.465.183.003.008.003.007.46-.198zm-.312-1.248h.5l-.976-.152.476.152zm1.392 11.256l-.324.381.014.011.013.01.297-.402zm5.976-3.024l.467.179.004-.011.004-.012-.475-.156zm-1.464-11.736l.412-.284-.006-.008-.006-.008-.4.3zm-4.488 1.56l-.478-.147-.005.016-.004.016.487.115zm22.232-1.56l.357-.35-.007-.007-.35.357zm-1.512 8.088l.176.468.025-.01.024-.011-.225-.447zm-.192.072l-.175-.468-.865.324.744.547.296-.403zm.816.6l.344-.363-.022-.021-.025-.019-.297.403zm0 5.832l.326.38.006-.006.006-.005-.338-.369zm-8.544-.432l-.386.318.016.019.017.017.353-.354zm-.264-.96v-.5h-.151l-.126.084.277.416zm.672.432l-.292.406.014.01.014.009.264-.425zm1.224.672v.5h1.207l-.853-.854-.354.354zm-.384-1.92h.5v-.02l-.001-.021-.499.041zm.6-12.336l-.428-.257-.037.06-.018.07.483.127zm.792-.528l.494.081.02-.122-.039-.117-.475.158zm-.552 8.016l-.49-.098-.017.084.012.085.495-.071zm.408 7.056l-.496.064.044.338.331.083.121-.485zm6.168-1.2l.351.356.02-.02.017-.02-.388-.316zm-1.776-4.704l.202-.458-.026-.01-.026-.01-.15.478zm-.384-.12l.15-.477-.135-.042-.136.034.121.485zm-3.696-.144l.378-.328-.011-.013-.013-.013-.354.354zm.6-.864l-.15-.477-.045.014-.041.022.236.441zm2.952.048l-.098.49.11.022.108-.027-.12-.485zm2.856-1.416l.333.373.009-.007.008-.008-.35-.358zm-2.376-6.672l.21-.454-.01-.004-.2.458zm-8.808.744l-.306-.395-.022.017-.02.02.348.358zm.744 4.2l.245-.436h-.001l-.244.436zm1.56.528l-.098.49.049.01h.049v-.5zm.192.12h.5v-.138l-.071-.12-.429.258zm-.768.312l-.046-.498-.057.006-.055.018.158.474zm-2.208-.576l-.292.406.018.013.019.01.255-.429zm-.168-5.088l-.357-.35-.02.02-.017.022.394.308zM6.288.788h.096v-1h-.096v1zm.096 0c.689 0 1.248.219 1.71.651.474.443.874 1.139 1.17 2.136l.96-.286c-.328-1.099-.8-1.975-1.446-2.58C8.12.093 7.31-.212 6.384-.212v1zM9.258 3.55c.122.5.179.946.178 1.394h1a7.143 7.143 0 0 0-.206-1.63l-.972.236zm.178 1.394v.168h1v-.168h-1zm0 .168c0 1.3-.353 1.92-.835 2.173l.462.886c.99-.516 1.373-1.64 1.373-3.059h-1zm-.79 2.152c-.073.03-.125.048-.159.058l-.024.007.014-.002a.34.34 0 0 1 .043-.003v1a.91.91 0 0 0 .261-.046 3.4 3.4 0 0 0 .237-.086l-.372-.928zm-.126.06h-.072v1h.072v-1zm-.072 0a.482.482 0 0 1 .43.264c.047.097.046.178.046.188h-1c0 .042.003.147.059.26a.519.519 0 0 0 .465.288v-1zm.476.452v-.024h-1v.024h1zm-.009.068c.098-.52.173-1.01.222-1.453l-.994-.11c-.047.422-.116.875-.21 1.379l.982.184zm.224-1.472c.016-.232.025-.442.025-.612h-1c0 .15-.007.324-.023.54l.998.072zm.025-.612v-.456h-1v.456h1zm0-.456c0-1.653-.415-3.05-1.284-4.15l-.784.62c.699.884 1.068 2.047 1.068 3.53h1zm-1.33-4.202c-.42-.4-.906-.642-1.45-.642v1c.224 0 .474.094.759.366l.69-.724zM6.383.46c-.855 0-1.646.438-2.368 1.177-.7.72-1.411 1.813-2.09 3.209l.9.436c.65-1.34 1.27-2.3 1.906-2.947.614-.629 1.163-.875 1.652-.875v-1zM1.916 4.869a14.91 14.91 0 0 0-1.168 5.787h1a13.49 13.49 0 0 1 1.088-5.397l-.92-.39zM.748 10.656c0 2.67.676 4.752 2.121 6.144l.694-.72c-1.179-1.136-1.815-2.91-1.815-5.424h-1zm2.15 6.17c.71.576 1.6.898 2.502.906v-1c-.73.008-1.296-.198-1.866-.678l-.636.772zm2.502.906c1.927 0 3.358-1.193 4.32-3.318l-.912-.412c-.862 1.907-2.007 2.73-3.408 2.73v1zm4.336-3.36c.186-.534.33-.988.425-1.343.093-.347.155-.654.155-.885h-1c0 .09-.03.286-.121.627-.089.333-.221.751-.403 1.272l.944.33zm.57-2.13c.013-.065.028-.104.022-.092a.373.373 0 0 1-.05.082.469.469 0 0 1-.366.172v-1a.53.53 0 0 0-.414.203.995.995 0 0 0-.098.171 1.836 1.836 0 0 0-.074.268l.98.196zm-.394.162a.332.332 0 0 1-.225-.087c-.037-.035-.041-.06-.03-.032.022.058.053.193.068.441l.998-.06c-.017-.28-.055-.54-.136-.747-.075-.191-.27-.515-.675-.515v1zm-.188.292v.096h1v-.096h-1zm0 .096c0 1.984-.725 3.35-2.135 4.204l.518.856c1.758-1.066 2.617-2.788 2.617-5.06h-1zm-2.1 4.185a4.13 4.13 0 0 1-1.96.475v1a5.544 5.544 0 0 0 2.408-.58l-.448-.895zm-1.96.475c-1.568 0-2.899-.735-4.007-2.308l-.818.576c1.26 1.787 2.873 2.732 4.825 2.732v-1zm-4.002-2.3C.901 14.025.5 12.546.5 10.68h-1c0 2.006.431 3.696 1.334 5.032l.828-.56zM.5 10.68c-.007-3.354.98-6.116 3.022-8.456l-.756-.656C.616 4.06-.493 7.154-.5 10.68h1zm3.006-8.439C4.472 1.23 5.398.788 6.288.788v-1c-1.254 0-2.424.63-3.506 1.763l.724.69zM16.859.836a28 28 0 0 1 3.372.188l.12-.992a29.323 29.323 0 0 0-3.492-.196v1zm2.985-.084l.048.096.895-.448-.049-.096-.894.448zm.044-.344c-.085.178-.248.316-.677.316v1c.692 0 1.28-.262 1.579-.884l-.901-.432zm-.677.316h-.24v1h.24v-1zm-.24 0c-2.195 0-4.105.148-5.683.44l.182.984c1.526-.284 3.344-.424 5.501-.424v-1zm-6.09.891c-.209 2.556-.314 5.536-.314 8.921h1c0-3.367.103-6.307.31-8.84l-.996-.08zm.252 9.417a23.763 23.763 0 0 1 3.15-.212v-1c-1.073 0-2.177.074-3.281.22l.13.992zm3.139-.212c.7.016 1.306.04 1.829.071l.06-.998a50.381 50.381 0 0 0-1.866-.073l-.023 1zm1.506-.074l.048.048.707-.708-.048-.048-.707.708zm-.099-.306v.072h1v-.072h-1zm.046-.136c-.049.106-.216.284-.866.284v1c.759 0 1.471-.206 1.775-.868l-.91-.416zm-.866.284c-.585 0-1.874.131-3.833.388l.13.992c1.945-.255 3.169-.38 3.703-.38v-1zm-4.268.884v.024h1v-.024h-1zm0 .024c0 2.06.09 4.058.266 5.974l.996-.092a63.693 63.693 0 0 1-.262-5.882h-1zm.877 6.415c2.119-.49 4.054-.732 5.863-.731v-1c-1.87.001-3.92.256-6.088.757l.225.974zm5.863-.731h.144v-1h-.144v1zm.144 0a.48.48 0 0 1-.392-.205c-.028-.042-.037-.073-.034-.065l.949-.316a1.038 1.038 0 0 0-.083-.173.53.53 0 0 0-.44-.241v1zm-.452-.428v.024h1v-.024h-1zm0 .024c0-.059.029-.066-.017-.014a1.306 1.306 0 0 1-.31.23l.503.864c.218-.129.424-.288.554-.43a.98.98 0 0 0 .27-.65h-1zm-.168.157c-.245.046-.96.148-2.158.307l.132.992a64.397 64.397 0 0 0 2.21-.317l-.184-.982zm-2.188.312a38.77 38.77 0 0 0-3.283.803l.278.96a37.394 37.394 0 0 1 3.198-.781l-.193-.982zm-3.144.783h-.144v1h.144v-1zm-.144 0c-.134 0-.35-.069-.657-.334l-.654.756c.397.343.838.578 1.311.578v-1zm-.984-.456c.166 0 .276.084.325.134.045.046.063.086.065.09.006.008-.007-.018-.02-.084a6.025 6.025 0 0 1-.087-.707c-.056-.673-.095-1.683-.119-3.046l-1 .018c.024 1.373.065 2.415.122 3.11.029.352.065.64.105.832.023.105.059.224.093.3a.99.99 0 0 0 .127.187c.07.071.201.166.39.166v-1zm-.336-4.104a.499.499 0 0 1 .451.286.459.459 0 0 1 .034.097.759.759 0 0 0 .006.03v.01c.002.006 0-.017-.002-.045a9.856 9.856 0 0 1-.007-.282 84.384 84.384 0 0 1-.006-1.18h-1c0 .53.002.93.006 1.196.002.134.005.24.008.312l.007.104a.978.978 0 0 0 .013.077c.005.02.022.073.036.106a.899.899 0 0 0 .092.134.501.501 0 0 0 .362.155v-1zm.476-1.084v-.696h-1v.696h1zm-.603-1.185l-.912.192.206.978.912-.192-.206-.978zm-.809.181H11.1v1h.024v-1zm-.024 0c.164 0 .267.084.306.122.037.038.05.067.046.058l-.895.448c.03.059.093.149.142.202.07.07.206.17.401.17v-1zm.404.404c0-.18.082-.376.415-.585l-.533-.846c-.532.335-.882.811-.882 1.431h1zm.235-.516c.15-.026.292-.06.386-.093a1.12 1.12 0 0 0 .198-.099.546.546 0 0 0 .237-.444h-1a.47.47 0 0 1 .186-.373c.039-.027.063-.033.046-.027-.029.01-.098.029-.227.052l.174.984zm.821-.636c0-2.706.167-5.632.502-8.804l-.995-.104c-.337 3.196-.507 6.174-.507 8.908h1zm.004-9.356h-.024v1h.024v-1zm-.142.014c-.325.08-.578.137-.768.176-.184.038-.316.049-.29.05v1c.124 0 .304-.032.49-.07.202-.041.473-.103.805-.184l-.237-.972zm-1.058.226c.164 0 .267.084.306.122.037.038.05.067.045.058l-.894.448c.03.059.093.149.142.202.07.07.206.17.401.17v-1zm.394.505c.087-.421.211-.647.32-.755L11.37.558c-.308.308-.488.754-.592 1.26l.979.203zm.34-.777c-.035.04-.027.007.147-.045.164-.05.374-.09.67-.127L12.789.08a5.633 5.633 0 0 0-.83.16c-.201.061-.446.157-.608.34l.747.664zm.815-.172a32.365 32.365 0 0 1 3.947-.236v-1c-1.375 0-2.741.082-4.068.244l.12.992zM20.83.5h.049v-1h-.049v1zm-.022-.005c.09.013.306.103.683.385l.6-.8c-.392-.294-.783-.524-1.142-.575l-.141.99zm.618.327c.14.15.225.35.225.642h1c0-.508-.157-.964-.496-1.326l-.73.684zm.235.745c1.058 5.032 2.015 8.957 2.867 11.755l.957-.292c-.844-2.77-1.79-6.653-2.845-11.669l-.979.206zm2.87 11.762l.24.744.951-.306-.24-.744-.951.306zm.35.931c.07.076.198.181.386.203a.6.6 0 0 0 .459-.143c.162-.138.25-.347.303-.494.114-.32.23-.857.336-1.56l-.989-.149c-.101.673-.194 1.114-.288 1.37-.05.14-.067.119-.009.07a.4.4 0 0 1 .303-.087c.136.015.212.09.23.11l-.732.68zm1.483-1.99a50.33 50.33 0 0 1 1.664-7.13l-.955-.296a51.788 51.788 0 0 0-1.696 7.27l.987.156zm1.663-7.125c.526-1.644.954-2.905 1.288-3.793L28.378 1a90.981 90.981 0 0 0-1.304 3.84l.953.305zm1.22-3.669c.078-.105.147-.207.19-.28.024-.044.056-.112.073-.159.008-.025.078-.216-.024-.42l-.895.447a.471.471 0 0 1-.03-.343c.01-.028.017-.037.007-.021a1.976 1.976 0 0 1-.122.176l.8.6zm-.209-.136a.453.453 0 0 1-.186-.04l.01.007c.04.025.09.063.168.124.161.127.388.317.689.579l.655-.756a20.934 20.934 0 0 0-.727-.61 3.933 3.933 0 0 0-.234-.172 1.4 1.4 0 0 0-.114-.067c-.018-.009-.124-.065-.26-.065v1zm.618.604c.04.051.082.14.082.312h1c0-.34-.086-.667-.301-.936l-.78.624zm.083.284c-.16 2.837-.24 5.195-.24 7.06h1c0-1.847.079-4.177.239-7.004l-.999-.056zm-.24 7.06c0 3.754.113 6.646.339 8.648l.993-.112c-.222-1.966-.333-4.802-.332-8.536h-1zm.345 8.69c.046.23.047.342.043.376-.002.017 0-.04.057-.111a.382.382 0 0 1 .294-.143v1a.616.616 0 0 0 .487-.233.766.766 0 0 0 .153-.38c.028-.207-.003-.455-.053-.705l-.98.196zm.523.139c-.089-.024-.253-.12-.482-.405l-.78.624c.282.354.614.643 1.005.747l.257-.966zm-.469-.388c-.259-.342-.364-.712-.36-1.265h-1c.006.695.204 1.365.553 1.855l.807-.59zm-.363-1.32c-.094-.844-.14-2.44-.14-4.817h-1c0 2.391.049 4.043.147 4.927l.993-.11zm-.14-4.817c0-2.579.126-4.917.38-7.045l-.993-.118c-.258 2.16-.387 4.557-.387 7.163h1zm.383-7.093l.048-2.16-1-.022-.047 2.16 1 .022zm-.925-2.331l-.504 1.488.947.32.504-1.488-.947-.32zm-.508 1.5a86.666 86.666 0 0 0-1.955 7.507l.977.21a85.197 85.197 0 0 1 1.933-7.42l-.955-.297zm-1.956 7.508a47.541 47.541 0 0 0-.751 4.585l.993.11a46.19 46.19 0 0 1 .737-4.487l-.979-.208zm-.755 4.64c0 .033-.004.004.014-.05a.44.44 0 0 1 .106-.169.472.472 0 0 1 .332-.137v1c.349 0 .481-.289.51-.378a.846.846 0 0 0 .038-.266h-1zm.453-.356h-.096v1h.096v-1zm-.096 0c-.19 0-.437-.092-.75-.406l-.708.708c.422.422.91.698 1.457.698v-1zm-.792-.442c.033.02-.06-.062-.137-.203a4.996 4.996 0 0 1-.274-.604c-.21-.533-.447-1.267-.716-2.226l-.963.27c.275.977.527 1.76.748 2.322.113.287.228.538.332.725.102.184.227.37.385.496l.625-.78zm-1.127-3.034c-.684-2.417-1.262-5.062-1.74-7.961l-.987.162c.482 2.925 1.073 5.624 1.764 8.071l.963-.272zm-1.733-7.88v-.288h-1v.288h1zm-.016-.413l-.337-1.296-.968.25.337 1.296.968-.25zm-1.319-1.21c-.208 2.646-.321 4.832-.338 6.538l1 .01c.016-1.686.127-3.836.335-6.47l-.997-.078zm-.338 6.543c0 3.77.122 6.727.364 8.84l.993-.113c-.238-2.078-.357-4.977-.357-8.727h-1zm.364 8.846c.023.18.026.292.022.351-.002.03-.005.023.005-.003a.381.381 0 0 1 .164-.19l.515.857a.62.62 0 0 0 .26-.326 1.27 1.27 0 0 0 .053-.264c.01-.14 0-.34-.026-.549l-.993.124zm.148.186a.433.433 0 0 1 .188-.081.356.356 0 0 1 .102-.003c.032.004.04.01.01-.002a2.174 2.174 0 0 1-.303-.173l-.545.838c.174.113.341.206.464.258.072.03.177.06.25.071.086.01.267.018.434-.108l-.6-.8zm-.009-.263c-.115-.073-.283-.294-.372-.877l-.989.152c.103.665.335 1.26.828 1.57l.534-.845zm-.371-.87c-.174-1.243-.26-2.785-.26-4.659h-1c0 1.902.09 3.513.27 4.797l.99-.138zm-.26-4.659v-.528h-1v.528h1zm0-.528c0-3.105.223-6.791.67-11.084l-.995-.104c-.449 4.315-.674 8.053-.675 11.188h1zM21.209.64c.017-.195.033-.322.047-.392.008-.04.01-.034-.001-.01a.402.402 0 0 1-.073.11.476.476 0 0 1-.35.152v-1a.524.524 0 0 0-.386.17.945.945 0 0 0-.107.166c-.024.058-.05.147-.064.216-.023.12-.045.298-.062.508l.997.08zm12.961.362c.007.006-.005-.004-.02-.03a.396.396 0 0 1-.054-.204h1c0-.252-.165-.42-.219-.474l-.707.708zM34.105.67a46.294 46.294 0 0 0-.922 9.05h1c0-2.903.298-5.838.902-8.854l-.98-.196zm-.922 9.05v1.128h1V9.72h-1zm0 1.128c0 2.207.13 4.343.388 6.375l.992-.126c-.254-2-.38-4.072-.38-6.249h-1zm.763 6.797a9.594 9.594 0 0 0 2.28.279v-1c-.705 0-1.364-.08-2.038-.25l-.242.971zm2.28.279h.36v-1h-.36v1zm.36 0a5.792 5.792 0 0 0 3.864-1.497l-.67-.742c-.936.857-1.941 1.248-3.193 1.239v1zm3.922-1.559c.466-.591.73-1.225.73-1.893h-1c0 .388-.15.81-.516 1.275l.786.618zm.73-1.893v-.36h-1v.36h1zm0-.36c0-1.193-.82-2.157-2.144-2.928l-.503.864c1.205.701 1.648 1.401 1.648 2.064h1zm-2.204-2.958c-1.432-.59-2.8-.899-4.007-.902v1c1.096-.003 2.273.264 3.625.826l.382-.924zm-4.007-.902h-.12v1h.12v-1zm-.12 0h-.48v1h.48v-1zm.02.5v-.024h-1v.024h1zm0-.024v-.024h-1v.024h1zm-.115.294c.157-.189.534-.37 1.343-.37v-1c-.888 0-1.662.187-2.114.734l.771.636zm1.343-.37c1.221-.006 2.298.328 3.372 1.045l.552-.834c-1.198-.787-2.553-1.205-3.924-1.211v1zm3.33 1.014c.987.81 1.426 1.679 1.426 2.614h1c0-1.305-.633-2.436-1.79-3.386l-.635.772zm1.426 2.614c0 1.178-.56 2.17-1.794 2.992l.555.832c1.455-.97 2.239-2.25 2.239-3.824h-1zm-1.758 2.97c-.867.484-1.809.71-2.95.706v1c1.259-.003 2.445-.29 3.433-.83l-.483-.876zm-2.95.706h-.12v1h.12v-1zm-.12 0c-1.523 0-2.731-.405-3.665-1.18l-.639.769c1.147.952 2.595 1.411 4.304 1.411v-1zm-3.68-1.193c-.252-.191-.407-.338-.517-.486-.1-.134-.103-.195-.103-.197h-1c0 .302.134.573.305.8.162.211.414.452.707.677l.608-.794zm-.62-.683v-.216h-1v.216h1zm0-.216a.466.466 0 0 1-.135.33c-.045.045-.086.065-.093.07l-.448-.895a.964.964 0 0 0-.166.117.534.534 0 0 0-.158.378h1zm-.452.452h.024v-1h-.024v1zm.024 0a.458.458 0 0 1-.167-.031l.008.004c.032.018.075.044.142.086.138.089.334.221.595.403l.572-.82a20.4 20.4 0 0 0-.629-.425 3.756 3.756 0 0 0-.2-.121 1.368 1.368 0 0 0-.096-.047.562.562 0 0 0-.225-.049v1zm.607.48c.418.252.8.437 1.092.53l.298-.955c-.22-.068-.495-.202-.876-.432l-.514.858zm1.594-.302c-.017-.017-.08-.106-.134-.36-.054-.257-.08-.578-.08-1.014h-1c.001.476.036.9.101 1.218.067.322.184.64.406.864l.707-.708zm-.215-1.418c-.079-.882-.118-2.092-.118-3.652h-1c0 1.576.04 2.83.122 3.74l.996-.088zm-.118-3.652v-.168h-1v.168h1zm0-.168c0-2.258.102-4.137.307-5.67l-.99-.132c-.21 1.571-.317 3.516-.317 5.802h1zm.308-5.677c.175-1.477.362-2.615.566-3.444l-.972-.238c-.212.867-.41 2.065-.587 3.564l.993.118zm.563-3.436c.079-.298.14-.509.188-.65a.823.823 0 0 1 .042-.108c.003-.007-.008.017-.034.05a.483.483 0 0 1-.367.17V.603c-.255 0-.393.18-.408.198a1.036 1.036 0 0 0-.086.135 2.206 2.206 0 0 0-.093.233c-.056.164-.127.409-.209.719l.967.254zm.27-.802c.035-.067.114-.151.317-.219l-.316-.948c-.373.124-.694.344-.882.693l.88.474zm25.475 17.216c-.237-.817-1.036-1.125-1.94-1.176l-.056.998c.791.045.985.281 1.036.456l.96-.278zm-1.94-1.176a.827.827 0 0 1-.652-.34c-.182-.236-.335-.625-.417-1.221l-.99.136c.093.684.284 1.267.615 1.695.346.449.82.696 1.388.728l.056-.998zm-1.085-1.637c-.124-.411-.22-1.224-.268-2.491l-.999.038c.048 1.261.144 2.192.309 2.74l.958-.287zm-1.265-2.517c-.15 1.64-.484 2.8-.96 3.536-.456.705-1.038 1.025-1.782 1.025v1c1.112 0 1.998-.517 2.622-1.483.604-.935.96-2.284 1.116-3.988l-.996-.09zm-2.742 4.561c-.48.004-.97-.128-1.581-.43l-.438.9c.7.338 1.41.526 2.019.53v-1zm-1.585-.431c-1.88-.898-2.892-2.733-2.907-5.72l-1 .006c.016 3.221 1.133 5.498 3.476 6.616l.431-.902zm-2.907-5.721c-.017-1.747.194-3.653.637-5.774l-.979-.204c-.452 2.167-.674 4.18-.658 5.987l1-.01zm.638-5.779c.397-2.002.842-3.432 1.319-4.326l-.882-.47c-.548 1.026-1.015 2.572-1.418 4.602l.981.194zm1.321-4.33c.143-.273.29-.362.423-.389L50.5.158c-.508.101-.872.444-1.113.907l.886.462zm.407-.386c.018-.003-.03.01-.106-.012a.432.432 0 0 1-.283-.275l.95-.316a.573.573 0 0 0-.392-.37.76.76 0 0 0-.333-.013l.164.986zM50.32.92a.418.418 0 0 1-.043-.214c.001-.014.002-.008-.009.024l.95.316a1.52 1.52 0 0 0 .05-.216.624.624 0 0 0-.054-.358l-.895.448zm-.036-.231c-.541 1.25-.998 2.957-1.354 5.06l.986.166c.347-2.057.77-3.646 1.285-4.828L50.284.69zM48.93 5.746c-.355 2.037-.519 3.877-.487 5.472l1-.02c-.032-1.54.123-3.285.472-5.28l-.985-.172zm-.487 5.474c.042 1.724.287 3.165.721 4.233.451 1.103 1.134 1.9 2.076 2.31l.398-.918c-.642-.279-1.168-.84-1.548-1.77-.398-.964-.61-2.227-.647-3.879l-1 .024zm2.783 6.536c.323.15.718.237 1.077.24v-1c-.25.003-.43-.037-.651-.144l-.426.904zm1.077.24c.96 0 1.767-.48 2.413-1.324l-.794-.608c-.506.66-1.043.932-1.62.932v1zm2.42-1.333c.726-.993 1.175-2.393 1.388-4.147l-.993-.12c-.203 1.67-.618 2.878-1.203 3.677l.807.59zm1.388-4.149c.13-1.099.259-2.907.387-5.408l-.999-.052c-.127 2.491-.254 4.267-.38 5.344l.992.116zm.387-5.408c.112-2.183.245-3.705.401-4.596l-.985-.172c-.163.933-.302 2.515-.415 4.716l1 .052zm.402-4.598c.118-.694.34-.796.463-.813l-.137-.99c-.804.11-1.174.825-1.312 1.635l.986.168zm.553-.834a.425.425 0 0 1-.322-.027.425.425 0 0 1-.215-.24l.95-.317a.576.576 0 0 0-.288-.337.576.576 0 0 0-.441-.027l.316.948zm-.51-.202a.397.397 0 0 1-.04-.158c0-.016.002-.017-.002.004l.98.196a.766.766 0 0 0-.043-.49l-.895.448zm-.046-.133c-.372 2.377-.526 5.373-.462 8.942l1-.018c-.064-3.535.085-6.443.45-8.77l-.988-.154zm-.462 8.94c.032 2.492.155 4.402.366 5.69l.987-.162c-.204-1.24-.322-3.074-.353-5.542l-1 .013zm.367 5.695c.14.795.58 1.38 1.315 1.674l.371-.928c-.384-.154-.616-.433-.7-.918l-.986.172zm1.52 1.71c.762-.03 1.162.11 1.35.279l.67-.742c-.485-.438-1.22-.57-2.06-.537l.04 1zm1.35.279c-.022-.009.018.015.052.155.043.16.069.356.083.64.032.584-.003 1.383-.106 2.433l.995.098c.105-1.078.143-1.951.11-2.583a4.505 4.505 0 0 0-.115-.842c-.058-.223-.157-.47-.349-.643l-.67.742zm.096 3.023c-.115.209-.21.294-.408.368l.381.924a2.05 2.05 0 0 0 .889-.784l-.862-.508zm-.217.33h-.12v1h.12v-1zm-.12 0c.13 0 .284.06.38.205a.408.408 0 0 1 .072.223h-1c0 .064.008.199.096.331a.54.54 0 0 0 .452.241v-1zm.45.475a20.49 20.49 0 0 0 .104-1.965c-.004-.52-.046-.96-.15-1.284l-.952.307c.056.174.098.49.102.985.004.493-.029 1.105-.1 1.863l.996.094zM67.695.596h.384v-1h-.384v1zm.384 0c2.5 0 4.471.748 5.962 2.21l.7-.715C73.033.416 70.795-.404 68.08-.404v1zm5.956 2.203c.974.988 1.44 2.09 1.44 3.321h1c0-1.52-.589-2.867-1.727-4.023l-.713.702zm1.44 3.321c0 1.67-.882 2.993-2.82 3.97l.45.893c2.188-1.104 3.37-2.726 3.37-4.863h-1zm-2.771 3.948l-.192.072.35.936.193-.072-.351-.936zm-.313.943l.816.6.593-.806-.816-.6-.593.806zm.768.56c.855.81 1.236 1.639 1.236 2.493h1c0-1.194-.546-2.27-1.548-3.219l-.688.726zm1.236 2.493c0 .98-.392 1.842-1.229 2.607l.675.738c1.019-.931 1.554-2.053 1.554-3.345h-1zm-1.217 2.596c-.901.773-2.067 1.176-3.539 1.176v1c1.665 0 3.075-.461 4.19-1.416l-.651-.76zm-3.539 1.176h-.216v1h.216v-1zm-.216 0c-1.708 0-3.063-.535-4.11-1.582l-.707.708c1.257 1.257 2.878 1.874 4.817 1.874v-1zm-4.078-1.546c-.197-.24-.222-.367-.222-.402h-1c0 .38.2.733.45 1.038l.772-.636zm-.222-.402v-.096h-1v.096h1zm0-.096a.33.33 0 0 1-.034.14.345.345 0 0 1-.116.132l-.555-.832a.66.66 0 0 0-.295.56h1zm-.428.356a.452.452 0 0 1-.156-.028c-.013-.005-.017-.008-.009-.003.023.011.05.028.099.06.105.067.25.167.446.309l.584-.812c-.203-.146-.37-.262-.49-.339a2.707 2.707 0 0 0-.17-.102 1.202 1.202 0 0 0-.095-.044c-.022-.008-.104-.041-.209-.041v1zm.408.357c.364.226.658.401.87.517.109.06.21.111.285.145.041.018.093.038.13.05a.671.671 0 0 0 .203.035v-1a.35.35 0 0 1 .08.008l.023.005c.007.002-.008-.002-.03-.012a2.797 2.797 0 0 1-.21-.107 18.702 18.702 0 0 1-.822-.49l-.529.848zm1.842-.107c-.022-.021-.093-.125-.151-.416-.06-.29-.087-.657-.087-1.15h-1c0 .531.037.996.106 1.346.07.35.19.693.425.928l.707-.708zm-.24-1.607c-.079-.948-.118-2.183-.118-3.727h-1c0 1.56.041 2.837.122 3.81l.997-.084zm-.118-3.727v-.072h-1v.072h1zm0-.072c0-3.832.241-6.61.704-8.369l-.967-.254c-.497 1.89-.737 4.775-.737 8.623h1zm.65-8.239c.103-.173.19-.272.25-.323.06-.056.062-.024.04-.034v-1c-.53 0-.9.428-1.148.843l.857.514zm.29-.357h.024v-1h-.024v1zm.024 0a.48.48 0 0 1-.392-.205c-.028-.042-.037-.073-.034-.065l.949-.316a1.042 1.042 0 0 0-.083-.173.53.53 0 0 0-.44-.241v1zm-.445-.509c-.355 2.166-.534 4.647-.535 7.401h1c0-2.718.173-5.117.522-7.239l-.987-.162zm-.535 7.401v.264h1v-.264h-1zm0 .264a4.113 4.113 0 0 1-.01.307l-.004.027.98.196c.028-.134.034-.324.034-.53h-1zm-.019.503c.014.09.02.206.02.385h1c0-.205-.011-.393-.03-.527l-.99.142zm.02.385v.264h1v-.264h-1zm0 .264c0 2.255.13 4.4.388 6.4l.991-.128a48.84 48.84 0 0 1-.38-6.272h-1zm.762 6.821a10.48 10.48 0 0 0 2.497.303v-1a9.05 9.05 0 0 1-2.254-.273l-.243.97zm2.497.303c1.64 0 3.034-.54 4.143-1.632l-.701-.712c-.907.892-2.042 1.344-3.442 1.344v1zm4.18-1.673a3.411 3.411 0 0 0 .736-2.067h-1c.008.57-.144.995-.512 1.437l.776.63zm.736-2.067c0-1.539-.999-2.662-2.698-3.41l-.403.916c1.5.66 2.101 1.505 2.101 2.494h1zm-2.75-3.43l-.385-.12-.298.955.384.12.299-.954zm-.655-.127a6.49 6.49 0 0 1-1.63.201v1c.622 0 1.267-.08 1.873-.23l-.243-.971zm-1.63.201h-.12v1h.12v-1zm-.12 0c-.486 0-.842-.025-1.116-.08-.25-.047-.354-.153-.33-.107l-.757.655c.22.253.569.368.894.433.333.065.786.099 1.308.099v-1zm-1.471-.214a.275.275 0 0 1 .075.186h-1a.73.73 0 0 0 .218.522l.707-.708zm.074.186v-.024h-1v.024h1zm0-.024c0 .084-.044.096.022.03a1.71 1.71 0 0 1 .386-.261l-.472-.882a2.9 2.9 0 0 0-.621.435c-.158.158-.315.386-.315.678h1zm.323-.195c.263-.085.54-.122.905-.121v-1c-.433.001-.861.06-1.206.167l.3.954zm.905-.121h.36v-1h-.36v1zm.36 0c.353-.001.816.057 1.438.182l.196-.98c-.657-.132-1.219-.201-1.634-.202v1zm1.656.177c1.22-.303 2.28-.83 3.07-1.528l-.666-.746c-.684.615-1.528 1.031-2.643 1.304l.24.97zm3.086-1.543c.788-.77 1.206-1.679 1.206-2.71h-1c0 .729-.285 1.388-.905 1.994l.699.716zm1.206-2.71c0-2.093-1.336-3.673-3.722-4.774l-.42.908c2.19 1.01 3.142 2.311 3.142 3.866h1zM72 1.51C70.814.995 69.48.726 68.102.724v1c1.279-.002 2.41.225 3.496.702l.4-.916zM68.102.724h-.336v1h.336v-1zm-.336 0c-1.979.006-3.727.553-5.082 1.593l.613.79c1.205-.944 2.64-1.389 4.47-1.383v-1zm-5.124 1.63c-.67.652-1.04 1.416-1.04 2.278h1c0-.546.224-1.062.737-1.562l-.697-.716zm-1.04 2.278c0 1.158.708 2.057 1.889 2.716l.487-.872c-.995-.557-1.376-1.178-1.376-1.844h-1zm1.888 2.716c.441.245 1.035.447 1.706.582l.196-.98c-.608-.121-1.055-.27-1.413-.474l-.489.872zm1.804.592a.3.3 0 0 1-.157-.046.243.243 0 0 1-.08-.077l.858-.514a.715.715 0 0 0-.62-.363v1zm-.308-.38c0-.11.05-.193.093-.239.035-.035.056-.038.027-.026-.06.024-.193.057-.434.08l.093.995c.27-.026.52-.069.718-.149.167-.068.503-.254.503-.661h-1zm-.426-.162l.01-.003a.148.148 0 0 1-.02.001v1c.1-.001.235-.021.326-.05l-.316-.948zm-.01-.002c-.616.005-1.168-.158-1.784-.53l-.511.86c.727.428 1.536.665 2.295.67v-1zm-1.748-.506c-.676-.487-.992-1.099-.992-1.874h-1c0 1.113.484 2.02 1.408 2.686l.584-.812zm-.992-1.874v-.12h-1v.12h1zm0-.12c0-.777.291-1.568.926-2.38L61.95 1.9c-.74.948-1.138 1.95-1.138 2.996h1zm.89-2.339c1.27-1.3 2.92-1.961 4.994-1.961v-1c-2.31 0-4.228.747-5.71 2.263l.716.698zM82.321.836c1.217 0 2.331.062 3.371.188l.12-.992a29.323 29.323 0 0 0-3.492-.196v1zm2.984-.084l.048.096.894-.448L86.2.304l-.894.448zm.044-.344c-.085.178-.249.316-.677.316v1c.692 0 1.28-.262 1.579-.884l-.902-.432zm-.677.316h-.24v1h.24v-1zm-.24 0c-2.195 0-4.105.148-5.683.44l.182.984c1.526-.284 3.344-.424 5.501-.424v-1zm-6.09.891c-.209 2.556-.314 5.536-.314 8.921h1c0-3.367.103-6.307.31-8.84l-.996-.08zm.252 9.417a23.764 23.764 0 0 1 3.15-.212v-1c-1.073 0-2.177.074-3.281.22l.13.992zm3.139-.212c.7.016 1.306.04 1.829.071l.06-.998a50.381 50.381 0 0 0-1.867-.073l-.022 1zm1.506-.074l.048.048.707-.708-.048-.048-.707.708zm-.099-.306v.072h1v-.072h-1zm.046-.136c-.05.106-.216.284-.866.284v1c.759 0 1.472-.206 1.775-.868l-.91-.416zm-.866.284c-.585 0-1.874.131-3.833.388l.13.992c1.945-.255 3.169-.38 3.703-.38v-1zm-4.268.884v.024h1v-.024h-1zm0 .024c0 2.06.09 4.058.266 5.974l.996-.092a63.693 63.693 0 0 1-.262-5.882h-1zm.877 6.415c2.118-.49 4.054-.732 5.863-.731v-1c-1.87.001-3.92.256-6.088.757l.225.974zm5.863-.731h.144v-1h-.144v1zm.144 0a.48.48 0 0 1-.392-.205c-.028-.042-.037-.073-.034-.065l.948-.316a1.03 1.03 0 0 0-.082-.173.53.53 0 0 0-.44-.241v1zm-.452-.428v.024h1v-.024h-1zm0 .024c0-.059.029-.066-.017-.014a1.31 1.31 0 0 1-.31.23l.503.864a2.53 2.53 0 0 0 .554-.43.98.98 0 0 0 .27-.65h-1zm-.168.157c-.245.046-.96.148-2.158.307l.132.992a64.374 64.374 0 0 0 2.21-.317l-.184-.982zm-2.188.312c-1.067.21-2.169.48-3.283.803l.278.96a37.392 37.392 0 0 1 3.198-.781l-.193-.982zm-3.144.783h-.144v1h.144v-1zm-.144 0c-.134 0-.35-.069-.657-.334l-.654.756c.397.343.838.578 1.311.578v-1zm-.984-.456c.166 0 .276.084.325.134.045.046.063.086.065.09.005.008-.007-.018-.02-.084a5.998 5.998 0 0 1-.088-.707c-.055-.673-.094-1.683-.118-3.046l-1 .018c.024 1.373.065 2.415.122 3.11.029.352.065.64.105.832.022.105.059.224.093.3a.966.966 0 0 0 .127.187c.07.071.201.166.39.166v-1zm-.336-4.104a.499.499 0 0 1 .49.414l.002.008-.003-.044a10.152 10.152 0 0 1-.007-.282 86.361 86.361 0 0 1-.006-1.18h-1c0 .53.002.93.006 1.196.002.134.005.24.008.312l.007.104c.002.018.008.053.013.077.005.02.022.073.036.106a.893.893 0 0 0 .092.134.501.501 0 0 0 .362.155v-1zm.476-1.084v-.696h-1v.696h1zm-.603-1.185l-.912.192.206.978.912-.192-.206-.978zm-.809.181h-.024v1h.024v-1zm-.024 0c.164 0 .267.084.306.122.037.038.05.067.045.058l-.894.448c.03.059.093.149.142.202.07.07.206.17.401.17v-1zm.404.404c0-.18.082-.376.415-.585l-.533-.846c-.532.335-.882.811-.882 1.431h1zm.235-.516c.15-.026.292-.06.386-.093.057-.02.144-.063.198-.099a.546.546 0 0 0 .237-.444h-1a.47.47 0 0 1 .186-.373c.039-.027.063-.033.046-.027-.029.01-.098.029-.227.052l.174.984zm.821-.636c0-2.706.166-5.632.501-8.804l-.994-.104c-.337 3.196-.507 6.174-.507 8.908h1zm.004-9.356H78v1h.024v-1zm-.142.014c-.325.08-.578.137-.768.176-.184.038-.316.049-.29.05v1c.124 0 .304-.032.49-.07.202-.041.473-.103.805-.184l-.237-.972zm-1.058.226c.164 0 .267.084.306.122.037.038.05.067.045.058l-.894.448c.03.059.093.149.142.202.07.07.206.17.401.17v-1zm.394.505c.087-.421.211-.647.32-.755L76.83.558c-.308.308-.488.754-.592 1.26l.979.203zm.34-.777c-.035.04-.027.007.147-.045.164-.05.374-.09.67-.127L78.25.08a5.633 5.633 0 0 0-.83.16c-.201.061-.446.157-.608.34l.747.664zm.815-.172A32.366 32.366 0 0 1 82.32.836v-1a33.8 33.8 0 0 0-4.068.244l.12.992zm13.318-.02h.456v-1h-.456v1zm.456 0c1.904 0 3.412.1 4.57.304l.173-.984c-1.21-.212-2.806-.32-4.743-.32v1zm4.303.166l.048.048.707-.708-.048-.048-.707.708zm-.1-.306c0-.08.028-.134.042-.156.012-.02.017-.019-.006 0a1.538 1.538 0 0 1-.32.181l.417.91c.214-.1.414-.218.544-.323.13-.108.323-.312.323-.612h-1zm-.25.012a.905.905 0 0 1-.111.035c-.028.007-.033.004-.026.005v1c.168 0 .338-.048.488-.104L96.1.924zm-.123.04a197.812 197.812 0 0 0-1.91-.048v1c.09 0 .715.016 1.883.048l.027-1zM94.06.916a59.208 59.208 0 0 0-2.832.097l.063.998c.745-.048 1.669-.08 2.784-.095l-.015-1zm-3.299.553c-.209 2.428-.313 5.081-.314 7.939h1c0-2.838.103-5.449.31-7.853l-.996-.086zm-.314 7.939v.72h1v-.72h-1zm0 .72c0 3.261.147 5.99.437 8.155l.991-.134c-.286-2.124-.428-4.786-.428-8.021h-1zm.579 7.734c-.007.007.003-.005.03-.02a.396.396 0 0 1 .203-.054v1c.252 0 .42-.165.474-.218l-.707-.708zm.233-.074c.008 0-.024.002-.106-.048a1.66 1.66 0 0 1-.323-.276l-.725.688c.318.335.709.636 1.154.636v-1zm-.365-.24c-.19-.304-.267-.596-.263-1.012h-1c.005.544.152 1.1.41 1.532l.853-.52zm-.265-1.065c-.127-1.183-.19-2.797-.19-4.867h-1c0 2.09.066 3.756.195 4.973l.995-.106zm-.19-4.867c0-4.018.182-7.336.548-9.988l-.99-.136c-.371 2.692-.557 6.078-.558 10.124h1zm.052-10.556h-.024v1h.024v-1zm-.024 0c-.47 0-1.633.117-3.445.34l.122.992c1.837-.225 2.93-.332 3.323-.332v-1zm-3.46.342c-.525.082-1.09.198-1.677.345l.243.97a18.092 18.092 0 0 1 1.588-.327l-.155-.988zm-1.556.33c.11 0 .207.047.27.11.051.052.063.095.06.088l-.948.316c.054.161.222.486.618.486v-1zm.356.356c0-.094.053-.274.304-.554l-.743-.668c-.325.36-.56.772-.56 1.222h1zm.273-.522c-.03.028-.018.005.125-.041a4.35 4.35 0 0 1 .543-.127c.486-.09 1.157-.173 2.036-.252l-.09-.996c-.896.08-1.613.17-2.127.264a5.766 5.766 0 0 0-.667.158c-.162.052-.359.13-.5.262l.68.732zm2.693-.42a42.96 42.96 0 0 1 2.918-.094v-1c-1.032 0-2.033.033-2.985.097l.067.998zm12.589-.046h.192v-1h-.192v1zm.192 0c1.292 0 2.515 1.02 3.571 3.556l.923-.384C104.959 1.656 103.494.1 101.554.1v1zm3.568 3.55c.623 1.55.926 3.305.924 5.358h1c-.002-2.139-.339-4.08-.996-5.73l-.928.372zm.924 5.354c-.031 4.366-1.304 6.845-3.581 7.799l.386.922c2.843-1.19 4.163-4.215 4.195-8.713l-1-.008zm-3.555 7.789a3.594 3.594 0 0 1-1.273.235v1a5.02 5.02 0 0 0 1.607-.293l-.334-.942zm-1.273.235h-.192v1h.192v-1zm-.192 0c-1.248 0-2.41-.655-3.484-2.123l-.807.59c1.197 1.636 2.627 2.533 4.291 2.533v-1zm-3.473-2.108c-.888-1.304-1.311-2.866-1.307-4.832h-1c.005 2.098.51 3.944 1.478 5.392l.829-.56zm-1.307-4.832c-.004-2.588.613-4.813 1.89-6.812l-.844-.536c-1.347 2.129-2.041 4.624-2.046 7.348h1zm1.626-6.606a.546.546 0 0 0 .243-.166 1.02 1.02 0 0 0 .079-.116 1.7 1.7 0 0 0 .085-.192 6.5 6.5 0 0 0 .158-.518l-.966-.26a5.342 5.342 0 0 1-.13.43c-.015.042-.028.065-.023.057a.455.455 0 0 1 .238-.183l.316.948zm.551-.95c.204-.56.52-1.06 1.004-1.587l-.738-.674c-.54.594-.96 1.26-1.204 1.916l.938.346zm.98-1.562c.628-.6 1.277-.87 1.959-.87v-1c-.982 0-1.869.402-2.65 1.146l.691.724zm-1.06 3.67v.096h1V5.64h-1zm0 .096a6.42 6.42 0 0 0 .705 2.946l.884-.468c-.406-.758-.593-1.545-.59-2.478h-1zm.647 2.712c0-.022.004-.097.06-.181a.384.384 0 0 1 .223-.16l.242.97a.616.616 0 0 0 .367-.256.668.668 0 0 0 .108-.373h-1zm.404-.356c-.254 0-.62-.198-1.005-1.09l-.918.396c.415.964 1.025 1.694 1.923 1.694v-1zm-.999-1.075c-.201-.512-.277-.857-.277-1.065h-1c0 .4.132.887.347 1.431l.93-.366zM97.142 5.8c-.57 1.795-.862 3.575-.864 5.264h1c-.002-1.607.266-3.235.817-4.96l-.953-.304zm-.864 5.264c0 2.91.765 5.13 2.408 6.525l.648-.762c-1.333-1.133-2.056-3.01-2.056-5.763h-1zm2.435 6.546a3.996 3.996 0 0 0 2.289.77v-1c-.639.007-1.153-.168-1.695-.575l-.594.805zm2.289.77c2.024 0 3.479-1.48 4.451-4.017l-.934-.358c-.916 2.392-2.117 3.375-3.517 3.375v1zm4.459-4.04c.38-1.164.576-2.619.577-4.284h-1c.001 1.599-.171 2.896-.527 3.972l.95.312zm.577-4.284c0-3.19-.687-5.833-2.104-7.892l-.824.568c1.271 1.845 1.928 4.274 1.928 7.324h1zm-2.116-7.908C103.251 1.253 102.456.7 101.53.7v1c.482 0 1.016.28 1.592 1.048l.8-.6zM101.53.7c-1.454 0-2.39 1.266-2.974 3.161l.956.294c.569-1.849 1.297-2.455 2.018-2.455v-1zm-2.983 3.193a7.83 7.83 0 0 0-.205 1.747h1c0-.515.057-1.001.179-1.517l-.974-.23zM114.57.596h.384v-1h-.384v1zm.384 0c2.501 0 4.471.748 5.962 2.21l.7-.715c-1.708-1.675-3.946-2.495-6.662-2.495v1zm5.956 2.203c.973.988 1.44 2.09 1.44 3.321h1c0-1.52-.589-2.867-1.727-4.023l-.713.702zm1.44 3.321c0 1.67-.882 2.993-2.821 3.97l.45.893c2.189-1.104 3.371-2.726 3.371-4.863h-1zm-2.771 3.948l-.192.072.351.936.192-.072-.351-.936zm-.313.943l.816.6.593-.806-.816-.6-.593.806zm.768.56c.855.81 1.236 1.639 1.236 2.493h1c0-1.194-.546-2.27-1.548-3.219l-.688.726zm1.236 2.493c0 .98-.392 1.842-1.229 2.607l.675.738c1.019-.931 1.554-2.053 1.554-3.345h-1zm-1.217 2.596c-.902.773-2.067 1.176-3.539 1.176v1c1.665 0 3.075-.461 4.19-1.416l-.651-.76zm-3.539 1.176h-.216v1h.216v-1zm-.216 0c-1.708 0-3.063-.535-4.11-1.582l-.707.708c1.257 1.257 2.878 1.874 4.817 1.874v-1zm-4.078-1.546c-.197-.24-.222-.367-.222-.402h-1c0 .38.199.733.45 1.038l.772-.636zm-.222-.402v-.096h-1v.096h1zm0-.096a.33.33 0 0 1-.034.14.346.346 0 0 1-.116.132l-.555-.832a.661.661 0 0 0-.295.56h1zm-.428.356a.45.45 0 0 1-.113-.014.266.266 0 0 1-.043-.014c-.013-.005-.017-.008-.009-.003.023.011.05.028.099.06.105.067.25.167.446.309l.585-.812a12.679 12.679 0 0 0-.49-.339 2.76 2.76 0 0 0-.172-.102 1.322 1.322 0 0 0-.094-.044.576.576 0 0 0-.209-.041v1zm.408.357c.364.226.658.401.87.517.109.06.21.111.285.145.041.018.093.038.13.05a.67.67 0 0 0 .203.035v-1a.387.387 0 0 1 .103.014c.006.001-.008-.003-.03-.013a2.775 2.775 0 0 1-.21-.107 18.393 18.393 0 0 1-.822-.49l-.529.848zm1.842-.107c-.022-.021-.093-.125-.151-.416-.059-.29-.087-.657-.087-1.15h-1c.001.531.037.996.106 1.346.07.35.191.693.425.928l.707-.708zm-.239-1.607c-.079-.948-.119-2.183-.119-3.727h-1c0 1.56.041 2.837.122 3.81l.997-.084zm-.119-3.727v-.072h-1v.072h1zm0-.072c0-3.832.241-6.61.704-8.369l-.967-.254c-.497 1.89-.737 4.775-.737 8.623h1zm.649-8.239a1.3 1.3 0 0 1 .251-.323c.059-.056.062-.024.04-.034v-1c-.53 0-.9.428-1.148.843l.857.514zm.291-.357h.024v-1h-.024v1zm.024 0a.483.483 0 0 1-.392-.205c-.028-.042-.037-.073-.034-.065l.949-.316a1.031 1.031 0 0 0-.083-.173.529.529 0 0 0-.44-.241v1zm-.445-.509c-.355 2.166-.534 4.647-.535 7.401h1c0-2.718.173-5.117.522-7.239l-.987-.162zm-.535 7.401v.264h1v-.264h-1zm0 .264c0 .098-.001.172-.005.236l-.005.07-.004.028.981.196c.027-.134.033-.324.033-.53h-1zm-.019.503c.014.09.02.206.019.385h1c0-.205-.01-.393-.029-.527l-.99.142zm.019.385v.264h1v-.264h-1zm0 .264c.001 2.255.131 4.4.388 6.4l.992-.128a48.912 48.912 0 0 1-.38-6.272h-1zm.763 6.821a10.46 10.46 0 0 0 2.497.303v-1a9.045 9.045 0 0 1-2.254-.273l-.243.97zm2.497.303c1.641 0 3.034-.54 4.143-1.632l-.701-.712c-.907.892-2.042 1.344-3.442 1.344v1zm4.18-1.673a3.408 3.408 0 0 0 .736-2.067h-1c.008.57-.143.995-.512 1.437l.776.63zm.736-2.067c0-1.539-.999-2.662-2.698-3.41l-.403.916c1.501.66 2.101 1.505 2.101 2.494h1zm-2.75-3.43l-.384-.12-.299.955.384.12.299-.954zm-.655-.127a6.488 6.488 0 0 1-1.631.201v1a7.9 7.9 0 0 0 1.874-.23l-.243-.971zm-1.631.201h-.12v1h.12v-1zm-.12 0c-.485 0-.841-.025-1.115-.08-.25-.047-.354-.153-.331-.107l-.755.655c.219.253.568.368.893.433.333.065.786.099 1.308.099v-1zm-1.47-.214a.274.274 0 0 1 .074.186h-1a.73.73 0 0 0 .219.522l.707-.708zm.074.186v-.024h-1v.024h1zm0-.024c0 .084-.044.096.022.03a1.71 1.71 0 0 1 .386-.261l-.472-.882a2.895 2.895 0 0 0-.621.435c-.158.158-.315.386-.315.678h1zm.323-.195c.263-.085.539-.122.905-.121v-1c-.433.001-.861.06-1.206.167l.301.954zm.905-.121h.36v-1h-.36v1zm.36 0c.353-.001.816.057 1.438.182l.196-.98c-.658-.132-1.219-.201-1.634-.202v1zm1.656.177c1.22-.303 2.28-.83 3.069-1.528l-.665-.746c-.684.615-1.528 1.031-2.643 1.304l.239.97zm3.086-1.543c.788-.77 1.206-1.679 1.206-2.71h-1c0 .729-.285 1.388-.905 1.994l.699.716zm1.206-2.71c0-2.093-1.336-3.673-3.722-4.774l-.419.908c2.19 1.01 3.141 2.311 3.141 3.866h1zm-3.732-4.778c-1.185-.515-2.518-.784-3.896-.786v1c1.279-.002 2.41.225 3.496.702l.4-.916zm-3.896-.786h-.336v1h.336v-1zm-.336 0c-1.979.006-3.727.553-5.082 1.593l.613.79c1.205-.944 2.641-1.389 4.469-1.383v-1zm-5.124 1.63c-.671.652-1.04 1.416-1.04 2.278h1c0-.546.224-1.062.737-1.562l-.697-.716zm-1.04 2.278c0 1.158.708 2.057 1.888 2.716l.488-.872c-.995-.557-1.376-1.178-1.376-1.844h-1zm1.888 2.716c.441.245 1.035.447 1.706.582l.196-.98c-.608-.121-1.054-.27-1.413-.474l-.489.872zm1.804.592a.305.305 0 0 1-.157-.046.235.235 0 0 1-.079-.077l.857-.514a.715.715 0 0 0-.621-.363v1zm-.308-.38c0-.11.05-.193.093-.239.035-.035.056-.038.027-.026a1.731 1.731 0 0 1-.434.08l.093.995a2.63 2.63 0 0 0 .718-.149c.167-.068.503-.254.503-.661h-1zm-.426-.162l.01-.003a.157.157 0 0 1-.02.001v1c.1-.001.235-.021.326-.05l-.316-.948zm-.01-.002c-.616.005-1.168-.158-1.784-.53l-.511.86c.727.428 1.536.665 2.295.67v-1zm-1.747-.506c-.677-.487-.993-1.099-.993-1.874h-1c0 1.113.485 2.02 1.408 2.686l.585-.812zm-.993-1.874v-.12h-1v.12h1zm0-.12c0-.777.291-1.568.926-2.38l-.788-.616c-.74.948-1.138 1.95-1.138 2.996h1zm.89-2.339c1.271-1.3 2.92-1.961 4.994-1.961v-1c-2.309 0-4.228.747-5.709 2.263l.715.698z"/></defs></svg>