<svg viewBox="0 0 60 6" xmlns="http://www.w3.org/2000/svg" xmlns:xlink="http://www.w3.org/1999/xlink"><title>Group</title><desc>Created using Figma</desc><g transform="translate(-1155 -13412)"><use xlink:href="#a" transform="matrix(0 1 1 0 1155.25 13412.3)"/><mask id="b"><path fill="#fff" transform="matrix(0 1 1 0 1155.25 13412.3)" d="M0-1h6v61H0z"/><use xlink:href="#a" transform="matrix(0 1 1 0 1155.25 13412.3)"/></mask><g mask="url(#b)"><use xlink:href="#c" transform="matrix(0 1 1 0 1155.25 13412.3)"/></g></g><defs><path id="a" d="M5.169 59.337a.243.243 0 0 1-.344-.033l-3.266-3.987a3 3 0 0 1 .002-3.805l1.732-2.109a3 3 0 0 0 0-3.807l-1.73-2.107a3 3 0 0 1 0-3.807l1.732-2.11a3 3 0 0 0 .004-3.804L1.557 31.64a3 3 0 0 1 .003-3.804l1.733-2.11a3 3 0 0 0 0-3.807l-1.73-2.107a3 3 0 0 1 0-3.807l1.73-2.107a3 3 0 0 0 0-3.807L1.56 7.98a3 3 0 0 1-.002-3.804L4.825.19a.243.243 0 1 1 .376.308L2.184 4.177a3 3 0 0 0 0 3.806l1.731 2.108a3 3 0 0 1 0 3.807l-1.73 2.107a3 3 0 0 0 0 3.807l1.73 2.107a3 3 0 0 1 0 3.807l-1.732 2.11a3 3 0 0 0-.003 3.804l1.741 2.128a3 3 0 0 1-.003 3.804l-1.732 2.11a3 3 0 0 0 0 3.807l1.73 2.107a3 3 0 0 1 0 3.807l-1.731 2.108a3 3 0 0 0-.001 3.806L5.2 58.996a.243.243 0 0 1-.032.34z"/><path id="c" d="M4.825 59.304l.193-.158-.193.158zm-3.266-3.987l-.193.158.193-.158zm1.734-5.914l-.193-.158.193.158zm-1.73-5.914l.193-.158-.193.158zm1.732-5.917l.194.158-.194-.158zm-1.738-5.933l-.193.159.193-.158zm1.736-5.913l.193.159-.193-.159zm-1.73-5.914l-.193.159.193-.159zm1.73-5.914l-.193-.159.193.159zM1.56 7.982l-.193.158.193-.158zM4.825.19L4.632.03l.193.159zm-2.64 15.815l-.193-.16.194.16zm1.73 5.914l.194-.159-.194.159zm-1.732 5.917l-.193-.159.193.16zm1.738 5.932l-.193.159.193-.159zm-1.735 5.914l.193.158-.193-.158zm1.73 5.914l-.194.158.193-.158zM2.184 51.51l-.194-.159.194.159zM5.2 58.996l-.193.158.193-.158zm-3.64-7.484l-.193-.159.193.16zm1.732-5.916l-.193.158.193-.158zm.006-11.828l-.194.159.194-.159zm-.006-11.85l.193-.158-.193.159zM2.185 7.984l-.194.158.194-.158zm1.73 5.915l-.193-.159.193.159zm-1.73 5.914l-.193.159.194-.159zm1.73 5.914l.194.159-.194-.159zM2.185 43.49l.194-.158-.193.158zm1.73 5.914l-.193-.158.193.158zm-1.731 5.914l-.194.159.194-.159zm2.834 3.829l-3.266-3.988-.386.317 3.266 3.987.386-.316zM1.754 51.67l1.732-2.11-.386-.316-1.732 2.108.386.318zm1.732-6.234l-1.73-2.106-.386.317 1.73 2.106.386-.317zm-1.73-5.597l1.733-2.11-.387-.317-1.732 2.11.386.317zm1.736-6.23L1.751 31.48l-.387.317 1.741 2.129.387-.317zm-1.738-5.615l1.732-2.11-.386-.318-1.733 2.11.387.318zm1.732-6.235l-1.73-2.107-.386.318 1.73 2.106.386-.317zm-1.73-5.597l1.73-2.107-.386-.317-1.73 2.107.386.317zm1.73-6.231l-1.732-2.11-.386.318L3.1 10.25l.386-.318zM1.752 4.335L5.018.348 4.632.031 1.366 4.018l.386.317zM5.008.34L1.99 4.02l.387.316L5.394.656 5.008.34zM1.99 8.141l1.731 2.108.387-.317-1.731-2.108-.387.317zm1.731 5.598l-1.73 2.107.387.317 1.73-2.107-.387-.317zm-1.73 6.232l1.73 2.106.387-.317-1.73-2.107-.387.318zm1.73 5.596l-1.732 2.11.386.318 1.733-2.11-.387-.318zm-1.736 6.23l1.742 2.13.387-.317-1.742-2.129-.387.317zm1.739 5.616l-1.733 2.11.387.317 1.732-2.11-.386-.317zm-1.733 6.235l1.73 2.106.387-.317-1.73-2.106-.387.317zm1.73 5.596l-1.73 2.108.386.318 1.73-2.108-.386-.317zM1.99 55.477l3.018 3.678.386-.317-3.017-3.679-.387.318zm2.642 3.986a.493.493 0 0 0 .697.067l-.32-.384a.007.007 0 0 1 .01 0l-.387.317zm-2.88-4.304a2.75 2.75 0 0 1 .002-3.487l-.386-.318a3.25 3.25 0 0 0-.002 4.122l.386-.317zm1.734-5.596a3.25 3.25 0 0 0 0-4.125l-.386.317a2.75 2.75 0 0 1 0 3.49l.386.318zm-1.73-6.231a2.75 2.75 0 0 1 0-3.49l-.386-.318a3.25 3.25 0 0 0 0 4.125l.386-.318zm1.733-5.6a3.25 3.25 0 0 0 .003-4.121l-.387.317a2.75 2.75 0 0 1-.003 3.486l.387.317zM1.75 31.48a2.75 2.75 0 0 1 .003-3.486l-.387-.318a3.25 3.25 0 0 0-.003 4.12l.387-.316zm1.735-5.596a3.25 3.25 0 0 0 0-4.125l-.386.317a2.75 2.75 0 0 1 0 3.49l.386.318zm-1.73-6.232a2.75 2.75 0 0 1 0-3.49l-.386-.317a3.25 3.25 0 0 0 0 4.125l.386-.318zm1.73-5.596a3.25 3.25 0 0 0 0-4.125l-.386.317a2.75 2.75 0 0 1 0 3.49l.386.317zM1.754 7.822a2.75 2.75 0 0 1-.002-3.488l-.386-.317a3.25 3.25 0 0 0 .002 4.122l.386-.317zM5.018.348a.007.007 0 0 1-.01.001l.32-.384a.493.493 0 0 0-.696.066l.386.317zm-.01.001a.007.007 0 0 1 0-.01l.386.317a.493.493 0 0 0-.065-.691l-.32.384zM1.99 4.019a3.25 3.25 0 0 0 .001 4.122l.387-.317a2.75 2.75 0 0 1-.001-3.489l-.387-.317zm1.732 6.23a2.75 2.75 0 0 1 0 3.49l.387.317a3.25 3.25 0 0 0 0-4.124l-.387.317zm-1.73 5.597a3.25 3.25 0 0 0 0 4.125l.387-.318a2.75 2.75 0 0 1 0-3.49l-.387-.317zm1.73 6.231a2.75 2.75 0 0 1 0 3.49l.387.318a3.25 3.25 0 0 0 0-4.125l-.387.317zm-1.732 5.6a3.25 3.25 0 0 0-.004 4.12l.387-.316a2.75 2.75 0 0 1 .003-3.486l-.386-.318zm1.738 6.25a2.75 2.75 0 0 1-.003 3.486l.386.317a3.25 3.25 0 0 0 .004-4.12l-.387.317zm-1.736 5.596a3.25 3.25 0 0 0 0 4.125l.387-.318a2.75 2.75 0 0 1 0-3.49l-.387-.317zm1.73 6.231a2.75 2.75 0 0 1 0 3.49l.387.318a3.25 3.25 0 0 0 0-4.125l-.387.317zm-1.73 5.598a3.25 3.25 0 0 0-.002 4.124l.387-.318a2.75 2.75 0 0 1 0-3.488l-.386-.318zm3.016 7.803a.007.007 0 0 1 0-.01l.32.384a.493.493 0 0 0 .066-.692l-.386.317z"/></defs></svg>