<svg viewBox="0 0 106 63" xmlns="http://www.w3.org/2000/svg" xmlns:xlink="http://www.w3.org/1999/xlink"><title>Layer 1 2</title><desc>Created using Figma</desc><use xlink:href="#a" transform="matrix(-1 0 0 1 105.12 .6)" fill="#FFF" fill-opacity=".4"/><defs><path id="a" d="M104.88 23.408a1.677 1.677 0 0 0-.828-.97 21.555 21.555 0 0 0-.959-.459l-.167-6.668a1.676 1.676 0 0 0-.91-1.449L88.008 6.678a1.675 1.675 0 0 0-1.708.106l-5.512 3.756a21.052 21.052 0 0 0-.932-.51 1.676 1.676 0 0 0-2.255.726l-6.223 12.131c-3.934 7.672-.483 15.52 5.35 19.363l-4.817 9.392a45.997 45.997 0 0 0-4.657-1.87 1.681 1.681 0 0 0-.409-.134 45.959 45.959 0 0 0-12.688-2.275V36.796c6.943-.757 13.596-6.163 13.596-14.784V8.635c0-1.88-1.504-1.933-1.675-1.933-.356 0-.71.011-1.063.029L61.823.874A1.675 1.675 0 0 0 60.352 0H44.609c-.613 0-1.178.335-1.471.874l-3.19 5.857a20.92 20.92 0 0 0-1.063-.029c-.926 0-1.675.75-1.675 1.676v13.634c0 8.622 6.653 14.028 13.596 14.785v10.566a46.01 46.01 0 0 0-17.755 4.28l-4.817-9.393c5.833-3.842 9.284-11.691 5.35-19.363l-6.193-12.074c-.51-.995-1.55-1.15-2.285-.784a21.48 21.48 0 0 0-.933.511l-5.512-3.755a1.676 1.676 0 0 0-1.708-.106L2.945 13.863c-.545.28-.895.836-.91 1.45L1.87 21.98c-.322.145-.643.297-.959.459a1.676 1.676 0 0 0-.726 2.255l6.222 12.132c1.925 3.752 5.163 6.415 9.118 7.499 1.319.361 2.672.54 4.026.54 1.93 0 3.863-.365 5.705-1.082l4.814 9.387a45.702 45.702 0 0 0-7.153 4.937 1.675 1.675 0 0 0-.238 2.317L43.705 87.43a1.675 1.675 0 0 0 .958 3.049h.281l-1.937 12.591a1.676 1.676 0 0 0 1.656 1.93h15.638a1.675 1.675 0 0 0 1.657-1.93L60.02 90.479h.28a1.675 1.675 0 0 0 .96-3.049l21.028-27.01c.553-.71.446-1.73-.243-2.31a45.681 45.681 0 0 0-7.152-4.938l4.815-9.388a15.733 15.733 0 0 0 5.705 1.082c1.354 0 2.706-.18 4.025-.54 3.956-1.084 7.194-3.747 9.118-7.499l5.763-11.235c.675-1.317.778-1.52.561-2.184zM5.36 16.391l12.237-6.276 3.634 2.475a20.632 20.632 0 0 0-5.923 8.13 20.736 20.736 0 0 0-10.057.07l.11-4.4zm11.05 24.702c-2.149-.589-5.111-2.072-7.021-5.796l-5.421-10.57c7.775-3.08 16.883-.166 21.333 7.073a1.676 1.676 0 0 0 2.855-1.755 20.735 20.735 0 0 0-9.655-8.277 17.314 17.314 0 0 1 6.53-7.824c.054-.036.1-.069.15-.1l5.421 10.573c3.294 6.42-.132 13.024-5.346 15.698-2.746 1.409-5.97 1.765-8.846.978zM45.604 3.35h13.753l2.103 3.86a20.63 20.63 0 0 0-8.98 4.532 20.734 20.734 0 0 0-8.98-4.528l2.104-3.864zm-5.043 18.661V10.134c8.325.807 15.099 7.557 15.755 16.029a1.675 1.675 0 1 0 3.34-.259 20.734 20.734 0 0 0-4.813-11.77 17.321 17.321 0 0 1 9.56-4.002v11.88c0 7.217-6.062 11.529-11.921 11.529-5.86 0-11.921-4.313-11.921-11.529zm6.055 79.637l1.718-11.17h8.295l1.719 11.17H46.616zm32.018-41.991l-21.386 27.47h-2.35l5.002-13.36a1.676 1.676 0 1 0-3.139-1.175L51.32 87.128h-3.605L26.327 59.656a42.447 42.447 0 0 1 6.638-4.24c.038-.016.077-.03.114-.05.035-.018.07-.039.102-.06a42.643 42.643 0 0 1 19.3-4.625c4.038 0 8.027.578 11.853 1.687l-5.222 13.949a1.676 1.676 0 0 0 3.138 1.175l5.266-14.065a42.65 42.65 0 0 1 4.277 1.886c.03.018.06.037.091.053.035.018.07.031.105.046a42.343 42.343 0 0 1 6.645 4.246zm8.73-49.544l12.237 6.276.11 4.395a20.633 20.633 0 0 0-10.058-.066 20.742 20.742 0 0 0-5.925-8.127l3.636-2.478zm8.21 25.183c-1.91 3.724-4.872 5.207-7.022 5.796-2.874.787-6.099.431-8.846-.978-5.214-2.674-8.64-9.277-5.346-15.698l5.42-10.57c7.04 4.518 9.987 13.615 6.704 21.453a1.676 1.676 0 0 0 3.091 1.294 20.735 20.735 0 0 0 1.09-12.67 17.319 17.319 0 0 1 10.331.802l-5.421 10.571z"/></defs></svg>