<svg viewBox="0 0 61 43" xmlns="http://www.w3.org/2000/svg" xmlns:xlink="http://www.w3.org/1999/xlink"><title>Group</title><desc>Created using Figma</desc><use xlink:href="#a" transform="translate(7.77 31.6)" fill="#FFF"/><use xlink:href="#a" transform="translate(42.78 31.6)" fill="#FFF"/><use xlink:href="#b" transform="translate(1.52 1.6)" fill="#FFF"/><use xlink:href="#c" transform="translate(17.77 36.6)" fill="#FFF"/><use xlink:href="#d" transform="translate(11.52 11.6)" fill="#FFF"/><use xlink:href="#e" transform="translate(24.03 6.6)" fill="#FFF"/><use xlink:href="#f" transform="translate(1.52 31.6)" fill="#FFF"/><defs><path id="a" d="M9.003 5.001A4.003 4.003 0 0 1 5 9.003v2A6.003 6.003 0 0 0 11.003 5h-2zM5 9.003A4 4 0 0 1 1 5h-2a6 6 0 0 0 6.001 6.002v-2zM1 5a4 4 0 0 1 4.001-4v-2A6 6 0 0 0-1 5.001h2zm4.001-4a4.003 4.003 0 0 1 4.002 4.001h2A6.003 6.003 0 0 0 5-1v2z"/><path id="b" d="M6.252 36.01a1 1 0 1 0 0-2v2zM0 35.01h-1a1 1 0 0 0 1 1v-1zm0-13.754l-.707-.707a1 1 0 0 0-.293.707h1zm5.001-5.001l.708.707a1 1 0 0 0 .167-.222L5 16.255zM11.253 5V4a1 1 0 0 0-.874.515l.874.485zm11.254 0v1a1 1 0 0 0 1-1h-1zm0-5.001v-1a1 1 0 0 0-1 1h1zm35.01 0h1a1 1 0 0 0-1-1v1zm0 35.01v1a1 1 0 0 0 1-1h-1zm-6.252-1a1 1 0 0 0 0 2v-2zm-45.013 0H0v2h6.252v-2zM1 35.01V21.256h-2V35.01h2zM.707 21.963l5.002-5.001-1.415-1.414-5.001 5.001 1.414 1.414zm5.169-5.223l6.251-11.253-1.748-.971-6.252 11.253 1.749.971zm5.377-10.739h11.254v-2H11.253v2zm12.254-1V0h-2v5.001h2zm-1-4.001h35.01v-2h-35.01v2zm34.01-1v35.01h2V0h-2zm1 34.01h-6.252v2h6.252v-2z"/><path id="c" d="M0-1a1 1 0 1 0 0 2v-2zm25.007 2a1 1 0 1 0 0-2v2zM0 1h25.007v-2H0v2z"/><path id="d" d="M7.502 1a1 1 0 0 0 0-2v2zm-3.75-1v-1a1 1 0 0 0-.895.553L3.75 0zM-.895 7.055a1 1 0 1 0 1.788.894l-1.788-.894zM7.502-1h-3.75v2h3.75v-2zm-4.645.553L-.894 7.055l1.788.894L4.646.447l-1.79-.894z"/><path id="e" d="M1 0a1 1 0 1 0-2 0h2zm-2 25.007a1 1 0 1 0 2 0h-2zM-1 0v25.007h2V0h-2z"/><path id="f" d="M0-1a1 1 0 1 0 0 2v-2zm57.517 2a1 1 0 1 0 0-2v2zM0 1h57.517v-2H0v2z"/></defs></svg>