<svg viewBox="0 0 54 43" xmlns="http://www.w3.org/2000/svg" xmlns:xlink="http://www.w3.org/1999/xlink"><title>Group</title><desc>Created using Figma</desc><use xlink:href="#a" transform="translate(1.45 8.5)" fill="#FFF"/><use xlink:href="#b" transform="translate(23.67 28.5)" fill="#FFF"/><use xlink:href="#c" transform="translate(23.67 35.2)" fill="#FFF"/><use xlink:href="#d" transform="translate(25.66 10.8)" fill="#FFF"/><use xlink:href="#e" transform="translate(12.56 1.9)" fill="#FFF"/><use xlink:href="#f" transform="translate(41.44 15.2)" fill="#FFF"/><defs><path id="a" d="M27.773 34.328a1 1 0 1 0 0-2v2zM15.553 7.777v-1a1 1 0 0 0-.961.725l.961.275zm-6.666 6.776a1 1 0 1 0 0 2v-2zm18.886 17.775H11.11v2h16.664v-2zm-16.664 0A10.108 10.108 0 0 1 1 22.218h-2c0 6.69 5.42 12.11 12.11 12.11v-2zM1 22.218v-7.407h-2v7.408h2zm0-7.407c0-6.03 2.112-9.42 4.608-11.333C8.175 1.473 11.192.997 13.33 1v-2c-2.304.003-5.953.638-8.94 2.891C1.33 4.236-1 8.252-1 14.81h2zM13.331 1h6.666v-2H13.33v2zm6.666 0c.957-.007 1.788.193 2.48.668.618.407.964.952.964 1.665h2c0-1.51-.797-2.631-1.861-3.334-.99-.637-2.381-.992-3.583-.999v2zm3.444 2.333v1.11h2v-1.11h-2zm0 1.11c0 .724-.341 1.266-.944 1.668-.632.422-1.538.666-2.5.666v2c1.26 0 2.576-.312 3.61-1.002 1.063-.709 1.834-1.832 1.834-3.331h-2zm-3.444 2.334h-4.444v2h4.444v-2zm-4.444 1l-.961-.276v.002l-.005.013-.017.056a18.159 18.159 0 0 1-.368 1.063c-.27.71-.655 1.612-1.184 2.534-.529.928-1.122 1.769-1.873 2.416-.711.623-1.459.968-2.258.968v2c1.424 0 2.62-.627 3.575-1.462.916-.81 1.711-1.915 2.293-2.93a20.898 20.898 0 0 0 1.75-4.08l.007-.02.002-.006v-.003l-.96-.275z"/><path id="b" d="M0-1a1 1 0 1 0 0 2v-2zm5.555 6.666a1 1 0 1 0 0 2v-2zM0 1h14.442v-2H0v2zm14.442 0a2.334 2.334 0 0 1 2.333 2.333h2A4.334 4.334 0 0 0 14.442-1v2zm2.333 2.333a2.331 2.331 0 0 1-2.333 2.333v2a4.331 4.331 0 0 0 4.333-4.333h-2zm-2.333 2.333H5.555v2h8.887v-2z"/><path id="c" d="M0-1a1 1 0 1 0 0 2v-2zm2.222 6.666a1 1 0 1 0 0 2v-2zM0 1h5.555v-2H0v2zm5.555 0a2.334 2.334 0 0 1 2.333 2.333h2A4.334 4.334 0 0 0 5.554-1v2zm2.333 2.333a2.331 2.331 0 0 1-2.333 2.333v2a4.331 4.331 0 0 0 4.332-4.333h-2zM5.554 5.666H2.222v2h3.333v-2z"/><path id="d" d="M26.894 1a1 1 0 1 0 0-2v2zM0-1a1 1 0 1 0 0 2v-2zm26.894 0H0v2h26.894v-2z"/><path id="e" d="M-1 6.666a1 1 0 0 0 2 0h-2zm2 14.86a1 1 0 1 0-2 0h2zm0-14.86V3.333h-2v3.333h2zm0-3.333A2.334 2.334 0 0 1 3.333 1v-2A4.334 4.334 0 0 0-1 3.333h2zM3.333 1H36.66v-2H3.333v2zM36.66 1a2.334 2.334 0 0 1 2.333 2.333h2A4.334 4.334 0 0 0 36.66-1v2zm2.333 2.333V23.33h2V3.333h-2zm0 19.997a2.331 2.331 0 0 1-2.333 2.333v2a4.331 4.331 0 0 0 4.333-4.333h-2zm-2.333 2.333H3.333v2H36.66v-2zm-33.328 0A2.331 2.331 0 0 1 1 23.33h-2a4.331 4.331 0 0 0 4.333 4.333v-2zM1 23.33v-1.804h-2v1.804h2z"/><path id="f" d="M6.666 1a1 1 0 0 0 0-2v2zM0-1a1 1 0 1 0 0 2v-2zm6.666 0H0v2h6.666v-2z"/></defs></svg>