<svg viewBox="0 0 53 61" xmlns="http://www.w3.org/2000/svg" xmlns:xlink="http://www.w3.org/1999/xlink"><title>Group 2</title><desc>Created using Figma</desc><use xlink:href="#a" transform="translate(-25.16 -17.1)" fill="#FFF" fill-opacity=".5"/><defs><path id="a" d="M78 39c0-3.093-1.808-5.958-4.892-7.837 1.171-2.137 1.439-4.463.582-6.532-.86-2.078-2.693-3.533-5.03-4.215.85-3.506.103-6.808-2.083-8.993-2.186-2.186-5.488-2.934-8.995-2.084-.682-2.337-2.137-4.17-4.213-5.03-2.05-.849-4.38-.566-6.52.603C44.968 1.816 42.099 0 38.998 0 35.9 0 33.03 1.816 31.151 4.911c-2.14-1.169-4.47-1.451-6.521-.601-2.079.86-3.534 2.692-4.216 5.029-3.506-.85-6.807-.101-8.992 2.084-2.192 2.191-2.937 5.505-2.077 9.023-2.34.686-4.187 2.134-5.037 4.185-.849 2.05-.566 4.38.603 6.52C1.816 33.032 0 35.902 0 39.002c0 3.097 1.814 5.965 4.906 7.844-1.169 2.138-1.45 4.466-.597 6.524.862 2.081 2.693 3.537 5.03 4.217-.849 3.506-.101 6.806 2.084 8.991 1.597 1.597 3.788 2.426 6.22 2.426.897 0 1.826-.115 2.77-.343.681 2.336 2.137 4.168 4.218 5.03a6.546 6.546 0 0 0 2.518.494c1.335 0 2.704-.384 4.004-1.094C33.032 76.185 35.902 78 39 78c3.099 0 5.968-1.815 7.847-4.91 1.3.71 2.669 1.094 4.004 1.094a6.56 6.56 0 0 0 2.518-.493c1.987-.823 3.472-2.588 4.183-4.969l.019-.066c.95.231 1.884.347 2.785.347 2.433 0 4.625-.83 6.221-2.426 2.186-2.185 2.933-5.486 2.084-8.993 2.337-.681 4.168-2.137 5.029-4.215.85-2.052.568-4.381-.602-6.521C76.184 44.969 78 42.098 78 39zm-6.644-13.402c1.075 2.596-.78 6.06-4.325 8.144a12.94 12.94 0 0 0-2.454-1.042c1.277-1.644 1.658-3.311 1.068-4.737-.59-1.425-2.04-2.335-4.105-2.594a12.95 12.95 0 0 0 1-2.474c3.988-1.036 7.735.093 8.816 2.703zm-8.9 17.638a16.438 16.438 0 0 0-2.378-1.505c1.092-1.036 1.706-1.97 1.754-2.046a1.26 1.26 0 0 0 0-1.37c-.048-.076-.662-1.01-1.754-2.046a16.448 16.448 0 0 0 2.379-1.505c3.363.681 5.759 2.424 5.759 4.236 0 1.812-2.396 3.555-5.76 4.236zm-9.865 15.346a16.432 16.432 0 0 0-.618-2.747c.122.003.241.006.357.006 1.318 0 2.25-.194 2.33-.211.486-.105.865-.484.97-.97.018-.088.245-1.181.206-2.685.928.291 1.852.498 2.745.616 1.897 2.86 2.36 5.786 1.077 7.068-1.28 1.281-4.207.82-7.067-1.078zm-2.43 2.271c-.092 1.294-.5 2.212-1.092 2.457-.591.245-1.53-.116-2.509-.965-1.188-1.03-2.318-2.683-3.12-4.554.157-.276.305-.565.438-.867 1.152.538 1.998.727 2.08.744a1.261 1.261 0 0 0 1.322-.548c.044-.067.51-.8.945-1.998.307.12.616.22.922.305.756 1.89 1.126 3.857 1.014 5.426zM39 68.216c-1.81 0-3.55-2.39-4.233-5.746a16.29 16.29 0 0 0 1.505-2.39c1.034 1.091 1.967 1.704 2.042 1.752a1.262 1.262 0 0 0 1.371 0c.076-.048 1.009-.66 2.043-1.751.458.883.965 1.683 1.505 2.389-.683 3.356-2.423 5.746-4.233 5.746zm-13.592-9.634c-2.859 1.896-5.785 2.358-7.067 1.077-1.28-1.28-.82-4.2 1.07-7.056.88-.118 1.805-.325 2.753-.625-.04 1.502.187 2.595.206 2.682.105.486.484.865.97.97.08.017 1.011.21 2.33.21.115 0 .235-.001.356-.005-.291.93-.5 1.854-.618 2.747zM9.784 39c0-1.812 2.396-3.555 5.759-4.236a16.443 16.443 0 0 0 2.379 1.505c-1.091 1.035-1.705 1.968-1.755 2.046a1.26 1.26 0 0 0 0 1.37c.05.076.662 1.01 1.755 2.046-.863.45-1.665.957-2.38 1.505-3.362-.681-5.758-2.424-5.758-4.236zm15.624-19.581c.118.892.327 1.816.618 2.745-1.504-.04-2.598.188-2.686.206a1.263 1.263 0 0 0-.97.97c-.018.087-.245 1.18-.205 2.683a16.32 16.32 0 0 0-2.754-.626c-1.89-2.856-2.35-5.776-1.07-7.056 1.281-1.281 4.208-.82 7.067 1.078zm2.43-2.272c.093-1.294.5-2.212 1.092-2.457.592-.245 1.53.116 2.51.965 1.188 1.03 2.317 2.683 3.119 4.553a9.857 9.857 0 0 0-.437.868c-1.152-.538-1.998-.727-2.08-.744a1.264 1.264 0 0 0-1.323.548c-.043.068-.509.8-.944 1.997a9.829 9.829 0 0 0-.923-.306c-.756-1.888-1.125-3.855-1.013-5.424zM39 9.784c1.81 0 3.55 2.39 4.233 5.746a16.335 16.335 0 0 0-1.505 2.389c-1.034-1.09-1.967-1.702-2.043-1.751a1.263 1.263 0 0 0-1.37 0c-.074.047-1.008.66-2.043 1.752a16.32 16.32 0 0 0-1.505-2.39C35.45 12.174 37.19 9.784 39 9.784zm13.591 9.635c2.86-1.897 5.786-2.359 7.068-1.078 1.281 1.282.82 4.209-1.078 7.068a16.34 16.34 0 0 0-2.746.618c.04-1.505-.187-2.6-.206-2.687a1.263 1.263 0 0 0-.969-.97c-.083-.018-1.18-.245-2.686-.205.29-.93.5-1.854.617-2.746zm9.754 12.02c-1.031 1.19-2.684 2.32-4.554 3.12a9.805 9.805 0 0 0-.867-.438c.538-1.152.727-1.999.744-2.079a1.264 1.264 0 0 0-.548-1.322c-.069-.045-.801-.51-1.998-.945.12-.307.22-.616.305-.922 1.889-.756 3.856-1.125 5.426-1.014 1.293.092 2.212.5 2.457 1.091.245.592-.116 1.53-.965 2.51zm-9.073 21.833c-1.023.087-2.796.092-4.417-.622.151-1 .199-2.127.044-3.339.167-.103.308-.244.412-.412a11.882 11.882 0 0 0 3.339-.044c.714 1.623.709 3.395.622 4.417zm-14.275 5.913c-.784-.656-2.038-1.9-2.681-3.563a12.07 12.07 0 0 0 2.392-2.331 1.265 1.265 0 0 0 .582 0 12.059 12.059 0 0 0 2.393 2.331c-.643 1.654-1.902 2.904-2.686 3.563zm-14.269-5.913c-.087-1.023-.093-2.795.621-4.416a11.862 11.862 0 0 0 3.34.043c.103.167.244.309.412.413a12.064 12.064 0 0 0 .043 3.338c-1.622.714-3.395.71-4.416.622zm-5.914-14.275c.657-.784 1.902-2.038 3.565-2.68.6.814 1.364 1.643 2.33 2.39a1.262 1.262 0 0 0 0 .586 12.066 12.066 0 0 0-2.33 2.39c-1.654-.642-2.905-1.902-3.565-2.686zm5.914-14.269c1.023-.087 2.795-.092 4.417.622-.151 1-.198 2.126-.044 3.338a1.27 1.27 0 0 0-.412.412 12.062 12.062 0 0 0-3.338.044c-.714-1.621-.71-3.394-.623-4.416zM39 18.817c.785.66 2.041 1.91 2.683 3.562-.814.6-1.643 1.364-2.39 2.33a1.267 1.267 0 0 0-.585 0 12.056 12.056 0 0 0-2.39-2.33c.642-1.652 1.898-2.902 2.682-3.562zm14.275 5.911c.09 1.019.096 2.785-.626 4.416a12.1 12.1 0 0 0-3.337-.042 1.266 1.266 0 0 0-.414-.414 12.062 12.062 0 0 0-.043-3.338c1.624-.715 3.4-.71 4.42-.622zm-1.678 12.09c-.842-.72-1.911-1.49-2.937-1.82.493-.957.704-2.258.79-3.362 2.373-.347 4.386.305 5.46.778-.42 1.092-1.375 2.965-3.313 4.404zm-25.194 0a9.605 9.605 0 0 1-2.16-2.248l-.005-.034a1.258 1.258 0 0 0-.484-.742 10.485 10.485 0 0 1-.66-1.387c1.068-.476 3.067-1.128 5.455-.774.086 1.105.298 2.407.79 3.365-1.025.33-2.094 1.1-2.936 1.82zm10.958-6.526c0-.426.71-1.498 1.639-2.539.928 1.041 1.639 2.113 1.639 2.539a1.64 1.64 0 0 1-3.279-.001zM34.458 39A4.547 4.547 0 0 1 39 34.458 4.547 4.547 0 0 1 43.542 39 4.547 4.547 0 0 1 39 43.542 4.547 4.547 0 0 1 34.458 39zm12.494-7.953c-.08 1.392-.334 2.653-.635 2.954a1.64 1.64 0 0 1-2.319-2.318c.302-.3 1.563-.556 2.954-.636zm-12.95 2.954c-.64.64-1.68.64-2.32 0-.3-.3-.555-1.562-.635-2.954 1.39.078 2.652.334 2.954.636.64.64.64 1.68 0 2.318zm-3.71 3.36c.903 0 1.639.735 1.639 1.639s-.736 1.64-1.64 1.64c-.425 0-1.498-.713-2.538-1.64 1.038-.928 2.11-1.64 2.538-1.64zm.777 9.59l-.022-.008c.08-1.387.334-2.643.636-2.944.32-.32.74-.48 1.159-.48a1.641 1.641 0 0 1 1.16 2.798c-.3.3-1.55.553-2.933.634zm9.57.757c0 .426-.712 1.499-1.64 2.54-.927-1.04-1.639-2.112-1.639-2.54a1.64 1.64 0 0 1 3.279.001zm3.36-3.71a1.634 1.634 0 0 1 1.158-.479c.42 0 .84.16 1.16.48.3.3.556 1.563.635 2.955-1.39-.08-2.651-.334-2.954-.637a1.641 1.641 0 0 1 0-2.318zm3.71-3.359a1.64 1.64 0 0 1 0-3.279c.425 0 1.497.712 2.537 1.64-1.04.928-2.112 1.64-2.538 1.64zm-1.345-12.09c-1.104.087-2.405.298-3.363.79-.33-1.025-1.1-2.095-1.82-2.937 1.43-1.92 3.311-2.881 4.406-3.307.474 1.077 1.123 3.087.777 5.454zm-9.545-2.148c-.72.842-1.491 1.912-1.82 2.938-.959-.492-2.26-.704-3.365-.79-.347-2.372.306-4.385.78-5.459 1.092.42 2.966 1.373 4.405 3.311zM26.403 41.182c.842.72 1.911 1.49 2.936 1.82-.492.957-.703 2.258-.79 3.362-2.369.347-4.379-.303-5.453-.776.426-1.096 1.388-2.976 3.307-4.406zm5.23 8.269c1.105-.086 2.406-.298 3.365-.791.33 1.025 1.1 2.095 1.82 2.937-1.433 1.923-3.318 2.885-4.411 3.31-.476-1.07-1.128-3.069-.774-5.456zm9.548 2.147c.72-.842 1.491-1.912 1.82-2.938.959.493 2.26.704 3.365.79.348 2.373-.307 4.386-.78 5.46-1.092-.42-2.966-1.374-4.405-3.312zm8.27-5.231c-.087-1.105-.298-2.407-.79-3.365 1.024-.33 2.094-1.1 2.936-1.82 1.92 1.43 2.882 3.311 3.307 4.406-1.076.474-3.086 1.126-5.454.779zm6.169-4.685a12.061 12.061 0 0 0-2.33-2.39 1.264 1.264 0 0 0 0-.585 12.063 12.063 0 0 0 2.33-2.39c1.653.641 2.903 1.898 3.563 2.683-.661.785-1.912 2.04-3.563 2.682zm-6.473-19.11a9.807 9.807 0 0 0-.922.305c-.435-1.196-.9-1.928-.945-1.997a1.263 1.263 0 0 0-1.322-.548c-.08.017-.927.206-2.08.745a9.788 9.788 0 0 0-.437-.87c.801-1.87 1.93-3.521 3.12-4.552.979-.85 1.917-1.21 2.508-.965.592.245 1 1.164 1.092 2.457.112 1.57-.258 3.537-1.014 5.426zm-26.574 6.28c.084.307.185.616.304.923-1.197.435-1.93.901-1.997.945a1.26 1.26 0 0 0-.548 1.322c.017.08.206.927.744 2.08-.301.134-.59.28-.867.437-1.87-.8-3.523-1.93-4.554-3.12-.85-.979-1.21-1.917-.966-2.509.246-.591 1.164-1 2.457-1.091 1.57-.112 3.538.258 5.427 1.014zM15.655 46.56c1.03-1.188 2.683-2.318 4.554-3.12.276.157.565.305.867.439-.538 1.152-.727 1.998-.744 2.079a1.263 1.263 0 0 0 .548 1.322c.069.045.8.51 1.996.945a9.537 9.537 0 0 0-.303.922c-1.89.756-3.857 1.126-5.426 1.014-1.294-.092-2.212-.5-2.457-1.091-.245-.592.115-1.53.965-2.51zm13.198 8.867a9.78 9.78 0 0 0 .922-.305c.434 1.196.9 1.928.945 1.998a1.264 1.264 0 0 0 1.322.548c.081-.017.927-.206 2.08-.744.133.302.28.59.437.867-.801 1.87-1.93 3.523-3.12 4.554-.979.85-1.917 1.21-2.509.965-.591-.245-1-1.163-1.091-2.457-.112-1.57.258-3.537 1.014-5.426zm26.575-6.28a9.866 9.866 0 0 0-.305-.922c1.197-.435 1.93-.901 1.997-.945.439-.285.657-.81.548-1.322-.017-.08-.206-.927-.745-2.08.302-.134.591-.28.868-.437 1.87.8 3.523 1.93 4.554 3.12.85.979 1.21 1.917.965 2.509-.245.591-1.163 1-2.457 1.091-1.569.113-3.536-.258-5.425-1.013zM64.79 13.21c1.582 1.581 2.072 4.081 1.367 6.789a13.52 13.52 0 0 0-3.255.227c-.04-1.461-.52-2.736-1.457-3.671-.936-.937-2.21-1.416-3.672-1.457.212-1.12.284-2.215.227-3.255 2.708-.705 5.208-.216 6.79 1.367zM52.402 6.644c2.607 1.08 3.737 4.83 2.702 8.817-.806.227-1.636.56-2.473.999-.26-2.066-1.17-3.515-2.594-4.105-1.462-.605-3.147-.169-4.74 1.06a12.933 12.933 0 0 0-1.04-2.446c2.092-3.563 5.519-5.413 8.145-4.325zM39 2.527c2.242 0 4.362 1.426 5.778 3.85a13.413 13.413 0 0 0-2.15 2.449C41.566 7.82 40.325 7.257 39 7.257c-1.325 0-2.566.563-3.629 1.569a13.425 13.425 0 0 0-2.15-2.45c1.418-2.424 3.538-3.85 5.779-3.85zM25.598 6.644c2.628-1.088 6.053.761 8.144 4.325a12.93 12.93 0 0 0-1.04 2.446c-1.592-1.229-3.277-1.665-4.739-1.06-1.425.59-2.335 2.04-2.594 4.105a12.93 12.93 0 0 0-2.474-1c-1.036-3.989.092-7.734 2.703-8.816zM13.21 13.21c1.581-1.582 4.08-2.072 6.788-1.367a13.55 13.55 0 0 0 .227 3.255c-1.46.04-2.735.52-3.67 1.456-.938.937-1.417 2.213-1.457 3.675a13.424 13.424 0 0 0-3.25-.212c-.712-2.715-.224-5.222 1.362-6.807zM6.644 25.598c1.088-2.627 4.819-3.742 8.817-2.701.227.803.558 1.63.994 2.464-1.995.258-3.494 1.14-4.1 2.602-.59 1.426-.21 3.093 1.068 4.737-.901.282-1.724.633-2.455 1.042-3.562-2.091-5.412-5.518-4.324-8.144zM2.527 39c0-2.242 1.426-4.362 3.85-5.778a13.415 13.415 0 0 0 2.449 2.15C7.82 36.434 7.256 37.675 7.256 39c0 1.325.564 2.566 1.57 3.628a13.452 13.452 0 0 0-2.455 2.148C3.951 43.359 2.527 41.24 2.527 39zm4.117 13.402c-1.093-2.638.755-6.052 4.324-8.144.731.409 1.554.76 2.455 1.042-1.277 1.644-1.659 3.311-1.068 4.737.605 1.462 2.106 2.343 4.1 2.601a12.942 12.942 0 0 0-.994 2.466c-3.992 1.037-7.734-.088-8.817-2.702zM13.21 64.79c-1.581-1.58-2.071-4.079-1.368-6.785.225.012.452.018.682.018.832 0 1.695-.082 2.574-.248.04 1.46.52 2.735 1.456 3.67.936.936 2.21 1.416 3.67 1.456a13.526 13.526 0 0 0-.227 3.256c-2.707.705-5.206.215-6.787-1.367zm12.387 6.566c-2.613-1.083-3.738-4.825-2.702-8.816a12.951 12.951 0 0 0 2.474-1c.259 2.065 1.169 3.514 2.594 4.105.441.183.903.27 1.376.27 1.095 0 2.252-.47 3.364-1.329a12.95 12.95 0 0 0 1.039 2.445c-2.092 3.565-5.514 5.414-8.144 4.325zM39 75.473c-2.242 0-4.362-1.426-5.778-3.849a13.427 13.427 0 0 0 2.15-2.449c1.062 1.005 2.303 1.568 3.628 1.568 1.324 0 2.565-.563 3.627-1.568a13.421 13.421 0 0 0 2.151 2.45c-1.417 2.423-3.536 3.848-5.778 3.848zm13.402-4.117c-2.63 1.09-6.053-.76-8.144-4.325a13 13 0 0 0 1.039-2.444c1.112.858 2.269 1.329 3.364 1.329a3.56 3.56 0 0 0 1.375-.271c1.426-.59 2.335-2.04 2.595-4.106.836.438 1.667.774 2.472 1.001 1.039 3.995-.08 7.73-2.701 8.816zM64.79 64.79c-1.584 1.584-4.088 2.073-6.8 1.364a13.6 13.6 0 0 0-.22-3.252c1.463-.04 2.739-.52 3.675-1.456.936-.936 1.416-2.21 1.457-3.672.876.166 1.737.248 2.567.248.232 0 .462-.006.689-.019.704 2.707.214 5.206-1.368 6.787zm6.566-12.388c-1.081 2.61-4.827 3.739-8.817 2.703a12.938 12.938 0 0 0-.999-2.474c2.065-.26 3.514-1.169 4.105-2.594.59-1.426.209-3.093-1.068-4.737a12.95 12.95 0 0 0 2.454-1.042c3.564 2.091 5.413 5.516 4.325 8.144zm.268-7.624a13.427 13.427 0 0 0-2.45-2.15c1.006-1.062 1.569-2.303 1.569-3.628 0-1.324-.563-2.565-1.568-3.627a13.505 13.505 0 0 0 2.461-2.145c2.416 1.417 3.837 3.533 3.837 5.772 0 2.242-1.426 4.362-3.849 5.778z"/></defs></svg>