<svg width="56" height="42" viewBox="0 0 56 42" xmlns="http://www.w3.org/2000/svg" xmlns:xlink="http://www.w3.org/1999/xlink"><title>Group</title><desc>Created using Figma</desc><use xlink:href="#a" transform="translate(6.34 4.1)" fill="#FFF"/><use xlink:href="#b" transform="translate(1.78 1.8)" fill="#FFF"/><use xlink:href="#c" transform="translate(21.16 10.9)" fill="#FFF"/><use xlink:href="#d" transform="translate(26.86 16.6)" fill="#FFF"/><use xlink:href="#e" transform="translate(6.34 13.2)" fill="#FFF"/><defs><path id="a" d="M.064 2.28l1 .028V2.28h-1zM1 4.588l.063-2.28-1.999-.056L-1 4.532l2 .056zm.064-2.308c0-.674.613-1.28 1.216-1.28v-2C.498-1-.936.578-.936 2.28h2zM2.28 1h2.152v-2H2.28v2zm2.152 0c.764 0 1.408.692 1.408 1.28h2C7.84.493 6.204-1 4.432-1v2zM5.84 2.28v2.28h2V2.28h-2z"/><path id="b" d="M41.038 2.28l.894-.447a.992.992 0 0 0-.063-.109l-.831.556zm-18.24 0l.8.6a.996.996 0 0 0 .032-.044l-.83-.556zM19.38 6.84v1a1 1 0 0 0 .8-.4l-.8-.6zm23.939-1a1 1 0 1 0 0 2v-2zm.894.552l-2.28-4.56-1.788.895 2.28 4.56 1.788-.895zM41.87 1.724C41.017.45 39.577-1 37.62-1v2c.922 0 1.84.717 2.588 1.836l1.662-1.112zM37.62-1h-11.4v2h11.4v-2zm-11.4 0c-1.96 0-3.399 1.449-4.251 2.724l1.662 1.112C24.378 1.716 25.296 1 26.22 1v-2zM22 1.68l-3.42 4.56 1.6 1.2 3.42-4.56-1.6-1.2zm-2.62 4.16H4.56v2h14.82v-2zm-14.82 0c-1.838 0-3.28.414-4.255 1.351C-.68 8.137-1 9.434-1 10.768h2c0-1.044.25-1.712.69-2.135.45-.433 1.289-.793 2.87-.793v-2zM-1 10.768V34.45h2V10.768h-2zm0 23.683c0 1.333.318 2.696 1.283 3.728.976 1.045 2.454 1.58 4.404 1.58v-2c-1.596 0-2.463-.431-2.943-.945C1.252 36.287 1 35.497 1 34.45h-2zm5.687 5.307H47.75v-2H4.687v2zm43.063 0c1.95 0 3.428-.534 4.405-1.579.964-1.032 1.282-2.395 1.282-3.728h-2c0 1.046-.251 1.836-.744 2.363-.48.514-1.346.944-2.943.944v2zm5.687-5.307V10.768h-2V34.45h2zm0-23.683c0-1.335-.32-2.637-1.328-3.585-.993-.933-2.465-1.343-4.359-1.343v2c1.653 0 2.525.364 2.99.8.448.423.697 1.085.697 2.128h2zM47.75 5.84h-4.432v2h4.432v-2z"/><path id="c" d="M24.079 12.54c0 6.371-5.168 11.539-11.54 11.539v2c7.477 0 13.54-6.063 13.54-13.54h-2zm-11.54 11.539C6.165 24.079 1 18.91 1 12.539h-2c0 7.477 6.06 13.54 13.54 13.54v-2zM1 12.539C1 6.168 6.165 1 12.54 1v-2C5.06-1-1 5.063-1 12.54h2zM12.54 1c6.371 0 11.539 5.168 11.539 11.54h2C26.079 5.062 20.016-1 12.539-1v2z"/><path id="d" d="M12.68 6.84a5.842 5.842 0 0 1-5.84 5.84v2a7.842 7.842 0 0 0 7.84-7.84h-2zm-5.84 5.84A5.84 5.84 0 0 1 1 6.84h-2a7.84 7.84 0 0 0 7.84 7.84v-2zM1 6.84A5.84 5.84 0 0 1 6.84 1v-2A7.84 7.84 0 0 0-1 6.84h2zM6.84 1a5.842 5.842 0 0 1 5.84 5.84h2A7.842 7.842 0 0 0 6.84-1v2z"/><path id="e" d="M5.84 3.42a2.421 2.421 0 0 1-2.42 2.42v2c2.44 0 4.42-1.98 4.42-4.42h-2zM3.42 5.84A2.42 2.42 0 0 1 1 3.42h-2a4.42 4.42 0 0 0 4.42 4.42v-2zM1 3.42A2.42 2.42 0 0 1 3.42 1v-2A4.42 4.42 0 0 0-1 3.42h2zM3.42 1a2.421 2.421 0 0 1 2.42 2.42h2C7.84.98 5.86-1 3.42-1v2z"/></defs></svg>