<svg width="48" height="42" viewBox="0 0 48 42" xmlns="http://www.w3.org/2000/svg" xmlns:xlink="http://www.w3.org/1999/xlink"><title>Vector</title><desc>Created using Figma</desc><use xlink:href="#a" transform="translate(.2 .6)"/><defs><path id="a" d="M45.512 4.634h-4.078c-.107-2.466-1.285-3.59-2.294-4.1-3.323-1.683-8.959.987-11.667 2.824a4.942 4.942 0 0 0-2.712-.808H22.8a4.943 4.943 0 0 0-2.856.906C17.297 1.618 11.52-1.178 8.136.534c-1.008.51-2.186 1.634-2.294 4.1H2.077A2.08 2.08 0 0 0 0 6.711v8.708a2.08 2.08 0 0 0 2.077 2.077h1.667V39.24c0 .949.772 1.72 1.721 1.72h36.659c.948 0 1.72-.771 1.72-1.72V17.496h1.668a2.08 2.08 0 0 0 2.077-2.077V6.71a2.08 2.08 0 0 0-2.077-2.077zm-18.25 15.201c-.974-1.825-1.895-3.549-2.3-4.89a7.125 7.125 0 0 1-.07-.248 4.948 4.948 0 0 0 2.987-1.1 22.727 22.727 0 0 0 2.267 1.5 26.87 26.87 0 0 1 2.468 2.319c1.793 1.907 2.523 3.208 2.687 3.755-.257.05-.523.076-.792.076-.457 0-.764-.075-.764-.075a2.897 2.897 0 0 0-.745-.1c-1.401 0-2.474 1.05-2.551 2.495a17.56 17.56 0 0 1-.281 2.337 11.974 11.974 0 0 1-.058-.148c-.776-2.042-1.877-4.103-2.848-5.92zm-6.886 0c-.97 1.818-2.071 3.88-2.848 5.921l-.057.148a17.56 17.56 0 0 1-.281-2.337c-.078-1.445-1.15-2.495-2.551-2.495-.247 0-.498.034-.74.099-.003 0-.31.076-.769.076-.27 0-.535-.025-.793-.076.165-.547.894-1.848 2.687-3.755 1.545-1.644 3.211-3.018 4.612-3.86a4.946 4.946 0 0 0 3.11 1.142c-.021.08-.044.161-.07.247-.405 1.341-1.325 3.065-2.3 4.89zm17.96-17.713c.92.465 1.354 1.452 1.325 3.015v.027c-.015.656-.14 1.313-.274 2.008-.135.704-.275 1.433-.302 2.201-.024.647.084 1.332.198 2.057.204 1.303.416 2.65-.268 3.366-1.462 1.532-4.916.507-7.852-1.165a20.247 20.247 0 0 0-2.062-1.487c.4-.717.632-1.54.632-2.417V7.523c0-1.086-.35-2.09-.943-2.909 2.884-1.89 7.403-3.577 9.546-2.492zm-18.727 5.4a3.196 3.196 0 0 1 3.191-3.19h1.96a3.196 3.196 0 0 1 3.192 3.192v2.204a3.196 3.196 0 0 1-3.192 3.192H22.8a3.196 3.196 0 0 1-3.192-3.192V7.523zM8.94 2.123c2.192-1.11 6.868.681 9.74 2.621a4.944 4.944 0 0 0-.852 2.78v2.204c0 .857.218 1.664.602 2.368-3.135 2.422-8.292 4.667-10.169 2.7-.684-.716-.472-2.063-.267-3.365.114-.725.221-1.41.198-2.056-.028-.769-.168-1.497-.303-2.202-.133-.695-.259-1.352-.274-2.008v-.028c-.028-1.563.405-2.55 1.325-3.015zM2.077 15.716a.3.3 0 0 1-.297-.297V6.71a.3.3 0 0 1 .297-.297h3.87c.056.372.125.736.194 1.093.128.668.249 1.299.272 1.93.017.476-.078 1.079-.178 1.717-.228 1.451-.507 3.232.48 4.562H2.076zM5.525 39.18V17.496h7.06c-1.066 1.297-1.916 2.63-2.046 3.609-.112.84.303 1.515 1.059 1.72a5.852 5.852 0 0 0 1.532.202 5.08 5.08 0 0 0 1.222-.135 1.12 1.12 0 0 1 .287-.04c.45 0 .747.311.773.81.003.043.057 1.046.22 2.067.141.884.434 2.724 1.715 2.724.574 0 .986-.377 1.314-.918v11.646H5.525zm14.916 0V23.568c.482-.977.998-1.944 1.506-2.894.7-1.31 1.372-2.57 1.872-3.72.5 1.15 1.174 2.41 1.873 3.72.49.917.988 1.85 1.456 2.794V39.18h-6.707zm21.623 0H28.928V27.45c.335.585.76 1.003 1.363 1.003 1.282 0 1.575-1.84 1.716-2.724.162-1.021.217-2.024.22-2.066.026-.5.323-.81.773-.81.092 0 .188.013.287.039a5.08 5.08 0 0 0 1.222.135 5.85 5.85 0 0 0 1.532-.202c.755-.205 1.17-.88 1.059-1.72-.13-.98-.98-2.312-2.046-3.61h7.01v21.686zm3.745-23.762a.3.3 0 0 1-.297.296h-4.95c.986-1.33.707-3.11.48-4.561-.1-.638-.196-1.24-.178-1.716.023-.632.144-1.263.271-1.931.069-.358.138-.721.194-1.093h4.183a.3.3 0 0 1 .297.297v8.708z"/></defs></svg>