<svg viewBox="0 0 27 28" xmlns="http://www.w3.org/2000/svg" xmlns:xlink="http://www.w3.org/1999/xlink"><title>Group</title><desc>Created using Figma</desc><use xlink:href="#a" transform="translate(6.6 7.5)"/><use xlink:href="#b" transform="translate(.9 .4)"/><defs><path id="a" d="M19.302 7.026l.011-.011c.017-.022.033-.039.045-.061.005-.006.005-.011.01-.017.012-.022.028-.044.04-.066 0-.006.005-.011.005-.011.01-.022.022-.044.033-.072 0-.006 0-.006.006-.011.01-.022.016-.05.027-.078 0-.005 0-.01.006-.01.005-.028.016-.05.016-.078 0-.011 0-.017.006-.028.005-.022.005-.044.011-.066a.53.53 0 0 0 .006-.094c0-.034 0-.061-.006-.095 0-.022-.006-.044-.011-.066 0-.011 0-.017-.006-.028l-.016-.077c0-.006 0-.011-.006-.011-.005-.028-.016-.05-.027-.078 0-.005 0-.005-.006-.01l-.033-.073c0-.005-.006-.01-.006-.01a.347.347 0 0 0-.038-.067c-.006-.006-.006-.011-.011-.017-.017-.022-.028-.044-.045-.06l-.01-.012c-.023-.022-.04-.05-.067-.072L13.76.278a.952.952 0 0 0-1.345 1.345l3.853 3.853H.952A.95.95 0 0 0 0 6.423c0 .525.426.952.952.952h15.322L12.45 11.2a.952.952 0 0 0 0 1.345.947.947 0 0 0 1.34 0l5.441-5.442c.028-.033.05-.055.072-.077z"/><path id="b" d="M5.154 1.899h7.085a.95.95 0 0 0 .952-.947.952.952 0 0 0-.952-.952H5.154A5.162 5.162 0 0 0 0 5.154v16.81a5.162 5.162 0 0 0 5.154 5.154h6.969a.95.95 0 0 0 .952-.946.952.952 0 0 0-.952-.953h-6.97A3.26 3.26 0 0 1 1.9 21.965V5.154a3.26 3.26 0 0 1 3.255-3.255z"/></defs></svg>