<svg width="28" height="28" viewBox="0 0 28 28" xmlns="http://www.w3.org/2000/svg" xmlns:xlink="http://www.w3.org/1999/xlink"><title>Ellipse 2</title><desc>Created using Figma</desc><g filter="url(#a)" transform="translate(-6094 -11556)"><use xlink:href="#b" transform="translate(6100.33 11561.1)" fill="#EC5A6F"/><mask id="c"><path fill="#fff" transform="translate(6100.33 11561.1)" d="M-3-3h21v21H-3z"/><use xlink:href="#b" transform="translate(6100.33 11561.1)"/></mask><g mask="url(#c)"><use xlink:href="#d" transform="translate(6100.33 11561.1)" fill="#FFF"/></g></g><defs><filter id="a" filterUnits="userSpaceOnUse" x="6094" y="11556" width="28" height="28" color-interpolation-filters="sRGB"><feFlood flood-opacity="0" result="BackgroundImageFix"/><feColorMatrix in="SourceAlpha" values="0 0 0 0 0 0 0 0 0 0 0 0 0 0 0 0 0 0 255 0"/><feOffset dy="1"/><feGaussianBlur stdDeviation="1.5"/><feColorMatrix values="0 0 0 0 0 0 0 0 0 0 0 0 0 0 0 0 0 0 0.15 0"/><feBlend in2="BackgroundImageFix" result="effect1_dropShadow"/><feColorMatrix in="SourceAlpha" values="0 0 0 0 0 0 0 0 0 0 0 0 0 0 0 0 0 0 255 0"/><feOffset dy="1"/><feGaussianBlur stdDeviation="1"/><feColorMatrix values="0 0 0 0 0 0 0 0 0 0 0 0 0 0 0 0 0 0 0.25 0"/><feBlend in2="effect1_dropShadow" result="effect2_dropShadow"/><feBlend in="SourceGraphic" in2="effect2_dropShadow" result="shape"/></filter><path id="b" d="M15 7.5a7.5 7.5 0 1 1-15 0 7.5 7.5 0 0 1 15 0z"/><path id="d" d="M12 7.5A4.5 4.5 0 0 1 7.5 12v6C13.299 18 18 13.299 18 7.5h-6zM7.5 12A4.5 4.5 0 0 1 3 7.5h-6C-3 13.299 1.701 18 7.5 18v-6zM3 7.5A4.5 4.5 0 0 1 7.5 3v-6C1.701-3-3 1.701-3 7.5h6zM7.5 3A4.5 4.5 0 0 1 12 7.5h6C18 1.701 13.299-3 7.5-3v6z"/></defs></svg>