<svg viewBox="0 0 17 17" xmlns="http://www.w3.org/2000/svg" xmlns:xlink="http://www.w3.org/1999/xlink"><title>Canvas</title><desc>Created using Figma</desc><use xlink:href="#a" transform="translate(1 1)" fill="#CBCBCB"/><use xlink:href="#b" transform="translate(1 1)" fill="#CBCBCB"/><defs><path id="a" d="M15.707.707a1 1 0 0 0-1.414-1.414L15.707.707zM-.707 14.292a1 1 0 0 0 1.414 1.414l-1.414-1.414zm15-15l-15 15 1.414 1.414 15-14.999-1.414-1.414z"/><path id="b" d="M14.293 15.706a1 1 0 1 0 1.414-1.414l-1.414 1.414zM.707-.707A1 1 0 0 0-.707.707L.707-.707zm15 14.999l-15-15L-.707.708l15 14.999 1.414-1.414z"/></defs></svg>