<svg width="317" height="9" viewBox="0 0 317 9" xmlns="http://www.w3.org/2000/svg" xmlns:xlink="http://www.w3.org/1999/xlink"><title>Vector</title><desc>Created using Figma</desc><use xlink:href="#a" transform="matrix(1 0 0 -1 1 8)" fill="#BDBDBD"/><defs><path id="a" d="M13.068 3.5l.4-.299-.01-.015-.013-.014-.377.328zm12.093 0l.394.308-.394-.308zm13.068 0l.4-.299-.01-.015-.013-.014-.377.328zm12.093 0l.394.308-.394-.308zm13.068 0l.4-.299-.01-.015-.013-.014-.377.328zm12.093 0l.394.308-.394-.308zm13.068 0l.4-.299-.01-.015-.013-.014-.377.328zm12.093 0l.394.308-.394-.308zm13.068 0l.401-.299-.012-.015-.012-.014-.377.328zm12.093 0l.394.308-.394-.308zm13.068 0l.401-.299-.012-.015-.012-.014-.377.328zm12.093 0l.394.308-.394-.308zm13.068 0l.401-.299-.012-.015-.012-.014-.377.328zm12.093 0l.394.308-.394-.308zm13.068 0l.401-.299-.011-.015-.013-.014-.377.328zm12.093 0l.394.308-.394-.308zm13.068 0l.401-.299-.011-.015-.013-.014-.377.328zm12.093 0l.394.308-.394-.308zm13.068 0l.401-.299-.011-.015-.013-.014-.377.328zm12.093 0l.395.308-.395-.308zm50.322 0l.395.308-.395-.308zM.394 3.808C2.76.775 5.27.2 7.432.623c2.218.434 4.156 1.937 5.258 3.205l.755-.656C12.252 1.8 10.13.132 7.625-.358c-2.56-.501-5.439.244-8.02 3.55l.79.616zm12.273-.009c1.027 1.377 2.908 3.061 5.226 3.557 2.38.51 5.094-.257 7.662-3.548l-.788-.616C22.389 6.24 20.04 6.794 18.103 6.38c-2-.428-3.692-1.914-4.635-3.178l-.801.598zm12.888.009C27.921.775 30.43.2 32.593.623c2.218.434 4.156 1.937 5.258 3.205l.755-.656c-1.193-1.373-3.315-3.04-5.82-3.53-2.56-.501-5.439.244-8.02 3.55l.79.616zm12.273-.009c1.027 1.377 2.908 3.061 5.226 3.557 2.38.51 5.094-.257 7.662-3.548l-.788-.616C47.55 6.24 45.202 6.794 43.264 6.38c-2-.428-3.692-1.914-4.635-3.178l-.801.598zm12.888.009C53.082.775 55.591.2 57.754.623c2.218.434 4.156 1.937 5.258 3.205l.755-.656c-1.193-1.373-3.315-3.04-5.82-3.53-2.56-.501-5.439.244-8.02 3.55l.79.616zm12.273-.009c1.027 1.377 2.908 3.061 5.227 3.557 2.38.51 5.093-.257 7.661-3.548l-.788-.616C72.71 6.24 70.363 6.794 68.425 6.38c-2-.428-3.692-1.914-4.634-3.178l-.802.598zm12.888.009C78.243.775 80.752.2 82.915.623c2.218.434 4.156 1.937 5.258 3.205l.755-.656c-1.193-1.373-3.315-3.04-5.82-3.53-2.56-.501-5.439.244-8.02 3.55l.79.616zm12.273-.009c1.027 1.377 2.908 3.061 5.227 3.557 2.38.51 5.093-.257 7.661-3.548l-.788-.616c-2.378 3.048-4.726 3.602-6.664 3.187-2-.428-3.692-1.914-4.635-3.178l-.801.598zm12.888.009C103.404.775 105.913.2 108.076.623c2.218.434 4.156 1.937 5.258 3.205l.755-.656c-1.193-1.373-3.315-3.04-5.821-3.53-2.56-.501-5.438.244-8.018 3.55l.788.616zm12.273-.009c1.027 1.377 2.908 3.061 5.227 3.557 2.379.51 5.093-.257 7.661-3.548l-.788-.616c-2.378 3.048-4.726 3.602-6.664 3.187-1.999-.428-3.692-1.914-4.634-3.178l-.802.598zm12.888.009C128.565.775 131.074.2 133.237.623c2.218.434 4.157 1.937 5.258 3.205l.755-.656c-1.193-1.373-3.315-3.04-5.821-3.53-2.56-.501-5.438.244-8.018 3.55l.788.616zm12.273-.009c1.027 1.377 2.908 3.061 5.227 3.557 2.379.51 5.093-.257 7.661-3.548l-.788-.616c-2.378 3.048-4.726 3.602-6.664 3.187-1.999-.428-3.692-1.914-4.634-3.178l-.802.598zm12.888.009C153.727.775 156.235.2 158.398.623c2.218.434 4.157 1.937 5.258 3.205l.755-.656c-1.193-1.373-3.315-3.04-5.821-3.53-2.56-.501-5.438.244-8.018 3.55l.788.616zm12.273-.009c1.028 1.377 2.908 3.061 5.227 3.557 2.379.51 5.093-.257 7.661-3.548l-.788-.616c-2.378 3.048-4.726 3.602-6.664 3.187-1.999-.428-3.692-1.914-4.634-3.178l-.802.598zm12.888.009C178.888.775 181.396.2 183.559.623c2.218.434 4.157 1.937 5.258 3.205l.755-.656c-1.193-1.373-3.314-3.04-5.821-3.53-2.56-.501-5.438.244-8.018 3.55l.788.616zm12.273-.009c1.028 1.377 2.908 3.061 5.227 3.557 2.379.51 5.093-.257 7.661-3.548l-.788-.616c-2.378 3.048-4.726 3.602-6.664 3.187-1.999-.428-3.692-1.914-4.634-3.178l-.802.598zm12.888.009C204.049.775 206.557.2 208.72.623c2.218.434 4.157 1.937 5.258 3.205l.755-.656c-1.193-1.373-3.314-3.04-5.821-3.53-2.56-.501-5.438.244-8.018 3.55l.788.616zm12.273-.009c1.028 1.377 2.908 3.061 5.227 3.557 2.379.51 5.093-.257 7.661-3.548l-.788-.616c-2.378 3.048-4.726 3.602-6.664 3.187-1.999-.428-3.692-1.914-4.634-3.178l-.802.598zm12.888.009C229.21.775 231.718.2 233.881.623c2.218.434 4.157 1.937 5.258 3.205l.755-.656c-1.193-1.373-3.314-3.04-5.82-3.53-2.561-.501-5.439.244-8.019 3.55l.788.616zm12.273-.009c1.028 1.377 2.908 3.061 5.227 3.557 2.379.51 5.093-.257 7.662-3.548l-.789-.616c-2.378 3.048-4.726 3.602-6.664 3.187-1.999-.428-3.692-1.914-4.634-3.178l-.802.598zm12.889.009C254.371.775 256.879.2 259.042.623c2.218.434 4.157 1.937 5.259 3.205l.754-.656c-1.193-1.373-3.314-3.04-5.82-3.53-2.561-.501-5.438.244-8.019 3.55l.789.616zm37.594-.01c1.024 1.373 2.863 3.06 5.144 3.558 2.345.511 5.018-.26 7.584-3.548l-.789-.616c-2.381 3.052-4.689 3.6-6.581 3.187-1.956-.427-3.61-1.91-4.556-3.178l-.802.598zm12.728.01C304.693.775 307.201.2 309.365.623c2.217.434 4.156 1.937 5.258 3.205l.754-.656c-1.193-1.373-3.314-3.04-5.82-3.53-2.561-.501-5.438.244-8.019 3.55l.789.616z"/></defs></svg>