<svg width="20" height="20" viewBox="0 0 20 20" xmlns="http://www.w3.org/2000/svg" xmlns:xlink="http://www.w3.org/1999/xlink"><title>check-empty</title><desc>Created using Figma</desc><use xlink:href="#a" fill="#FF8080"/><use xlink:href="#b" transform="translate(5.22 7)" fill="#FFF"/><defs><path id="a" fill-rule="evenodd" d="M20 10c0 5.524-4.478 10-10 10-5.524 0-10-4.476-10-10C0 4.477 4.476 0 10 0c5.522 0 10 4.477 10 10z"/><path id="b" d="M9.207.548A.75.75 0 1 0 8.184-.548L9.207.548zM2.174 6.087l-.53.53a.75.75 0 0 0 1.042.018l-.512-.548zM.53 3.383a.75.75 0 0 0-1.06 1.06l1.06-1.06zM8.184-.548L1.662 5.539l1.024 1.096L9.207.548 8.184-.548zm-5.48 6.105L.53 3.383l-1.06 1.06 2.174 2.174 1.06-1.06z"/></defs></svg>