<svg viewBox="0 0 23 23" xmlns="http://www.w3.org/2000/svg" xmlns:xlink="http://www.w3.org/1999/xlink"><title>star</title><desc>Created using Figma</desc><use xlink:href="#a" transform="translate(.08 .1)" fill="#828282"/><use xlink:href="#b" transform="translate(3.33 2.5)" fill="#EC5A6F"/><defs><path id="a" fill-rule="evenodd" d="M9.167 18.721l-.031-.062L0 12.877 3.254 10.5 5.944 0l3.254 2.375 10.856-.687L18.803 5.5l4.005 10.095h-4.036l-.032.03-8.353 6.908-1.22-3.813z"/><path id="b" fill-rule="evenodd" d="M5.913 16.252v.063l6.32-3.126 1.189.031h2.095l-.124-.937-.876-6.032 1.032-3.094h-.031l-.094-.032-6.82-1.187L5.944 0v.031l-.813 1.5L2.659 6.22.125 8.063 0 8.157l4.912 5.032 1.001 3.063z"/></defs></svg>