<svg width="23" height="23" viewBox="0 0 23 23" xmlns="http://www.w3.org/2000/svg" xmlns:xlink="http://www.w3.org/1999/xlink"><title>Stroke 3500 + Stroke 3501</title><desc>Created using Figma</desc><use xlink:href="#a" transform="translate(1.19 1.1)" fill="#333"/><use xlink:href="#b" transform="translate(11.22 6.5)" fill="#333"/><defs><path id="a" d="M20.234 10.443c0 5.35-4.36 9.693-9.742 9.693v1.5c6.204 0 11.242-5.007 11.242-11.193h-1.5zm-9.742 9.693c-5.386 0-9.742-4.342-9.742-9.693h-1.5c0 6.185 5.034 11.193 11.242 11.193v-1.5zM.75 10.443C.75 5.093 5.106.75 10.492.75v-1.5C4.284-.75-.75 4.257-.75 10.443h1.5zM10.492.75c5.383 0 9.742 4.342 9.742 9.693h1.5c0-6.186-5.038-11.193-11.242-11.193v1.5z"/><path id="b" d="M.75 0a.75.75 0 1 0-1.5 0h1.5zM0 4.994h-.75c0 .211.089.412.245.554L0 4.994zm4.969 5.549a.75.75 0 1 0 1.01-1.108l-1.01 1.108zM-.75 0v4.994h1.5V0h-1.5zm.245 5.548l5.474 4.995 1.01-1.108L.506 4.44l-1.01 1.108z"/></defs></svg>