<svg viewBox="0 0 46 57" xmlns="http://www.w3.org/2000/svg" xmlns:xlink="http://www.w3.org/1999/xlink"><title>Group</title><desc>Created using Figma</desc><use xlink:href="#a" transform="matrix(-1 0 0 1 45.31 0)"/><defs><path id="a" d="M43.743 45.47c-.265-.242-.53-.485-.784-.739a25.38 25.38 0 0 0-.797-.76c-.274-.248-.575-.472-.87-.693a24.435 24.435 0 0 0-.889-.627 9.37 9.37 0 0 0-.907-.519c-.282-.15-.567-.297-.856-.43-.586-.272-1.188-.505-1.789-.741l.122-.045c.727-.268 1.425-.59 2.124-.925.352-.17.674-.37.982-.608a9.97 9.97 0 0 0 .425-.354c.115-.101.22-.213.318-.33.078-.094.152-.194.222-.296.098-.14.155-.306.218-.464.085-.217.105-.47.113-.7.011-.26-.074-.503-.173-.738a5.639 5.639 0 0 0-.307-.597 8.548 8.548 0 0 0-.564-.832c-.466-.622-.933-1.244-1.413-1.856-.52-.664-1.143-1.282-1.904-1.664a3.196 3.196 0 0 0-1.415-.334c-.44 0-.877.095-1.262.302-.03.016-.057.036-.085.054.024-.608.002-1.218-.004-1.824-.002-.35 0-.7-.003-1.049a8.914 8.914 0 0 0-.072-.961c-.082-.72-.231-1.423-.369-2.132-.125-.652-.217-1.31-.312-1.967l-.04-.284a147.97 147.97 0 0 1-.236-1.931 42.46 42.46 0 0 0-.305-2.05c-.115-.69-.221-1.382-.332-2.073-.102-.632-.227-1.26-.346-1.887-.128-.673-.23-1.347-.412-2.006a7.502 7.502 0 0 0-.312-.855 15.088 15.088 0 0 0-.496-1.102c-.167-.324-.392-.615-.618-.897a4.399 4.399 0 0 0-.795-.74 2.846 2.846 0 0 0-.417-.264.374.374 0 0 0-.17-.173c-.118-.05-.236-.101-.358-.14-.123-.037-.267-.039-.395-.043h-.071a2.216 2.216 0 0 0-.114-.014c-.041-.625-.247-1.228-.452-1.817-.215-.611-.527-1.183-.854-1.74a5.557 5.557 0 0 0-.606-.818 5.62 5.62 0 0 0-.577-.592c-.16-.135-.332-.258-.5-.38a7.389 7.389 0 0 0-.368-.254c-.294-.192-.626-.386-.982-.414a.715.715 0 0 0-.562.205.781.781 0 0 0-.17.294c-.03-.037-.057-.075-.088-.111-.116-.136-.248-.258-.379-.38-.144-.135-.285-.274-.427-.413-.29-.282-.622-.512-.956-.741-.141-.097-.281-.199-.427-.291a4.3 4.3 0 0 0-.618-.324h-.001a8.25 8.25 0 0 0-.274-.11 1.338 1.338 0 0 0-.452-.098.595.595 0 0 0-.173.024c-.234.072-.386.237-.488.45-.01.021-.018.043-.027.064l-.099-.121a4.726 4.726 0 0 0-.528-.558 5.812 5.812 0 0 0-.82-.62C16.89.221 16.49.1 16.082.027A1.69 1.69 0 0 0 15.79 0c-.255 0-.504.073-.643.316-.05.09-.062.182-.086.28-.059.232-.14.458-.211.688-.108.34-.21.68-.312 1.021a4.43 4.43 0 0 0-.824-.62c-.198-.112-.395-.231-.604-.322a17.02 17.02 0 0 0-.668-.274 2.715 2.715 0 0 1-.115-.053c-.052-.025-.104-.053-.158-.076a1.026 1.026 0 0 0-.359-.098.506.506 0 0 0-.409.25c-.05.086-.083.183-.116.278a8.43 8.43 0 0 0-.23.863 22 22 0 0 0-.29 1.532l-.002-.002a6.228 6.228 0 0 0-2.401-.728 5.315 5.315 0 0 0-.68-.02 4.296 4.296 0 0 0-.324.028c-.209.024-.42.043-.607.14a.698.698 0 0 0-.343.459 1.96 1.96 0 0 0-.036.367l-.022.628a58.5 58.5 0 0 0-.037 1.452c-.004.308.009.616.028.924l-.491-.234a6.331 6.331 0 0 0-.827-.33 8.333 8.333 0 0 0-.862-.213c-.392-.074-.788-.145-1.187-.145a3.6 3.6 0 0 0-.755.09c-.14.033-.294.093-.392.205-.18.208-.208.459-.221.723a5.04 5.04 0 0 0 .044.94c.076.559.177 1.112.295 1.665.106.497.264.984.418 1.468.154.477.302.956.449 1.435a7.76 7.76 0 0 0-.97.11c-.274.05-.545.111-.813.18a2.744 2.744 0 0 0-.507.194c-.17.083-.296.223-.4.377-.095.14-.105.33-.119.49a.984.984 0 0 0 .007.21c.03.271.082.522.188.774.09.212.19.415.303.615.18.316.384.627.612.911.206.256.413.512.641.75.144.152.288.305.435.454.172.177.349.346.53.508-.204.111-.4.24-.584.38-.152.115-.328.24-.424.413a.763.763 0 0 0-.103.248.863.863 0 0 0 0 .35c.043.2.154.386.26.56.198.324.423.632.651.936.232.31.476.616.75.89l.516.52c.35.35.738.67 1.13.972.414.32.839.628 1.312.856l.044.019-.03.013c-.189.081-.377.164-.56.255a3.93 3.93 0 0 0-.673.442c-.181.142-.32.34-.435.534a1.873 1.873 0 0 0-.238.794c-.047.53.101 1.045.317 1.524.194.428.463.812.754 1.18.274.349.572.69.9.99.496.454.99.906 1.522 1.32.583.451 1.16.913 1.756 1.35.534.391 1.062.79 1.61 1.162.554.377 1.11.755 1.676 1.116.58.373 1.159.747 1.757 1.087.629.358 1.269.69 1.913 1.017.59.301 1.16.637 1.727.981.263.16.528.314.8.455.32.166.64.318.966.468.633.294 1.276.575 1.922.84.616.252 1.243.446 1.894.586.196.043.392.086.589.127a3.6 3.6 0 0 0-.93.65c-.34.34-.475.809-.501 1.277-.014.25.044.511.105.752.067.264.19.52.31.766.2.405.457.788.73 1.148.223.294.447.583.694.856.465.513.938 1.017 1.452 1.48.477.428 1.067.804 1.686.976.36.1.748.06 1.1-.047.354-.108.662-.292.949-.519.394-.31.695-.696.996-1.092a4.36 4.36 0 0 0 .296-.453c.068.718.126 1.436.184 2.153.119 1.431.291 2.853.474 4.277.048.37.097.74.148 1.111.047.342.083.691.167 1.028.08.322.194.637.45.867.175.158.393.26.625.301.31.056.607.019.912-.039a6.335 6.335 0 0 0 1.36-.43c.62-.269 1.227-.565 1.772-.966a51.5 51.5 0 0 0 1.788-1.402 15.907 15.907 0 0 0 1.475-1.338c.502-.52 1-1.041 1.532-1.53.51-.472 1.038-.922 1.519-1.425.372-.391.6-.864.795-1.36.312-.799-.21-1.639-.783-2.166zm-10.258-8.883c.156-.572.308-1.144.469-1.715.139-.49.306-.968.486-1.444a4.36 4.36 0 0 1 .365-.716c.027-.03.055-.058.085-.085.057-.04.116-.075.178-.107a2.05 2.05 0 0 1 .29-.077c.172-.014.34-.013.511.002.166.029.324.071.482.13.213.102.409.223.599.362.335.276.627.586.898.924.382.526.75 1.06 1.113 1.598.164.244.336.49.48.744.14.249.27.496.387.755.027.072.05.144.07.219v.115a1.915 1.915 0 0 1-.06.226 2.14 2.14 0 0 1-.091.154c-.148.17-.313.32-.483.469a9.29 9.29 0 0 1-.369.263c-.172.116-.369.202-.555.294-.354.178-.718.34-1.082.498-.44.173-.888.335-1.34.476a11.09 11.09 0 0 1-.612.175l-.046.012a8.314 8.314 0 0 0-.114-.775 3.6 3.6 0 0 0-.2-.651 3.457 3.457 0 0 0-.421-.782c-.295-.394-.64-.765-1.065-1.002.009-.02.019-.04.025-.062zm-4.849-25.65l.061.047-.07-.054a.164.164 0 0 0 .01.007zM23.22 7.286a1.66 1.66 0 0 1 .007-.075 7.97 7.97 0 0 1 .169-.75c.083-.297.156-.599.253-.892.121-.36.255-.717.385-1.074.273.148.53.325.779.511.197.17.365.359.53.558.156.21.31.424.431.656.131.25.254.501.369.76a9.6 9.6 0 0 1 .387 1.231c.09.379.151.765.207 1.15-.157.063-.31.137-.456.223-.486.284-.922.646-1.356 1.003a12.54 12.54 0 0 0-.397-.989 10.244 10.244 0 0 0-.438-.85 6.47 6.47 0 0 0-.568-.858 10.039 10.039 0 0 0-.346-.418.636.636 0 0 0 .044-.187zm-.26 2.08c.181.34.35.681.505 1.034.1.255.196.511.285.77.044.127.08.26.124.391a6.201 6.201 0 0 0-.252.295c-.293.367-.568.75-.84 1.135a16.883 16.883 0 0 0-.498-.449 6.455 6.455 0 0 0-.615-.485 19.54 19.54 0 0 0-.632-.41 30.772 30.772 0 0 0-1.254-.733 12.133 12.133 0 0 1-.058-.67c-.013-.265-.041-.534-.041-.8.001-.254-.007-.509.01-.761.015-.238.038-.471.065-.706a6.49 6.49 0 0 1 .234-1.026l.075.006c.177.034.345.081.514.143.203.09.404.192.59.31.156.1.305.203.453.313.13.114.258.228.382.35.131.133.252.272.374.413.212.28.412.57.578.88zm-10.993 6.353c-.016-.029-.036-.056-.053-.085a.53.53 0 0 0 .055-.247c-.019-.613-.059-1.227-.096-1.84a16.237 16.237 0 0 1-.02-.76 5.003 5.003 0 0 1 .904.555c.43.382.82.8 1.187 1.241l.227.315c.087.12.159.25.238.374.151.241.266.508.387.765.09.221.175.442.255.668.082.226.142.463.2.696.062.25.118.499.182.747.028.11.056.217.092.324.022.066.05.122.08.176-.328.416-.665.823-1.076 1.163a4.83 4.83 0 0 1-.794.445c-.036.014-.074.024-.11.037a9.923 9.923 0 0 0-.244-.92 51.468 51.468 0 0 0-.6-1.784c-.224-.642-.479-1.276-.814-1.87zm.496 4.873l-.12.02c-.242.044-.478.075-.713.151a3.924 3.924 0 0 0-.43.171l-.036-.036a22.153 22.153 0 0 1-.34-.352 7.584 7.584 0 0 0-.625-.57c-.247-.205-.503-.398-.758-.594a17.731 17.731 0 0 0-.912-.665 5.915 5.915 0 0 0-1.086-.57c-.11-.853-.185-1.719-.092-2.575a5.83 5.83 0 0 1 .358-1.266 52.538 52.538 0 0 1 .31-.76l.03.011c.085.041.17.081.256.12.273.13.522.302.766.477.239.186.477.374.691.588.127.127.262.25.38.384.154.18.31.355.457.539.309.415.548.867.756 1.34.181.442.333.897.479 1.352.106.334.221.669.318 1.006.098.334.198.666.268 1.006.016.073.03.148.043.223zm3.118-5.483c-.06-.133-.137-.258-.205-.385-.127-.236-.292-.454-.448-.67-.334-.463-.73-.875-1.132-1.278a4.16 4.16 0 0 0-.6-.491c-.066-.044-.132-.084-.197-.126a.47.47 0 0 0 .006-.085 23.791 23.791 0 0 1-.025-1.694c.01-.342.024-.686.054-1.029a3.12 3.12 0 0 1 .635-.025c.317.055.624.157.924.275.328.15.654.307.972.478-.099.017-.198.033-.296.056a2.22 2.22 0 0 0-.463.164l-.045.035a.439.439 0 0 0-.16.16.437.437 0 0 0-.09.267c.01.177.073.35.126.52.083.258.161.518.255.775a5.975 5.975 0 0 0 1.039 1.815c.325.413.68.8 1.04 1.182.366.386.772.736 1.183 1.073.13.108.256.22.384.328-.043.007-.087.013-.13.021-.172.035-.34.095-.505.154-.36.127-.672.305-.966.545a5.373 5.373 0 0 0-.533.508c-.036-.19-.071-.378-.112-.567a7.939 7.939 0 0 0-.53-1.616l-.18-.39zm2.56.017c-.582-.521-1.086-1.12-1.573-1.728a6.453 6.453 0 0 1-.743-1.233c-.108-.274-.191-.554-.276-.835-.03-.1-.06-.202-.088-.303.15-.034.302-.06.456-.086.39-.045.776-.074 1.17-.033.314.05.631.128.932.232.122.043.248.08.368.13l.3.126c.23.112.452.228.674.353.207.116.41.24.613.362.408.248.806.506 1.192.787.247.208.485.423.714.651.107.107.209.217.31.327-.018.031-.04.06-.058.091-.502.633-1.01 1.266-1.64 1.775a4.582 4.582 0 0 1-.72.427 3.66 3.66 0 0 1-.322.098c-.438-.378-.878-.756-1.31-1.141zm1.491-12.488l-.015.035.09-.213c.06.02.121.043.18.066.405.193.787.45 1.147.72.354.311.671.665.97 1.03.09.123.172.25.25.38.104.175.204.363.363.493-.04.148-.08.295-.115.443-.08.345-.164.69-.23 1.038-.071-.056-.142-.113-.215-.168a2.911 2.911 0 0 0-.343-.224 7.01 7.01 0 0 0-.83-.419 3.182 3.182 0 0 0-1.169-.244.964.964 0 0 0-.434.094c-.11-.11-.233-.21-.346-.312-.07-.063-.137-.127-.205-.19.27-.853.556-1.702.902-2.529zm-1.397 3.42c.094.078.19.157.281.238.092.082.177.171.28.24l-.015.137c-.023.186-.041.37-.064.555-.05.41-.085.82-.09 1.234-.01.65.022 1.298.077 1.946-.12-.047-.236-.098-.358-.14a6.015 6.015 0 0 0-.766-.212.546.546 0 0 0-.021-.146c-.177-.587-.34-1.176-.514-1.763-.076-.26-.161-.521-.223-.784-.063-.276-.117-.55-.165-.828-.04-.315-.074-.631-.1-.949-.013-.15-.022-.3-.032-.45A7.066 7.066 0 0 0 16.514 5c.121.028.238.068.354.112.291.142.568.3.83.49.183.147.357.304.537.455zm-2.554-4.15c.078-.24.152-.485.235-.725.151.042.3.092.445.148.216.103.41.234.602.374.223.182.438.369.633.58.206.223.375.493.61.69-.168.477-.321.96-.47 1.444-.068-.039-.134-.08-.204-.117-.356-.192-.762-.33-1.17-.33-.071 0-.143.004-.215.013-.042.006-.078.013-.115.02-.1-.17-.225-.327-.342-.484a5.618 5.618 0 0 0-.374-.445c.118-.39.238-.78.365-1.168zM12.26 1.41l-.006.045.006-.045zm-.022.166l.003-.022c-.005.044-.01.088-.017.13l.014-.108zm-.25 1.457c.068-.37.14-.74.199-1.112l.056.024c.157.068.316.136.466.217.294.158.579.331.851.524.334.287.627.616.903.96.162.219.312.444.438.686l.205.39c.068.132.127.268.197.4a.492.492 0 0 0 .142.159 8.213 8.213 0 0 0 0 .577c.014.289.026.58.064.87.043.328.078.663.158.987.117.48.248.957.384 1.432a8.754 8.754 0 0 0-.326-.167c-.272-.136-.543-.275-.824-.39a5.581 5.581 0 0 0-.557-.191.949.949 0 0 0-.022-.457 2.048 2.048 0 0 0-.233-.516c-.16-.25-.3-.515-.457-.77-.352-.573-.792-1.097-1.25-1.59a7.121 7.121 0 0 0-.631-.598c.071-.48.148-.958.237-1.435zM7.555 5.568c.005-.304.028-.608.044-.911l.02-.395c.093-.01.186-.019.28-.027.165-.014.332.002.496.013.164.025.327.052.49.082.295.056.591.151.87.264.203.09.4.19.594.296.163.088.314.197.463.307.486.413.917.869 1.313 1.366.186.259.358.52.514.798.138.246.27.5.389.758.021.057.04.115.055.174-.118.015-.235.03-.352.049-.19.032-.386.07-.525.219-.156.167-.185.365-.215.58-.066.508-.11 1.025-.104 1.538.003.304.015.608.024.912-.052-.021-.105-.045-.158-.065-.14-.052-.285-.1-.43-.1-.06 0-.12.012-.18.033-.074-.11-.163-.213-.236-.314-.166-.23-.323-.465-.489-.694a10.895 10.895 0 0 0-1.08-1.282c-.41-.415-.867-.775-1.33-1.13-.124-.096-.252-.19-.38-.28v-.016c-.042-.418-.06-.839-.08-1.259-.017-.304.002-.612.007-.916zm-4.75 2.306a13.39 13.39 0 0 1-.043-.48l-.017-.27c.045-.011.09-.02.137-.029.328-.03.648.004.973.046.268.041.532.09.795.163a6.5 6.5 0 0 1 .765.272c.34.159.676.32 1.007.496.048.025.092.057.139.084.006.007.01.015.018.022a.615.615 0 0 0 .275.157c.16.107.315.22.47.335.317.258.644.514.936.8.323.313.624.642.904.992.23.304.446.616.655.935.103.158.203.318.306.475.066.1.137.2.216.292a.587.587 0 0 0 .196.146l.021.01a.576.576 0 0 0 .168.053 9.79 9.79 0 0 0-.019 1.206l.033.573a9.18 9.18 0 0 0-1.363-1.136 5.163 5.163 0 0 0-1.03-.53c-.044-.015-.086-.032-.129-.048-.153-.06-.3-.087-.463-.107a1.031 1.031 0 0 0-.202.032.582.582 0 0 0-.28.179 1.01 1.01 0 0 0-.16.245c-.08.159-.149.324-.216.49a.804.804 0 0 0-.305-.123 7.993 7.993 0 0 1-.402-.1c-.276-.075-.545-.16-.824-.222-.304-.065-.619-.09-.928-.124-.137-.015-.275-.025-.412-.038-.255-.852-.527-1.7-.784-2.553a9.822 9.822 0 0 1-.25-1.106c-.067-.38-.13-.758-.187-1.137zm-.166 8.424a9.293 9.293 0 0 1-.52-.627c-.286-.424-.566-.855-.778-1.32a4.538 4.538 0 0 1-.142-.43c.039-.022.079-.042.12-.061a7.577 7.577 0 0 1 1.228-.325 6.58 6.58 0 0 1 .77-.052c.26-.002.516.025.774.054.445.063.895.123 1.322.27.213.073.423.157.636.234.099.037.197.072.296.107.028.01.058.021.088.028.045.01.08.014.112.016-.024.068-.05.136-.073.205-.085.26-.14.53-.179.8a5.306 5.306 0 0 0-.066.862c.005.225-.004.456.016.681.02.242.03.486.06.726l.047.36c-.051-.01-.1-.025-.152-.034a5.64 5.64 0 0 0-.95-.073c-.302 0-.606.017-.91.04-.052.003-.105.014-.158.02a.952.952 0 0 0-.18-.162l-.06-.044a8.887 8.887 0 0 1-.914-.859c-.13-.139-.26-.277-.387-.416zm3.168 6.546a14.797 14.797 0 0 1-1.548-1.414c-.114-.117-.235-.232-.34-.357l-.343-.42c-.166-.23-.331-.46-.49-.695a6.8 6.8 0 0 1-.313-.496c.021-.019.043-.036.065-.054.226-.167.463-.31.718-.427.257-.093.517-.152.787-.195.515-.048 1.025-.09 1.54-.035.421.066.828.178 1.223.335.406.183.775.42 1.133.68.674.527 1.342 1.066 1.879 1.736l.08.109-.025.021c-.198.171-.383.35-.566.537-.35.36-.708.713-1.097 1.033a6.61 6.61 0 0 1-.821.506c-.026.002-.05-.002-.076.003a2.152 2.152 0 0 1-.048.009.56.56 0 0 1-.064.002 3.337 3.337 0 0 1-.557-.177 6.076 6.076 0 0 1-1.137-.701zm18.174 15.995c-.292-.069-.588-.134-.872-.23a21.175 21.175 0 0 1-.882-.322 61.412 61.412 0 0 1-1.635-.715c-.32-.146-.63-.306-.943-.469-.281-.147-.552-.325-.823-.492a25.093 25.093 0 0 0-1.726-.964 72.644 72.644 0 0 1-.999-.52c-.29-.151-.574-.32-.86-.485-.403-.229-.794-.483-1.183-.733a98.204 98.204 0 0 1-1.327-.868 50.63 50.63 0 0 1-2.337-1.68l.02.016-.657-.508a47.213 47.213 0 0 1-1.39-1.134c-.204-.171-.396-.356-.591-.537-.384-.36-.75-.732-1.081-1.14a5.442 5.442 0 0 1-.553-.894 2.826 2.826 0 0 1-.136-.464 2.118 2.118 0 0 1-.004-.201 1.82 1.82 0 0 1 .02-.071.892.892 0 0 1 .049-.085c.045-.048.092-.092.142-.134.357-.243.76-.412 1.15-.593.353-.166.706-.331 1.052-.515.6-.32 1.136-.75 1.623-1.223.467-.456.891-.947 1.392-1.367.155-.11.316-.204.489-.285.133-.05.267-.093.406-.126.168-.037.34-.056.51-.088a7.682 7.682 0 0 0 1.11-.272 6.258 6.258 0 0 0 1.093-.507c.187-.108.355-.246.526-.378.17-.132.326-.282.476-.439.259-.27.487-.57.721-.861l.38-.478a5.53 5.53 0 0 1 .78-.805c.116-.08.235-.151.363-.213.169-.063.34-.115.515-.162.242-.064.495-.085.738-.144a4.195 4.195 0 0 0 1.38-.599c.41-.277.762-.617 1.082-.992.272-.318.535-.647.775-.99.497-.71.981-1.432 1.505-2.123l-.017.021.02-.024.067-.09a12.325 12.325 0 0 1 1.425-1.536c.394-.286.798-.56 1.24-.764.127-.048.254-.083.386-.108.13-.01.257-.01.386 0 .117.023.23.054.342.094.165.08.325.166.474.271.217.19.418.388.6.608.14.197.271.4.383.614.12.23.228.466.333.703.113.277.221.555.32.838.106.302.17.618.238.932.067.313.114.63.174.945.066.346.134.693.202 1.038.124.636.232 1.275.335 1.916.104.645.219 1.288.327 1.932.061.367.119.733.173 1.1l-.019-.149c.14 1.059.283 2.117.474 3.168.189 1.035.439 2.056.632 3.091.024.175.047.35.059.524.02.28.036.554.041.832.012.5.019 1 .033 1.499.015.524.014 1.044-.01 1.567-.022.45-.06.896-.11 1.343a10.64 10.64 0 0 1-.194.902 9.587 9.587 0 0 1-.276.848 5.24 5.24 0 0 1-.515.95 2.21 2.21 0 0 1-.102.113c-.087-.644-.172-1.289-.265-1.932-.054-.372-.107-.744-.162-1.115-.042-.3-.116-.599-.174-.896l-.234-1.197c-.05-.253-.124-.503-.185-.752-.096-.38-.19-.76-.287-1.14-.021-.088-.053-.174-.08-.26l-.224-.714a14.873 14.873 0 0 0-.505-1.363c-.207-.49-.396-1.021-.76-1.419a.594.594 0 0 0-.708-.09c-.237.137-.325.401-.27.66.06.284.221.55.342.813.1.215.195.432.29.65.105.274.223.547.313.827l.372 1.155c.086.265.143.54.212.81l.282 1.092c.07.278.115.563.172.843.083.41.165.82.25 1.231.051.258.083.522.122.782.05.318.101.637.147.957.077.552.156 1.105.232 1.658a.346.346 0 0 0 .032.1l-.246.106c-.173.071-.347.14-.52.209a62.88 62.88 0 0 0-1.297-2.962c-.12-.26-.272-.508-.408-.759-.135-.248-.287-.484-.436-.723-.295-.473-.615-.93-.92-1.396-.167-.26-.345-.51-.522-.763a.572.572 0 0 0-.462-.263.53.53 0 0 0-.14.019c-.263.072-.47.381-.37.655.054.152.117.314.2.457.078.132.161.26.246.39.166.246.343.488.515.73.143.202.294.4.432.606.155.23.322.456.46.698l.485.841c.05.087.089.183.132.274l.288.592c.263.543.5 1.096.744 1.647l.013.03.142.352-.138.09a6.923 6.923 0 0 0-.388.272c-.02-.008-.038-.019-.059-.025a8.495 8.495 0 0 1-.45-.163c-.428-.202-.827-.462-1.229-.708-.237-.146-.476-.291-.712-.44a309.2 309.2 0 0 1-1.66-1.051l-1.54-.987c-.25-.16-.495-.326-.741-.491-.21-.139-.408-.294-.608-.444a24.089 24.089 0 0 1-.76-.65c-.253-.227-.501-.455-.767-.668a.53.53 0 0 0-.365-.151.52.52 0 0 0-.45.782c.34.573.862 1.023 1.37 1.445.5.42 1.04.785 1.584 1.149.528.353 1.07.688 1.604 1.032.495.319.991.635 1.489.947a81.745 81.745 0 0 0 1.742 1.063c.144.083.292.155.442.223-.074.046-.15.09-.228.128-.21.077-.426.132-.646.17a4.038 4.038 0 0 1-.783-.024 32.1 32.1 0 0 1-1.674-.327zm6.595 5.532c-.061.167-.123.334-.188.5-.113.25-.238.493-.373.733-.117.211-.26.407-.405.6a4.44 4.44 0 0 1-.571.588 2.66 2.66 0 0 1-.314.188c-.095.034-.19.062-.29.082a.92.92 0 0 1-.064 0 2.284 2.284 0 0 1-.324-.093 3.308 3.308 0 0 1-.408-.215 7.912 7.912 0 0 1-.405-.276 17.318 17.318 0 0 1-1.126-1.05c-.18-.181-.351-.368-.52-.56a11.97 11.97 0 0 1-.423-.52 6.792 6.792 0 0 1-.658-1.113 3.22 3.22 0 0 1-.166-.572 2.186 2.186 0 0 1 0-.273c.013-.064.03-.126.05-.188a1.73 1.73 0 0 1 .077-.13c.082-.094.17-.178.266-.258.272-.192.565-.34.866-.482.323-.131.648-.258.986-.343.405-.1.82-.148 1.224-.25a.47.47 0 0 0 .207-.118 5.443 5.443 0 0 0 .606 1.894c.147.284.325.544.54.781.305.336.709.554 1.125.718.122.047.252.078.383.101a9.451 9.451 0 0 0-.095.256zm.931-1.556a3.19 3.19 0 0 1-.62.015 2.558 2.558 0 0 1-.43-.118 2.5 2.5 0 0 1-.35-.202 2.72 2.72 0 0 1-.32-.322 5.386 5.386 0 0 1-.503-.887 4.75 4.75 0 0 1-.27-.934 2.255 2.255 0 0 1-.003-.385c.026-.13.063-.258.11-.383.079-.165.176-.318.278-.468l.163-.135c.11-.08.22-.157.335-.232.126-.082.27-.146.406-.213.291-.14.589-.266.882-.403.147-.069.294-.14.439-.212.155-.077.305-.168.447-.268.048-.01.095-.02.143-.028a1.52 1.52 0 0 1 .192 0c.116.02.232.045.344.082.063.033.123.07.182.11.16.139.298.298.432.462.119.168.223.34.316.523.057.145.11.293.15.445.045.18.08.36.111.544.028.288.042.574.015.862a3.63 3.63 0 0 1-.17.61 2.82 2.82 0 0 1-.251.428c-.158.187-.328.36-.515.518a3.544 3.544 0 0 1-.591.343 4.79 4.79 0 0 1-.922.248zm11.712 4.613c-.09.205-.19.405-.317.592-.418.51-.914.959-1.385 1.418-.456.446-.886.915-1.32 1.382a18.202 18.202 0 0 1-1.493 1.46c-.477.403-.97.792-1.463 1.176-.138.099-.275.199-.414.297-.134.098-.281.18-.423.268-.253.16-.532.282-.806.406a6.561 6.561 0 0 1-1.404.395c-.116.01-.231.016-.348.013a2.886 2.886 0 0 1-.031-.007 5.494 5.494 0 0 1-.16-.621 33.913 33.913 0 0 1-.162-.82c-.084-.453-.159-.906-.239-1.358a87.675 87.675 0 0 1-.47-2.907c-.09-.767-.17-1.535-.252-2.304a190.2 190.2 0 0 0-.317-2.708l-.01-.06c.081-.017.161-.036.24-.058.25.93.485 1.864.716 2.798l.2.804c.056.226.129.447.194.671.061.215.128.428.195.642.03.098.062.196.097.295.068.194.13.401.256.568a.491.491 0 0 0 .552.224c.243-.067.431-.35.342-.602-.088-.25-.146-.513-.218-.77l-.18-.645a51.93 51.93 0 0 1-.387-1.476c-.243-.98-.489-1.958-.753-2.93a4.1 4.1 0 0 0 .223-.148c.662.652 1.314 1.314 1.958 1.984.259.268.512.543.78.802.336.325.667.659 1.032.95.133.106.255.18.43.18a.608.608 0 0 0 .43-1.039c-.597-.592-1.207-1.17-1.797-1.768a156.202 156.202 0 0 0-1.965-1.948c.03-.038.061-.074.09-.113.152-.206.274-.434.372-.672.077.033.155.063.234.095.366.16.727.329 1.097.48.375.154.752.302 1.13.452.595.257 1.182.54 1.755.845.606.323 1.168.735 1.722 1.141.324.258.633.528.938.81.194.18.39.355.589.531.217.191.445.37.637.589.05.073.096.148.136.227.024.069.044.136.06.206a3.764 3.764 0 0 1-.09.253z"/></defs></svg>